<?xml version="1.0" standalone="no"?>
<!DOCTYPE svg PUBLIC "-//W3C//DTD SVG 1.1//EN" "http://www.w3.org/Graphics/SVG/1.1/DTD/svg11.dtd" >
<svg xmlns="http://www.w3.org/2000/svg">
<metadata></metadata>
<defs>
<font id="halogenhairline_oblique" horiz-adv-x="1746" >
<font-face units-per-em="2048" ascent="1536" descent="-512" />
<missing-glyph horiz-adv-x="901" />
<glyph unicode="&#xfb01;" horiz-adv-x="1069" d="M854 0l147 1055h-618l-147 -1055h-21l147 1055h-143l4 20h142l2 10q20 111 47.5 183.5t63.5 115.5t79 61.5t94 18.5q37 0 78 -8t82 -20l-4 -23q-90 31 -156 31q-117 0 -175 -92t-89 -267l-2 -10h621l20 8l-152 -1083h-20zM1024 1204l35 246h20l-35 -246h-20z" />
<glyph unicode="&#xfb02;" horiz-adv-x="1028" d="M1036 1436q-76 14 -153.5 21t-130.5 7q-98 0 -161 -25.5t-102.5 -74.5t-62.5 -119.5t-39 -159.5l-2 -10h297l-4 -20h-295l-147 -1055h-21l147 1055h-143l4 20h142l2 10q20 113 49.5 190t75 123t110 66.5t152.5 20.5q57 0 132 -8.5t152 -20.5l21 8l-205 -1464h-20z" />
<glyph unicode="&#xfb03;" horiz-adv-x="1728" d="M1513 0l148 1055h-619l-147 -1055h-21l148 1055h-639l-147 -1055h-21l147 1055h-143l4 20h142l2 10q20 111 47.5 183.5t63.5 115.5t79 61.5t94 18.5q37 0 78 -8t82 -20l-4 -23q-90 31 -156 31q-117 0 -175 -92t-89 -267l-2 -10h639l2 10q20 111 48 183.5t64 115.5 t79 61.5t94 18.5q37 0 78 -8t81 -20l-4 -23q-90 31 -155 31q-117 0 -175.5 -92t-88.5 -267l-3 -10h621l21 8l-152 -1083h-21zM1683 1204l35 246h21l-35 -246h-21z" />
<glyph unicode="&#xfb04;" horiz-adv-x="1687" d="M1493 0l203 1436q-76 14 -154 21t-131 7q-98 0 -160.5 -25.5t-102.5 -74.5t-62.5 -119.5t-38.5 -159.5l-3 -10h297l-4 -20h-295l-147 -1055h-21l148 1055h-639l-147 -1055h-21l147 1055h-143l4 20h142l2 10q20 111 47.5 183.5t63.5 115.5t79 61.5t94 18.5q37 0 78 -8 t82 -20l-4 -23q-90 31 -156 31q-117 0 -175 -92t-89 -267l-2 -10h639l2 10q20 113 50 190t75 123t109.5 66.5t152.5 20.5q57 0 132 -8.5t153 -20.5l20 8l-205 -1464h-20z" />
<glyph horiz-adv-x="0" />
<glyph unicode="&#xd;" horiz-adv-x="901" />
<glyph horiz-adv-x="0" />
<glyph horiz-adv-x="0" />
<glyph unicode=" "  horiz-adv-x="901" />
<glyph unicode="&#x09;" horiz-adv-x="901" />
<glyph unicode="&#xa0;" horiz-adv-x="901" />
<glyph unicode="!" horiz-adv-x="495" d="M299 297l-41 -297h-20l41 297h20zM436 1434h25l-139 -963h-17z" />
<glyph unicode="&#x22;" horiz-adv-x="811" d="M444 1464q-6 -55 -15 -124.5t-19.5 -139.5t-19.5 -132t-17 -105h-19q4 43 12.5 105t17.5 132t19.5 139.5t18.5 124.5h22zM799 1464q-6 -55 -15.5 -124.5t-19.5 -139.5t-19.5 -132t-17.5 -105h-18q4 43 12 105t17.5 132t19.5 139.5t18 124.5h23z" />
<glyph unicode="#" horiz-adv-x="1738" d="M606 465h-407l6 20h407l166 519h-407l4 20h409l129 410h21l-131 -410h520l129 410h21l-132 -410h408l-4 -20h-410l-164 -519h408l-6 -20h-408l-129 -408h-20l129 408h-518l-129 -408h-21zM633 485h518l166 519h-520z" />
<glyph unicode="$" horiz-adv-x="1718" d="M180 127q147 -63 310 -99t350 -38l100 715q-125 6 -243.5 19t-211 46t-148.5 94.5t-56 165.5q0 94 38.5 163t102 117t145.5 77.5t167 47t167 23.5t146 6l20 133h20l-20 -133q184 -2 341 -33.5t273 -68.5l-8 -21q-117 37 -272.5 69t-335.5 34l-100 -719 q127 -8 248.5 -19.5t217 -41t153.5 -87t58 -157.5q0 -129 -72.5 -215t-186 -138.5t-253 -75t-272.5 -22.5l-18 -133h-21l19 133q-186 2 -352.5 38t-317.5 102zM1622 416q0 94 -56.5 148t-149.5 83t-212 40t-243 18l-101 -715q129 0 264.5 21.5t246 70.5t181 131t70.5 203z M301 1034q0 -98 54.5 -156.5t144.5 -90t205.5 -44t238.5 -18.5l100 719q-63 0 -142 -6t-162 -22.5t-161.5 -44.5t-140 -74t-99.5 -110.5t-38 -152.5z" />
<glyph unicode="%" horiz-adv-x="2074" d="M709 692q109 0 193.5 29t146 80t98.5 119.5t49 148.5q10 80 -7.5 147.5t-65.5 118.5t-124.5 80t-185.5 29t-195 -29t-147 -80t-98 -118.5t-47 -147.5q-12 -80 5 -148.5t65 -119.5t126 -80t187 -29zM305 1069q12 84 50 155.5t102.5 125t154.5 84t205 30.5q113 0 195 -30.5 t131 -84t67.5 -125t6.5 -155.5t-51.5 -156.5t-104 -126t-154.5 -84t-202 -30.5q-115 0 -196 30.5t-130 84t-67.5 126t-6.5 156.5zM430 -35q352 381 700.5 758t698.5 760l16 -15q-352 -381 -700 -757.5t-699 -759.5zM1081 367q-10 -80 7.5 -148.5t65.5 -120t126 -80 t186 -28.5q109 0 194 28.5t146.5 80t98.5 120t47 148.5q12 80 -5.5 147.5t-65.5 118.5t-125 79.5t-185 28.5q-109 0 -195 -28.5t-147.5 -79.5t-98.5 -118.5t-49 -147.5zM1061 367q12 84 51 155.5t103.5 124.5t154.5 84t205 31q113 0 193.5 -31t130 -84t68 -124.5t5.5 -155.5 q-12 -84 -50 -157t-102.5 -126t-154.5 -84t-203 -31q-115 0 -195.5 31t-131 84t-68.5 126t-6 157z" />
<glyph unicode="&#x26;" horiz-adv-x="2066" d="M1759 731l2 17h297l-2 -21h-276q-55 -381 -308 -569.5t-681 -188.5q-98 0 -207 15.5t-198 54.5t-147.5 107.5t-58.5 175.5q0 104 43 176.5t130 122t216 77t301 39.5q-287 14 -421 84t-134 217q0 125 68 207t177.5 131t249.5 68.5t286 19.5q100 0 198.5 -8t184.5 -20.5 t157.5 -27.5t120.5 -28l-10 -20q-47 12 -117.5 27.5t-157 27.5t-183.5 20.5t-195 8.5q-141 0 -277.5 -19.5t-243 -65.5t-172 -123t-65.5 -194q0 -86 47 -142t146.5 -90t253 -48t366.5 -14l-2 -21q-236 -2 -413 -21.5t-296 -64.5t-178 -122t-59 -193q0 -102 56 -168t143 -103 t191.5 -51t201.5 -14q418 0 668.5 185t297.5 556z" />
<glyph unicode="'" horiz-adv-x="456" d="M444 1464q-6 -55 -15 -124.5t-19.5 -139.5t-19.5 -132t-17 -105h-19q4 43 12.5 105t17.5 132t19.5 139.5t18.5 124.5h22z" />
<glyph unicode="(" horiz-adv-x="786" d="M582 -410q-72 80 -128.5 185.5t-96.5 225.5t-61.5 248t-21.5 255q0 172 47.5 344t129 332.5t192.5 302t240 250.5l12 -15q-127 -106 -236.5 -245.5t-190.5 -298t-127 -329.5t-46 -339q0 -125 20.5 -252t60.5 -246t95 -222t127 -181z" />
<glyph unicode=")" horiz-adv-x="786" d="M78 -395q127 106 236.5 245.5t190.5 298t127 328.5t46 340q0 125 -20.5 252t-60.5 246t-96.5 222t-125.5 181l16 15q72 -80 129.5 -185.5t97 -225.5t60 -249t20.5 -254q0 -172 -47 -344t-129 -332.5t-192.5 -302t-239.5 -250.5z" />
<glyph unicode="*" horiz-adv-x="1443" d="M938 1464q-10 -80 -21.5 -156.5t-22.5 -153.5t-24.5 -158t-27.5 -173q84 47 159.5 89t147.5 81t143.5 77t149.5 79l6 -21q-74 -41 -145.5 -78.5t-144.5 -76.5t-149.5 -78t-162.5 -82q147 -86 267 -159.5t247 -153.5l-12 -21q-66 39 -126.5 77t-122 78t-126 82t-133.5 89 q-10 -92 -20.5 -173t-21 -158t-20.5 -153.5t-22 -156.5h-23q10 80 21.5 156.5t22.5 153.5t23.5 158t28.5 173q-86 -47 -160.5 -89t-147 -82t-143.5 -78t-147 -77l-8 21q74 39 145.5 76.5t144.5 76.5t150.5 78t163.5 82q-76 43 -141 82t-127.5 78t-123 76.5t-124.5 78.5 l15 21q129 -80 245.5 -155.5t259.5 -170.5q10 92 20.5 173t21 158t20.5 153.5t22 156.5h23z" />
<glyph unicode="+" horiz-adv-x="1484" d="M809 547l72 497h20l-72 -497h496l-2 -21h-496l-69 -495h-21l70 495h-498l2 21h498z" />
<glyph unicode="," horiz-adv-x="491" d="M291 297q16 -90 -6.5 -228.5t-71.5 -283.5h-18q20 63 37.5 131t28.5 135.5t13 130t-8 115.5h25z" />
<glyph unicode="-" horiz-adv-x="1484" d="M352 690h973l-2 -20h-973z" />
<glyph unicode="." horiz-adv-x="491" d="M297 297l-41 -297h-20l40 297h21z" />
<glyph unicode="/" horiz-adv-x="749" d="M864 1464l-755 -1495h-21l756 1495h20z" />
<glyph unicode="0" horiz-adv-x="1986" d="M1192 1464q193 0 338 -47t240.5 -132t143.5 -200.5t48 -250.5q0 -209 -82 -370t-217 -271.5t-311 -167t-365 -56.5q-195 0 -337 47t-237.5 131t-141.5 199t-46 250q0 205 75 365.5t205 272.5t307 171t380 59zM246 602q0 -131 46 -243.5t138 -194.5t232.5 -128t328.5 -46 q197 0 370 60.5t302 171t204 265t75 342.5q0 131 -47.5 244t-141.5 196t-236.5 129t-330.5 46q-203 0 -376 -60.5t-298 -171t-195.5 -266.5t-70.5 -344z" />
<glyph unicode="1" horiz-adv-x="1474" d="M115 20h614l197 1391l-631 -172l-4 21l639 174h18l-198 -1414h614l-2 -20h-1249z" />
<glyph unicode="2" horiz-adv-x="1740" d="M164 0l2 20q178 57 360.5 129t350 154t314 174t255 191.5t171 205t62.5 213.5q0 78 -34.5 135.5t-92 97.5t-131 64.5t-151.5 38t-154 17.5t-137 4q-154 0 -305.5 -20.5t-323.5 -63.5l-2 20q172 43 325.5 63.5t307.5 20.5q63 0 141 -4t158 -18.5t155.5 -39t134 -66.5 t94.5 -101t36 -141q0 -115 -64.5 -225.5t-175 -213t-258 -194.5t-311.5 -173t-336 -148.5t-334 -119.5h1368l-2 -20h-1423z" />
<glyph unicode="3" horiz-adv-x="1716" d="M350 1360l-2 20q170 43 323.5 63.5t315.5 20.5q61 0 138 -3t157 -13t155.5 -30.5t136 -56.5t96.5 -89t36 -129q0 -92 -43 -164t-136 -124t-238.5 -85t-350.5 -49q172 -6 303 -23.5t219 -52.5t133 -93t45 -144q0 -125 -62.5 -209t-166.5 -135.5t-237.5 -73t-274.5 -21.5 q-113 0 -224.5 12.5t-211 31t-181 43t-133.5 48.5l11 19q51 -25 131 -48.5t178 -43t208.5 -30.5t223.5 -11q137 0 266 20.5t229.5 68.5t162 128t61.5 199q0 102 -68.5 161.5t-203 90t-332 40t-455.5 9.5h-59l4 20h59q303 0 517 24.5t348.5 76t196 129t61.5 184.5 q0 72 -36 123t-93.5 83.5t-132 52t-152.5 30t-153 12.5t-134 2q-160 0 -311.5 -20.5t-323.5 -63.5z" />
<glyph unicode="4" horiz-adv-x="1742" d="M1452 338l-47 -338h-21l48 338h-1252l2 18l1405 1078h19l-152 -1076h184l-4 -20h-182zM1434 358l147 1047l-981 -754l-383 -293h1217z" />
<glyph unicode="5" d="M147 100l11 19q49 -23 128 -46.5t174 -42t204.5 -29.5t220.5 -11q145 0 284.5 24.5t248 81t175 150.5t66.5 233q0 98 -50 172t-136.5 123t-203 73.5t-249.5 24.5q-152 0 -323 -31.5t-347 -95.5l127 689h1282l-2 -21h-1261l-119 -637q162 59 326.5 88t318.5 29 q137 0 257 -25.5t209 -76t140 -128t51 -182.5q0 -145 -67.5 -243.5t-180 -158t-256 -85t-292.5 -25.5q-113 0 -222.5 11.5t-207 30t-176.5 41.5t-130 48z" />
<glyph unicode="6" horiz-adv-x="1794" d="M233 537q23 125 108 220t207 159.5t265 96t283 31.5q127 0 242.5 -27.5t204.5 -82.5t142.5 -140t53.5 -200q0 -113 -38 -203t-103.5 -159.5t-151.5 -120t-182.5 -82t-195.5 -46t-191 -14.5q-176 0 -301 39t-205 109.5t-118 171t-38 225.5q0 221 64.5 396t187.5 297 t301 186.5t406 64.5q143 0 294.5 -17.5t288.5 -60.5l-8 -20q-137 43 -287.5 60.5t-292.5 17.5q-180 0 -345 -46t-291.5 -151.5t-208 -278.5t-91.5 -425zM881 -10q147 0 295.5 35.5t268.5 109.5t195.5 186.5t75.5 268.5q0 111 -52 192.5t-138 135t-200 80t-236 26.5 q-129 0 -269.5 -30.5t-261.5 -92t-207 -156t-104 -221.5q-2 -16 -3 -32.5t-1 -32.5q0 -84 31.5 -167t106.5 -150.5t197 -109.5t302 -42z" />
<glyph unicode="7" horiz-adv-x="1640" d="M506 0h-27l1221 1413h-1430l2 21h1457l-3 -19z" />
<glyph unicode="8" horiz-adv-x="1794" d="M895 -10q147 0 290.5 20.5t256 67.5t182.5 125t70 192q0 162 -183.5 239t-515.5 77q-184 0 -331.5 -22.5t-251 -71t-157.5 -120t-54 -169.5q0 -96 58 -161t155.5 -103.5t222.5 -56t258 -17.5zM999 731q174 0 314.5 23.5t239 69.5t151.5 115t53 159q0 100 -60.5 166.5 t-154.5 106.5t-212 56.5t-230 16.5q-127 0 -262.5 -19.5t-248 -66.5t-184 -126t-71.5 -198q0 -74 45 -130t131 -94t209.5 -58.5t279.5 -20.5zM1102 1464q117 0 236.5 -17t218 -59t160 -112t61.5 -176q0 -164 -156 -258t-428 -121q248 -20 384 -99t136 -225 q0 -123 -71.5 -204.5t-187.5 -131t-263.5 -71t-298.5 -21.5q-135 0 -264 17.5t-228.5 59.5t-160 109.5t-60.5 170.5q0 178 164 275t455 120q-229 23 -357.5 102.5t-128.5 208.5q0 125 75 209t189.5 133t255 69.5t269.5 20.5z" />
<glyph unicode="9" horiz-adv-x="1794" d="M1763 897q-23 -127 -107.5 -221t-206.5 -158.5t-265.5 -96.5t-282.5 -32q-127 0 -242.5 27.5t-204.5 83t-142.5 140.5t-53.5 200q0 170 83 288.5t210 193.5t278.5 108.5t290.5 33.5q174 0 300 -39t206 -109.5t118 -171t38 -224.5q0 -221 -64.5 -396.5t-187.5 -297.5 t-301 -186.5t-406 -64.5q-143 0 -294.5 17.5t-288.5 60.5l8 21q137 -43 287.5 -60.5t291.5 -17.5q180 0 345 46t292 151.5t208 278.5t91 425zM1116 1444q-147 0 -295.5 -36t-268.5 -109.5t-195.5 -186.5t-75.5 -268q0 -111 52 -193t138 -135t199.5 -79.5t236.5 -26.5 q129 0 269.5 30.5t261.5 92t207 155.5t104 221q2 16 3 32.5t1 33.5q0 82 -31.5 166t-106.5 151.5t-197 109.5t-302 42z" />
<glyph unicode=":" horiz-adv-x="491" d="M309 379l-41 -297h-20l41 297h20zM391 963l-41 -297h-20l41 297h20z" />
<glyph unicode=";" horiz-adv-x="491" d="M391 963l-43 -297h-20l43 297h20zM291 297q16 -90 -6.5 -228.5t-71.5 -283.5h-18q20 63 37.5 131t28.5 135.5t13 130t-8 115.5h25z" />
<glyph unicode="&#x3c;" horiz-adv-x="1269" d="M1227 1065l-910 -391l799 -391l-4 -23l-823 404l2 20l938 403z" />
<glyph unicode="=" horiz-adv-x="1484" d="M1290 301l-2 -20h-1014l2 20h1014zM1360 793l-2 -21h-1014l2 21h1014z" />
<glyph unicode="&#x3e;" horiz-adv-x="1269" d="M348 1087l823 -403l-2 -20l-938 -404l5 23l907 391l-799 391z" />
<glyph unicode="?" horiz-adv-x="1681" d="M848 471q29 92 100.5 146.5t162.5 91t188.5 65.5t178.5 70t133 103.5t52 166.5q0 72 -35 125t-91 89t-130 58.5t-151.5 36t-153.5 17.5t-139 4q-156 0 -307.5 -20.5t-323.5 -63.5l-4 20q172 43 325.5 63.5t311.5 20.5q66 0 144.5 -4t158.5 -17t154.5 -37t133 -62.5 t93 -95t34.5 -132.5q0 -111 -51 -175t-132 -106t-177 -71t-187.5 -63.5t-165 -87t-106.5 -142.5h-16zM842 297l-43 -297h-21l43 297h21z" />
<glyph unicode="@" horiz-adv-x="2127" d="M1389 -221q-166 -49 -365 -49q-195 0 -346.5 47t-255 133t-156.5 206t-53 267q0 184 71.5 339t204 266.5t321.5 174t423 62.5q184 0 336.5 -41t262.5 -117t169 -184.5t59 -245.5q0 -135 -45 -240.5t-113.5 -177.5t-148.5 -108.5t-149 -36.5q-74 0 -112 46t-17 138h-2 q-23 -16 -68 -49t-109.5 -64.5t-146.5 -55t-176 -23.5q-190 0 -283.5 87t-93.5 228q0 119 49 213t132 157.5t193.5 97.5t233.5 34q68 0 123 -11.5t102.5 -29t86 -38t73.5 -36.5l2 2l27 80h12l-133 -584q-16 -78 7.5 -125t99.5 -47q68 0 144.5 36t141 104.5t107.5 169 t43 231.5t-58.5 236.5t-165 179t-256 113.5t-329.5 40q-229 0 -413.5 -60.5t-314.5 -169t-200 -259t-70 -330.5q0 -141 52.5 -259t154 -201t249 -129t337.5 -46t360 49zM975 86q86 0 162.5 20.5t141 50t115 64.5t85.5 64l104 460q-51 27 -96 49.5t-91 37t-93.5 22.5 t-102.5 8q-119 0 -224.5 -31.5t-185 -92t-127 -149.5t-47.5 -204q0 -135 89.5 -217t269.5 -82z" />
<glyph unicode="A" horiz-adv-x="2056" d="M2025 0h-24l-232 420h-1366l-348 -420h-24l1188 1434h20zM565 614l-145 -174h1337l-94 174l-436 799z" />
<glyph unicode="B" horiz-adv-x="2066" d="M174 0l201 1434h1134q109 0 197 -16.5t150.5 -54.5t96.5 -97.5t34 -145.5q0 -104 -34 -173.5t-93.5 -112.5t-141.5 -64.5t-180 -30.5q96 -4 179 -18t144.5 -47t96.5 -88.5t35 -141.5q0 -94 -32 -175t-101.5 -141t-178 -94t-264.5 -34h-1243zM297 727l-100 -707h1222 q150 0 254.5 33t171 89.5t97 133t30.5 166.5q0 100 -50 157.5t-134 85.5t-195.5 35t-236.5 7h-1059zM1507 1413h-1114l-94 -665h969q143 0 269 8t221 44t150.5 110.5t55.5 207.5q0 80 -31.5 136.5t-92 92t-145 51t-188.5 15.5z" />
<glyph unicode="C" horiz-adv-x="2031" d="M1931 84q-37 -12 -104.5 -31.5t-162.5 -38t-215 -32t-263 -13.5q-254 0 -436.5 50.5t-299 137.5t-171 206.5t-54.5 261.5q0 174 67.5 327.5t210 267t363.5 179t529 65.5q143 0 260 -13t207 -31.5t151.5 -38t93.5 -31.5l-8 -19q-33 12 -93 30.5t-149.5 37t-205 32 t-258.5 13.5q-301 0 -518.5 -64.5t-357.5 -175t-205.5 -259t-65.5 -316.5q0 -137 53 -254t168 -203t293 -134t428 -48q143 0 263 13t214 31.5t160.5 37t101.5 30.5z" />
<glyph unicode="D" horiz-adv-x="2066" d="M174 0l201 1434h702q254 0 437.5 -45.5t300 -128t172 -198.5t55.5 -255q0 -176 -66.5 -323.5t-208 -255t-361.5 -168t-529 -60.5h-703zM393 1413l-196 -1393h682q303 0 519 58.5t354 163t203.5 249t65.5 314.5q0 135 -54 247.5t-169 192.5t-294 124t-429 44h-682z" />
<glyph unicode="E" horiz-adv-x="1902" d="M174 0l201 1434h1554l-2 -21h-1534l-94 -665h1411l-2 -21h-1411l-100 -707h1575l-3 -20h-1595z" />
<glyph unicode="F" horiz-adv-x="1820" d="M297 727l-102 -727h-21l201 1434h1554l-2 -21h-1534l-94 -665h1411l-2 -21h-1411z" />
<glyph unicode="G" horiz-adv-x="2236" d="M1206 713l2 20h977l-8 -59q-29 -199 -125 -333t-240.5 -217t-326.5 -119t-383 -36q-221 0 -386 50.5t-273.5 137.5t-163 207.5t-54.5 262.5q0 174 67.5 326.5t210 266t363.5 179t529 65.5q143 0 260 -13t206 -31.5t151.5 -38t94.5 -31.5l-8 -19q-33 12 -93 30.5 t-149.5 37t-205 32t-258.5 13.5q-301 0 -518.5 -63.5t-357.5 -174t-205.5 -259t-65.5 -316.5q0 -137 53 -255t159.5 -204t268.5 -134t377 -48q197 0 375 34.5t319 114.5t235.5 211t123.5 324l6 39h-957z" />
<glyph unicode="H" horiz-adv-x="2027" d="M1833 0l102 727h-1638l-102 -727h-21l201 1434h20l-96 -686h1638l97 686h20l-201 -1434h-20z" />
<glyph unicode="I" horiz-adv-x="368" d="M375 1434h20l-200 -1434h-21z" />
<glyph unicode="J" horiz-adv-x="1832" d="M92 104q57 -18 127 -38.5t155 -37t189.5 -27.5t231.5 -11q420 0 651 138t274 445l121 861h21l-121 -861q-45 -317 -282.5 -460.5t-667.5 -143.5q-147 0 -263 14.5t-202 33t-145.5 38t-96.5 29.5z" />
<glyph unicode="K" horiz-adv-x="2025" d="M1954 0h-43l-1194 727h-420l-102 -727h-21l201 1434h20l-96 -686h420l1345 686h43l-702 -359l-666 -338l627 -379z" />
<glyph unicode="L" horiz-adv-x="1800" d="M174 0l201 1434h20l-198 -1414h1472l-2 -20h-1493z" />
<glyph unicode="M" horiz-adv-x="2412" d="M1229 238l-838 1161l-196 -1399h-21l201 1434h18l850 -1176l1178 1176h18l-201 -1434h-20l197 1399l-1166 -1161h-20z" />
<glyph unicode="N" horiz-adv-x="2058" d="M2064 1434h21l-201 -1434h-18l-1475 1405l-196 -1405h-21l201 1434h18l1475 -1405z" />
<glyph unicode="O" horiz-adv-x="2191" d="M1083 -31q-215 2 -375.5 52.5t-268 137.5t-161 206.5t-53.5 261.5q0 174 71 327.5t207 266t336.5 178t460.5 65.5q217 0 379 -50t270.5 -138t163 -209t54.5 -262q0 -174 -69.5 -325.5t-206 -264.5t-339.5 -178.5t-469 -67.5zM248 631q0 -137 52 -255t158.5 -204 t264.5 -134t371 -48q254 0 449.5 63.5t329.5 173t203.5 258t69.5 318.5q0 137 -53 255t-158.5 204t-265.5 134t-371 48q-254 0 -449.5 -63.5t-329.5 -173t-202.5 -258t-68.5 -318.5z" />
<glyph unicode="P" horiz-adv-x="1976" d="M174 0l201 1434h1073q113 0 214 -22.5t176 -73t119 -133.5t44 -201q0 -164 -57.5 -275t-153.5 -180.5t-222 -99t-261 -29.5h-1053l-59 -420h-21zM393 1413l-137 -973h1053q131 0 252.5 29t215 95.5t148.5 173t55 261.5q0 115 -42 194t-114.5 128t-170 70.5t-207.5 21.5 h-1053z" />
<glyph unicode="Q" horiz-adv-x="2191" d="M1851 -295q-180 0 -325.5 10.5t-246.5 39t-152.5 79.5t-45.5 135q-215 2 -374.5 52.5t-267 137.5t-161 206.5t-53.5 261.5q0 174 71 327.5t207 266t336.5 178t460.5 65.5q217 0 379 -50t270.5 -138t163 -209t54.5 -262q0 -174 -69.5 -325.5t-205 -264.5t-334 -178.5 t-456.5 -67.5q-6 -76 45 -124t149.5 -74.5t239.5 -35.5t317 -9zM248 631q0 -137 52 -255t158.5 -204t264.5 -134t371 -48q254 0 449.5 63.5t329.5 173t203.5 258t69.5 318.5q0 137 -53 255t-158.5 204t-265.5 134t-371 48q-254 0 -449.5 -63.5t-329.5 -173t-202.5 -258 t-68.5 -318.5z" />
<glyph unicode="R" horiz-adv-x="1992" d="M375 1434h1136q104 0 195.5 -20.5t158 -67t104.5 -121t38 -181.5q0 -150 -52 -251t-139 -164.5t-203 -90t-243 -26.5l-246 2l797 -514h-41l-793 512h-821l-71 -512h-21zM1374 532q123 0 233.5 26t194.5 86.5t134.5 157.5t50.5 238q0 104 -37 175t-101.5 115t-151.5 63.5 t-188 19.5h-1116l-123 -881h1104z" />
<glyph unicode="S" horiz-adv-x="1951" d="M985 -31q-233 0 -440 44t-393 118l10 19q184 -72 389 -116t436 -44q145 0 300 20.5t281 69.5t206.5 130t80.5 202q0 96 -66.5 151t-174 85t-244.5 40t-280 17q-145 8 -283.5 20t-247 45t-175.5 95.5t-67 170.5q0 94 38 162t102.5 116t146.5 77.5t170 45t174 21.5t160 6 q106 0 219 -9t218.5 -23.5t198.5 -33t161 -36.5l-9 -21q-68 18 -159.5 37t-197 33t-217.5 23.5t-216 9.5q-72 0 -156 -5t-169 -20.5t-164.5 -44t-142 -73t-99.5 -109t-37 -152.5q0 -102 65.5 -161.5t172 -91t242.5 -44t280 -18.5q145 -8 284.5 -18.5t249 -40t177 -88 t67.5 -160.5q0 -86 -38 -152.5t-103.5 -117t-153.5 -84t-186.5 -55t-204 -31t-205.5 -9.5z" />
<glyph unicode="T" horiz-adv-x="1843" d="M1130 1413l-198 -1413h-21l199 1413h-819l2 21h1659l-2 -21h-820z" />
<glyph unicode="U" horiz-adv-x="2068" d="M2075 1434h20l-121 -861q-45 -317 -279.5 -460.5t-664.5 -143.5t-625.5 143.5t-150.5 460.5l121 861h20l-121 -861q-43 -307 147.5 -445t610.5 -138t649.5 138t272.5 445z" />
<glyph unicode="V" horiz-adv-x="2056" d="M2226 1434l-1188 -1434h-20l-787 1434h25l338 -615l436 -799l662 799l510 615h24z" />
<glyph unicode="W" horiz-adv-x="2592" d="M1833 0l-150 612l-192 783l-408 -781l-323 -614h-15l-514 1434h25l219 -615l281 -786l413 790l322 611h12l152 -617l190 -784l502 788l391 613h25l-916 -1434h-14z" />
<glyph unicode="X" horiz-adv-x="1957" d="M2044 1434h33l-979 -697l829 -737h-33l-813 723l-1018 -723h-32l1038 737l-786 697h32l768 -684z" />
<glyph unicode="Y" horiz-adv-x="2072" d="M2243 1434l-1133 -979l-63 -455h-21l64 455l-859 979h29l313 -359l529 -602l696 602l416 359h29z" />
<glyph unicode="Z" horiz-adv-x="1880" d="M133 0l2 18l1143 924l584 471h-1506l2 21h1538l-2 -19l-1140 -921l-588 -474h1583l-2 -20h-1614z" />
<glyph unicode="[" horiz-adv-x="737" d="M475 1700h348l-4 -21h-327l-285 -2021h328l-3 -20h-348z" />
<glyph unicode="\" horiz-adv-x="749" d="M317 1464l334 -1495h-20l-334 1495h20z" />
<glyph unicode="]" horiz-adv-x="737" d="M451 -362h-349l2 20h328l285 2021h-328l4 21h348z" />
<glyph unicode="^" horiz-adv-x="1269" d="M1219 614l-385 824l-611 -824h-24l630 850h19l395 -850h-24z" />
<glyph unicode="_" horiz-adv-x="1320" d="M145 -205h973l-2 -20h-973z" />
<glyph unicode="`" horiz-adv-x="1765" d="M1350 1231l-9 -17l-649 246l10 21z" />
<glyph unicode="a" horiz-adv-x="1777" d="M1737 0q-29 -16 -57.5 -23.5t-51.5 -7.5q-43 0 -69.5 14.5t-39 48.5t-11.5 92t14 144q-51 -61 -129 -115.5t-176.5 -95.5t-213 -64.5t-239.5 -23.5t-229.5 20.5t-179 62.5t-116.5 103.5t-42 143.5q0 115 60 187.5t154.5 114.5t208 58.5t220.5 16.5q68 0 162 -8.5 t194 -21.5t197.5 -32.5t171.5 -42.5q20 119 1.5 214.5t-88 162t-195.5 102t-318 35.5q-98 0 -188.5 -8t-164 -20.5t-126 -25.5t-76.5 -21l-2 18q25 8 78 21.5t127.5 25.5t165.5 21.5t190 9.5q193 0 320.5 -37t199.5 -101.5t95.5 -153.5t8.5 -193l-55 -394q-18 -129 0 -183 t92 -54q20 0 51 7t58 23zM219 301q0 -76 40 -134t112.5 -97t173 -59.5t221.5 -20.5q123 0 236.5 23.5t213 65.5t178.5 97t132 119l37 254q-74 23 -171.5 42t-197.5 33.5t-194.5 22.5t-161.5 8q-102 0 -212 -15t-200 -54t-148.5 -109t-58.5 -176z" />
<glyph unicode="b" horiz-adv-x="1767" d="M358 1456l21 8l-47 -338l-29 -188l2 -2q80 37 179.5 67.5t205 54t213 36t201.5 12.5q158 0 276.5 -37t197.5 -103.5t119 -157.5t40 -198q0 -137 -53.5 -253.5t-152.5 -202.5t-243.5 -135.5t-324.5 -49.5q-238 0 -428.5 83t-321.5 218l-4 -2l-37 -268h-18zM1102 1085 q-96 0 -205 -13t-216.5 -36.5t-205.5 -54.5t-172 -66l-88 -620q63 -66 145 -121t178.5 -96t205 -64.5t227.5 -23.5q172 0 310 47t234.5 130t148.5 195.5t52 243.5q0 104 -39 192.5t-115.5 152t-191 99t-268.5 35.5z" />
<glyph unicode="c" horiz-adv-x="1646" d="M1552 55q-29 -10 -82 -24.5t-128.5 -28.5t-172 -23.5t-208.5 -9.5q-205 0 -352.5 37t-242 103.5t-139.5 158.5t-45 203q0 135 54.5 251t168 202t291.5 134t424 48q113 0 206 -9.5t165 -23.5t122 -28.5t75 -24.5l-9 -19q-25 10 -74 24.5t-119.5 28t-163.5 22.5t-206 9 q-240 0 -413 -47t-283.5 -129t-163.5 -193.5t-53 -240.5q0 -106 44 -195.5t136 -154t235.5 -100t344.5 -35.5q113 0 208 9t169.5 22.5t127 27.5t80.5 25z" />
<glyph unicode="d" horiz-adv-x="1767" d="M1751 1126l47 330l21 8l-205 -1464h-19l37 268v2q-172 -135 -385 -218t-450 -83q-152 0 -266.5 37t-191.5 103.5t-117 158.5t-40 201q0 135 52.5 252t152.5 202t247.5 134t340.5 49q94 0 197.5 -12.5t203 -36t190.5 -54t158 -67.5l2 2zM969 1085q-184 0 -326.5 -47 t-240 -130t-148.5 -194.5t-51 -242.5q0 -104 39 -192.5t113.5 -153t184 -100t253.5 -35.5q119 0 234.5 23.5t223 64.5t203.5 96t180 121l88 620q-66 35 -154.5 66t-190 54.5t-207 36.5t-201.5 13z" />
<glyph unicode="e" horiz-adv-x="1708" d="M203 477q-16 -240 162 -363.5t557 -123.5q111 0 212 9t184 22.5t142.5 27.5t87.5 25l4 -19q-29 -10 -89 -24.5t-144 -28.5t-186.5 -23.5t-212.5 -9.5q-373 0 -556.5 126t-183.5 360q0 131 51.5 249.5t152.5 207.5t251.5 141.5t351.5 52.5q174 0 317.5 -40t230.5 -119 t108.5 -196.5t-48.5 -273.5h-1392zM203 498h1380q66 158 36 269.5t-122 182t-228 103t-286 32.5q-176 0 -314.5 -44t-235.5 -118.5t-154.5 -176t-71.5 -216.5z" />
<glyph unicode="f" horiz-adv-x="659" d="M387 1085l-2 -10h344l-4 -20h-342l-147 -1055h-21l147 1055h-143l4 20h142l2 10q20 111 47.5 183.5t63.5 115.5t79 61.5t94 18.5q37 0 78 -8t82 -20l-4 -23q-90 31 -156 31q-117 0 -175 -92.5t-89 -266.5z" />
<glyph unicode="g" horiz-adv-x="1638" d="M248 655q0 111 57 196t155.5 141.5t230.5 85t282 28.5q61 0 116.5 -5t108.5 -16q43 12 102.5 23.5t128 22t144.5 16.5t151 6l-4 -25q-135 2 -264 -13t-219 -38q156 -37 250 -123t94 -219q0 -111 -54 -190.5t-151.5 -129.5t-228.5 -74t-285 -24q-115 0 -213 12.5 t-176 41.5q-43 -33 -81 -80t-67.5 -96.5t-47 -94.5t-21.5 -73q57 27 149.5 52t203 45.5t231.5 33t235 12.5q98 0 186.5 -11.5t155 -38t104.5 -69.5t38 -104q0 -76 -44.5 -131.5t-115 -94t-159.5 -63.5t-178 -38t-169 -18t-135 -5q-154 0 -276 10t-212 23.5t-148.5 27.5 t-84.5 25l8 20q27 -10 86 -24.5t148.5 -27.5t210 -23.5t272.5 -10.5q53 0 131 5t164 17.5t171 36t153.5 59.5t111.5 88t43 122q0 57 -37 96t-99.5 63.5t-147.5 35t-179 10.5q-109 0 -225.5 -12.5t-227 -33t-207 -47t-161.5 -53.5q-18 0 -19 16q6 43 27 93.5t50.5 98.5 t65.5 91t77 76q-98 39 -151.5 107.5t-53.5 168.5zM268 659q0 -86 44 -147t123 -99t188.5 -56.5t240.5 -18.5q150 0 277 22.5t220 69.5t146.5 123t53.5 180q0 86 -45.5 152.5t-125 110.5t-188 66.5t-233.5 22.5q-143 0 -270.5 -27.5t-222.5 -80.5t-151.5 -133.5t-56.5 -184.5 z" />
<glyph unicode="h" d="M1573 0l76 545q16 117 -7.5 215t-91 171t-181.5 113.5t-277 40.5q-104 0 -213 -15t-213.5 -39.5t-197.5 -54.5t-165 -58l-129 -918h-20l204 1456l21 8l-47 -338l-27 -186v-2q74 29 167 58.5t196.5 54t213 40t214.5 15.5q168 0 285.5 -42t187 -118t93.5 -178t7 -223 l-76 -545h-20z" />
<glyph unicode="i" horiz-adv-x="409" d="M195 0l151 1083l23 9l-154 -1092h-20zM365 1204l34 246h21l-35 -246h-20z" />
<glyph unicode="j" horiz-adv-x="430" d="M213 -10l154 1093l22 9l-156 -1102q-16 -111 -42.5 -183.5t-63.5 -116.5t-82 -61.5t-96 -17.5l2 20q117 0 177 91.5t85 267.5zM383 1204l35 246h20l-35 -246h-20z" />
<glyph unicode="k" horiz-adv-x="1748" d="M1657 0h-47l-928 528h-434l-74 -528h-20l204 1456l21 8l-127 -915h434l1096 526h47l-1118 -536z" />
<glyph unicode="l" horiz-adv-x="368" d="M379 1456l20 8l-204 -1464h-21z" />
<glyph unicode="m" horiz-adv-x="2580" d="M154 0l151 1083l21 9l-21 -152v-2q55 31 114.5 60.5t128 53t147.5 39t171 15.5q174 0 286 -54.5t169 -146.5q66 37 143.5 73t164.5 64.5t180.5 46t191.5 17.5q150 0 253 -42t163.5 -118t81 -178t4.5 -223l-76 -545h-21l76 545q16 117 -4 215t-79.5 171t-160 113.5 t-243.5 40.5q-94 0 -185.5 -17t-175.5 -45t-160.5 -62.5t-144.5 -71.5q41 -72 51.5 -159t-4.5 -185l-76 -545h-20l76 545q16 117 -4.5 215t-80 171t-158.5 113.5t-243 40.5q-94 0 -176 -16t-153.5 -42t-131 -55.5t-106.5 -53.5l-129 -918h-20z" />
<glyph unicode="n" d="M1573 0l76 545q16 117 -7.5 215t-91 171t-181.5 113.5t-277 40.5q-104 0 -213 -15t-213.5 -39.5t-197.5 -54.5t-165 -58l-129 -918h-20l151 1083l21 9l-21 -152v-2q74 29 167 58.5t196.5 54t213 40t214.5 15.5q168 0 285.5 -42t187 -118t93.5 -178t7 -223l-76 -545h-20z " />
<glyph unicode="o" horiz-adv-x="1699" d="M1006 1106q164 0 287.5 -36t207.5 -100.5t126 -154.5t42 -197q0 -170 -74.5 -291.5t-192.5 -201.5t-265.5 -118t-292.5 -38q-164 0 -287 36t-207 99.5t-126 152.5t-42 198q0 172 74 293.5t190.5 200.5t264.5 117t295 40zM203 459q0 -104 41 -190.5t123 -148t201.5 -96 t279.5 -34.5q150 0 294 40t256.5 118.5t181.5 195.5t69 270q0 104 -41 190.5t-123 149t-203 97t-281 34.5q-152 0 -296 -39.5t-255.5 -118.5t-179 -196.5t-67.5 -271.5z" />
<glyph unicode="p" horiz-adv-x="1767" d="M209 268l-43 -319l-47 -338h-21l205 1464l19 8l-19 -145l2 -2q80 37 179.5 67.5t205 54t213 36t201.5 12.5q158 0 276.5 -37t197.5 -103.5t119 -157.5t40 -198q0 -137 -53.5 -253.5t-152.5 -202.5t-243.5 -135.5t-324.5 -49.5q-238 0 -428.5 83t-323.5 218zM1102 1085 q-96 0 -205 -13t-216.5 -36.5t-205.5 -54.5t-172 -66l-88 -620q63 -66 145 -121t178.5 -96t205 -64.5t227.5 -23.5q172 0 309 47t234.5 130t149.5 195.5t52 243.5q0 104 -39 192.5t-115.5 152t-191 99t-268.5 35.5z" />
<glyph unicode="q" horiz-adv-x="1767" d="M1632 268v2q-172 -135 -385 -218t-450 -83q-152 0 -266.5 37t-191.5 103.5t-117 158.5t-40 201q0 135 52.5 252t152.5 202t247.5 134t340.5 49q94 0 197.5 -12.5t203 -36t190.5 -54t158 -67.5l2 2l23 137l16 8l-206 -1472h-21l47 338zM969 1085q-184 0 -326.5 -47 t-240 -130t-148.5 -194.5t-51 -242.5q0 -104 39 -192.5t113.5 -153t184 -100t253.5 -35.5q119 0 234.5 23.5t223 64.5t203.5 96t180 121l88 620q-66 35 -154.5 66t-190 54.5t-207 36.5t-201.5 13z" />
<glyph unicode="r" horiz-adv-x="1021" d="M305 1083l21 9l-39 -275l2 -2q80 70 164 128t180 98t212 57.5t261 3.5l-8 -21q-109 12 -211.5 2t-201.5 -43.5t-198.5 -95t-201.5 -153.5l-111 -791h-20z" />
<glyph unicode="s" horiz-adv-x="1679" d="M127 80q98 -25 181 -42.5t161 -28.5t155.5 -15t163.5 -4q55 0 136.5 4t170.5 15t177 34t158.5 59.5t114.5 91t44 130.5q0 86 -58 134t-153.5 70.5t-218.5 27.5t-250 5t-246.5 5t-214 26.5t-151.5 68t-57 130.5q0 76 36.5 129t97 87.5t137.5 54t159 30t160.5 12.5t142.5 2 q297 0 647 -62l-8 -20q-348 61 -643 61q-61 0 -138 -2t-155 -11t-154 -27.5t-133 -51t-93 -81t-36 -117.5q0 -78 55.5 -121t146.5 -63.5t208.5 -24.5t240.5 -4q129 0 255 -5.5t225.5 -30t160 -75.5t60.5 -143q0 -82 -45 -140.5t-118 -97.5t-164 -63.5t-183 -37t-175 -16.5 t-141 -4q-86 0 -164.5 4t-157.5 15.5t-163 29t-180 41.5z" />
<glyph unicode="t" horiz-adv-x="679" d="M385 1075h373l-2 -20h-373l-98 -705q-25 -176 10 -268t151 -92q35 0 76 8t88 25l-2 -23q-47 -12 -88 -21.5t-78 -9.5q-51 0 -91 18.5t-64.5 61.5t-31.5 117t9 184l98 705h-143l2 20h144l41 289l22 8z" />
<glyph unicode="u" d="M227 530l76 545h23l-78 -545q-16 -117 8.5 -215t91 -170.5t177 -113.5t268.5 -41q211 0 411.5 73.5t405.5 204.5l114 807h21l-152 -1075h-18l35 246l-2 2q-80 -55 -173.5 -105.5t-197.5 -88.5t-217 -61.5t-232 -23.5q-160 0 -274.5 42t-183 118t-94 178t-9.5 223z" />
<glyph unicode="v" horiz-adv-x="1695" d="M1776 1075l-918 -1075h-20l-615 1075h27l319 -563l281 -494l420 494l479 563h27z" />
<glyph unicode="w" horiz-adv-x="2437" d="M1776 0l-152 389l-258 662l-442 -662l-262 -389h-21l-418 1075h25l217 -563l188 -494l328 494l377 563h24l217 -563l189 -494l328 494l376 563h25l-721 -1075h-20z" />
<glyph unicode="x" horiz-adv-x="1642" d="M1683 1075h35l-807 -536l660 -539h-35l-641 524l-789 -524h-34l809 539l-654 536h35l637 -524z" />
<glyph unicode="y" horiz-adv-x="1695" d="M223 1075h27l319 -563l291 -514l889 1077h27l-955 -1155q-76 -92 -143.5 -151.5t-132 -94t-127 -49t-123.5 -14.5q-53 0 -107.5 8t-113.5 21l4 22q57 -12 112.5 -21.5t106.5 -9.5q70 0 133.5 17.5t124.5 54.5t122.5 94.5t127.5 134.5l39 48z" />
<glyph unicode="z" horiz-adv-x="1675" d="M1544 20l-2 -20h-1409l2 18l1471 1037h-1274l4 20h1311l-2 -18l-1473 -1037h1372z" />
<glyph unicode="{" horiz-adv-x="837" d="M328 668q70 -25 95.5 -93.5t25.5 -148.5q0 -76 -15.5 -150.5t-34 -145.5t-34 -137.5t-15.5 -127.5q0 -49 13.5 -89t45 -67.5t87 -42t139.5 -10.5l-2 -21q-82 0 -139.5 11.5t-94.5 37t-54 69.5t-17 112q0 61 15 129.5t34.5 140.5t35 145.5t15.5 143.5q0 86 -29.5 151.5 t-111.5 81.5l4 21q55 10 93 38.5t63.5 71.5t41 96.5t23.5 112.5q14 106 16 214t13 182q12 90 38.5 149.5t70.5 94t110.5 49t163.5 14.5l-4 -21q-102 4 -167 -14t-103 -55t-57.5 -88.5t-27.5 -114.5q-12 -90 -14 -195.5t-19 -214.5q-8 -55 -21 -107t-37.5 -96t-59.5 -77 t-86 -49z" />
<glyph unicode="|" horiz-adv-x="573" d="M254 -307h-21l289 2048h21z" />
<glyph unicode="}" horiz-adv-x="837" d="M698 668q-70 25 -96.5 93t-26.5 148q0 74 15.5 146.5t34 144.5t34 139.5t15.5 130.5q0 49 -13.5 89t-45 68t-87 42t-139.5 10l4 21q80 0 137.5 -11.5t94.5 -37t54 -69.5t17 -112q0 -61 -15 -128.5t-33.5 -138t-34 -144.5t-15.5 -148q0 -86 29.5 -151.5t111.5 -81.5 l-4 -21q-55 -10 -94 -38.5t-64.5 -71.5t-41 -97.5t-23.5 -111.5q-8 -53 -11 -107.5t-4 -106.5t-3 -98t-9 -83q-12 -90 -38.5 -149.5t-70.5 -94.5t-111.5 -49.5t-162.5 -14.5l2 21q98 -4 163 14.5t105 54t59.5 88t29.5 115.5q12 90 13 195.5t18 214.5q8 55 22 107.5 t37.5 96.5t59.5 77t87 49z" />
<glyph unicode="~" horiz-adv-x="1417" d="M1303 846q-109 -96 -188 -131t-138 -35q-51 0 -93 19.5t-81 42t-78 42t-84 19.5q-53 0 -125 -34t-172 -122l-14 17q102 90 178 124.5t135 34.5q49 0 89 -19.5t79 -42t80 -42t90 -19.5q53 0 127 35t180 127z" />
<glyph unicode="&#xa1;" horiz-adv-x="495" d="M346 778l41 297h21l-41 -297h-21zM209 -358h-25l140 962h16z" />
<glyph unicode="&#xa2;" horiz-adv-x="1697" d="M1171 1464l-24 -180q113 0 205 -9t163.5 -23.5t122 -29t74.5 -24.5l-8 -18q-49 20 -191.5 52t-367.5 32l-154 -1096q113 0 207 9t168 22.5t126 28t81 24.5l4 -19q-29 -10 -82 -24t-129 -28.5t-171 -24t-208 -9.5l-24 -178h-21l25 178q-197 2 -334 39t-222 101.5 t-124 154.5t-39 197q0 133 45 250t148.5 204t271.5 138t413 53l25 180h20zM268 643q0 -102 38 -189t121 -149.5t217 -98.5t327 -38l153 1096q-240 -2 -403.5 -51.5t-264 -133.5t-144.5 -195.5t-44 -240.5z" />
<glyph unicode="&#xa3;" horiz-adv-x="1642" d="M174 727h127l59 270q31 137 103 227.5t172 142.5t219 73.5t242 21.5q166 0 320.5 -26.5t266.5 -55.5l-8 -20q-111 29 -265.5 55.5t-315.5 26.5q-119 0 -235 -20.5t-212 -71t-166.5 -137.5t-99.5 -218l-59 -268h874l-4 -20h-877l-151 -687h1327l-2 -20h-1350l156 707h-125 z" />
<glyph unicode="&#xa4;" horiz-adv-x="1761" d="M707 225h-287l41 287l-176 205l233 205l41 286h287l233 205l176 -205h287l-41 -286l176 -205l-233 -205l-41 -287h-287l-233 -205zM721 244l166 -195l223 195h279l38 278l222 195l-168 194l39 279h-279l-166 194l-223 -194h-279l-38 -279l-222 -194l168 -195l-39 -278 h279z" />
<glyph unicode="&#xa5;" horiz-adv-x="1785" d="M1599 164h-673l-23 -164h-20l22 164h-682l2 20h682l35 242h-682l2 20h672l-682 988h27l454 -656l223 -321l314 321l639 656h26l-962 -988h665l-2 -20h-673l-35 -242h674z" />
<glyph unicode="&#xa6;" horiz-adv-x="573" d="M414 834h-21l129 907h21zM254 -307h-21l127 907h21z" />
<glyph unicode="&#xa7;" horiz-adv-x="1738" d="M1208 430q78 -14 141.5 -35.5t107.5 -53.5t68.5 -77t24.5 -108q0 -123 -67.5 -201t-176 -123t-245.5 -62.5t-277 -17.5q-106 0 -206.5 7.5t-184.5 17.5t-145.5 20t-87.5 17l6 20q27 -6 88 -16.5t144 -20.5t183.5 -17t204.5 -7q135 0 268.5 16t239 58t171 116t65.5 189 q0 111 -81 167t-213 85.5t-301 45t-345 44.5l86 260q-78 14 -141.5 35.5t-108.5 54.5t-69.5 78t-24.5 108q0 123 67.5 201t177 123t247 62.5t276.5 17.5q106 0 206.5 -7.5t184.5 -17.5t145.5 -20.5t87.5 -16.5l-6 -20q-27 6 -88 16t-144 20.5t-183.5 17.5t-204.5 7 q-135 0 -268.5 -16.5t-239 -58.5t-171 -115.5t-65.5 -188.5q0 -111 81 -167t213 -85.5t301 -45t345 -44.5zM1268 676q-162 23 -308.5 38t-265.5 38l-78 -242q162 -25 307.5 -39t266.5 -37z" />
<glyph unicode="&#xa8;" horiz-adv-x="1765" d="M649 1434l-28 -209h-21l29 209h20zM1153 1434l-29 -209h-20l29 209h20z" />
<glyph unicode="&#xa9;" horiz-adv-x="1998" d="M225 618q0 176 64.5 331t189.5 269.5t307.5 180t417.5 65.5q193 0 337.5 -49t240.5 -136t144 -206t48 -258q0 -176 -64.5 -330.5t-189.5 -269.5t-307 -180.5t-418 -65.5q-193 0 -337 49.5t-240 136.5t-144.5 205.5t-48.5 257.5zM246 623q0 -135 47 -252t140 -201 t234.5 -132t329.5 -48q229 0 407.5 64.5t300.5 175t185.5 260t63.5 321.5q0 135 -47 252t-140.5 201t-234.5 132t-330 48q-229 0 -407.5 -64.5t-300 -175t-185 -260t-63.5 -321.5zM1481 369q-41 -12 -146.5 -38t-263.5 -26q-139 0 -239.5 27.5t-165 76t-94 114t-29.5 143.5 q0 96 36.5 180t115.5 147.5t200 99t291 35.5q158 0 257 -25.5t136 -37.5l-8 -21q-37 12 -135.5 38t-251.5 26q-164 0 -281 -35t-192.5 -94t-111.5 -139t-36 -170q0 -74 29 -137.5t91 -109.5t158.5 -71.5t231.5 -25.5q154 0 259.5 25.5t146.5 37.5z" />
<glyph unicode="&#xaa;" horiz-adv-x="1380" d="M1397 625q-25 -4 -45.5 -7.5t-36.5 -3.5q-72 0 -90.5 44t4.5 169q-39 -35 -103.5 -71.5t-146.5 -69.5t-175 -53.5t-192 -20.5q-154 0 -246 60.5t-92 179.5q0 90 39 149.5t105.5 93t155 47t184.5 13.5q57 0 123.5 -4t134 -13.5t131 -23.5t117.5 -33q10 78 -6.5 144.5 t-67.5 115t-142.5 76t-228.5 27.5q-74 0 -141.5 -6t-122.5 -15.5t-95 -18.5t-57 -15l-2 18q18 6 58.5 15.5t95.5 18.5t124 16t142 7q145 0 239.5 -29.5t149 -80.5t70.5 -123t4 -154l-43 -305q-10 -72 5.5 -104.5t72.5 -32.5q16 0 35.5 3t44.5 7zM297 856q0 -111 86 -167 t231 -56q100 0 196.5 22.5t179.5 56t145.5 73.5t97.5 73l29 203q-53 18 -117 31.5t-130.5 22.5t-134 14.5t-124.5 5.5q-92 0 -176 -12.5t-146.5 -44t-99.5 -86t-37 -136.5z" />
<glyph unicode="&#xab;" horiz-adv-x="1507" d="M942 1106l10 -16l-663 -500l524 -498l-14 -16l-543 514zM1475 1106l10 -16l-664 -500l525 -498l-15 -16l-543 514z" />
<glyph unicode="&#xac;" horiz-adv-x="1484" d="M1405 819l-105 -745h-20l102 725h-1075l2 20h1096z" />
<glyph unicode="&#xad;" horiz-adv-x="1484" d="M352 690h973l-2 -20h-973z" />
<glyph unicode="&#xae;" horiz-adv-x="1998" d="M225 618q0 176 64.5 331t189.5 269.5t307.5 180t417.5 65.5q193 0 337.5 -49t240.5 -136t144 -206t48 -258q0 -176 -64.5 -330.5t-189.5 -269.5t-307 -180.5t-418 -65.5q-193 0 -337 49.5t-240 136.5t-144.5 205.5t-48.5 257.5zM246 623q0 -135 47 -252t140 -201 t234.5 -132t329.5 -48q229 0 407.5 64.5t300.5 175t185.5 260t63.5 321.5q0 135 -47 252t-140.5 201t-234.5 132t-330 48q-229 0 -407.5 -64.5t-300 -175t-185 -260t-63.5 -321.5zM612 322l111 788h627q57 0 107 -11.5t87 -36t57.5 -65.5t20.5 -100q0 -82 -27.5 -136 t-78 -88t-118 -48.5t-147.5 -14.5l293 -288h-33l-292 288h-545l-41 -288h-21zM1247 631q76 0 140.5 12t111.5 43t73.5 81t26.5 126q0 55 -19 93t-53 60.5t-80 33t-99 10.5h-607l-65 -459h571z" />
<glyph unicode="&#xaf;" horiz-adv-x="1765" d="M1341 1335l-2 -20h-727l2 20h727z" />
<glyph unicode="&#xb0;" horiz-adv-x="1167" d="M303 1042q0 86 32 163t93 134.5t151.5 91t208.5 33.5q106 0 183.5 -28.5t124.5 -78.5t64.5 -119t6.5 -146q-12 -80 -49 -147.5t-97 -119t-145 -80t-192 -28.5q-96 0 -168 24.5t-119 68.5t-70.5 103t-23.5 129zM328 1092q-10 -74 6 -139.5t61 -112.5t118 -75t175 -28 q111 0 198 32t145.5 86t89 127t30.5 155q0 63 -22.5 119.5t-67.5 98.5t-113.5 65.5t-161.5 23.5q-102 0 -183 -27.5t-138 -75t-92 -111.5t-45 -138z" />
<glyph unicode="&#xb1;" horiz-adv-x="1484" d="M811 547l70 497h20l-70 -497h496l-4 -21h-496l-71 -506h495l-2 -20h-1013l2 20h497l72 506h-498l4 21h498z" />
<glyph unicode="&#xb2;" horiz-adv-x="1392" d="M217 608l2 21q215 68 429 160t386 199.5t279.5 229t107.5 248.5q0 92 -59 147.5t-145.5 84t-181.5 38t-167 9.5q-123 0 -245.5 -16.5t-257.5 -51.5l-3 21q137 35 260 51t246 16q49 0 111.5 -4t127 -15t125 -30.5t107.5 -52.5t76 -80t29 -113q0 -90 -51.5 -176 t-138.5 -165.5t-203.5 -152.5t-246.5 -136.5t-267.5 -116.5t-266.5 -94h1088l-2 -21h-1139z" />
<glyph unicode="&#xb3;" horiz-adv-x="1372" d="M213 711q41 -18 104.5 -38t142.5 -35t166 -24.5t177 -9.5q109 0 212 16.5t183 54.5t128 99.5t48 153.5q0 78 -51 125t-152.5 71.5t-250 32.5t-340.5 8h-95l2 19h93q223 0 382.5 19.5t262 59.5t151.5 100t49 142q0 55 -27.5 95t-73.5 67t-105.5 42t-121 23.5t-120.5 10.5 t-107 2q-129 0 -249.5 -16.5t-255.5 -51.5l-5 21q137 35 261 51t253 16q72 0 171.5 -6t189.5 -30.5t152.5 -75.5t62.5 -142q0 -74 -35 -130t-108.5 -98t-189.5 -67.5t-279 -37.5q137 -6 241.5 -19.5t174 -41t105.5 -73t36 -112.5q0 -98 -50.5 -166t-133.5 -108t-189.5 -57 t-218.5 -17q-90 0 -179 9t-169 24.5t-145.5 35t-106.5 37.5z" />
<glyph unicode="&#xb4;" horiz-adv-x="1765" d="M1389 1481l6 -21l-719 -246l-4 17z" />
<glyph unicode="&#xb5;" d="M98 -389l205 1464h21l-76 -545q-16 -117 8.5 -215t91 -170.5t177 -113.5t268.5 -41q211 0 411.5 73.5t405.5 204.5l112 807h21l-150 -1075h-18l35 246l-2 2q-80 -55 -173.5 -105.5t-197.5 -88.5t-217 -61.5t-232 -23.5q-133 0 -233 29t-170 81t-109.5 124.5t-50.5 161.5 l-106 -754h-21z" />
<glyph unicode="&#xb6;" horiz-adv-x="1273" d="M983 0h-20l88 623h-318q-90 0 -170 18t-140.5 59t-95 106.5t-34.5 162.5q0 129 46 218t123 144t176 79t208 24h338zM1100 0h-21l201 1434h20z" />
<glyph unicode="&#xb7;" horiz-adv-x="491" d="M352 686l-41 -297h-20l41 297h20z" />
<glyph unicode="&#xb8;" horiz-adv-x="1738" d="M631 -446l14 20q51 -8 135 -11t164 9t137.5 46t57.5 101q0 31 -22.5 55.5t-62.5 40t-92.5 21.5t-111.5 2q-6 0 -12.5 5t-1.5 14l98 143h24l-96 -139q61 6 116.5 0t95.5 -24.5t63.5 -46.5t23.5 -64q0 -55 -30.5 -91t-80 -56.5t-108.5 -28t-118.5 -8.5t-110.5 3.5t-82 8.5z " />
<glyph unicode="&#xb9;" horiz-adv-x="1179" d="M668 629l153 1089l-499 -135l-5 21l510 137h19l-158 -1112h490l-2 -21h-1000l2 21h490z" />
<glyph unicode="&#xba;" horiz-adv-x="1413" d="M301 1038q12 92 59.5 171t126 135.5t186 88t240.5 31.5t232.5 -31.5t162 -88t87 -135.5t12.5 -171t-60.5 -171t-126 -136t-186 -89t-241.5 -32t-231.5 32t-161 89t-87 136t-12.5 171zM322 1038q-12 -88 11 -162.5t83.5 -129t156 -85t224.5 -30.5t232.5 30.5t178 85 t120.5 129t58 162.5t-12 163t-84.5 128t-156 84t-224.5 31t-232.5 -31t-178 -84t-119.5 -128t-57 -163z" />
<glyph unicode="&#xbb;" horiz-adv-x="1507" d="M1415 590l-686 -514l-10 16l663 498l-524 500l16 16zM883 590l-686 -514l-11 16l664 498l-524 500l16 16z" />
<glyph unicode="&#xbc;" horiz-adv-x="3358" d="M625 322l153 1089l-499 -135l-5 20l510 138h19l-158 -1112h490l-2 -21h-1000l2 21h490zM1094 -35q354 381 701 758t697 760l17 -15q-352 -381 -700.5 -757.5t-698.5 -759.5zM3127 266l-39 -266h-22l39 266h-996l2 19l1117 848h20l-119 -846h148q0 -4 -2 -10.5t-2 -10.5 h-146zM3164 694l60 410l-777 -588l-303 -229h963z" />
<glyph unicode="&#xbd;" horiz-adv-x="3612" d="M625 322l153 1089l-499 -135l-5 20l510 138h19l-158 -1112h490l-2 -21h-1000l2 21h490zM1094 -35q354 381 701 758t697 760l17 -15q-352 -381 -700.5 -757.5t-698.5 -759.5zM2351 0l4 20q143 45 287.5 101.5t278 121t249 137.5t201.5 150.5t135 159.5t49 168 q0 92 -59 147.5t-145 84t-181.5 38t-167.5 9.5q-123 0 -244.5 -16.5t-256.5 -51.5l-4 21q137 35 261 51t246 16q49 0 111.5 -4t127.5 -15.5t125 -31t107.5 -52t76 -79.5t28.5 -113q0 -90 -51 -176t-139.5 -166t-204 -152.5t-246.5 -136t-267.5 -117t-265.5 -94.5h1088 l-4 -20h-1139z" />
<glyph unicode="&#xbe;" horiz-adv-x="3397" d="M170 403q41 -18 104.5 -37.5t142.5 -35t166 -24.5t177 -9q109 0 212 16.5t183 54.5t128 99t48 154q0 78 -51 125t-152.5 71.5t-250 32.5t-340.5 8h-95l2 19h93q223 0 382.5 19t262 59t151.5 100.5t49 142.5q0 55 -27.5 95t-73.5 66.5t-105.5 42t-121 24t-121 10.5 t-106.5 2q-129 0 -249.5 -16.5t-255.5 -51.5l-5 21q137 35 261 51t253 16q72 0 171.5 -6t189.5 -30.5t152.5 -76t62.5 -141.5q0 -74 -35 -130t-108.5 -98t-189.5 -67.5t-279 -38.5q137 -6 241.5 -19t174 -41t105.5 -73t36 -112q0 -98 -50.5 -166t-133.5 -108t-189.5 -57.5 t-218.5 -17.5q-90 0 -179 9.5t-169 25t-145.5 35t-106.5 37.5zM1130 -35q354 381 702.5 758t696.5 760l17 -15q-352 -381 -700.5 -757.5t-698.5 -759.5zM3164 266l-37 -266h-22l37 266h-996l2 19l1117 848h20l-119 -846h148q0 -4 -2 -10.5t-2 -10.5h-146zM3201 694l59 410 l-776 -588l-303 -229h963z" />
<glyph unicode="&#xbf;" horiz-adv-x="1681" d="M985 604q-23 -70 -70 -117t-108.5 -80.5t-132 -58t-141 -47t-136 -49.5t-117 -66t-81 -93t-29.5 -132q0 -109 73.5 -173t181 -99t228.5 -46.5t217 -11.5q156 0 307.5 20.5t323.5 63.5l4 -20q-172 -43 -325.5 -63.5t-311.5 -20.5q-66 0 -144.5 4t-158.5 17.5t-154.5 37 t-133 62.5t-93 95t-34.5 132q0 109 51 174.5t132 107.5t177 70.5t187 63.5t165 87t107 142h16zM991 778l43 297h21l-43 -297h-21z" />
<glyph unicode="&#xc0;" horiz-adv-x="2056" d="M2025 0h-24l-232 420h-1366l-348 -420h-24l1188 1434h20zM565 614l-145 -174h1337l-94 174l-436 799zM1284 1589l-8 -16l-649 246l10 20z" />
<glyph unicode="&#xc1;" horiz-adv-x="2056" d="M2025 0h-24l-232 420h-1366l-348 -420h-24l1188 1434h20zM565 614l-145 -174h1337l-94 174l-436 799zM1950 1839l6 -20l-719 -246l-4 16z" />
<glyph unicode="&#xc2;" horiz-adv-x="2056" d="M2025 0h-24l-232 420h-1366l-348 -420h-24l1188 1434h20zM565 614l-145 -174h1337l-94 174l-436 799zM1284 1817l-459 -275l-8 17l469 280l391 -280l-12 -17z" />
<glyph unicode="&#xc3;" horiz-adv-x="2056" d="M2025 0h-24l-232 420h-1366l-348 -420h-24l1188 1434h20zM565 614l-145 -174h1337l-94 174l-436 799zM1659 1747q-88 -78 -151.5 -105.5t-112.5 -27.5q-43 0 -78 15.5t-66.5 33.5t-62.5 33.5t-68 15.5q-41 0 -99 -26.5t-138 -98.5l-15 17q86 74 147.5 101.5t108.5 27.5 q39 0 72 -15.5t63.5 -34t63.5 -34t74 -15.5q43 0 102.5 28t145.5 101z" />
<glyph unicode="&#xc4;" horiz-adv-x="2056" d="M2025 0h-24l-232 420h-1366l-348 -420h-24l1188 1434h20zM565 614l-145 -174h1337l-94 174l-436 799zM1038 1792l-28 -209h-21l29 209h20zM1542 1792l-29 -209h-20l29 209h20z" />
<glyph unicode="&#xc5;" horiz-adv-x="2056" d="M1028 1577q0 45 14.5 84t45 67.5t77.5 46t115 17.5q104 0 150.5 -45t46.5 -115q0 -86 -54.5 -148.5t-173.5 -70.5l776 -1413h-24l-232 420h-1366l-348 -420h-24l1171 1413q-92 6 -133 52t-41 112zM565 614l-145 -174h1337l-94 174l-436 799zM1049 1581q0 -61 38.5 -104 t131.5 -43h10q121 0 174 58t53 136q0 61 -42 102.5t-136 41.5q-123 0 -176 -56.5t-53 -134.5z" />
<glyph unicode="&#xc6;" horiz-adv-x="3381" d="M3232 727h-1411l-101 -707h1575l-2 -20h-1595l59 420h-1147l-547 -420h-32l1867 1434h1555l-2 -21h-1534l-94 -665h1411zM864 614l-227 -174h1122l135 965z" />
<glyph unicode="&#xc7;" horiz-adv-x="2031" d="M690 -446l17 20q51 -8 134 -11t162.5 9t137 46t57.5 101q0 31 -22.5 55.5t-62.5 40t-92 21.5t-112 2q-6 0 -12 5t-2 14l82 123q-199 18 -341 73.5t-233.5 140.5t-134.5 194.5t-43 236.5q0 174 67.5 327.5t210 267t363.5 179t529 65.5q143 0 260 -13t207 -31.5t151.5 -38 t93.5 -31.5l-8 -19q-33 12 -93 30.5t-149.5 37t-205 32t-258.5 13.5q-301 0 -518.5 -64.5t-357.5 -175t-205.5 -259t-65.5 -316.5q0 -123 43 -230.5t133 -190.5t231.5 -137.5t337.5 -72.5l2 2h25l-2 -4q80 -6 172 -6q143 0 263 13t214 31.5t160.5 37t101.5 30.5l4 -18 q-37 -12 -104.5 -31.5t-162.5 -38t-215 -32t-263 -13.5q-49 0 -95.5 2t-91.5 6l-77 -116q61 6 116.5 0t95.5 -24.5t63.5 -46.5t23.5 -64q0 -55 -31 -91t-80 -56.5t-108.5 -28t-119 -8.5t-110.5 3.5t-82 8.5z" />
<glyph unicode="&#xc8;" horiz-adv-x="1902" d="M174 0l201 1434h1554l-2 -21h-1534l-94 -665h1411l-2 -21h-1411l-100 -707h1575l-3 -20h-1595zM1520 1589l-9 -16l-649 246l10 20z" />
<glyph unicode="&#xc9;" horiz-adv-x="1902" d="M174 0l201 1434h1554l-2 -21h-1534l-94 -665h1411l-2 -21h-1411l-100 -707h1575l-3 -20h-1595zM1546 1839l6 -20l-718 -246l-5 16z" />
<glyph unicode="&#xca;" horiz-adv-x="1902" d="M174 0l201 1434h1554l-2 -21h-1534l-94 -665h1411l-2 -21h-1411l-100 -707h1575l-3 -20h-1595zM1206 1817l-458 -275l-9 17l469 280l391 -280l-12 -17z" />
<glyph unicode="&#xcb;" horiz-adv-x="1902" d="M174 0l201 1434h1554l-2 -21h-1534l-94 -665h1411l-2 -21h-1411l-100 -707h1575l-3 -20h-1595zM961 1792l-29 -209h-21l29 209h21zM1464 1792l-28 -209h-21l29 209h20z" />
<glyph unicode="&#xcc;" horiz-adv-x="368" d="M377 1434h20l-202 -1434h-21zM754 1589l-9 -16l-649 246l10 20z" />
<glyph unicode="&#xcd;" horiz-adv-x="368" d="M375 1434h20l-200 -1434h-21zM780 1839l6 -20l-718 -246l-5 16z" />
<glyph unicode="&#xce;" horiz-adv-x="368" d="M375 1434h20l-200 -1434h-21zM440 1817l-458 -275l-9 17l469 280l392 -280l-13 -17z" />
<glyph unicode="&#xcf;" horiz-adv-x="368" d="M377 1434h20l-202 -1434h-21zM195 1792l-29 -209h-21l29 209h21zM698 1792l-28 -209h-21l29 209h20z" />
<glyph unicode="&#xd0;" horiz-adv-x="2066" d="M1077 1434q254 0 437.5 -45.5t300 -128t172 -198.5t55.5 -255q0 -176 -66.5 -323.5t-208 -255t-362.5 -168t-528 -60.5h-703l98 707h-174l2 20h174l101 707h702zM977 707h-684l-96 -687h682q303 0 519 58.5t354 163t202.5 249t64.5 314.5q0 135 -54 247.5t-169 192.5 t-294 124t-429 44h-682l-96 -686h684z" />
<glyph unicode="&#xd1;" horiz-adv-x="2058" d="M2064 1434h21l-201 -1434h-18l-1475 1405l-196 -1405h-21l201 1434h18l1475 -1405zM1659 1747q-88 -78 -151.5 -105.5t-112.5 -27.5q-43 0 -78 15.5t-66.5 33.5t-62.5 33.5t-68 15.5q-41 0 -99 -26.5t-138 -98.5l-15 17q86 74 147.5 101.5t108.5 27.5q39 0 72 -15.5 t63.5 -34t63.5 -34t74 -15.5q43 0 102.5 28t145.5 101z" />
<glyph unicode="&#xd2;" horiz-adv-x="2191" d="M1663 1589l-8 -16l-649 246l10 20zM1083 -31q-215 2 -375.5 52.5t-268 137.5t-161 206.5t-53.5 261.5q0 174 71 327.5t207 266t336.5 178t460.5 65.5q217 0 379 -50t270.5 -138t163 -209t54.5 -262q0 -174 -69.5 -325.5t-206 -264.5t-339.5 -178.5t-469 -67.5zM248 631 q0 -137 52 -255t158.5 -204t264.5 -134t371 -48q254 0 449.5 63.5t329.5 173t203.5 258t69.5 318.5q0 137 -53 255t-158.5 204t-265.5 134t-371 48q-254 0 -449.5 -63.5t-329.5 -173t-202.5 -258t-68.5 -318.5z" />
<glyph unicode="&#xd3;" horiz-adv-x="2191" d="M1690 1839l6 -20l-719 -246l-4 16zM1083 -31q-215 2 -375.5 52.5t-268 137.5t-161 206.5t-53.5 261.5q0 174 71 327.5t207 266t336.5 178t460.5 65.5q217 0 379 -50t270.5 -138t163 -209t54.5 -262q0 -174 -69.5 -325.5t-206 -264.5t-339.5 -178.5t-469 -67.5zM248 631 q0 -137 52 -255t158.5 -204t264.5 -134t371 -48q254 0 449.5 63.5t329.5 173t203.5 258t69.5 318.5q0 137 -53 255t-158.5 204t-265.5 134t-371 48q-254 0 -449.5 -63.5t-329.5 -173t-202.5 -258t-68.5 -318.5z" />
<glyph unicode="&#xd4;" horiz-adv-x="2191" d="M1352 1817l-459 -275l-8 17l469 280l391 -280l-12 -17zM1083 -31q-215 2 -375.5 52.5t-268 137.5t-161 206.5t-53.5 261.5q0 174 71 327.5t207 266t336.5 178t460.5 65.5q217 0 379 -50t270.5 -138t163 -209t54.5 -262q0 -174 -69.5 -325.5t-206 -264.5t-339.5 -178.5 t-469 -67.5zM248 631q0 -137 52 -255t158.5 -204t264.5 -134t371 -48q254 0 449.5 63.5t329.5 173t203.5 258t69.5 318.5q0 137 -53 255t-158.5 204t-265.5 134t-371 48q-254 0 -449.5 -63.5t-329.5 -173t-202.5 -258t-68.5 -318.5z" />
<glyph unicode="&#xd5;" horiz-adv-x="2191" d="M1726 1747q-88 -78 -151.5 -105.5t-112.5 -27.5q-43 0 -77.5 15.5t-66.5 33.5t-62.5 33.5t-67.5 15.5q-41 0 -99.5 -26.5t-138.5 -98.5l-14 17q86 74 147.5 101.5t108.5 27.5q39 0 71.5 -15.5t63.5 -34t63.5 -34t73.5 -15.5q43 0 102.5 28t145.5 101zM1083 -31 q-215 2 -375.5 52.5t-268 137.5t-161 206.5t-53.5 261.5q0 174 71 327.5t207 266t336.5 178t460.5 65.5q217 0 379 -50t270.5 -138t163 -209t54.5 -262q0 -174 -69.5 -325.5t-206 -264.5t-339.5 -178.5t-469 -67.5zM248 631q0 -137 52 -255t158.5 -204t264.5 -134t371 -48 q254 0 449.5 63.5t329.5 173t203.5 258t69.5 318.5q0 137 -53 255t-158.5 204t-265.5 134t-371 48q-254 0 -449.5 -63.5t-329.5 -173t-202.5 -258t-68.5 -318.5z" />
<glyph unicode="&#xd6;" horiz-adv-x="2191" d="M1106 1792l-29 -209h-20l28 209h21zM1610 1792l-29 -209h-20l28 209h21zM1083 -31q-215 2 -375.5 52.5t-268 137.5t-161 206.5t-53.5 261.5q0 174 71 327.5t207 266t336.5 178t460.5 65.5q217 0 379 -50t270.5 -138t163 -209t54.5 -262q0 -174 -69.5 -325.5t-206 -264.5 t-339.5 -178.5t-469 -67.5zM248 631q0 -137 52 -255t158.5 -204t264.5 -134t371 -48q254 0 449.5 63.5t329.5 173t203.5 258t69.5 318.5q0 137 -53 255t-158.5 204t-265.5 134t-371 48q-254 0 -449.5 -63.5t-329.5 -173t-202.5 -258t-68.5 -318.5z" />
<glyph unicode="&#xd7;" horiz-adv-x="1353" d="M737 537l-301 352l17 14l301 -352l401 352l12 -14l-401 -352l303 -351l-16 -14l-303 350l-400 -350l-12 14z" />
<glyph unicode="&#xd8;" horiz-adv-x="2191" d="M225 627q0 174 71 327.5t207 266t336.5 178t460.5 65.5q186 0 333 -35.5t253 -101.5l137 121l13 -14l-133 -117q133 -86 198.5 -219t65.5 -291q0 -176 -71 -328.5t-208 -265.5t-336.5 -178.5t-459.5 -65.5q-184 0 -327.5 34t-250.5 95l-129 -112l-12 14l123 109 q-135 86 -203 222t-68 296zM246 631q0 -158 67.5 -289t202.5 -217l1352 1186q-104 63 -245.5 98t-324.5 35q-254 0 -449.5 -63.5t-329.5 -173t-203.5 -258t-69.5 -318.5zM2146 801q0 154 -65.5 285t-196.5 214l-1352 -1185q104 -59 242.5 -92t319.5 -33q254 0 449.5 63.5 t329.5 173t203.5 257t69.5 317.5z" />
<glyph unicode="&#xd9;" horiz-adv-x="2068" d="M2075 1434h20l-121 -861q-45 -317 -279.5 -460.5t-664.5 -143.5t-625.5 143.5t-150.5 460.5l121 861h20l-121 -861q-43 -307 147.5 -445t610.5 -138t649.5 138t272.5 445zM1602 1589l-9 -16l-649 246l10 20z" />
<glyph unicode="&#xda;" horiz-adv-x="2068" d="M2075 1434h20l-121 -861q-45 -317 -279.5 -460.5t-664.5 -143.5t-625.5 143.5t-150.5 460.5l121 861h20l-121 -861q-43 -307 147.5 -445t610.5 -138t649.5 138t272.5 445zM1628 1839l6 -20l-719 -246l-4 16z" />
<glyph unicode="&#xdb;" horiz-adv-x="2068" d="M2075 1434h20l-121 -861q-45 -317 -279.5 -460.5t-664.5 -143.5t-625.5 143.5t-150.5 460.5l121 861h20l-121 -861q-43 -307 147.5 -445t610.5 -138t649.5 138t272.5 445zM1288 1817l-457 -275l-8 17l469 280l391 -280l-12 -17z" />
<glyph unicode="&#xdc;" horiz-adv-x="2068" d="M2075 1434h20l-121 -861q-45 -317 -279.5 -460.5t-664.5 -143.5t-625.5 143.5t-150.5 460.5l121 861h20l-121 -861q-43 -307 147.5 -445t610.5 -138t649.5 138t272.5 445zM1044 1792l-30 -209h-21l31 209h20zM1548 1792l-30 -209h-21l31 209h20z" />
<glyph unicode="&#xdd;" horiz-adv-x="2072" d="M2243 1434l-1133 -979l-63 -455h-21l64 455l-859 979h29l313 -359l529 -602l696 602l416 359h29zM1630 1839l4 -20l-716 -246l-5 16z" />
<glyph unicode="&#xde;" horiz-adv-x="1976" d="M174 0l201 1434h20l-28 -211h1052q113 0 213.5 -22.5t175 -73t118.5 -133.5t44 -201q0 -164 -57.5 -274.5t-153.5 -180.5t-222 -99.5t-261 -29.5h-1053l-28 -209h-21zM362 1202l-135 -973h1053q131 0 253 29t214 95.5t147.5 173t55.5 261.5q0 115 -42 194t-115 128 t-170 70.5t-208 21.5h-1053z" />
<glyph unicode="&#xdf;" horiz-adv-x="2203" d="M154 0l165 1178q10 68 51.5 115.5t101.5 79.5t135 50.5t153 27.5t152.5 11t136.5 2q104 0 212.5 -6t225.5 -22l-121 -351q-61 0 -137 -2t-155 -11t-153.5 -27.5t-133 -51t-94.5 -81t-36 -117.5q0 -80 57.5 -122t150.5 -62.5t213 -23.5t245 -5q127 -2 250 -7.5t220 -30 t156.5 -74.5t59.5 -142q0 -82 -45 -140.5t-117.5 -97.5t-164 -63.5t-183.5 -37t-175 -16.5t-140 -4q-86 0 -165 4t-158 15.5t-163 29t-180 41.5l6 21q98 -25 181 -42.5t161 -28.5t156 -15t164 -4q55 0 136 4t170 15t178 34t160 59.5t115 91t44 130.5q0 86 -57.5 133 t-151.5 70.5t-215 28.5t-248 5t-250 5t-218 26.5t-153.5 68t-58.5 130.5q0 74 35 126t93 86.5t133 55t153.5 31t156.5 13.5t144 3l106 311q-111 12 -212 19.5t-199 7.5q-59 0 -132 -2t-149 -10.5t-148.5 -25.5t-131 -47t-98.5 -74t-48 -107l-166 -1178h-20z" />
<glyph unicode="&#xe0;" horiz-adv-x="1777" d="M1737 0q-29 -16 -57.5 -23.5t-51.5 -7.5q-43 0 -69.5 14.5t-39 48.5t-11.5 92t14 144q-51 -61 -129 -115.5t-176.5 -95.5t-213 -64.5t-239.5 -23.5t-229.5 20.5t-179 62.5t-116.5 103.5t-42 143.5q0 115 60 187.5t154.5 114.5t208 58.5t220.5 16.5q68 0 162 -8.5 t194 -21.5t197.5 -32.5t171.5 -42.5q20 119 1.5 214.5t-88 162t-195.5 102t-318 35.5q-98 0 -188.5 -8t-164 -20.5t-126 -25.5t-76.5 -21l-2 18q25 8 78 21.5t127.5 25.5t165.5 21.5t190 9.5q193 0 320.5 -37t199.5 -101.5t95.5 -153.5t8.5 -193l-55 -394q-18 -129 0 -183 t92 -54q20 0 51 7t58 23zM219 301q0 -76 40 -134t112.5 -97t173 -59.5t221.5 -20.5q123 0 236.5 23.5t213 65.5t178.5 97t132 119l37 254q-74 23 -171.5 42t-197.5 33.5t-194.5 22.5t-161.5 8q-102 0 -212 -15t-200 -54t-148.5 -109t-58.5 -176zM1405 1231l-8 -17l-649 246 l12 21z" />
<glyph unicode="&#xe1;" horiz-adv-x="1777" d="M1737 0q-29 -16 -57.5 -23.5t-51.5 -7.5q-43 0 -69.5 14.5t-39 48.5t-11.5 92t14 144q-51 -61 -129 -115.5t-176.5 -95.5t-213 -64.5t-239.5 -23.5t-229.5 20.5t-179 62.5t-116.5 103.5t-42 143.5q0 115 60 187.5t154.5 114.5t208 58.5t220.5 16.5q68 0 162 -8.5 t194 -21.5t197.5 -32.5t171.5 -42.5q20 119 1.5 214.5t-88 162t-195.5 102t-318 35.5q-98 0 -188.5 -8t-164 -20.5t-126 -25.5t-76.5 -21l-2 18q25 8 78 21.5t127.5 25.5t165.5 21.5t190 9.5q193 0 320.5 -37t199.5 -101.5t95.5 -153.5t8.5 -193l-55 -394q-18 -129 0 -183 t92 -54q20 0 51 7t58 23zM219 301q0 -76 40 -134t112.5 -97t173 -59.5t221.5 -20.5q123 0 236.5 23.5t213 65.5t178.5 97t132 119l37 254q-74 23 -171.5 42t-197.5 33.5t-194.5 22.5t-161.5 8q-102 0 -212 -15t-200 -54t-148.5 -109t-58.5 -176zM1434 1481l4 -21l-719 -246 l-4 17z" />
<glyph unicode="&#xe2;" horiz-adv-x="1777" d="M1737 0q-29 -16 -57.5 -23.5t-51.5 -7.5q-43 0 -69.5 14.5t-39 48.5t-11.5 92t14 144q-51 -61 -129 -115.5t-176.5 -95.5t-213 -64.5t-239.5 -23.5t-229.5 20.5t-179 62.5t-116.5 103.5t-42 143.5q0 115 60 187.5t154.5 114.5t208 58.5t220.5 16.5q68 0 162 -8.5 t194 -21.5t197.5 -32.5t171.5 -42.5q20 119 1.5 214.5t-88 162t-195.5 102t-318 35.5q-98 0 -188.5 -8t-164 -20.5t-126 -25.5t-76.5 -21l-2 18q25 8 78 21.5t127.5 25.5t165.5 21.5t190 9.5q193 0 320.5 -37t199.5 -101.5t95.5 -153.5t8.5 -193l-55 -394q-18 -129 0 -183 t92 -54q20 0 51 7t58 23zM219 301q0 -76 40 -134t112.5 -97t173 -59.5t221.5 -20.5q123 0 236.5 23.5t213 65.5t178.5 97t132 119l37 254q-74 23 -171.5 42t-197.5 33.5t-194.5 22.5t-161.5 8q-102 0 -212 -15t-200 -54t-148.5 -109t-58.5 -176zM1094 1458l-459 -274l-8 16 l471 281l389 -281l-12 -16z" />
<glyph unicode="&#xe3;" horiz-adv-x="1777" d="M1737 0q-29 -16 -57.5 -23.5t-51.5 -7.5q-43 0 -69.5 14.5t-39 48.5t-11.5 92t14 144q-51 -61 -129 -115.5t-176.5 -95.5t-213 -64.5t-239.5 -23.5t-229.5 20.5t-179 62.5t-116.5 103.5t-42 143.5q0 115 60 187.5t154.5 114.5t208 58.5t220.5 16.5q68 0 162 -8.5 t194 -21.5t197.5 -32.5t171.5 -42.5q20 119 1.5 214.5t-88 162t-195.5 102t-318 35.5q-98 0 -188.5 -8t-164 -20.5t-126 -25.5t-76.5 -21l-2 18q25 8 78 21.5t127.5 25.5t165.5 21.5t190 9.5q193 0 320.5 -37t199.5 -101.5t95.5 -153.5t8.5 -193l-55 -394q-18 -129 0 -183 t92 -54q20 0 51 7t58 23zM219 301q0 -76 40 -134t112.5 -97t173 -59.5t221.5 -20.5q123 0 236.5 23.5t213 65.5t178.5 97t132 119l37 254q-74 23 -171.5 42t-197.5 33.5t-194.5 22.5t-161.5 8q-102 0 -212 -15t-200 -54t-148.5 -109t-58.5 -176zM1425 1389 q-88 -78 -151.5 -106t-112.5 -28q-43 0 -77.5 15.5t-65.5 34t-61.5 34t-67.5 15.5q-41 0 -99.5 -27t-140.5 -98l-14 16q86 74 147.5 101.5t108.5 27.5q39 0 71.5 -15.5t64.5 -33.5t64.5 -33.5t73.5 -15.5q43 0 102.5 27.5t143.5 101.5z" />
<glyph unicode="&#xe4;" horiz-adv-x="1777" d="M1737 0q-29 -16 -57.5 -23.5t-51.5 -7.5q-43 0 -69.5 14.5t-39 48.5t-11.5 92t14 144q-51 -61 -129 -115.5t-176.5 -95.5t-213 -64.5t-239.5 -23.5t-229.5 20.5t-179 62.5t-116.5 103.5t-42 143.5q0 115 60 187.5t154.5 114.5t208 58.5t220.5 16.5q68 0 162 -8.5 t194 -21.5t197.5 -32.5t171.5 -42.5q20 119 1.5 214.5t-88 162t-195.5 102t-318 35.5q-98 0 -188.5 -8t-164 -20.5t-126 -25.5t-76.5 -21l-2 18q25 8 78 21.5t127.5 25.5t165.5 21.5t190 9.5q193 0 320.5 -37t199.5 -101.5t95.5 -153.5t8.5 -193l-55 -394q-18 -129 0 -183 t92 -54q20 0 51 7t58 23zM219 301q0 -76 40 -134t112.5 -97t173 -59.5t221.5 -20.5q123 0 236.5 23.5t213 65.5t178.5 97t132 119l37 254q-74 23 -171.5 42t-197.5 33.5t-194.5 22.5t-161.5 8q-102 0 -212 -15t-200 -54t-148.5 -109t-58.5 -176zM848 1434l-29 -209h-20 l28 209h21zM1352 1434l-29 -209h-20l28 209h21z" />
<glyph unicode="&#xe5;" horiz-adv-x="1777" d="M1737 0q-29 -16 -57.5 -23.5t-51.5 -7.5q-43 0 -69.5 14.5t-39 48.5t-11.5 92t14 144q-51 -61 -129 -115.5t-176.5 -95.5t-213 -64.5t-239.5 -23.5t-229.5 20.5t-179 62.5t-116.5 103.5t-42 143.5q0 115 60 187.5t154.5 114.5t208 58.5t220.5 16.5q68 0 162 -8.5 t194 -21.5t197.5 -32.5t171.5 -42.5q20 119 1.5 214.5t-88 162t-195.5 102t-318 35.5q-98 0 -188.5 -8t-164 -20.5t-126 -25.5t-76.5 -21l-2 18q25 8 78 21.5t127.5 25.5t165.5 21.5t190 9.5q193 0 320.5 -37t199.5 -101.5t95.5 -153.5t8.5 -193l-55 -394q-18 -129 0 -183 t92 -54q20 0 51 7t58 23zM219 301q0 -76 40 -134t112.5 -97t173 -59.5t221.5 -20.5q123 0 236.5 23.5t213 65.5t178.5 97t132 119l37 254q-74 23 -171.5 42t-197.5 33.5t-194.5 22.5t-161.5 8q-102 0 -212 -15t-200 -54t-148.5 -109t-58.5 -176zM850 1303q0 45 14.5 83.5 t45 67.5t78.5 46.5t114 17.5q104 0 151 -45.5t47 -114.5q0 -90 -60 -154.5t-191 -64.5q-106 0 -152.5 47t-46.5 117zM872 1331q-10 -72 31 -122t150 -50q119 0 172 58.5t53 136.5q0 61 -41 102t-137 41q-109 0 -163.5 -47t-64.5 -119z" />
<glyph unicode="&#xe6;" horiz-adv-x="3000" d="M725 -31q-115 0 -212 20.5t-168 62.5t-109.5 103.5t-38.5 141.5q0 115 59 188.5t148.5 115.5t195 58.5t199.5 16.5q80 0 170 -10.5t183 -32t185.5 -54t178.5 -75.5q31 152 15.5 261t-83.5 181t-193 105.5t-311 33.5q-98 0 -185 -8t-157 -20.5t-119 -25.5t-73 -21l-2 18 q25 8 74.5 21.5t120.5 25.5t159 21.5t188 9.5q178 0 297 -32t189.5 -89t98.5 -135t21 -172q35 92 98.5 171t156 136t215 89t280.5 32q174 0 312.5 -41t220 -121t99 -196.5t-51.5 -270.5h-1352q-18 -236 151.5 -361.5t550.5 -125.5q109 0 206.5 9t176 22.5t135 27.5t85.5 25 l4 -19q-29 -10 -86.5 -24.5t-137 -28.5t-179 -23.5t-210.5 -9.5q-369 0 -543 117t-178 336q-33 -92 -100.5 -175t-166.5 -144.5t-229 -97.5t-288 -36zM221 336q-12 -86 20.5 -150.5t101.5 -107.5t167 -65.5t217 -22.5q160 0 291 38t231.5 103.5t167 154.5t94.5 193 q-170 90 -360 133t-354 43q-84 0 -179.5 -13t-179.5 -49t-143.5 -98.5t-73.5 -158.5zM2873 498q66 158 39.5 269.5t-114.5 182t-220.5 103t-279.5 32.5q-178 0 -314.5 -44t-231.5 -121.5t-149.5 -185t-68.5 -236.5h1339z" />
<glyph unicode="&#xe7;" horiz-adv-x="1646" d="M662 -463l16 21q51 -8 134 -11.5t163 9t137 46t57 101.5q0 31 -22.5 55.5t-62.5 40t-92 21.5t-111 2q-6 0 -12.5 5t-2.5 13l88 129q-203 0 -349 38t-240.5 104.5t-138.5 157.5t-44 202q0 135 54.5 251t168 202t291.5 134t424 48q113 0 206 -9.5t165 -23.5t122 -28.5 t75 -24.5l-9 -19q-25 10 -74 24.5t-119.5 28t-163.5 22.5t-206 9q-240 0 -413 -47t-283.5 -129t-163.5 -193.5t-53 -240.5q0 -106 44 -195.5t136 -154t235.5 -100t344.5 -35.5q113 0 208 9t169.5 22.5t127 27.5t80.5 25l4 -19q-57 -20 -205.5 -52t-367.5 -34l-86 -125 q61 6 116.5 0t95.5 -24.5t63.5 -46t23.5 -64.5q0 -55 -31 -91t-80 -56.5t-108.5 -27.5t-118.5 -8t-110 3t-82 8z" />
<glyph unicode="&#xe8;" horiz-adv-x="1708" d="M203 477q-16 -240 162 -363.5t557 -123.5q111 0 212 9t184 22.5t142.5 27.5t87.5 25l4 -19q-29 -10 -89 -24.5t-144 -28.5t-186.5 -23.5t-212.5 -9.5q-373 0 -556.5 126t-183.5 360q0 131 51.5 249.5t152.5 207.5t251.5 141.5t351.5 52.5q174 0 317.5 -40t230.5 -119 t108.5 -196.5t-48.5 -273.5h-1392zM203 498h1380q66 158 36 269.5t-122 182t-228 103t-286 32.5q-176 0 -314.5 -44t-235.5 -118.5t-154.5 -176t-71.5 -216.5zM1370 1231l-8 -17l-649 246l10 21z" />
<glyph unicode="&#xe9;" horiz-adv-x="1708" d="M203 477q-16 -240 162 -363.5t557 -123.5q111 0 212 9t184 22.5t142.5 27.5t87.5 25l4 -19q-29 -10 -89 -24.5t-144 -28.5t-186.5 -23.5t-212.5 -9.5q-373 0 -556.5 126t-183.5 360q0 131 51.5 249.5t152.5 207.5t251.5 141.5t351.5 52.5q174 0 317.5 -40t230.5 -119 t108.5 -196.5t-48.5 -273.5h-1392zM203 498h1380q66 158 36 269.5t-122 182t-228 103t-286 32.5q-176 0 -314.5 -44t-235.5 -118.5t-154.5 -176t-71.5 -216.5zM1397 1481l6 -21l-719 -246l-4 17z" />
<glyph unicode="&#xea;" horiz-adv-x="1708" d="M203 477q-16 -240 162 -363.5t557 -123.5q111 0 212 9t184 22.5t142.5 27.5t87.5 25l4 -19q-29 -10 -89 -24.5t-144 -28.5t-186.5 -23.5t-212.5 -9.5q-373 0 -556.5 126t-183.5 360q0 131 51.5 249.5t152.5 207.5t251.5 141.5t351.5 52.5q174 0 317.5 -40t230.5 -119 t108.5 -196.5t-48.5 -273.5h-1392zM203 498h1380q66 158 36 269.5t-122 182t-228 103t-286 32.5q-176 0 -314.5 -44t-235.5 -118.5t-154.5 -176t-71.5 -216.5zM1059 1458l-459 -274l-8 16l469 281l391 -281l-12 -16z" />
<glyph unicode="&#xeb;" horiz-adv-x="1708" d="M203 477q-16 -240 162 -363.5t557 -123.5q111 0 212 9t184 22.5t142.5 27.5t87.5 25l4 -19q-29 -10 -89 -24.5t-144 -28.5t-186.5 -23.5t-212.5 -9.5q-373 0 -556.5 126t-183.5 360q0 131 51.5 249.5t152.5 207.5t251.5 141.5t351.5 52.5q174 0 317.5 -40t230.5 -119 t108.5 -196.5t-48.5 -273.5h-1392zM203 498h1380q66 158 36 269.5t-122 182t-228 103t-286 32.5q-176 0 -314.5 -44t-235.5 -118.5t-154.5 -176t-71.5 -216.5zM813 1434l-29 -209h-20l29 209h20zM1317 1434l-29 -209h-20l28 209h21z" />
<glyph unicode="&#xec;" horiz-adv-x="409" d="M195 0l151 1083l23 9l-154 -1092h-20zM406 1231l-9 -17l-649 246l10 21z" />
<glyph unicode="&#xed;" horiz-adv-x="409" d="M195 0l151 1083l23 9l-154 -1092h-20zM1079 1481l4 -21l-718 -246l-5 17z" />
<glyph unicode="&#xee;" horiz-adv-x="409" d="M195 0l151 1083l23 9l-154 -1092h-20zM410 1458l-459 -274l-8 16l469 281l391 -281l-12 -16z" />
<glyph unicode="&#xef;" horiz-adv-x="409" d="M195 0l151 1083l23 9l-154 -1092h-20zM164 1434l-29 -209h-20l28 209h21zM668 1434l-29 -209h-21l29 209h21z" />
<glyph unicode="&#xf0;" horiz-adv-x="1794" d="M1413 1079l191 166q-98 104 -247 148.5t-329 44.5q-123 0 -254 -13l-2 21q131 12 258 12q193 0 342.5 -48t245.5 -153l235 207l13 -14l-236 -207q86 -98 119 -242.5t4 -343.5q-23 -156 -82 -282.5t-162.5 -216.5t-252 -139.5t-345.5 -49.5q-180 0 -319 41t-230.5 115 t-131.5 177.5t-21 227.5q18 135 92 235.5t182.5 167t240.5 99.5t267 33q139 0 274.5 -35t238 -101.5t160.5 -164.5t46 -223q55 246 25.5 414.5t-119.5 275.5l-191 -166zM229 530q-16 -121 23 -220t128 -169.5t222 -110.5t305 -40q199 0 342.5 50t237.5 129t143 173t62 182 q18 127 -40.5 224.5t-160.5 163t-236.5 99t-265.5 33.5q-129 0 -257 -31.5t-234.5 -96t-178.5 -161t-90 -225.5z" />
<glyph unicode="&#xf1;" d="M1573 0l76 545q16 117 -7.5 215t-91 171t-181.5 113.5t-277 40.5q-104 0 -213 -15t-213.5 -39.5t-197.5 -54.5t-165 -58l-129 -918h-20l151 1083l21 9l-21 -152v-2q74 29 167 58.5t196.5 54t213 40t214.5 15.5q168 0 285.5 -42t187 -118t93.5 -178t7 -223l-76 -545h-20z M1452 1389q-88 -78 -151.5 -106t-112.5 -28q-43 0 -78 15.5t-65.5 34t-61.5 34t-68 15.5q-41 0 -99 -27t-140 -98l-14 16q86 74 147 101.5t109 27.5q39 0 71.5 -15.5t64 -33.5t64.5 -33.5t74 -15.5q43 0 102.5 27.5t143.5 101.5z" />
<glyph unicode="&#xf2;" horiz-adv-x="1699" d="M1366 1231l-8 -17l-649 246l12 21zM1006 1106q164 0 287.5 -36t207.5 -100.5t126 -154.5t42 -197q0 -170 -74.5 -291.5t-192.5 -201.5t-265.5 -118t-292.5 -38q-164 0 -287 36t-207 99.5t-126 152.5t-42 198q0 172 74 293.5t190.5 200.5t264.5 117t295 40zM203 459 q0 -104 41 -190.5t123 -148t201.5 -96t279.5 -34.5q150 0 294 40t256.5 118.5t181.5 195.5t69 270q0 104 -41 190.5t-123 149t-203 97t-281 34.5q-152 0 -296 -39.5t-255.5 -118.5t-179 -196.5t-67.5 -271.5z" />
<glyph unicode="&#xf3;" horiz-adv-x="1699" d="M1395 1481l4 -21l-719 -246l-4 17zM1006 1106q164 0 287.5 -36t207.5 -100.5t126 -154.5t42 -197q0 -170 -74.5 -291.5t-192.5 -201.5t-265.5 -118t-292.5 -38q-164 0 -287 36t-207 99.5t-126 152.5t-42 198q0 172 74 293.5t190.5 200.5t264.5 117t295 40zM203 459 q0 -104 41 -190.5t123 -148t201.5 -96t279.5 -34.5q150 0 294 40t256.5 118.5t181.5 195.5t69 270q0 104 -41 190.5t-123 149t-203 97t-281 34.5q-152 0 -296 -39.5t-255.5 -118.5t-179 -196.5t-67.5 -271.5z" />
<glyph unicode="&#xf4;" horiz-adv-x="1699" d="M1055 1458l-459 -274l-8 16l471 281l389 -281l-12 -16zM1006 1106q164 0 287.5 -36t207.5 -100.5t126 -154.5t42 -197q0 -170 -74.5 -291.5t-192.5 -201.5t-265.5 -118t-292.5 -38q-164 0 -287 36t-207 99.5t-126 152.5t-42 198q0 172 74 293.5t190.5 200.5t264.5 117 t295 40zM203 459q0 -104 41 -190.5t123 -148t201.5 -96t279.5 -34.5q150 0 294 40t256.5 118.5t181.5 195.5t69 270q0 104 -41 190.5t-123 149t-203 97t-281 34.5q-152 0 -296 -39.5t-255.5 -118.5t-179 -196.5t-67.5 -271.5z" />
<glyph unicode="&#xf5;" horiz-adv-x="1699" d="M1430 1389q-88 -78 -152 -106t-113 -28q-43 0 -77.5 15.5t-65.5 34t-61.5 34t-67.5 15.5q-41 0 -99.5 -27t-140.5 -98l-14 16q86 74 147.5 101.5t108.5 27.5q39 0 71.5 -15.5t64.5 -33.5t64.5 -33.5t73.5 -15.5q43 0 102.5 27.5t143.5 101.5zM1006 1106q164 0 287.5 -36 t207.5 -100.5t126 -154.5t42 -197q0 -170 -74.5 -291.5t-192.5 -201.5t-265.5 -118t-292.5 -38q-164 0 -287 36t-207 99.5t-126 152.5t-42 198q0 172 74 293.5t190.5 200.5t264.5 117t295 40zM203 459q0 -104 41 -190.5t123 -148t201.5 -96t279.5 -34.5q150 0 294 40 t256.5 118.5t181.5 195.5t69 270q0 104 -41 190.5t-123 149t-203 97t-281 34.5q-152 0 -296 -39.5t-255.5 -118.5t-179 -196.5t-67.5 -271.5z" />
<glyph unicode="&#xf6;" horiz-adv-x="1699" d="M809 1434l-29 -209h-20l28 209h21zM1313 1434l-29 -209h-20l28 209h21zM1006 1106q164 0 287.5 -36t207.5 -100.5t126 -154.5t42 -197q0 -170 -74.5 -291.5t-192.5 -201.5t-265.5 -118t-292.5 -38q-164 0 -287 36t-207 99.5t-126 152.5t-42 198q0 172 74 293.5 t190.5 200.5t264.5 117t295 40zM203 459q0 -104 41 -190.5t123 -148t201.5 -96t279.5 -34.5q150 0 294 40t256.5 118.5t181.5 195.5t69 270q0 104 -41 190.5t-123 149t-203 97t-281 34.5q-152 0 -296 -39.5t-255.5 -118.5t-179 -196.5t-67.5 -271.5z" />
<glyph unicode="&#xf7;" horiz-adv-x="1484" d="M870 834h-20l31 210h20zM1325 547l-2 -21h-1014l2 21h1014zM758 31h-21l29 211h20z" />
<glyph unicode="&#xf8;" horiz-adv-x="1699" d="M295 -31l-12 15l106 94q-104 66 -155.5 168t-51.5 225q0 135 55.5 252t162 202t259 133t347.5 48q141 0 250.5 -26.5t193.5 -73.5l117 102l12 -14l-115 -101q102 -66 153.5 -166t51.5 -223q0 -135 -55 -250.5t-161.5 -201.5t-259.5 -134.5t-347 -48.5q-139 0 -249 25.5 t-189 73.5zM203 473q0 -119 51 -218t154 -163l1024 897q-80 47 -187.5 71.5t-243.5 24.5q-190 0 -338.5 -46t-251 -128t-155.5 -194.5t-53 -243.5zM1649 602q0 117 -50.5 215t-150.5 162l-1024 -897q80 -45 184.5 -68.5t239.5 -23.5q190 0 338.5 47t251 129t157 193.5 t54.5 242.5z" />
<glyph unicode="&#xf9;" d="M227 530l76 545h23l-78 -545q-16 -117 8.5 -215t91 -170.5t177 -113.5t268.5 -41q211 0 411.5 73.5t405.5 204.5l114 807h21l-152 -1075h-18l35 246l-2 2q-80 -55 -173.5 -105.5t-197.5 -88.5t-217 -61.5t-232 -23.5q-160 0 -274.5 42t-183 118t-94 178t-9.5 223z M1391 1231l-9 -17l-649 246l12 21z" />
<glyph unicode="&#xfa;" d="M227 530l76 545h23l-78 -545q-16 -117 8.5 -215t91 -170.5t177 -113.5t268.5 -41q211 0 411.5 73.5t405.5 204.5l114 807h21l-152 -1075h-18l35 246l-2 2q-80 -55 -173.5 -105.5t-197.5 -88.5t-217 -61.5t-232 -23.5q-160 0 -274.5 42t-183 118t-94 178t-9.5 223z M1419 1481l4 -21l-718 -246l-5 17z" />
<glyph unicode="&#xfb;" d="M227 530l76 545h23l-78 -545q-16 -117 8.5 -215t91 -170.5t177 -113.5t268.5 -41q211 0 411.5 73.5t405.5 204.5l114 807h21l-152 -1075h-18l35 246l-2 2q-80 -55 -173.5 -105.5t-197.5 -88.5t-217 -61.5t-232 -23.5q-160 0 -274.5 42t-183 118t-94 178t-9.5 223z M1077 1458l-459 -274l-8 16l471 281l389 -281l-12 -16z" />
<glyph unicode="&#xfc;" d="M227 530l76 545h23l-78 -545q-16 -117 8.5 -215t91 -170.5t177 -113.5t268.5 -41q211 0 411.5 73.5t405.5 204.5l114 807h21l-152 -1075h-18l35 246l-2 2q-80 -55 -173.5 -105.5t-197.5 -88.5t-217 -61.5t-232 -23.5q-160 0 -274.5 42t-183 118t-94 178t-9.5 223z M831 1434l-28 -209h-21l29 209h20zM1335 1434l-28 -209h-21l29 209h20z" />
<glyph unicode="&#xfd;" horiz-adv-x="1695" d="M223 1075h27l319 -563l291 -514l889 1077h27l-955 -1155q-76 -92 -143.5 -151.5t-132 -94t-127 -49t-123.5 -14.5q-53 0 -107.5 8t-113.5 21l4 22q57 -12 112.5 -21.5t106.5 -9.5q70 0 133.5 17.5t124.5 54.5t122.5 94.5t127.5 134.5l39 48zM1391 1481l6 -21l-719 -246 l-4 17z" />
<glyph unicode="&#xfe;" horiz-adv-x="1767" d="M209 268l-43 -319l-47 -338h-21l260 1845l21 8l-55 -389l-21 -137l2 -2q80 37 179.5 67.5t205 54t213 36t201.5 12.5q158 0 276.5 -37t197.5 -103.5t119 -157.5t40 -198q0 -137 -53.5 -253.5t-152.5 -202.5t-243.5 -135.5t-324.5 -49.5q-238 0 -428.5 83t-323.5 218z M1102 1085q-96 0 -205 -13t-216.5 -36.5t-205.5 -54.5t-172 -66l-88 -620q63 -66 145 -121t178.5 -96t205 -64.5t227.5 -23.5q172 0 309 47t234.5 130t149.5 195.5t52 243.5q0 104 -39 192.5t-115.5 152t-191 99t-268.5 35.5z" />
<glyph unicode="&#xff;" horiz-adv-x="1695" d="M223 1075h27l319 -563l291 -514l889 1077h27l-955 -1155q-76 -92 -143.5 -151.5t-132 -94t-127 -49t-123.5 -14.5q-53 0 -107.5 8t-113.5 21l4 22q57 -12 112.5 -21.5t106.5 -9.5q70 0 133.5 17.5t124.5 54.5t122.5 94.5t127.5 134.5l39 48zM807 1434l-29 -209h-20 l28 209h21zM1311 1434l-29 -209h-20l28 209h21z" />
<glyph unicode="&#x152;" horiz-adv-x="3428" d="M1894 0l35 260q-137 -135 -347 -213t-490 -78q-217 0 -380 50.5t-270.5 138.5t-162 208.5t-54.5 262.5q0 174 71 326.5t207 265t336.5 178t460.5 65.5q283 0 471.5 -77.5t286.5 -215.5l37 263h1555l-3 -21h-1533l-95 -665h1411l-2 -21h-1411l-100 -707h1575l-2 -20h-1596 zM1094 -10q287 0 496.5 81t344.5 222l119 846q-94 141 -282.5 223t-473.5 82q-254 0 -449.5 -63.5t-329.5 -173t-203.5 -258t-69.5 -318.5q0 -137 53 -255t158.5 -204t264.5 -134t372 -48z" />
<glyph unicode="&#x153;" horiz-adv-x="3082" d="M182 467q0 135 52.5 252t153.5 203t250.5 135t346.5 49q158 0 276.5 -34t198.5 -93t122 -144t46 -186q31 96 93.5 180t155.5 145.5t218 96.5t285 35q174 0 314 -40t224 -119t101.5 -196.5t-51.5 -273.5h-1352q-16 -238 152.5 -362.5t545.5 -124.5q111 0 209 9t177 22.5 t135.5 27.5t84.5 25l5 -19q-29 -10 -86.5 -24.5t-137.5 -28.5t-179 -23.5t-210 -9.5q-365 0 -539 115t-180 334q-35 -100 -100.5 -182t-162.5 -141.5t-223 -92.5t-282 -33q-162 0 -282.5 37t-200.5 103.5t-120 157.5t-40 200zM1608 608q0 104 -39 192.5t-117 151t-195.5 98 t-275.5 35.5q-190 0 -335.5 -47t-244 -130t-148.5 -195.5t-50 -243.5q0 -104 38 -192.5t115.5 -152t195.5 -99t275 -35.5q190 0 337 47t245 130t148.5 196.5t50.5 244.5zM2955 498q66 158 39.5 269.5t-115 182t-221.5 103t-282 32.5q-172 0 -308.5 -43t-231.5 -121.5 t-151.5 -186t-68.5 -236.5h1339z" />
<glyph unicode="&#x178;" horiz-adv-x="2072" d="M2243 1434l-1133 -979l-63 -455h-21l64 455l-859 979h29l313 -359l529 -602l696 602l416 359h29zM1047 1792l-31 -209h-21l31 209h21zM1550 1792l-30 -209h-21l31 209h20z" />
<glyph unicode="&#x2c6;" horiz-adv-x="1765" d="M977 1458l-459 -274l-8 16l469 281l391 -281l-12 -16z" />
<glyph unicode="&#x2dc;" horiz-adv-x="1765" d="M1378 1389q-88 -78 -151.5 -106t-112.5 -28q-43 0 -78 15.5t-66.5 34t-62 34t-67.5 15.5q-41 0 -99.5 -27t-138.5 -98l-14 16q86 74 147.5 101.5t108.5 27.5q39 0 71.5 -15.5t63.5 -33.5t63.5 -33.5t73.5 -15.5q43 0 102.5 27.5t145.5 101.5z" />
<glyph unicode="&#x2000;" horiz-adv-x="919" />
<glyph unicode="&#x2001;" horiz-adv-x="1839" />
<glyph unicode="&#x2002;" horiz-adv-x="919" />
<glyph unicode="&#x2003;" horiz-adv-x="1839" />
<glyph unicode="&#x2004;" horiz-adv-x="613" />
<glyph unicode="&#x2005;" horiz-adv-x="459" />
<glyph unicode="&#x2006;" horiz-adv-x="306" />
<glyph unicode="&#x2007;" horiz-adv-x="306" />
<glyph unicode="&#x2008;" horiz-adv-x="229" />
<glyph unicode="&#x2009;" horiz-adv-x="367" />
<glyph unicode="&#x200a;" horiz-adv-x="102" />
<glyph unicode="&#x2010;" horiz-adv-x="1484" d="M352 690h973l-2 -20h-973z" />
<glyph unicode="&#x2011;" horiz-adv-x="1484" d="M352 690h973l-2 -20h-973z" />
<glyph unicode="&#x2012;" horiz-adv-x="1484" d="M352 690h973l-2 -20h-973z" />
<glyph unicode="&#x2013;" horiz-adv-x="1648" d="M365 627l2 20h1095l-2 -20h-1095z" />
<glyph unicode="&#x2014;" horiz-adv-x="2385" d="M367 647h1833l-2 -20h-1833z" />
<glyph unicode="&#x2018;" horiz-adv-x="446" d="M377 922q-16 90 0 228t65 284h19q-20 -63 -35.5 -131t-24 -135.5t-9.5 -131t9 -114.5h-24z" />
<glyph unicode="&#x2019;" horiz-adv-x="446" d="M399 1434q16 -90 0 -228.5t-65 -283.5h-19q20 63 36 130.5t25 135t9 130t-10 116.5h24z" />
<glyph unicode="&#x201a;" horiz-adv-x="446" d="M240 295q16 -90 -0.5 -228.5t-65.5 -283.5h-18q20 63 35.5 131t24.5 135.5t9 130t-10 115.5h25z" />
<glyph unicode="&#x201c;" horiz-adv-x="843" d="M774 922q-16 90 0.5 228t65.5 284h18q-20 -63 -35.5 -131t-23.5 -135.5t-9.5 -131t9.5 -114.5h-25zM377 922q-16 90 0 228t65 284h19q-20 -63 -35.5 -131t-24 -135.5t-9.5 -131t9 -114.5h-24z" />
<glyph unicode="&#x201d;" horiz-adv-x="843" d="M399 1434q16 -90 0 -228.5t-65 -283.5h-19q20 63 36 130.5t25 135t9 130t-10 116.5h24zM797 1434q16 -90 -0.5 -228.5t-65.5 -283.5h-18q20 63 35.5 130.5t24.5 135t9 130t-10 116.5h25z" />
<glyph unicode="&#x201e;" horiz-adv-x="843" d="M240 295q16 -90 -0.5 -228.5t-65.5 -283.5h-18q20 63 35.5 131t24.5 135.5t9 130t-10 115.5h25zM637 295q16 -90 0 -228.5t-66 -283.5h-18q20 63 35.5 131t25 135.5t9.5 130t-11 115.5h25z" />
<glyph unicode="&#x2022;" horiz-adv-x="661" d="M236 731q10 72 63 118t158 46q104 0 144 -46t30 -118q-10 -74 -63.5 -123t-157.5 -49t-144 49t-30 123z" />
<glyph unicode="&#x2026;" horiz-adv-x="1187" d="M297 297l-41 -297h-20l40 297h21zM645 297l-41 -297h-20l41 297h20zM993 297l-41 -297h-20l41 297h20z" />
<glyph unicode="&#x202f;" horiz-adv-x="367" />
<glyph unicode="&#x2039;" horiz-adv-x="974" d="M942 1106l10 -16l-663 -500l524 -498l-14 -16l-543 514z" />
<glyph unicode="&#x203a;" horiz-adv-x="974" d="M883 590l-686 -514l-11 16l664 498l-524 500l16 16z" />
<glyph unicode="&#x205f;" horiz-adv-x="459" />
<glyph unicode="&#x20ac;" horiz-adv-x="1847" d="M193 870l4 21h157q49 156 139.5 265.5t208 178t259 99t292.5 30.5q162 0 327 -30.5t323 -83.5l-9 -21q-158 53 -320.5 84t-322.5 31q-147 0 -285.5 -30t-253 -95.5t-201.5 -171t-136 -256.5h1198l-4 -21h-1202q-20 -84 -30.5 -158.5t-12.5 -148.5h1202l-2 -20h-1198 q6 -152 63 -257.5t153.5 -171t226.5 -95t278 -29.5q160 0 330.5 30.5t344.5 83.5l4 -20q-174 -53 -347 -84t-335 -31q-152 0 -283.5 31t-232 99.5t-160 177t-63.5 266.5h-158l3 20h153q2 78 13.5 155t29.5 152h-153z" />
<glyph unicode="&#x2122;" horiz-adv-x="2316" d="M1714 778l-428 621l-106 -754h-21l111 789h18l441 -635l616 635h18l-110 -789h-21l107 754l-604 -621h-21zM776 1413l-108 -768h-21l109 768h-424l2 21h868l-2 -21h-424z" />
<glyph unicode="&#x25fc;" horiz-adv-x="1075" d="M0 1075h1075v-1075h-1075v1075z" />
</font>
</defs>
</svg>
