<?xml version="1.0" standalone="no"?>
<!DOCTYPE svg PUBLIC "-//W3C//DTD SVG 1.1//EN" "http://www.w3.org/Graphics/SVG/1.1/DTD/svg11.dtd" >
<svg xmlns="http://www.w3.org/2000/svg">
<metadata></metadata>
<defs>
<font id="halogenthin_oblique" horiz-adv-x="1726" >
<font-face units-per-em="2048" ascent="1536" descent="-512" />
<missing-glyph horiz-adv-x="892" />
<glyph unicode="&#xfb01;" horiz-adv-x="1142" d="M881 0l141 1008h-598l-141 -1008h-78l141 1008h-143l10 67h141l2 10q18 109 48 181.5t69 116.5t87 62.5t106 18.5q41 0 86 -8t92 -20l-8 -66q-88 27 -158 27q-111 0 -163 -79t-81 -233l-2 -10h600l78 10l-152 -1085h-77zM1049 1204l34 246h78l-35 -246h-77z" />
<glyph unicode="&#xfb02;" horiz-adv-x="1093" d="M1051 1391q-76 12 -151 19t-126 7q-90 0 -149.5 -22.5t-96 -64.5t-58 -103.5t-36.5 -141.5l-2 -10h285l-10 -67h-283l-141 -1008h-78l141 1008h-143l10 67h141l2 10q20 111 50 187t78 122t115 66.5t161 20.5q59 0 138 -8.5t161 -20.5l80 12l-205 -1464h-78z" />
<glyph unicode="&#xfb03;" horiz-adv-x="1839" d="M1577 0l141 1008h-598l-141 -1008h-78l141 1008h-618l-141 -1008h-78l141 1008h-143l10 67h141l2 10q18 109 48 181.5t69 116.5t87 62.5t106 18.5q41 0 86 -8t92 -20l-8 -66q-88 27 -158 27q-111 0 -163 -79t-81 -233l-2 -10h619l2 10q18 109 47.5 181.5t68.5 116.5 t87.5 62.5t107.5 18.5q41 0 85 -8t91 -20l-8 -66q-88 27 -158 27q-109 0 -162 -79t-82 -233l-2 -10h601l77 10l-151 -1085h-78zM1745 1204l35 246h78l-35 -246h-78z" />
<glyph unicode="&#xfb04;" horiz-adv-x="1789" d="M1552 0l195 1391q-76 12 -149.5 19t-127.5 7q-90 0 -149 -22.5t-96 -64.5t-58.5 -103.5t-36.5 -141.5l-2 -10h285l-10 -67h-283l-141 -1008h-78l141 1008h-618l-141 -1008h-78l141 1008h-143l10 67h141l2 10q18 109 48 181.5t69 116.5t87 62.5t106 18.5q41 0 86 -8 t92 -20l-8 -66q-88 27 -158 27q-111 0 -163 -79t-81 -233l-2 -10h619l2 10q20 111 50 187t78 122t114.5 66.5t160.5 20.5q59 0 138 -8.5t161 -20.5l80 12l-205 -1464h-78z" />
<glyph horiz-adv-x="0" />
<glyph unicode="&#xd;" horiz-adv-x="892" />
<glyph horiz-adv-x="0" />
<glyph horiz-adv-x="0" />
<glyph unicode=" "  horiz-adv-x="892" />
<glyph unicode="&#x09;" horiz-adv-x="892" />
<glyph unicode="&#xa0;" horiz-adv-x="892" />
<glyph unicode="!" horiz-adv-x="530" d="M342 297l-41 -297h-72l41 297h72zM426 1434h80l-144 -963h-63z" />
<glyph unicode="&#x22;" horiz-adv-x="849" d="M485 1464q-8 -61 -19 -131.5t-21.5 -139.5t-20.5 -130.5t-18 -99.5h-54q2 39 9.5 100t14.5 130t16 139.5t20 131.5h73zM848 1464q-8 -61 -18.5 -131.5t-21.5 -139.5t-21.5 -130.5t-18.5 -99.5h-53q2 39 9 100t14 130t16.5 139.5t19.5 131.5h74z" />
<glyph unicode="#" horiz-adv-x="1724" d="M580 451h-394l15 49h393l158 489h-394l15 49h393l125 396h49l-127 -396h492l125 396h49l-127 -396h395l-14 -49h-396l-155 -489h393l-14 -49h-394l-125 -394h-49l125 394h-489l-125 -394h-49zM643 500h490l157 489h-491z" />
<glyph unicode="$" horiz-adv-x="1701" d="M193 178q129 -57 291.5 -94t344.5 -41l89 635q-121 6 -238 19.5t-209 48t-148.5 98t-56.5 170.5q0 94 37 164.5t98.5 120t140.5 81t164 50t168.5 25.5t153.5 9l19 133h49l-19 -135q178 -2 330 -31.5t264 -64.5l-29 -74q-100 33 -249.5 63.5t-325.5 35.5l-90 -641 q123 -8 241.5 -20.5t211 -44.5t149.5 -91t57 -160q0 -131 -70.5 -219t-181 -142.5t-248 -78t-270.5 -25.5l-18 -133h-49l18 133q-186 4 -352 41t-307 99zM1556 422q0 82 -50 129t-133 71.5t-188.5 35t-217.5 16.5l-88 -631q117 0 237.5 19.5t218 63.5t159.5 115.5t62 180.5z M348 1028q0 -86 49 -138t130 -81t185.5 -40t215.5 -17l90 639q-61 0 -134 -6.5t-147.5 -20.5t-144.5 -40t-124 -65.5t-87 -96t-33 -134.5z" />
<glyph unicode="%" horiz-adv-x="2078" d="M702 727q98 0 176 26.5t133.5 72.5t88.5 108.5t43 134.5t-5.5 133.5t-57.5 107.5t-112.5 72.5t-168.5 26.5q-100 0 -178 -26.5t-134.5 -72.5t-89 -107.5t-43.5 -133.5q-10 -72 5.5 -134.5t58.5 -108.5t113.5 -72.5t170.5 -26.5zM293 1069q12 84 51 155.5t103.5 125 t153.5 84t204 30.5q113 0 194.5 -30.5t131 -84t68 -125t5.5 -155.5q-12 -84 -50 -156.5t-102.5 -126t-154.5 -84t-203 -30.5q-115 0 -195.5 30.5t-131 84t-68.5 126t-6 156.5zM414 -16q362 373 714.5 745.5t702.5 755.5l35 -35q-362 -373 -715.5 -745.5t-704.5 -755.5z M1133 322q0 -63 21.5 -117.5t64.5 -94.5t109.5 -62.5t156.5 -22.5q111 0 193.5 30.5t138 84t84 123t28.5 149.5q0 61 -21.5 115.5t-64.5 94.5t-108.5 62.5t-155.5 22.5q-111 0 -195 -31t-139 -83t-83.5 -122.5t-28.5 -148.5zM1071 313q0 92 33 174t98.5 142.5t161.5 96.5 t223 36q102 0 178 -25.5t126.5 -72t75 -108.5t24.5 -136q0 -92 -33 -174t-98.5 -143.5t-161.5 -97.5t-221 -36q-102 0 -179 25.5t-127.5 72t-75 109.5t-24.5 137z" />
<glyph unicode="&#x26;" horiz-adv-x="2054" d="M1712 705l10 69h338l-10 -74h-260q-31 -186 -114 -323t-211 -228.5t-299 -135.5t-378 -44q-106 0 -215.5 16.5t-198.5 56.5t-146.5 108.5t-57.5 175.5q0 100 41 171.5t123 120t205 76t286 39.5q-270 18 -395 86t-125 213q0 127 67.5 210t177 132t250 69.5t285.5 20.5 q100 0 198.5 -8t184.5 -20.5t158 -27.5t119 -28l-29 -71q-43 12 -112.5 26.5t-154.5 26.5t-181.5 20.5t-194.5 8.5q-129 0 -253 -16.5t-221 -57.5t-155.5 -109.5t-58.5 -171.5q0 -76 43 -126t135 -80.5t235.5 -43t344.5 -12.5l-10 -74q-221 -2 -387 -19t-276 -59t-164 -111 t-54 -173q0 -90 51 -146.5t130 -90t175.5 -46t188.5 -12.5q401 0 634.5 167t280.5 495z" />
<glyph unicode="'" horiz-adv-x="485" d="M485 1464q-8 -61 -19 -131.5t-21.5 -139.5t-20.5 -130.5t-18 -99.5h-54q2 39 9.5 100t14.5 130t16 139.5t20 131.5h73z" />
<glyph unicode="(" horiz-adv-x="796" d="M569 -410q-86 94 -149.5 219t-102 264.5t-50 290t8.5 298.5q20 147 73.5 297.5t132.5 290t177.5 263t210.5 220.5l41 -31q-109 -96 -202 -216t-166.5 -255t-122.5 -280.5t-70 -288.5q-20 -145 -11 -290t45 -280t95.5 -256t141.5 -215z" />
<glyph unicode=")" horiz-adv-x="796" d="M70 -379q106 94 200.5 215t168 256t122.5 279.5t70 290.5q20 143 11 288.5t-44 280.5t-95.5 255t-140.5 216l50 31q86 -96 149.5 -220t102 -263.5t50 -290t-8.5 -297.5t-73.5 -298t-132.5 -290.5t-177.5 -264t-210.5 -219.5z" />
<glyph unicode="*" horiz-adv-x="1447" d="M969 1464q-23 -158 -50.5 -306t-58.5 -314q152 90 289 170t287 157l24 -65q-145 -78 -287.5 -147.5t-298.5 -145.5q135 -76 258 -144.5t246 -146.5l-43 -65q-127 78 -241.5 157.5t-241.5 167.5q-16 -166 -30.5 -314.5t-37.5 -303.5h-73q23 156 49 304t57 314 q-154 -88 -290 -167.5t-283 -157.5l-27 65q145 78 286.5 146.5t301.5 144.5q-137 76 -260 145.5t-246 147.5l45 65q125 -78 238.5 -157.5t242.5 -169.5q16 166 30.5 314.5t39.5 305.5h74z" />
<glyph unicode="+" horiz-adv-x="1464" d="M784 565l68 479h57l-67 -479h477l-8 -57h-477l-68 -477h-57l67 477h-479l8 57h479z" />
<glyph unicode="," horiz-adv-x="522" d="M334 297q8 -47 5 -106.5t-15.5 -127t-34 -138t-49.5 -140.5h-50q18 61 35 130t27 136.5t12 130t-8 115.5h78z" />
<glyph unicode="-" horiz-adv-x="1464" d="M344 713h973l-8 -66h-973z" />
<glyph unicode="." horiz-adv-x="522" d="M338 297l-41 -297h-72l41 297h72z" />
<glyph unicode="/" horiz-adv-x="780" d="M905 1464l-755 -1495h-72l756 1495h71z" />
<glyph unicode="0" horiz-adv-x="1966" d="M223 717q23 158 95.5 294t194.5 237.5t291 158.5t384 57t367.5 -57t246.5 -158.5t129 -238t13 -293.5q-23 -158 -95.5 -294t-194.5 -237.5t-291 -159t-384 -57.5t-367.5 57.5t-247 159t-129.5 237.5t-12 294zM303 717q-20 -141 11.5 -265t115.5 -214.5t223.5 -142.5 t335.5 -52q197 0 350.5 52t263 142.5t175 214t86.5 265.5q20 141 -11.5 265t-115.5 214t-223.5 142.5t-335.5 52.5q-197 0 -350.5 -52.5t-263 -142.5t-175.5 -214t-86 -265z" />
<glyph unicode="1" horiz-adv-x="1454" d="M113 74h585l181 1282l-584 -162l-14 66l610 174h76l-191 -1360h586l-10 -74h-1250z" />
<glyph unicode="2" horiz-adv-x="1720" d="M154 0l10 74q176 57 351 126.5t336 148.5t299 165t239.5 177t160 187.5t58.5 194.5q0 70 -32 121t-85 87t-120.5 57.5t-138.5 32.5t-139.5 15.5t-123.5 4.5q-160 0 -308.5 -20.5t-314.5 -61.5l-8 71q172 43 325.5 63.5t307.5 20.5q63 0 141 -4t158 -18.5t155.5 -40 t134 -66.5t94.5 -101t36 -142q0 -109 -57.5 -211.5t-158 -198.5t-235.5 -183t-289.5 -165t-321.5 -143.5t-331 -116.5h1290l-10 -74h-1423z" />
<glyph unicode="3" horiz-adv-x="1695" d="M346 1309l-8 71q170 43 323.5 63.5t317.5 20.5q61 0 138 -3t157 -14t155.5 -31.5t135 -57.5t95.5 -92.5t36 -132.5q0 -90 -40 -160t-126 -121t-221 -83t-326 -48q158 -6 278.5 -24.5t201.5 -53.5t123 -91t42 -140q0 -127 -63.5 -211t-167 -136.5t-237.5 -74t-275 -21.5 q-113 0 -224.5 12.5t-210 31t-180.5 43t-133 48.5l33 70q49 -25 129 -48.5t176 -41.5t204.5 -29.5t217.5 -11.5q125 0 242.5 18.5t209 61.5t146.5 114.5t55 178.5q0 92 -64.5 146t-190.5 82t-313 36t-435 8h-60l9 57h59q289 0 490.5 20.5t327.5 66t182.5 115t56.5 167.5 q0 66 -32 112t-85 76.5t-120.5 48t-138.5 26.5t-139.5 11.5t-123.5 2.5q-164 0 -312.5 -20.5t-314.5 -61.5z" />
<glyph unicode="4" horiz-adv-x="1722" d="M1440 324l-45 -324h-78l45 324h-1194l10 71l1342 1039h75l-145 -1037h184l-12 -73h-182zM1460 1024l47 324l-889 -689l-344 -262h1098z" />
<glyph unicode="5" d="M137 100l33 70q49 -23 127 -45.5t173 -40.5t202.5 -29.5t216.5 -11.5q133 0 259 21.5t224 71.5t157.5 133t59.5 206q0 92 -49 159.5t-135 110.5t-202 64.5t-247 21.5q-141 0 -299.5 -25.5t-320.5 -78.5l131 707h1282l-10 -74h-1209l-102 -563q141 47 286.5 70.5 t282.5 23.5q141 0 264 -24.5t213.5 -75t142.5 -127t52 -181.5q0 -147 -67.5 -245.5t-180 -158t-256 -85t-293.5 -25.5q-113 0 -222 11.5t-206.5 30t-176.5 41.5t-130 48z" />
<glyph unicode="6" horiz-adv-x="1773" d="M285 598q31 115 114.5 199t197.5 138t246 80.5t259 26.5q123 0 236.5 -28.5t200.5 -86t138.5 -144.5t51.5 -203q0 -135 -61.5 -248t-175.5 -194t-272.5 -125t-351.5 -44q-176 0 -302 41t-205.5 117t-117.5 182.5t-38 235.5q0 240 72.5 411.5t200.5 284.5t304 166t383 53 q143 0 295 -19.5t289 -60.5l-29 -71q-127 37 -277.5 57t-293.5 20q-162 0 -310.5 -38.5t-266 -131t-193.5 -244t-94 -374.5zM883 43q174 0 315 38t241.5 107.5t155 167t54.5 215.5q0 100 -46.5 176t-125 126.5t-183 76t-221.5 25.5q-82 0 -171 -13.5t-176 -41t-165 -68.5 t-138.5 -97.5t-95 -126t-34.5 -153.5q0 -78 30.5 -154.5t100.5 -138t182.5 -100.5t276.5 -39z" />
<glyph unicode="7" horiz-adv-x="1628" d="M543 0h-97l1178 1362l-1364 -2l10 74h1456l-10 -68z" />
<glyph unicode="8" horiz-adv-x="1773" d="M893 43q137 0 269 18.5t235.5 61.5t166 112.5t62.5 172.5q0 145 -170 213.5t-473 68.5q-170 0 -305 -20.5t-230.5 -62.5t-145.5 -106.5t-50 -152.5q0 -86 53 -144.5t142.5 -94t205 -51t240.5 -15.5zM991 750q160 0 289 20.5t219 62t138.5 103t48.5 143.5 q0 92 -55.5 152.5t-142.5 95.5t-194.5 49.5t-212.5 14.5q-117 0 -240.5 -16.5t-226 -58.5t-168 -114t-65.5 -180q0 -135 161.5 -203.5t448.5 -68.5zM1092 1464q117 0 236.5 -17t218 -59t159.5 -112t61 -176q0 -84 -43 -148.5t-118.5 -111.5t-180 -77t-227.5 -42 q115 -10 208 -33.5t159.5 -63.5t102.5 -95.5t36 -129.5q0 -123 -71.5 -205.5t-187.5 -132t-263.5 -71t-298.5 -21.5q-137 0 -265.5 17.5t-227.5 59.5t-159.5 109.5t-60.5 170.5q0 92 44 161.5t123 117.5t190.5 76t246.5 40q-104 10 -191 35.5t-148.5 64.5t-96.5 91.5 t-35 119.5q0 125 75 209t189.5 133t255 69.5t269.5 20.5z" />
<glyph unicode="9" horiz-adv-x="1773" d="M1692 836q-31 -115 -116 -199t-198.5 -138.5t-245 -81t-258.5 -26.5q-123 0 -236.5 29t-200.5 86t-138 144t-51 204q0 135 61.5 247.5t175 193.5t271 125t352.5 44q176 0 302 -41t206 -116.5t118 -182t38 -235.5q0 -240 -73 -412t-201 -284.5t-304 -166t-383 -53.5 q-143 0 -294.5 19.5t-289.5 60.5l29 72q127 -37 277.5 -57.5t293.5 -20.5q162 0 310.5 39t266.5 131t194 244t94 375zM1094 1391q-174 0 -315.5 -38t-242 -107.5t-154.5 -167t-54 -216.5q0 -100 46 -176t125 -126t183 -75.5t221 -25.5q82 0 171 13t176 41t165 69t138.5 97 t95 125.5t34.5 153.5q0 76 -30.5 154t-100 139.5t-182 100.5t-276.5 39z" />
<glyph unicode=":" horiz-adv-x="522" d="M350 379l-41 -297h-71l41 297h71zM432 963l-41 -297h-72l41 297h72z" />
<glyph unicode=";" horiz-adv-x="522" d="M432 963l-43 -297h-72l43 297h72zM334 297q8 -47 5 -106.5t-15.5 -127t-34 -138t-49.5 -140.5h-50q18 61 35 130t27 136.5t12 130t-8 115.5h78z" />
<glyph unicode="&#x3c;" horiz-adv-x="1249" d="M1212 1047l-874 -373l770 -373l-10 -63l-824 405l9 62l938 405z" />
<glyph unicode="=" horiz-adv-x="1464" d="M1284 319l-8 -57h-1014l8 57h1014zM1354 811l-8 -57h-1014l8 57h1014z" />
<glyph unicode="&#x3e;" horiz-adv-x="1249" d="M340 1110l823 -405l-8 -62l-938 -405l8 63l875 373l-768 373z" />
<glyph unicode="?" horiz-adv-x="1660" d="M813 471q27 92 94.5 149.5t153.5 95.5t180 67.5t172 67.5t128 94t50 151q0 98 -68.5 156.5t-168 89t-210 40t-196.5 9.5q-156 0 -306 -20.5t-316 -61.5l-9 71q172 43 326 63.5t311 20.5q66 0 144 -4t157.5 -17t154.5 -38t133.5 -63.5t93 -96t34.5 -135.5 q0 -111 -50 -176.5t-127 -108.5t-171 -70.5t-182 -62.5t-159 -85t-103 -136h-66zM858 297l-43 -297h-72l43 297h72z" />
<glyph unicode="@" horiz-adv-x="2107" d="M1378 -221q-166 -49 -364 -49q-195 0 -346.5 47t-255 133t-156.5 206t-53 267q0 184 71.5 339t203.5 266.5t321.5 174t423.5 62.5q184 0 336.5 -41t262 -117t169 -184.5t59.5 -245.5t-45 -242.5t-113.5 -177.5t-149.5 -108.5t-155 -36.5t-118 44t-33 130h-2 q-23 -16 -67 -47t-105.5 -60.5t-140.5 -51t-167 -21.5q-190 0 -283 87t-93 228q0 119 48 213t131 157.5t192.5 97.5t234.5 34q63 0 116.5 -10.5t98.5 -26t83 -34.5l72 -36l2 2l23 72h53l-129 -567q-16 -76 7.5 -119t88.5 -43q61 0 132 33.5t130.5 98t99.5 159t40 217.5 q0 129 -57.5 230.5t-161 172t-247.5 107.5t-318 37q-221 0 -399.5 -57.5t-304.5 -162t-193.5 -249t-67.5 -318.5q0 -137 51 -249.5t148.5 -192.5t241 -124t327.5 -44q180 0 344 47zM973 123q82 0 154.5 19.5t134 47t108.5 60.5t76 59l94 414q-98 47 -179 74.5t-185 27.5 q-106 0 -204 -27.5t-171.5 -81.5t-117.5 -135t-44 -188q0 -123 83 -196.5t251 -73.5z" />
<glyph unicode="A" horiz-adv-x="2035" d="M2015 0h-90l-211 393h-1284l-319 -393h-91l1156 1434h86zM606 614l-121 -147h1196l-79 147l-392 750z" />
<glyph unicode="B" horiz-adv-x="2045" d="M164 0l201 1434h1134q109 0 197 -16.5t150.5 -54.5t96 -97.5t33.5 -145.5q0 -98 -29.5 -163.5t-83 -108.5t-127 -67.5t-161.5 -37.5q88 -6 162.5 -23.5t129 -51t85 -88t30.5 -136.5q0 -94 -31.5 -175t-101 -141t-178 -94t-264.5 -34h-1243zM340 700l-88 -626h1165 q131 0 225.5 28.5t153.5 78.5t87 118t28 147q0 86 -42 137.5t-115 77t-171 32.5t-209 7h-1034zM1489 1360h-1057l-82 -586h940q129 0 240.5 8.5t193.5 41t129.5 98t47.5 180.5q0 141 -109.5 199.5t-302.5 58.5z" />
<glyph unicode="C" horiz-adv-x="2011" d="M1921 84q-37 -12 -104.5 -31.5t-162.5 -38t-215 -32t-263 -13.5q-254 0 -436.5 50.5t-299 137.5t-171 206.5t-54.5 261.5q0 174 67.5 327.5t210 267t363.5 179t528 65.5q143 0 260 -13t207.5 -31.5t151.5 -38t94 -31.5l-26 -70q-41 14 -105.5 32.5t-152 36t-198 30 t-241.5 12.5q-287 0 -490.5 -59.5t-334.5 -162t-192.5 -239.5t-61.5 -295q0 -127 50 -235.5t158.5 -187.5t276.5 -124t406 -45q131 0 244.5 12.5t206 29.5t161 35.5t113.5 33.5z" />
<glyph unicode="D" horiz-adv-x="2045" d="M164 0l201 1434h702q254 0 437.5 -45.5t300 -128t172 -198.5t55.5 -255q0 -176 -67 -323.5t-208 -255t-361 -168t-530 -60.5h-702zM432 1360l-180 -1286h625q287 0 490.5 53t333.5 149.5t190.5 229.5t60.5 291q0 127 -51.5 230t-160 177t-278.5 115t-405 41h-625z" />
<glyph unicode="E" horiz-adv-x="1882" d="M164 0l201 1434h1554l-10 -74h-1477l-82 -586h1354l-10 -74h-1354l-88 -626h1517l-10 -74h-1595z" />
<glyph unicode="F" horiz-adv-x="1800" d="M340 700l-98 -700h-78l201 1434h1554l-10 -74h-1477l-82 -586h1354l-10 -74h-1354z" />
<glyph unicode="G" horiz-adv-x="2215" d="M1192 684l10 74h977l-12 -84q-29 -199 -125 -333t-240.5 -217t-327 -119t-382.5 -36q-221 0 -386 50.5t-273.5 137.5t-163 207.5t-54.5 262.5q0 174 67.5 326.5t210 266t363.5 179t528 65.5q143 0 260 -13t206 -31.5t151.5 -38t95.5 -31.5l-29 -70q-41 14 -104 32.5 t-150.5 36t-198 30t-241.5 12.5q-287 0 -490.5 -59.5t-334.5 -161t-192.5 -239.5t-61.5 -294q0 -129 50 -237.5t150.5 -187.5t252 -124t354.5 -45q190 0 359 33t300 105.5t216 189t108 282.5l4 31h-897z" />
<glyph unicode="H" horiz-adv-x="2007" d="M1765 0l99 700h-1524l-98 -700h-78l201 1434h77l-92 -660h1524l92 660h78l-201 -1434h-78z" />
<glyph unicode="I" horiz-adv-x="405" d="M365 1434h77l-200 -1434h-78z" />
<glyph unicode="J" horiz-adv-x="1812" d="M102 156q63 -20 133 -40t154 -36.5t183.5 -26.5t220.5 -10q193 0 343 29.5t258.5 93t173 164t85.5 243.5l121 861h77l-120 -861q-45 -317 -283 -460.5t-668 -143.5q-147 0 -263 14.5t-202 33t-145 38t-96 29.5z" />
<glyph unicode="K" horiz-adv-x="2004" d="M1944 0h-129l-1094 700h-381l-98 -700h-78l201 1434h77l-92 -660h381l1241 660h125l-670 -359l-636 -338l595 -379z" />
<glyph unicode="L" horiz-adv-x="1779" d="M164 0l201 1434h77l-190 -1360h1415l-10 -74h-1493z" />
<glyph unicode="M" horiz-adv-x="2392" d="M1204 244l-778 1081l-29 -215l-155 -1110h-78l201 1434h75l801 -1115l1112 1115h76l-201 -1434h-78l156 1110l33 215l-1082 -1081h-53z" />
<glyph unicode="N" horiz-adv-x="2037" d="M1997 1434h78l-201 -1434h-76l-1372 1333l-20 -164l-164 -1169h-78l201 1434h75l1372 -1334l23 183z" />
<glyph unicode="O" horiz-adv-x="2170" d="M223 717q23 160 103 297t215 236.5t323.5 156.5t425.5 57q238 0 410 -57t279.5 -156.5t149.5 -236.5t19 -297t-103.5 -297t-215.5 -236.5t-322.5 -157t-425.5 -57.5t-409.5 57.5t-279 157t-150 236.5t-19.5 297zM303 717q-20 -145 15.5 -268t133 -213.5t256 -141.5 t384.5 -51q219 0 391 51t296 141.5t196.5 213t92.5 268.5q20 143 -16.5 267t-133.5 214t-256 141.5t-382 51.5q-219 0 -391 -51.5t-295 -141.5t-197 -214t-94 -267z" />
<glyph unicode="P" horiz-adv-x="1955" d="M164 0l201 1434h1073q113 0 214 -22.5t176 -73t119 -133.5t44 -201q0 -164 -57.5 -275t-154 -180.5t-222 -99t-261.5 -29.5h-995l-59 -420h-78zM432 1360l-121 -866h1000q119 0 227.5 25.5t190 84t131 154.5t49.5 235q0 102 -38 172t-102.5 113t-151.5 62.5t-185 19.5 h-1000z" />
<glyph unicode="Q" horiz-adv-x="2170" d="M1839 -311q-190 0 -340.5 9t-254 37.5t-154 85t-41.5 148.5q-209 4 -366 55.5t-260.5 139.5t-155.5 206.5t-52 258.5q0 174 70.5 326.5t207 265t337 178t460.5 65.5q217 0 379 -50t270.5 -138t163 -209t54.5 -262q0 -172 -69 -321.5t-201 -262t-326.5 -179.5t-446.5 -73 q-4 -68 46 -108.5t145.5 -64t232.5 -31t309 -7.5zM297 637q0 -129 49 -237.5t148.5 -187.5t248 -124t349.5 -45q240 0 424 58.5t308 159.5t188.5 239.5t64.5 296.5q0 129 -49.5 237.5t-148.5 187t-248.5 124t-350.5 45.5q-240 0 -423 -58.5t-307 -160t-188.5 -239.5 t-64.5 -296z" />
<glyph unicode="R" horiz-adv-x="1972" d="M365 1434h1136q104 0 195.5 -20.5t158 -67t104.5 -121t38 -181.5q0 -147 -51.5 -249.5t-139.5 -165t-202.5 -90t-239.5 -25.5l-199 2l746 -516h-127l-737 512h-734l-71 -512h-78zM1374 586q109 0 207 23.5t172 75.5t118 137t44 210q0 90 -32 152.5t-89 101.5t-134 56.5 t-167 17.5h-1061l-108 -774h1050z" />
<glyph unicode="S" horiz-adv-x="1935" d="M975 -31q-227 0 -435 42t-399 114l33 70q186 -70 389 -111t432 -41q125 0 264.5 17.5t257 59.5t195.5 114.5t78 183.5q0 84 -57.5 132t-154.5 73.5t-224 36t-267 16.5q-145 8 -284 20.5t-249 46t-177.5 98t-67.5 177.5q0 96 39 167.5t102.5 121t147.5 80t173 48t179 23.5 t168 6q100 0 209 -8t211 -21.5t195.5 -32t164.5 -36.5l-26 -74q-70 18 -160 37t-191.5 32t-210 21.5t-212.5 8.5q-61 0 -137 -4.5t-155 -17.5t-153.5 -37.5t-133 -64.5t-94.5 -97.5t-36 -137.5q0 -92 61.5 -145t162 -82t228.5 -39t263 -16q143 -6 281.5 -17.5t247 -42.5 t174 -91t65.5 -167q0 -90 -39 -159.5t-105.5 -121t-155.5 -86t-188.5 -56t-205 -31t-203.5 -9.5z" />
<glyph unicode="T" horiz-adv-x="1822" d="M1141 1360l-191 -1360h-78l191 1360h-791l11 74h1659l-11 -74h-790z" />
<glyph unicode="U" horiz-adv-x="2048" d="M2007 1434h78l-121 -861q-45 -317 -279.5 -460.5t-664.5 -143.5t-625.5 143.5t-150.5 460.5l121 861h77l-120 -861q-20 -143 16.5 -243.5t126.5 -164t232.5 -93t332.5 -29.5t341 29.5t258.5 93t172 164t84.5 243.5z" />
<glyph unicode="V" horiz-adv-x="2031" d="M2212 1434l-1153 -1434h-86l-752 1434h90l322 -615l391 -749l604 749l494 615h90z" />
<glyph unicode="W" horiz-adv-x="2572" d="M1784 0l-146 612l-168 705l-362 -703l-320 -614h-77l-490 1434h86l209 -615l246 -717l371 721l317 611h74l147 -617l168 -715l447 719l380 613h87l-891 -1434h-78z" />
<glyph unicode="X" horiz-adv-x="1937" d="M1960 1434h111l-947 -697l793 -737h-109l-743 686l-934 -686h-111l1002 737l-752 697h111l698 -648z" />
<glyph unicode="Y" horiz-adv-x="2052" d="M2232 1434l-1106 -985l-61 -449h-78l62 449l-828 985h101l301 -359l475 -561l631 561l403 359h100z" />
<glyph unicode="Z" horiz-adv-x="1859" d="M123 0l10 72l1102 870l530 418h-1427l10 74h1538l-10 -72l-1100 -868l-532 -420h1503l-10 -74h-1614z" />
<glyph unicode="[" horiz-adv-x="770" d="M465 1700h401l-8 -58h-328l-274 -1947h328l-9 -57h-401z" />
<glyph unicode="\" horiz-adv-x="780" d="M358 1464l334 -1495h-71l-334 1495h71z" />
<glyph unicode="]" horiz-adv-x="770" d="M494 -362h-402l8 57h328l274 1947h-327l8 58h401z" />
<glyph unicode="^" horiz-adv-x="1249" d="M1169 614l-350 791l-567 -791h-64l611 850h59l375 -850h-64z" />
<glyph unicode="_" horiz-adv-x="1300" d="M135 -205h973l-8 -63h-973z" />
<glyph unicode="`" horiz-adv-x="1744" d="M1356 1247l-23 -43l-653 240l31 61z" />
<glyph unicode="a" horiz-adv-x="1763" d="M1718 0q-78 -31 -139 -31q-104 0 -129 63.5t-2 213.5q-49 -57 -124 -107.5t-169 -88.5t-201.5 -59.5t-222.5 -21.5q-121 0 -220 21.5t-171 63.5t-112 103.5t-40 143.5q0 115 58.5 188.5t149.5 115.5t203 58.5t218 16.5q68 0 159 -4t186 -11.5t184.5 -15.5t154.5 -14 q6 86 -15.5 158.5t-85 126t-175 83t-285.5 29.5q-96 0 -183 -8t-158 -19.5t-122 -23.5t-74 -20l-14 67q25 8 79 21.5t128 25.5t165 21.5t189 9.5q193 0 321 -37t201.5 -102.5t96 -155.5t8.5 -197l-53 -366q-16 -111 2 -158t90 -47q23 0 53.5 6t59.5 21zM270 313 q0 -68 36 -120t99.5 -86.5t151.5 -52t195 -17.5q113 0 220 22.5t200.5 61.5t167 92t118.5 113l37 266q-174 10 -344 19.5t-344 11.5q-90 0 -185.5 -13.5t-173 -48.5t-128 -95.5t-50.5 -152.5z" />
<glyph unicode="b" horiz-adv-x="1746" d="M348 1452l78 12l-47 -338l-27 -174l2 -2q74 33 166 61.5t189.5 50t197 33t189.5 11.5q176 0 302 -43t202.5 -118t106.5 -178t13 -226q-18 -125 -77.5 -229.5t-156.5 -180.5t-230.5 -119t-294.5 -43q-117 0 -221.5 21.5t-193.5 59.5t-163 88t-129 110l-2 -2l-39 -246h-70z M1081 1032q-88 0 -187 -11t-197.5 -31.5t-189.5 -47.5t-161 -57l-80 -561q51 -57 125 -108.5t164 -89.5t193.5 -60.5t218.5 -22.5q160 0 285.5 43t212.5 118t134.5 176t47.5 220q0 94 -35 173t-105.5 136.5t-176.5 90t-249 32.5z" />
<glyph unicode="c" horiz-adv-x="1677" d="M1542 55q-29 -10 -82 -24.5t-129 -28.5t-172 -23.5t-209 -9.5q-205 0 -352 37t-241.5 103.5t-139.5 158.5t-45 203q0 135 54.5 251t168 202t291.5 134t424 48q113 0 206 -9.5t164.5 -23.5t122 -28.5t74.5 -24.5l-26 -68q-25 8 -73 22.5t-117.5 27t-161 21.5t-199.5 9 q-225 0 -386 -42t-263.5 -116.5t-150.5 -175t-48 -217.5q0 -96 40 -176t126 -138t220 -91t323 -33q109 0 201.5 9t166.5 21.5t126 26t79 23.5z" />
<glyph unicode="d" horiz-adv-x="1746" d="M1683 1126l48 326l77 12l-204 -1464h-70l31 246l-2 2q-74 -59 -161 -109.5t-187.5 -88.5t-210 -59.5t-226.5 -21.5q-147 0 -261 37t-190.5 103.5t-115.5 158.5t-39 201q0 135 51 251t150.5 202t247 135t342.5 49q90 0 185 -11.5t187 -33t175 -50t149 -61.5l2 2zM956 1032 q-174 0 -305 -43t-220 -117.5t-134 -176t-45 -218.5q0 -94 35 -174t103.5 -137t168.5 -90t234 -33q113 0 223 22.5t211.5 60.5t188.5 89t155 109l80 561q-63 31 -146.5 57.5t-175.5 47t-188.5 31.5t-184.5 11z" />
<glyph unicode="e" horiz-adv-x="1689" d="M252 469q-8 -211 155.5 -318.5t510.5 -107.5q109 0 209 9t182 21.5t140 26t85 23.5l8 -68q-29 -10 -89 -24.5t-144 -28.5t-186.5 -23.5t-213.5 -9.5q-373 0 -556 126t-183 360q0 131 51 249.5t152.5 207.5t252 141.5t351.5 52.5q174 0 318.5 -40t231.5 -120t107.5 -199.5 t-51.5 -277.5h-1331zM260 537h1262q53 129 25.5 223t-109.5 154.5t-206 90t-261 29.5q-131 0 -252 -29.5t-217 -90t-160 -154.5t-82 -223z" />
<glyph unicode="f" horiz-adv-x="696" d="M434 1085l-2 -10h330l-10 -67h-328l-141 -1008h-78l141 1008h-143l10 67h143v10q14 111 43 183.5t69 115.5t90 61.5t108 18.5q41 0 86 -8t92 -20l-8 -66q-88 27 -158 27q-111 0 -163 -79t-81 -233z" />
<glyph unicode="g" horiz-adv-x="1622" d="M240 655q0 111 57 196t155.5 141.5t230.5 85t282 28.5q61 0 116.5 -5t108.5 -16q41 12 100.5 24.5t128 23t145 16.5t152.5 6l-4 -55q-55 0 -116.5 -3t-122 -8.5t-112.5 -13.5t-89 -16q137 -41 219 -121t82 -203q0 -111 -54.5 -190.5t-151.5 -129.5t-228 -74t-285 -24 q-109 0 -200 10.5t-165 34.5q-39 -29 -74.5 -69.5t-62 -84.5t-44 -85t-19.5 -70q57 25 146 48.5t195.5 44t222.5 32.5t226 12q96 0 182.5 -12t151 -39.5t101 -71.5t36.5 -110q0 -80 -44 -137.5t-114.5 -97t-159.5 -64.5t-178 -38t-169 -18t-135 -5q-154 0 -276 10t-212 23.5 t-148.5 27.5t-84.5 25l26 69q25 -8 83.5 -21.5t148.5 -26.5t212 -23.5t273 -10.5q51 0 123 4t149.5 15.5t154.5 30t137.5 49t97 74.5t36.5 104q0 49 -34.5 81.5t-95 53t-141.5 29t-171 8.5q-100 0 -207.5 -9.5t-209 -25.5t-190.5 -36.5t-153 -45.5q-20 2 -34.5 14.5 t-14.5 36.5q8 39 27.5 84t48.5 89t65.5 84t79.5 71q-94 39 -147 107.5t-53 166.5zM319 666q0 -74 40 -127.5t113 -87t172 -50t218 -16.5q135 0 250 19.5t200 60.5t133 106.5t48 155.5q0 76 -41 132t-113.5 95t-171 58.5t-213.5 19.5q-129 0 -244.5 -23.5t-202.5 -69.5 t-137.5 -114.5t-50.5 -158.5z" />
<glyph unicode="h" d="M1505 0l76 545q14 104 -6.5 193t-81.5 154.5t-166.5 102.5t-259.5 37q-94 0 -193.5 -13t-193.5 -34.5t-180 -48.5t-154 -51l-125 -885h-78l205 1452l78 12l-47 -338l-27 -172l2 -2q70 27 155 54.5t180 49t195.5 36t198.5 14.5q172 0 290 -42t186.5 -118t92 -178t7.5 -223 l-76 -545h-78z" />
<glyph unicode="i" horiz-adv-x="446" d="M184 0l152 1079l80 13l-154 -1092h-78zM354 1204l35 246h78l-35 -246h-78z" />
<glyph unicode="j" horiz-adv-x="462" d="M201 0l151 1079l80 13l-153 -1092q-16 -117 -48 -191.5t-76 -118.5t-99.5 -61.5t-116.5 -17.5l8 63q115 0 173 83t81 243zM369 1204l34 246h78l-35 -246h-77z" />
<glyph unicode="k" d="M1649 0h-129l-838 506h-389l-72 -506h-78l205 1452l78 12l-125 -893h391l1000 504h125l-1055 -536z" />
<glyph unicode="l" horiz-adv-x="397" d="M365 1452l77 12l-204 -1464h-78z" />
<glyph unicode="m" horiz-adv-x="2560" d="M143 0l152 1079l76 13l-19 -138l2 -2q55 29 113.5 56.5t123 49t137.5 35t157 13.5q174 0 282.5 -50t167.5 -138q66 37 143.5 70.5t160.5 59t171 42t177 16.5q156 0 260 -42t164.5 -118t79 -178t1.5 -223l-75 -545h-78l76 545q14 104 -2.5 193t-68.5 154.5t-145.5 102.5 t-230.5 37q-86 0 -170 -14t-160.5 -39t-147.5 -55.5t-132 -61.5q33 -66 41 -145.5t-4 -171.5l-76 -545h-78l76 545q14 104 -1.5 193t-67.5 154.5t-143 102.5t-228 37q-86 0 -163 -14t-143.5 -35.5t-123 -48.5t-101.5 -49l-125 -885h-78z" />
<glyph unicode="n" d="M1505 0l76 545q14 104 -6.5 193t-81.5 154.5t-166.5 102.5t-259.5 37q-94 0 -193.5 -13t-193.5 -34.5t-180 -48.5t-154 -51l-125 -885h-78l152 1079l76 13l-19 -138l2 -2q70 27 155 54.5t180 49t195.5 36t198.5 14.5q172 0 290 -42t186.5 -118t92 -178t7.5 -223l-76 -545 h-78z" />
<glyph unicode="o" horiz-adv-x="1679" d="M178 539q18 123 81 227t167 180t247.5 118t321.5 42t310.5 -42t215.5 -118t116.5 -180t15.5 -227t-81 -227.5t-167.5 -180.5t-247.5 -119t-321 -43t-310.5 43t-215.5 119t-116.5 180.5t-15.5 227.5zM254 481q0 -96 35 -176t107.5 -138t184 -91t265.5 -33q160 0 288 37 t220 103.5t147 156.5t72 199q14 106 -13.5 197t-100.5 156.5t-191.5 102.5t-282.5 37q-174 0 -310 -42t-229.5 -115.5t-142.5 -175t-49 -218.5z" />
<glyph unicode="p" horiz-adv-x="1746" d="M254 246l-39 -287l-49 -348h-78l205 1462l74 12l-15 -133l2 -2q74 33 166 61.5t189.5 50t197 33t189.5 11.5q176 0 302 -43t202.5 -118t106.5 -178t13 -226q-18 -125 -77.5 -229.5t-156.5 -180.5t-230.5 -119t-294.5 -43q-236 0 -413 81t-292 198zM1081 1032 q-88 0 -187 -11t-197.5 -31.5t-189.5 -47.5t-163 -57l-78 -561q51 -57 125 -108.5t164 -89.5t193.5 -60.5t218.5 -22.5q160 0 284.5 43t212.5 118t134.5 176t46.5 220q0 94 -35 173t-104.5 136.5t-175.5 90t-249 32.5z" />
<glyph unicode="q" horiz-adv-x="1746" d="M1563 246l-2 2q-74 -59 -162 -109.5t-186.5 -88.5t-208 -59.5t-226.5 -21.5q-164 0 -283.5 43t-196.5 119t-107.5 180.5t-12.5 229.5q16 123 75.5 226t158 178t236.5 118t315 43q90 0 185 -11.5t187 -33t175 -50t149 -61.5l2 2l20 121l74 12l-207 -1474h-78l50 348z M954 1032q-172 0 -304 -43t-220 -117.5t-133 -176t-45 -218.5q0 -94 35 -174t102.5 -137t168.5 -90t235 -33q113 0 223 22.5t210.5 60.5t188.5 89t156 109l78 561q-61 31 -145.5 57.5t-176.5 47t-188.5 31.5t-184.5 11z" />
<glyph unicode="r" horiz-adv-x="1026" d="M295 1079l76 13l-33 -252v-2q78 66 160 120t174 89.5t199.5 51t236.5 3.5l-18 -76q-199 20 -388.5 -36t-371.5 -220l-109 -770h-78z" />
<glyph unicode="s" horiz-adv-x="1662" d="M137 131q98 -25 182 -41t162 -27.5t155 -15.5t161 -4q49 0 122.5 3t154.5 13.5t162 28.5t145.5 50t104.5 78t40 110q0 74 -53.5 114.5t-141.5 60t-199.5 23.5t-230.5 4q-123 0 -243.5 6.5t-215 31t-153 73.5t-58.5 135q0 78 37 133.5t97.5 92t137.5 58t158.5 32 t161.5 13.5t144 3q297 0 647 -62l-25 -73q-180 33 -334.5 47t-310.5 14q-90 0 -199.5 -6t-207 -30.5t-163 -75t-65.5 -138.5q0 -68 50.5 -104.5t134.5 -54t191.5 -21.5t221.5 -4q127 -2 252 -7t224.5 -30.5t161 -77t61.5 -145.5q0 -84 -45 -144.5t-119 -101.5t-165 -65.5 t-182 -37t-175 -16.5t-140 -4q-88 0 -166.5 4t-158.5 15.5t-164 29t-180 41.5z" />
<glyph unicode="t" horiz-adv-x="712" d="M434 1075h361l-11 -67h-360l-92 -658q-23 -156 10 -234.5t143 -78.5q63 0 166 29l-8 -66q-51 -12 -98 -21.5t-88 -9.5q-57 0 -102.5 18.5t-73 62.5t-35.5 117t8 183l92 658h-143l10 67h143l39 285l80 12z" />
<glyph unicode="u" d="M217 530l76 545h78l-76 -545q-14 -104 7.5 -194t82.5 -154.5t163.5 -101.5t252.5 -37q207 0 393 71.5t354 188.5l109 772h78l-152 -1075h-70l29 227l-2 2q-72 -49 -157 -96t-181 -83t-203.5 -58.5t-224.5 -22.5q-164 0 -277.5 42t-181 118t-91 178t-7.5 223z" />
<glyph unicode="v" horiz-adv-x="1675" d="M1765 1075l-886 -1075h-82l-584 1075h92l301 -563l242 -444l364 444l461 563h92z" />
<glyph unicode="w" horiz-adv-x="2394" d="M1702 0l-146 389l-221 596l-387 -596l-256 -389h-82l-397 1075h88l203 -563l160 -432l278 432l363 563h86l202 -563l162 -432l279 432l362 563h88l-700 -1075h-82z" />
<glyph unicode="x" horiz-adv-x="1622" d="M1597 1075h111l-774 -536l627 -539h-111l-569 489l-709 -489h-111l777 539l-621 536h111l565 -489z" />
<glyph unicode="y" horiz-adv-x="1675" d="M213 1075h92l301 -563l246 -459l821 1022h92l-925 -1155q-74 -92 -141.5 -152.5t-133 -95t-129 -49t-129.5 -14.5q-59 0 -118.5 8t-125.5 23l9 65q59 -12 118.5 -22.5t116.5 -10.5q129 0 236.5 62.5t224.5 204.5l37 45z" />
<glyph unicode="z" horiz-adv-x="1654" d="M1542 68l-10 -68h-1409l8 66l1368 942h-1184l11 67h1310l-10 -65l-1366 -942h1282z" />
<glyph unicode="{" horiz-adv-x="845" d="M348 668q74 -29 105.5 -99.5t31.5 -165.5q0 -70 -14 -138t-31.5 -133.5t-32 -127t-14.5 -117.5q0 -45 12.5 -81.5t43 -63.5t82 -40t128.5 -9l-8 -58q-178 0 -255 49.5t-77 184.5q0 59 15.5 125.5t34 137.5t34 142.5t15.5 139.5q0 84 -31 148.5t-113 80.5l9 49 q55 10 93 39t64.5 70t41 93t22.5 110q14 104 15 209.5t11 179.5q12 90 40 149.5t76 94t121 49t175 14.5l-8 -58q-94 2 -154.5 -14t-97.5 -50t-54.5 -82t-25.5 -105q-10 -82 -12 -180.5t-17 -200.5q-16 -125 -69.5 -216t-155.5 -126z" />
<glyph unicode="|" horiz-adv-x="589" d="M281 -307h-58l289 2048h57z" />
<glyph unicode="}" horiz-adv-x="845" d="M688 668q-76 29 -107.5 99.5t-31.5 164.5q0 66 14.5 133.5t30.5 134t30.5 129t14.5 119.5q0 45 -12.5 83t-42 63.5t-80.5 38t-129 9.5l8 58q176 0 254 -49t78 -185q0 -59 -15.5 -124.5t-34 -135t-34 -141.5t-15.5 -143q0 -84 31 -148.5t113 -81.5l-8 -49 q-55 -10 -94.5 -39t-65 -69.5t-39.5 -93t-23 -109.5q-8 -53 -11 -106.5t-4 -103.5t-3 -96t-8 -83q-12 -90 -40 -149.5t-76 -94.5t-120.5 -49.5t-175.5 -14.5l8 58q92 -4 151.5 13.5t96.5 51t55.5 80.5t26.5 107q10 82 12 180t17 201q16 125 70.5 216t158.5 126z" />
<glyph unicode="~" horiz-adv-x="1425" d="M1319 831q-115 -100 -195 -136t-145 -36q-53 0 -96 19.5t-82 42t-78 42t-82 19.5q-47 0 -115.5 -32.5t-165.5 -116.5l-38 45q109 96 187.5 131t139.5 35q49 0 91 -19.5t82 -42t79 -42t86 -19.5q51 0 121 33.5t172 122.5z" />
<glyph unicode="&#xa1;" horiz-adv-x="530" d="M338 778l41 297h72l-41 -297h-72zM254 -358h-80l143 962h64z" />
<glyph unicode="&#xa2;" horiz-adv-x="1677" d="M1171 1464l-24 -180q221 -2 362.5 -33.5t192.5 -52.5l-25 -68q-25 8 -71.5 21.5t-115.5 27t-158 22.5t-195 9l-140 -989q106 0 198.5 9.5t164.5 21.5t123 25.5t78 23.5l6 -68q-29 -10 -82 -24t-127 -27.5t-167 -24t-204 -10.5l-24 -178h-50l25 178q-190 2 -324.5 40 t-217.5 103.5t-120.5 155t-37.5 193.5q0 131 44 246.5t145 203t266 139.5t405 56l24 180h49zM317 647q0 -92 33 -169t107.5 -133t195.5 -89t295 -35l139 989q-221 -4 -368.5 -50t-236.5 -120.5t-127 -176t-38 -216.5z" />
<glyph unicode="&#xa3;" horiz-adv-x="1622" d="M166 741h129l55 256q31 137 102.5 227.5t172 142.5t219.5 73.5t241 21.5q166 0 321 -26.5t267 -55.5l-26 -71q-49 12 -115 26.5t-140.5 26.5t-156.5 20.5t-164 8.5q-109 0 -213 -18.5t-191 -62.5t-150.5 -120t-88.5 -191l-57 -258h817l-6 -49h-822l-139 -618h1268 l-10 -74h-1350l154 692h-123z" />
<glyph unicode="&#xa4;" horiz-adv-x="1761" d="M707 225h-287l41 287l-176 205l233 205l41 286h287l233 205l176 -205h287l-41 -286l176 -205l-233 -205l-41 -287h-287l-233 -205zM739 281l156 -179l205 179h256l37 256l202 180l-153 180l37 256h-256l-156 178l-205 -178h-256l-37 -256l-202 -180l153 -180l-37 -256 h256z" />
<glyph unicode="&#xa5;" horiz-adv-x="1773" d="M1593 164h-645l-22 -164h-78l22 164h-653l6 49h654l32 225h-653l6 49h623l-643 947h98l401 -596l217 -330l308 330l569 596h98l-909 -947h614l-6 -49h-645l-33 -225h645z" />
<glyph unicode="&#xa6;" horiz-adv-x="589" d="M442 838h-57l127 903h57zM281 -307h-58l127 903h58z" />
<glyph unicode="&#xa7;" horiz-adv-x="1718" d="M1214 428q74 -14 134.5 -35.5t103.5 -53.5t66.5 -77t23.5 -106q0 -123 -67.5 -201t-177 -123t-247 -62.5t-276.5 -17.5q-106 0 -206.5 7.5t-184.5 17.5t-145.5 20t-87.5 17l22 73q27 -6 89.5 -16t146.5 -20.5t184 -17.5t203 -7q123 0 241.5 13.5t212.5 49t152.5 98 t58.5 158.5q0 98 -77.5 148.5t-204.5 76t-291 41t-336 44.5l98 301q-150 31 -238.5 91t-88.5 183t67.5 201t177 123t246.5 62.5t277 17.5q106 0 206.5 -7.5t184.5 -17.5t145.5 -20.5t87.5 -16.5l-22 -74q-27 6 -89.5 16.5t-146.5 21t-184.5 17.5t-202.5 7 q-123 0 -241.5 -13.5t-213 -49t-153 -98t-58.5 -159.5q0 -98 78 -148t205 -75.5t291 -41t336 -44.5zM1249 676q-158 23 -299 38t-258 36l-78 -240q158 -25 299.5 -39t257.5 -35z" />
<glyph unicode="&#xa8;" horiz-adv-x="1744" d="M682 1440l-31 -215h-61l31 215h61zM1186 1440l-31 -215h-61l30 215h62z" />
<glyph unicode="&#xa9;" horiz-adv-x="1978" d="M215 618q0 176 64.5 331t189.5 269.5t307 180t418 65.5q193 0 337 -49t240.5 -136t144.5 -206t48 -258q0 -176 -64.5 -330.5t-189.5 -269.5t-307 -180.5t-418 -65.5q-193 0 -337 49.5t-240.5 136.5t-144.5 205.5t-48 257.5zM264 627q0 -131 45 -243t136.5 -192.5 t227.5 -127t318 -46.5q221 0 393 61.5t290 168t179.5 251t61.5 308.5q0 131 -45 241.5t-136.5 192.5t-227.5 128t-318 46q-221 0 -393 -61.5t-290 -168t-179.5 -250.5t-61.5 -308zM1470 369q-41 -12 -146 -38t-263 -26q-139 0 -239.5 27.5t-165 76t-94.5 114t-30 143.5 q0 96 37 180t116 147.5t200 99t291 35.5q158 0 257 -25.5t136 -37.5l-19 -47q-47 16 -143 39.5t-238 23.5q-154 0 -265 -31.5t-182 -87t-104.5 -130t-33.5 -158.5q0 -70 27.5 -128.5t86 -101.5t149.5 -67.5t220 -24.5q141 0 244.5 23.5t154.5 40.5z" />
<glyph unicode="&#xaa;" horiz-adv-x="1406" d="M1452 584q-68 -25 -119 -25q-78 0 -101.5 47t-10.5 164q-41 -43 -100.5 -82t-133.5 -67.5t-158 -45t-172 -16.5q-193 0 -310.5 66.5t-117.5 195.5q0 90 46.5 148.5t119 92.5t160.5 47t174 13q55 0 125 -6t141.5 -16t139 -24.5t118.5 -28.5q10 74 -3 137t-62 108t-138 71 t-231 26q-72 0 -137.5 -6.5t-120.5 -15.5t-97 -18.5t-65 -17.5l-12 66q18 6 61.5 16t103.5 20.5t133 17.5t151 7q156 0 257 -29.5t159.5 -82t78 -124t6.5 -155.5l-37 -268q-12 -86 0.5 -125t67.5 -41q16 0 42 5t52 15zM311 834q0 -63 38 -104.5t95.5 -64t123 -31.5t118.5 -9 q86 0 168 16t153.5 46t127 71t90.5 90l22 160q-47 14 -116.5 25t-143.5 20.5t-142.5 14.5t-111.5 5q-72 0 -146.5 -10t-136 -37t-100.5 -73.5t-39 -118.5z" />
<glyph unicode="&#xab;" horiz-adv-x="1511" d="M932 1106l31 -45l-629 -471l497 -469l-43 -45l-542 514zM1464 1106l31 -45l-629 -471l498 -469l-43 -45l-543 514z" />
<glyph unicode="&#xac;" horiz-adv-x="1464" d="M1395 819l-105 -745h-57l96 688h-1038l8 57h1096z" />
<glyph unicode="&#xad;" horiz-adv-x="1464" d="M344 713h973l-8 -66h-973z" />
<glyph unicode="&#xae;" horiz-adv-x="1978" d="M215 618q0 176 64.5 331t189.5 269.5t307 180t418 65.5q193 0 337 -49t240.5 -136t144.5 -206t48 -258q0 -176 -64.5 -330.5t-189.5 -269.5t-307 -180.5t-418 -65.5q-193 0 -337 49.5t-240.5 136.5t-144.5 205.5t-48 257.5zM264 627q0 -131 45 -243t136.5 -192.5 t227.5 -127t318 -46.5q221 0 393 61.5t290 168t179.5 251t61.5 308.5q0 131 -45 241.5t-136.5 192.5t-227.5 128t-318 46q-221 0 -393 -61.5t-290 -168t-179.5 -250.5t-61.5 -308zM602 322l111 788h626q57 0 107.5 -11.5t87.5 -36t57.5 -65.5t20.5 -100q0 -82 -28 -136 t-78 -88t-117.5 -48.5t-147.5 -14.5l293 -288h-74l-291 286h-475l-41 -286h-51zM1249 657q68 0 124.5 11.5t97 38t64.5 71.5t24 111q0 96 -64.5 135t-161.5 39h-575l-58 -406h549z" />
<glyph unicode="&#xaf;" horiz-adv-x="1744" d="M1337 1362l-8 -57h-727l8 57h727z" />
<glyph unicode="&#xb0;" horiz-adv-x="1146" d="M297 1092q10 78 47 146.5t97.5 118.5t144.5 78.5t192 28.5q106 0 183 -28.5t124.5 -78.5t64.5 -119t7 -146q-12 -80 -49 -147.5t-97.5 -119t-145.5 -80t-191 -28.5q-109 0 -184.5 28.5t-123 80t-64.5 119t-5 147.5zM354 1092q-10 -68 5.5 -127.5t55.5 -103.5t106.5 -68.5 t160.5 -24.5q92 0 166 24.5t126 68.5t84 103.5t42 127.5q8 68 -6.5 126t-55.5 101t-107.5 67.5t-158.5 24.5q-94 0 -168 -24.5t-126 -67.5t-84 -101t-40 -126z" />
<glyph unicode="&#xb1;" horiz-adv-x="1464" d="M784 565l68 479h57l-67 -479h477l-8 -57h-477l-64 -451h477l-8 -57h-1014l8 57h480l63 451h-479l8 57h479z" />
<glyph unicode="&#xb2;" horiz-adv-x="1372" d="M207 608l10 74q209 70 413 157t363.5 185t258 206.5t98.5 219.5q0 80 -53.5 128t-130 73.5t-160.5 33t-148 7.5q-131 0 -248.5 -17.5t-251.5 -50.5l-6 74q137 35 260 51t246 16q76 0 175.5 -9t188.5 -41t150.5 -90t61.5 -157q0 -82 -44 -160.5t-121 -152.5t-181.5 -141.5 t-225.5 -128t-253 -111.5t-263 -92h1010l-10 -74h-1139z" />
<glyph unicode="&#xb3;" horiz-adv-x="1351" d="M225 762q45 -20 109.5 -38.5t139.5 -33t159 -24t168 -9.5q98 0 189 14.5t162 47.5t113 87t42 134q0 68 -45 109t-132.5 62.5t-218.5 28.5t-303 7h-137l8 55h137q195 0 334.5 16.5t229.5 50.5t132 86t42 124q0 76 -53.5 118.5t-130 63t-161.5 26t-149 5.5 q-133 0 -252 -17.5t-252 -50.5l-6 74q137 35 261 51t253 16q74 0 172.5 -6t187.5 -32.5t151.5 -80t62.5 -147.5q0 -143 -130 -220t-425 -101q248 -10 374.5 -61.5t126.5 -180.5q0 -100 -50 -168t-134 -109t-191.5 -58t-220.5 -17q-90 0 -178 9t-168 24.5t-144.5 35 t-104.5 37.5z" />
<glyph unicode="&#xb4;" horiz-adv-x="1744" d="M1382 1505l13 -61l-719 -240l-10 43z" />
<glyph unicode="&#xb5;" d="M88 -389l205 1464h80l-76 -545q-14 -104 6.5 -194t81.5 -154.5t163.5 -101.5t252.5 -37q207 0 393 71.5t354 188.5l107 772h78l-150 -1075h-70l27 227l-2 2q-72 -49 -156 -96t-181 -83t-203.5 -58.5t-223.5 -22.5q-231 0 -357 89t-155 237l-96 -684h-78z" />
<glyph unicode="&#xb6;" horiz-adv-x="1343" d="M1018 0h-66l88 623h-317q-90 0 -170 18t-140.5 59t-95 106.5t-34.5 162.5q0 129 46 218t122.5 144t176 79t208.5 24h383zM1180 0h-66l201 1434h65z" />
<glyph unicode="&#xb7;" horiz-adv-x="522" d="M393 686l-41 -297h-71l41 297h71z" />
<glyph unicode="&#xb8;" horiz-adv-x="1718" d="M621 -459l32 47q49 -6 122 -8t141.5 8.5t121 38t62.5 82.5q6 31 -14.5 54.5t-57.5 39t-87 21.5t-105 4q-8 2 -14.5 9t-2.5 18l103 149h45l-99 -139q59 6 114.5 -2t97.5 -28.5t63.5 -52.5t13.5 -73q-10 -51 -45 -85t-84 -53.5t-107.5 -28.5t-114.5 -10t-105 2t-80 7z" />
<glyph unicode="&#xb9;" horiz-adv-x="1159" d="M637 682l137 979l-452 -123l-15 66l481 137h76l-149 -1059h461l-11 -74h-999l10 74h461z" />
<glyph unicode="&#xba;" horiz-adv-x="1339" d="M217 956q0 106 44 198.5t129 160t207 105.5t277 38q131 0 230.5 -29.5t167 -82t101.5 -125t34 -158.5q0 -109 -45 -201t-129 -159.5t-207 -105.5t-278 -38q-131 0 -230.5 29.5t-166 83t-100.5 126t-34 158.5zM1325 1053q0 72 -29.5 132t-87 104t-144.5 68.5t-200 24.5 q-135 0 -240.5 -31.5t-178 -87t-110.5 -132t-38 -164.5q0 -72 29.5 -133.5t87 -106.5t143.5 -69.5t201 -24.5q135 0 240.5 31.5t178 89t110.5 133.5t38 166z" />
<glyph unicode="&#xbb;" horiz-adv-x="1511" d="M1430 590l-687 -514l-30 45l628 469l-495 471l43 45zM897 590l-686 -514l-31 45l629 469l-496 471l43 45z" />
<glyph unicode="&#xbc;" horiz-adv-x="3338" d="M594 375l137 979l-452 -123l-15 65l481 138h76l-149 -1059h461l-11 -74h-999l10 74h461zM1063 -16q362 373 714.5 745.5t702.5 755.5l35 -35q-360 -373 -713.5 -745.5t-703.5 -755.5zM3115 252l-37 -252h-80l37 252h-938l10 72l1051 809h80l-113 -807h148 q-4 -18 -7.5 -37t-5.5 -37h-145zM3095 682l53 365l-682 -523l-264 -198h843z" />
<glyph unicode="&#xbd;" horiz-adv-x="3592" d="M2341 0l10 74q139 47 277.5 101t265.5 114.5t234.5 126t187.5 136.5t125 143.5t45 146.5q0 80 -53.5 128t-130 73.5t-161.5 32.5t-147 7q-131 0 -249.5 -17t-252.5 -50l-6 74q137 35 261 51t247 16q76 0 175.5 -9t188.5 -41t150.5 -90.5t61.5 -156.5q0 -123 -96.5 -238.5 t-251 -217t-350 -185.5t-392.5 -145h1010l-10 -74h-1139zM594 375l137 979l-452 -123l-15 65l481 138h76l-149 -1059h461l-11 -74h-999l10 74h461zM1063 -16q362 373 714.5 745.5t702.5 755.5l35 -35q-360 -373 -713.5 -745.5t-703.5 -755.5z" />
<glyph unicode="&#xbe;" horiz-adv-x="3377" d="M3152 252l-35 -252h-80l35 252h-938l10 72l1051 809h80l-113 -807h148l-13 -74h-145zM3133 682l54 365l-682 -523l-267 -198h844zM182 455q45 -20 109.5 -39t139.5 -33t159 -23.5t168 -9.5q96 0 187 14.5t162 47t114 87t43 134.5q0 68 -45 108.5t-133.5 62t-218.5 29 t-302 7.5h-137l8 55h137q195 0 334.5 16.5t229.5 50t132 86t42 123.5q0 76 -53.5 119t-130 63.5t-161.5 25.5t-149 5q-133 0 -252 -17t-252 -50l-6 74q137 35 261 51t253 16q74 0 172.5 -6t187.5 -32.5t151.5 -80t62.5 -147.5q0 -143 -130 -220t-425 -102q248 -10 374.5 -61 t126.5 -180q0 -100 -50 -168t-134 -109t-191.5 -58.5t-220.5 -17.5q-90 0 -178 9.5t-168 25t-144.5 35t-104.5 37.5zM1102 -16q360 373 713.5 745.5t703.5 755.5l33 -35q-360 -373 -713.5 -745.5t-703.5 -755.5z" />
<glyph unicode="&#xbf;" horiz-adv-x="1660" d="M1001 604q-27 -94 -94 -150.5t-154 -94t-180.5 -67.5t-171 -68t-128 -95t-50.5 -149q0 -98 68.5 -157t168 -89.5t210 -39.5t196.5 -9q156 0 305.5 20.5t315.5 61.5l8 -72q-170 -43 -323.5 -63.5t-311.5 -20.5q-66 0 -144.5 4t-158.5 17.5t-154.5 38t-133 63.5t-93.5 96 t-35 135q0 111 50.5 176.5t127 108.5t171 70.5t182.5 62.5t159.5 85t104.5 136h65zM956 778l41 297h72l-41 -297h-72z" />
<glyph unicode="&#xc0;" horiz-adv-x="2035" d="M2015 0h-90l-211 393h-1284l-319 -393h-91l1156 1434h86zM606 614l-121 -147h1196l-79 147l-392 750zM1319 1606l-23 -43l-651 239l31 62z" />
<glyph unicode="&#xc1;" horiz-adv-x="2035" d="M2015 0h-90l-211 393h-1284l-319 -393h-91l1156 1434h86zM606 614l-121 -147h1196l-79 147l-392 750zM1898 1864l15 -62l-721 -239l-10 43z" />
<glyph unicode="&#xc2;" horiz-adv-x="2035" d="M2015 0h-90l-211 393h-1284l-319 -393h-91l1156 1434h86zM606 614l-121 -147h1196l-79 147l-392 750zM1270 1792l-455 -254l-16 43l479 277l401 -277l-24 -43z" />
<glyph unicode="&#xc3;" horiz-adv-x="2035" d="M2015 0h-90l-211 393h-1284l-319 -393h-91l1156 1434h86zM606 614l-121 -147h1196l-79 147l-392 750zM1657 1745q-92 -80 -156.5 -110.5t-118.5 -30.5q-43 0 -78.5 15t-67.5 33.5t-62.5 34t-63.5 15.5q-39 0 -95.5 -24.5t-133.5 -92.5l-31 37q86 78 151.5 107.5 t116.5 29.5q39 0 73 -15t64.5 -33.5t63.5 -34t72 -15.5q41 0 98 24.5t137 96.5z" />
<glyph unicode="&#xc4;" horiz-adv-x="2035" d="M2015 0h-90l-211 393h-1284l-319 -393h-91l1156 1434h86zM606 614l-121 -147h1196l-79 147l-392 750zM1049 1798l-29 -215h-62l29 215h62zM1552 1798l-28 -215h-62l29 215h61z" />
<glyph unicode="&#xc5;" horiz-adv-x="2035" d="M1010 1561q0 90 61.5 154.5t194.5 64.5q109 0 155.5 -46t46.5 -118q0 -78 -46 -139.5t-142 -77.5l735 -1399h-90l-211 393h-1284l-319 -393h-91l1127 1397q-72 14 -104.5 59.5t-32.5 104.5zM606 614l-121 -147h1196l-79 147l-392 750zM1051 1567q0 -53 33.5 -91 t111.5 -42h39q102 4 147 56t45 120q0 57 -38.5 93t-128.5 36q-111 0 -160 -50t-49 -122z" />
<glyph unicode="&#xc6;" horiz-adv-x="3360" d="M3209 700h-1354l-88 -626h1518l-10 -74h-1596l56 393h-1092l-508 -393h-115l1860 1434h1554l-10 -74h-1476l-82 -586h1353zM928 614l-191 -147h1008l123 879z" />
<glyph unicode="&#xc7;" horiz-adv-x="2011" d="M707 -459l34 47q49 -6 121 -8t141.5 8.5t122 38t60.5 82.5q6 31 -13.5 54.5t-56.5 39t-87 21.5t-107 4q-8 2 -14.5 9t-2.5 18l82 122q-203 16 -349 71.5t-240.5 141.5t-138.5 197t-44 238q0 174 67.5 327.5t210 267t363.5 179t528 65.5q143 0 260 -13t207.5 -31.5 t151.5 -38t94 -31.5l-26 -70q-41 14 -105.5 32.5t-152 36t-198 30t-241.5 12.5q-287 0 -490.5 -59.5t-334.5 -162t-192.5 -239.5t-61.5 -295q0 -127 50 -235.5t158.5 -187.5t276.5 -124t406 -45q131 0 244.5 12.5t206 29.5t161 35.5t113.5 33.5l10 -70q-37 -12 -104.5 -31.5 t-162.5 -38t-215 -32t-263 -13.5q-39 0 -75 1t-71 3l-74 -108q59 6 114.5 -2t96.5 -28.5t62.5 -52.5t13.5 -73q-10 -51 -44 -85t-84 -53.5t-108.5 -28.5t-114.5 -10t-105 2t-80 7z" />
<glyph unicode="&#xc8;" horiz-adv-x="1882" d="M1518 1606l-23 -43l-651 239l30 62zM164 0l201 1434h1554l-10 -74h-1477l-82 -586h1354l-10 -74h-1354l-88 -626h1517l-10 -74h-1595z" />
<glyph unicode="&#xc9;" horiz-adv-x="1882" d="M1532 1864l14 -62l-721 -239l-10 43zM164 0l201 1434h1554l-10 -74h-1477l-82 -586h1354l-10 -74h-1354l-88 -626h1517l-10 -74h-1595z" />
<glyph unicode="&#xca;" horiz-adv-x="1882" d="M164 0l201 1434h1554l-10 -74h-1477l-82 -586h1354l-10 -74h-1354l-88 -626h1517l-10 -74h-1595zM1192 1792l-455 -254l-16 43l479 277l402 -277l-25 -43z" />
<glyph unicode="&#xcb;" horiz-adv-x="1882" d="M971 1798l-29 -215h-61l28 215h62zM1475 1798l-29 -215h-62l29 215h62zM164 0l201 1434h1554l-10 -74h-1477l-82 -586h1354l-10 -74h-1354l-88 -626h1517l-10 -74h-1595z" />
<glyph unicode="&#xcc;" horiz-adv-x="405" d="M367 1434h77l-202 -1434h-78zM750 1606l-23 -43l-653 239l30 62z" />
<glyph unicode="&#xcd;" horiz-adv-x="405" d="M365 1434h77l-200 -1434h-78zM829 1864l13 -62l-719 -239l-10 43z" />
<glyph unicode="&#xce;" horiz-adv-x="405" d="M365 1434h77l-200 -1434h-78zM453 1792l-455 -254l-14 43l479 277l401 -277l-26 -43z" />
<glyph unicode="&#xcf;" horiz-adv-x="405" d="M367 1434h77l-202 -1434h-78zM238 1798l-31 -215h-62l31 215h62zM741 1798l-30 -215h-62l31 215h61z" />
<glyph unicode="&#xd0;" horiz-adv-x="2045" d="M164 0l98 694h-164l6 49h164l99 691h702q254 0 436.5 -45.5t299 -128t172 -198.5t55.5 -255q0 -176 -67 -323.5t-208 -255t-361 -168t-530 -60.5h-702zM434 1360l-88 -617h625l-6 -49h-625l-88 -620h625q287 0 490.5 53t333.5 149.5t190.5 229.5t60.5 291 q0 127 -51.5 230t-159 177t-277.5 115t-405 41h-625z" />
<glyph unicode="&#xd1;" horiz-adv-x="2037" d="M1657 1745q-92 -80 -156.5 -110.5t-118.5 -30.5q-43 0 -78.5 15t-67.5 33.5t-62.5 34t-63.5 15.5q-39 0 -95.5 -24.5t-133.5 -92.5l-31 37q86 78 151.5 107.5t116.5 29.5q39 0 73 -15t64.5 -33.5t63.5 -34t72 -15.5q41 0 98 24.5t137 96.5zM1997 1434h78l-201 -1434h-76 l-1372 1333l-20 -164l-164 -1169h-78l201 1434h75l1372 -1334l23 183z" />
<glyph unicode="&#xd2;" horiz-adv-x="2170" d="M1661 1606l-23 -43l-651 239l31 62zM223 717q23 160 103 297t215 236.5t323.5 156.5t425.5 57q238 0 410 -57t279.5 -156.5t149.5 -236.5t19 -297t-103.5 -297t-215.5 -236.5t-322.5 -157t-425.5 -57.5t-409.5 57.5t-279 157t-150 236.5t-19.5 297zM303 717 q-20 -145 15.5 -268t133 -213.5t256 -141.5t384.5 -51q219 0 391 51t296 141.5t196.5 213t92.5 268.5q20 143 -16.5 267t-133.5 214t-256 141.5t-382 51.5q-219 0 -391 -51.5t-295 -141.5t-197 -214t-94 -267z" />
<glyph unicode="&#xd3;" horiz-adv-x="2170" d="M1675 1864l15 -62l-721 -239l-11 43zM223 717q23 160 103 297t215 236.5t323.5 156.5t425.5 57q238 0 410 -57t279.5 -156.5t149.5 -236.5t19 -297t-103.5 -297t-215.5 -236.5t-322.5 -157t-425.5 -57.5t-409.5 57.5t-279 157t-150 236.5t-19.5 297zM303 717 q-20 -145 15.5 -268t133 -213.5t256 -141.5t384.5 -51q219 0 391 51t296 141.5t196.5 213t92.5 268.5q20 143 -16.5 267t-133.5 214t-256 141.5t-382 51.5q-219 0 -391 -51.5t-295 -141.5t-197 -214t-94 -267z" />
<glyph unicode="&#xd4;" horiz-adv-x="2170" d="M1335 1792l-454 -254l-17 43l479 277l402 -277l-25 -43zM223 717q23 160 103 297t215 236.5t323.5 156.5t425.5 57q238 0 410 -57t279.5 -156.5t149.5 -236.5t19 -297t-103.5 -297t-215.5 -236.5t-322.5 -157t-425.5 -57.5t-409.5 57.5t-279 157t-150 236.5t-19.5 297z M303 717q-20 -145 15.5 -268t133 -213.5t256 -141.5t384.5 -51q219 0 391 51t296 141.5t196.5 213t92.5 268.5q20 143 -16.5 267t-133.5 214t-256 141.5t-382 51.5q-219 0 -391 -51.5t-295 -141.5t-197 -214t-94 -267z" />
<glyph unicode="&#xd5;" horiz-adv-x="2170" d="M1724 1745q-92 -80 -156.5 -110.5t-117.5 -30.5q-43 0 -79 15t-67.5 33.5t-62.5 34t-63 15.5q-39 0 -95.5 -24.5t-134.5 -92.5l-30 37q86 78 151.5 107.5t116.5 29.5q39 0 72.5 -15t64.5 -33.5t63.5 -34t71.5 -15.5q41 0 98.5 24.5t137.5 96.5zM223 717q23 160 103 297 t215 236.5t323.5 156.5t425.5 57q238 0 410 -57t279.5 -156.5t149.5 -236.5t19 -297t-103.5 -297t-215.5 -236.5t-322.5 -157t-425.5 -57.5t-409.5 57.5t-279 157t-150 236.5t-19.5 297zM303 717q-20 -145 15.5 -268t133 -213.5t256 -141.5t384.5 -51q219 0 391 51 t296 141.5t196.5 213t92.5 268.5q20 143 -16.5 267t-133.5 214t-256 141.5t-382 51.5q-219 0 -391 -51.5t-295 -141.5t-197 -214t-94 -267z" />
<glyph unicode="&#xd6;" horiz-adv-x="2170" d="M1116 1798l-29 -215h-61l29 215h61zM1620 1798l-29 -215h-61l29 215h61zM223 717q23 160 103 297t215 236.5t323.5 156.5t425.5 57q238 0 410 -57t279.5 -156.5t149.5 -236.5t19 -297t-103.5 -297t-215.5 -236.5t-322.5 -157t-425.5 -57.5t-409.5 57.5t-279 157 t-150 236.5t-19.5 297zM303 717q-20 -145 15.5 -268t133 -213.5t256 -141.5t384.5 -51q219 0 391 51t296 141.5t196.5 213t92.5 268.5q20 143 -16.5 267t-133.5 214t-256 141.5t-382 51.5q-219 0 -391 -51.5t-295 -141.5t-197 -214t-94 -267z" />
<glyph unicode="&#xd7;" horiz-adv-x="1359" d="M715 537l-289 340l45 38l291 -337l385 337l37 -38l-389 -340l292 -338l-47 -39l-290 336l-385 -336l-35 39z" />
<glyph unicode="&#xd8;" horiz-adv-x="2170" d="M215 627q0 174 70.5 327.5t207 266t337 178t460.5 65.5q180 0 323.5 -33.5t248.5 -95.5l141 123l31 -35l-131 -112q129 -86 191.5 -218t62.5 -286q0 -176 -71 -328.5t-208 -265.5t-337 -178.5t-460 -65.5q-180 0 -320 32t-247 91l-133 -117l-29 35l121 109 q-129 86 -193.5 219t-64.5 289zM297 637q0 -143 59.5 -264t180.5 -199l1259 1102q-96 55 -224 85t-292 30q-240 0 -423 -58.5t-307 -160t-188.5 -239.5t-64.5 -296zM2077 797q0 141 -58.5 261t-179.5 195l-1259 -1101q98 -53 224 -81t288 -28q240 0 424 58.5t308 159.5 t188.5 239.5t64.5 296.5z" />
<glyph unicode="&#xd9;" horiz-adv-x="2048" d="M1599 1606l-22 -43l-653 239l32 62zM2007 1434h78l-121 -861q-45 -317 -279.5 -460.5t-664.5 -143.5t-625.5 143.5t-150.5 460.5l121 861h77l-120 -861q-20 -143 16.5 -243.5t126.5 -164t232.5 -93t332.5 -29.5t341 29.5t258.5 93t172 164t84.5 243.5z" />
<glyph unicode="&#xda;" horiz-adv-x="2048" d="M1614 1864l12 -62l-719 -239l-10 43zM2007 1434h78l-121 -861q-45 -317 -279.5 -460.5t-664.5 -143.5t-625.5 143.5t-150.5 460.5l121 861h77l-120 -861q-20 -143 16.5 -243.5t126.5 -164t232.5 -93t332.5 -29.5t341 29.5t258.5 93t172 164t84.5 243.5z" />
<glyph unicode="&#xdb;" horiz-adv-x="2048" d="M2007 1434h78l-121 -861q-45 -317 -279.5 -460.5t-664.5 -143.5t-625.5 143.5t-150.5 460.5l121 861h77l-120 -861q-20 -143 16.5 -243.5t126.5 -164t232.5 -93t332.5 -29.5t341 29.5t258.5 93t172 164t84.5 243.5zM1274 1792l-457 -254l-14 43l479 277l401 -277l-26 -43 z" />
<glyph unicode="&#xdc;" horiz-adv-x="2048" d="M1055 1798l-31 -215h-61l30 215h62zM1559 1798l-31 -215h-62l31 215h62zM2007 1434h78l-121 -861q-45 -317 -279.5 -460.5t-664.5 -143.5t-625.5 143.5t-150.5 460.5l121 861h77l-120 -861q-20 -143 16.5 -243.5t126.5 -164t232.5 -93t332.5 -29.5t341 29.5t258.5 93 t172 164t84.5 243.5z" />
<glyph unicode="&#xdd;" horiz-adv-x="2052" d="M2232 1434l-1106 -985l-61 -449h-78l62 449l-828 985h101l301 -359l475 -561l631 561l403 359h100zM1616 1864l12 -62l-719 -239l-10 43z" />
<glyph unicode="&#xde;" horiz-adv-x="1955" d="M164 0l201 1434h77l-28 -211h995q113 0 213 -22.5t175 -73t119 -133.5t44 -201q0 -164 -57.5 -274.5t-153.5 -180.5t-222 -99.5t-261 -29.5h-996l-28 -209h-78zM403 1149l-122 -866h999q119 0 228.5 25.5t191.5 84t131 154.5t49 235q0 102 -38 172t-102.5 113 t-151.5 62.5t-185 19.5h-1000z" />
<glyph unicode="&#xdf;" horiz-adv-x="2183" d="M143 0l164 1161q10 72 51 123t101.5 84t134.5 52.5t150.5 29.5t151.5 12t136 2q113 0 232.5 -8t246.5 -26l-131 -396q-92 2 -204.5 -4t-211 -31.5t-165 -77t-66.5 -139.5q0 -68 52.5 -104.5t137.5 -54t194.5 -20.5t225.5 -5q125 -2 247 -8t218.5 -30.5t155.5 -77 t59 -144.5q0 -84 -45 -144.5t-117.5 -101.5t-163.5 -65.5t-183.5 -37t-175.5 -16.5t-140 -4q-88 0 -166 4t-156.5 15.5t-161.5 29t-179 41.5l24 72q98 -25 181 -41t161 -27.5t155 -15.5t161 -4q49 0 122.5 3t154.5 13.5t162 28.5t145.5 50t104.5 78t40 110q0 74 -53.5 114.5 t-140.5 60t-198.5 23.5t-228.5 4q-125 0 -244.5 6.5t-215 30t-154 72.5t-58.5 137q0 113 72 177.5t177.5 97t225 42t218.5 11.5l90 268q-106 10 -210 18.5t-202 8.5q-86 0 -191.5 -6.5t-201.5 -29t-165 -70.5t-81 -130l-164 -1161h-78z" />
<glyph unicode="&#xe0;" horiz-adv-x="1763" d="M1718 0q-78 -31 -139 -31q-104 0 -129 63.5t-2 213.5q-49 -57 -124 -107.5t-169 -88.5t-201.5 -59.5t-222.5 -21.5q-121 0 -220 21.5t-171 63.5t-112 103.5t-40 143.5q0 115 58.5 188.5t149.5 115.5t203 58.5t218 16.5q68 0 159 -4t186 -11.5t184.5 -15.5t154.5 -14 q6 86 -15.5 158.5t-85 126t-175 83t-285.5 29.5q-96 0 -183 -8t-158 -19.5t-122 -23.5t-74 -20l-14 67q25 8 79 21.5t128 25.5t165 21.5t189 9.5q193 0 321 -37t201.5 -102.5t96 -155.5t8.5 -197l-53 -366q-16 -111 2 -158t90 -47q23 0 53.5 6t59.5 21zM270 313 q0 -68 36 -120t99.5 -86.5t151.5 -52t195 -17.5q113 0 220 22.5t200.5 61.5t167 92t118.5 113l37 266q-174 10 -344 19.5t-344 11.5q-90 0 -185.5 -13.5t-173 -48.5t-128 -95.5t-50.5 -152.5zM1407 1247l-23 -43l-651 240l31 61z" />
<glyph unicode="&#xe1;" horiz-adv-x="1763" d="M1718 0q-78 -31 -139 -31q-104 0 -129 63.5t-2 213.5q-49 -57 -124 -107.5t-169 -88.5t-201.5 -59.5t-222.5 -21.5q-121 0 -220 21.5t-171 63.5t-112 103.5t-40 143.5q0 115 58.5 188.5t149.5 115.5t203 58.5t218 16.5q68 0 159 -4t186 -11.5t184.5 -15.5t154.5 -14 q6 86 -15.5 158.5t-85 126t-175 83t-285.5 29.5q-96 0 -183 -8t-158 -19.5t-122 -23.5t-74 -20l-14 67q25 8 79 21.5t128 25.5t165 21.5t189 9.5q193 0 321 -37t201.5 -102.5t96 -155.5t8.5 -197l-53 -366q-16 -111 2 -158t90 -47q23 0 53.5 6t59.5 21zM270 313 q0 -68 36 -120t99.5 -86.5t151.5 -52t195 -17.5q113 0 220 22.5t200.5 61.5t167 92t118.5 113l37 266q-174 10 -344 19.5t-344 11.5q-90 0 -185.5 -13.5t-173 -48.5t-128 -95.5t-50.5 -152.5zM1421 1505l15 -61l-721 -240l-10 43z" />
<glyph unicode="&#xe2;" horiz-adv-x="1763" d="M1718 0q-78 -31 -139 -31q-104 0 -129 63.5t-2 213.5q-49 -57 -124 -107.5t-169 -88.5t-201.5 -59.5t-222.5 -21.5q-121 0 -220 21.5t-171 63.5t-112 103.5t-40 143.5q0 115 58.5 188.5t149.5 115.5t203 58.5t218 16.5q68 0 159 -4t186 -11.5t184.5 -15.5t154.5 -14 q6 86 -15.5 158.5t-85 126t-175 83t-285.5 29.5q-96 0 -183 -8t-158 -19.5t-122 -23.5t-74 -20l-14 67q25 8 79 21.5t128 25.5t165 21.5t189 9.5q193 0 321 -37t201.5 -102.5t96 -155.5t8.5 -197l-53 -366q-16 -111 2 -158t90 -47q23 0 53.5 6t59.5 21zM270 313 q0 -68 36 -120t99.5 -86.5t151.5 -52t195 -17.5q113 0 220 22.5t200.5 61.5t167 92t118.5 113l37 266q-174 10 -344 19.5t-344 11.5q-90 0 -185.5 -13.5t-173 -48.5t-128 -95.5t-50.5 -152.5zM1067 1434l-457 -254l-14 43l479 276l402 -276l-27 -43z" />
<glyph unicode="&#xe3;" horiz-adv-x="1763" d="M1718 0q-78 -31 -139 -31q-104 0 -129 63.5t-2 213.5q-49 -57 -124 -107.5t-169 -88.5t-201.5 -59.5t-222.5 -21.5q-121 0 -220 21.5t-171 63.5t-112 103.5t-40 143.5q0 115 58.5 188.5t149.5 115.5t203 58.5t218 16.5q68 0 159 -4t186 -11.5t184.5 -15.5t154.5 -14 q6 86 -15.5 158.5t-85 126t-175 83t-285.5 29.5q-96 0 -183 -8t-158 -19.5t-122 -23.5t-74 -20l-14 67q25 8 79 21.5t128 25.5t165 21.5t189 9.5q193 0 321 -37t201.5 -102.5t96 -155.5t8.5 -197l-53 -366q-16 -111 2 -158t90 -47q23 0 53.5 6t59.5 21zM270 313 q0 -68 36 -120t99.5 -86.5t151.5 -52t195 -17.5q113 0 220 22.5t200.5 61.5t167 92t118.5 113l37 266q-174 10 -344 19.5t-344 11.5q-90 0 -185.5 -13.5t-173 -48.5t-128 -95.5t-50.5 -152.5zM1438 1386q-92 -80 -156.5 -110.5t-118.5 -30.5q-43 0 -78.5 15.5t-67.5 34 t-62.5 33.5t-63.5 15q-39 0 -95.5 -24.5t-133.5 -91.5l-31 37q86 78 151.5 107.5t116.5 29.5q39 0 73 -15.5t64.5 -34t63.5 -33.5t71 -15q41 0 98.5 24.5t137.5 95.5z" />
<glyph unicode="&#xe4;" horiz-adv-x="1763" d="M1718 0q-78 -31 -139 -31q-104 0 -129 63.5t-2 213.5q-49 -57 -124 -107.5t-169 -88.5t-201.5 -59.5t-222.5 -21.5q-121 0 -220 21.5t-171 63.5t-112 103.5t-40 143.5q0 115 58.5 188.5t149.5 115.5t203 58.5t218 16.5q68 0 159 -4t186 -11.5t184.5 -15.5t154.5 -14 q6 86 -15.5 158.5t-85 126t-175 83t-285.5 29.5q-96 0 -183 -8t-158 -19.5t-122 -23.5t-74 -20l-14 67q25 8 79 21.5t128 25.5t165 21.5t189 9.5q193 0 321 -37t201.5 -102.5t96 -155.5t8.5 -197l-53 -366q-16 -111 2 -158t90 -47q23 0 53.5 6t59.5 21zM270 313 q0 -68 36 -120t99.5 -86.5t151.5 -52t195 -17.5q113 0 220 22.5t200.5 61.5t167 92t118.5 113l37 266q-174 10 -344 19.5t-344 11.5q-90 0 -185.5 -13.5t-173 -48.5t-128 -95.5t-50.5 -152.5zM862 1440l-31 -215h-61l31 215h61zM1366 1440l-31 -215h-61l31 215h61z" />
<glyph unicode="&#xe5;" horiz-adv-x="1763" d="M1718 0q-78 -31 -139 -31q-104 0 -129 63.5t-2 213.5q-49 -57 -124 -107.5t-169 -88.5t-201.5 -59.5t-222.5 -21.5q-121 0 -220 21.5t-171 63.5t-112 103.5t-40 143.5q0 115 58.5 188.5t149.5 115.5t203 58.5t218 16.5q68 0 159 -4t186 -11.5t184.5 -15.5t154.5 -14 q6 86 -15.5 158.5t-85 126t-175 83t-285.5 29.5q-96 0 -183 -8t-158 -19.5t-122 -23.5t-74 -20l-14 67q25 8 79 21.5t128 25.5t165 21.5t189 9.5q193 0 321 -37t201.5 -102.5t96 -155.5t8.5 -197l-53 -366q-16 -111 2 -158t90 -47q23 0 53.5 6t59.5 21zM270 313 q0 -68 36 -120t99.5 -86.5t151.5 -52t195 -17.5q113 0 220 22.5t200.5 61.5t167 92t118.5 113l37 266q-174 10 -344 19.5t-344 11.5q-90 0 -185.5 -13.5t-173 -48.5t-128 -95.5t-50.5 -152.5zM821 1311q0 90 61.5 154.5t194.5 64.5q109 0 157 -46t48 -118q0 -45 -15.5 -86 t-47 -71.5t-79.5 -48t-116 -17.5q-109 0 -156 48t-47 120zM864 1339q-10 -66 29 -110.5t137 -44.5q111 0 160 52t49 124q0 57 -39 93t-127 36q-98 0 -148.5 -42t-60.5 -108z" />
<glyph unicode="&#xe6;" horiz-adv-x="2924" d="M700 -31q-113 0 -207 21.5t-161.5 63.5t-105.5 103.5t-38 143.5q0 115 57.5 188.5t144.5 115.5t192.5 58.5t201.5 16.5q158 0 337 -38t333 -114q25 129 8.5 224.5t-79 157t-176 92t-283.5 30.5q-96 0 -181.5 -8t-153 -19.5t-115.5 -23.5t-71 -20l-14 67q25 8 75 21.5 t121.5 25.5t161 21.5t189.5 9.5q162 0 274.5 -27.5t182 -78t101.5 -119t36 -150.5q37 82 98.5 150.5t149.5 119t202.5 78t257.5 27.5q174 0 312.5 -41t221.5 -122t99.5 -199.5t-53.5 -274.5h-1290q-10 -207 144.5 -316.5t502.5 -109.5q106 0 203.5 9t175.5 21.5t133 26 t82 23.5l6 -68q-29 -10 -86 -24.5t-137 -28.5t-179.5 -23.5t-209.5 -9.5q-348 0 -521.5 106.5t-187.5 307.5q-43 -90 -113.5 -166t-167 -131t-215.5 -86t-258 -31zM270 313q0 -68 34 -120t93.5 -86.5t142.5 -52t181 -17.5q143 0 265 33.5t217 93t157.5 140.5t85.5 177 q-68 35 -157 61.5t-181 44t-180 27t-154 9.5q-80 0 -169 -13.5t-162.5 -48.5t-123 -95.5t-49.5 -152.5zM2755 526q55 135 30.5 231.5t-102.5 158t-198 90t-257 28.5q-164 0 -286.5 -38t-208.5 -105.5t-135.5 -160.5t-63.5 -204h1221z" />
<glyph unicode="&#xe7;" horiz-adv-x="1677" d="M637 -471l33 47q49 -6 121.5 -8t141 8t121 38t60.5 83q6 31 -13.5 54.5t-56 38.5t-87 21.5t-107.5 4.5q-8 2 -14.5 9t-1.5 17l88 127q-197 2 -339.5 41t-233.5 104.5t-134 156.5t-43 200q0 135 54.5 251t168 202t291.5 134t424 48q113 0 206 -9.5t164.5 -23.5t122 -28.5 t74.5 -24.5l-26 -68q-25 8 -73 22.5t-117.5 27t-161 21.5t-199.5 9q-225 0 -386 -42t-263.5 -116.5t-150.5 -175t-48 -217.5q0 -96 40 -176t126 -138t220 -91t323 -33q109 0 201.5 9t166.5 21.5t126 26t79 23.5l8 -68q-57 -20 -206.5 -52t-368.5 -34l-82 -116 q59 6 114.5 -2.5t96.5 -29t62.5 -52t12.5 -72.5q-10 -51 -43.5 -85t-83 -53.5t-107.5 -28.5t-114.5 -10t-105.5 2t-80 7z" />
<glyph unicode="&#xe8;" horiz-adv-x="1689" d="M252 469q-8 -211 155.5 -318.5t510.5 -107.5q109 0 209 9t182 21.5t140 26t85 23.5l8 -68q-29 -10 -89 -24.5t-144 -28.5t-186.5 -23.5t-213.5 -9.5q-373 0 -556 126t-183 360q0 131 51 249.5t152.5 207.5t252 141.5t351.5 52.5q174 0 318.5 -40t231.5 -120t107.5 -199.5 t-51.5 -277.5h-1331zM260 537h1262q53 129 25.5 223t-109.5 154.5t-206 90t-261 29.5q-131 0 -252 -29.5t-217 -90t-160 -154.5t-82 -223zM1368 1247l-22 -43l-652 240l31 61z" />
<glyph unicode="&#xe9;" horiz-adv-x="1689" d="M1382 1505l15 -61l-721 -240l-10 43zM252 469q-8 -211 155.5 -318.5t510.5 -107.5q109 0 209 9t182 21.5t140 26t85 23.5l8 -68q-29 -10 -89 -24.5t-144 -28.5t-186.5 -23.5t-213.5 -9.5q-373 0 -556 126t-183 360q0 131 51 249.5t152.5 207.5t252 141.5t351.5 52.5 q174 0 318.5 -40t231.5 -120t107.5 -199.5t-51.5 -277.5h-1331zM260 537h1262q53 129 25.5 223t-109.5 154.5t-206 90t-261 29.5q-131 0 -252 -29.5t-217 -90t-160 -154.5t-82 -223z" />
<glyph unicode="&#xea;" horiz-adv-x="1689" d="M1044 1434l-454 -254l-15 43l480 276l401 -276l-26 -43zM252 469q-8 -211 155.5 -318.5t510.5 -107.5q109 0 209 9t182 21.5t140 26t85 23.5l8 -68q-29 -10 -89 -24.5t-144 -28.5t-186.5 -23.5t-213.5 -9.5q-373 0 -556 126t-183 360q0 131 51 249.5t152.5 207.5 t252 141.5t351.5 52.5q174 0 318.5 -40t231.5 -120t107.5 -199.5t-51.5 -277.5h-1331zM260 537h1262q53 129 25.5 223t-109.5 154.5t-206 90t-261 29.5q-131 0 -252 -29.5t-217 -90t-160 -154.5t-82 -223z" />
<glyph unicode="&#xeb;" horiz-adv-x="1689" d="M825 1440l-30 -215h-62l31 215h61zM1329 1440l-31 -215h-61l31 215h61zM252 469q-8 -211 155.5 -318.5t510.5 -107.5q109 0 209 9t182 21.5t140 26t85 23.5l8 -68q-29 -10 -89 -24.5t-144 -28.5t-186.5 -23.5t-213.5 -9.5q-373 0 -556 126t-183 360q0 131 51 249.5 t152.5 207.5t252 141.5t351.5 52.5q174 0 318.5 -40t231.5 -120t107.5 -199.5t-51.5 -277.5h-1331zM260 537h1262q53 129 25.5 223t-109.5 154.5t-206 90t-261 29.5q-131 0 -252 -29.5t-217 -90t-160 -154.5t-82 -223z" />
<glyph unicode="&#xec;" horiz-adv-x="446" d="M184 0l152 1079l80 13l-154 -1092h-78zM498 1247l-23 -43l-653 240l31 61z" />
<glyph unicode="&#xed;" horiz-adv-x="446" d="M1026 1505l14 -61l-718 -240l-11 43zM184 0l152 1079l80 13l-154 -1092h-78z" />
<glyph unicode="&#xee;" horiz-adv-x="446" d="M424 1434l-455 -254l-14 43l479 276l402 -276l-27 -43zM184 0l152 1079l80 13l-154 -1092h-78z" />
<glyph unicode="&#xef;" horiz-adv-x="446" d="M207 1440l-31 -215h-61l30 215h62zM711 1440l-31 -215h-62l31 215h62zM184 0l152 1079l80 13l-154 -1092h-78z" />
<glyph unicode="&#xf0;" horiz-adv-x="1773" d="M1378 1075l162 142q-88 90 -220 128.5t-292 40.5q-127 0 -258 -12l-10 72q68 6 133 10t125 4q188 0 335.5 -47t243.5 -145l218 190l22 -24l-215 -189q66 -76 100.5 -190.5t34.5 -255.5q0 -182 -48 -334t-151.5 -262.5t-265.5 -172t-391 -61.5q-166 0 -298 36t-223 101.5 t-139 157.5t-48 205q0 147 66.5 258t175 186.5t247.5 113.5t285 38q127 0 251.5 -32t223 -93t158 -149.5t55.5 -200.5q43 215 16.5 362.5t-108.5 241.5l-164 -143zM272 477q0 -98 43 -178t124 -136.5t197 -88t263 -31.5q197 0 336 50t226 127t127 168t40 175 q0 109 -60.5 190t-154.5 135t-211 80.5t-227 26.5q-133 0 -259 -32.5t-224.5 -98t-159 -163t-60.5 -224.5z" />
<glyph unicode="&#xf1;" d="M1505 0l76 545q14 104 -6.5 193t-81.5 154.5t-166.5 102.5t-259.5 37q-94 0 -193.5 -13t-193.5 -34.5t-180 -48.5t-154 -51l-125 -885h-78l152 1079l76 13l-19 -138l2 -2q70 27 155 54.5t180 49t195.5 36t198.5 14.5q172 0 290 -42t186.5 -118t92 -178t7.5 -223l-76 -545 h-78zM1450 1386q-90 -80 -155.5 -110.5t-118.5 -30.5q-43 0 -79 15.5t-68 34t-62.5 33.5t-63.5 15q-39 0 -95 -24.5t-134 -91.5l-29 37q86 78 150.5 107.5t115.5 29.5q39 0 73 -15.5t64.5 -34t63.5 -33.5t72 -15q41 0 98 24.5t139 95.5z" />
<glyph unicode="&#xf2;" horiz-adv-x="1679" d="M1366 1247l-23 -43l-653 240l31 61zM178 539q18 123 81 227t167 180t247.5 118t321.5 42t310.5 -42t215.5 -118t116.5 -180t15.5 -227t-81 -227.5t-167.5 -180.5t-247.5 -119t-321 -43t-310.5 43t-215.5 119t-116.5 180.5t-15.5 227.5zM254 481q0 -96 35 -176t107.5 -138 t184 -91t265.5 -33q160 0 288 37t220 103.5t147 156.5t72 199q14 106 -13.5 197t-100.5 156.5t-191.5 102.5t-282.5 37q-174 0 -310 -42t-229.5 -115.5t-142.5 -175t-49 -218.5z" />
<glyph unicode="&#xf3;" horiz-adv-x="1679" d="M1380 1505l15 -61l-719 -240l-10 43zM178 539q18 123 81 227t167 180t247.5 118t321.5 42t310.5 -42t215.5 -118t116.5 -180t15.5 -227t-81 -227.5t-167.5 -180.5t-247.5 -119t-321 -43t-310.5 43t-215.5 119t-116.5 180.5t-15.5 227.5zM254 481q0 -96 35 -176 t107.5 -138t184 -91t265.5 -33q160 0 288 37t220 103.5t147 156.5t72 199q14 106 -13.5 197t-100.5 156.5t-191.5 102.5t-282.5 37q-174 0 -310 -42t-229.5 -115.5t-142.5 -175t-49 -218.5z" />
<glyph unicode="&#xf4;" horiz-adv-x="1679" d="M1038 1434l-454 -254l-15 43l480 276l401 -276l-27 -43zM178 539q18 123 81 227t167 180t247.5 118t321.5 42t310.5 -42t215.5 -118t116.5 -180t15.5 -227t-81 -227.5t-167.5 -180.5t-247.5 -119t-321 -43t-310.5 43t-215.5 119t-116.5 180.5t-15.5 227.5zM254 481 q0 -96 35 -176t107.5 -138t184 -91t265.5 -33q160 0 288 37t220 103.5t147 156.5t72 199q14 106 -13.5 197t-100.5 156.5t-191.5 102.5t-282.5 37q-174 0 -310 -42t-229.5 -115.5t-142.5 -175t-49 -218.5z" />
<glyph unicode="&#xf5;" horiz-adv-x="1679" d="M1427 1386q-90 -80 -155.5 -110.5t-118.5 -30.5q-43 0 -79 15.5t-67.5 34t-62.5 33.5t-63 15q-39 0 -95.5 -24.5t-134.5 -91.5l-28 37q86 78 150.5 107.5t115.5 29.5q39 0 72.5 -15.5t64.5 -34t63.5 -33.5t71.5 -15q41 0 98.5 24.5t139.5 95.5zM178 539q18 123 81 227 t167 180t247.5 118t321.5 42t310.5 -42t215.5 -118t116.5 -180t15.5 -227t-81 -227.5t-167.5 -180.5t-247.5 -119t-321 -43t-310.5 43t-215.5 119t-116.5 180.5t-15.5 227.5zM254 481q0 -96 35 -176t107.5 -138t184 -91t265.5 -33q160 0 288 37t220 103.5t147 156.5t72 199 q14 106 -13.5 197t-100.5 156.5t-191.5 102.5t-282.5 37q-174 0 -310 -42t-229.5 -115.5t-142.5 -175t-49 -218.5z" />
<glyph unicode="&#xf6;" horiz-adv-x="1679" d="M821 1440l-30 -215h-62l31 215h61zM1325 1440l-31 -215h-61l31 215h61zM178 539q18 123 81 227t167 180t247.5 118t321.5 42t310.5 -42t215.5 -118t116.5 -180t15.5 -227t-81 -227.5t-167.5 -180.5t-247.5 -119t-321 -43t-310.5 43t-215.5 119t-116.5 180.5t-15.5 227.5z M254 481q0 -96 35 -176t107.5 -138t184 -91t265.5 -33q160 0 288 37t220 103.5t147 156.5t72 199q14 106 -13.5 197t-100.5 156.5t-191.5 102.5t-282.5 37q-174 0 -310 -42t-229.5 -115.5t-142.5 -175t-49 -218.5z" />
<glyph unicode="&#xf7;" horiz-adv-x="1464" d="M879 834h-58l31 210h57zM1319 565l-8 -57h-1014l8 57h1014zM766 31h-57l30 211h58z" />
<glyph unicode="&#xf8;" horiz-adv-x="1679" d="M297 -37l-29 35l101 88q-98 66 -147.5 165t-49.5 220q0 135 55.5 252t162 202t259 133t346.5 48q135 0 243 -24.5t189 -69.5l121 104l29 -35l-111 -96q96 -66 144.5 -165t48.5 -216q0 -135 -55.5 -250.5t-162 -201.5t-259 -134.5t-346.5 -48.5q-133 0 -240 23.5 t-186 68.5zM252 479q0 -106 45 -193t135 -147l928 813q-72 39 -165 59.5t-210 20.5q-174 0 -310 -42t-230.5 -115.5t-143.5 -175t-49 -220.5zM1577 596q0 104 -43 190t-129 144l-928 -811q72 -37 162 -56.5t207 -19.5q174 0 310 42t229.5 116.5t142.5 176t49 218.5z" />
<glyph unicode="&#xf9;" d="M217 530l76 545h78l-76 -545q-14 -104 7.5 -194t82.5 -154.5t163.5 -101.5t252.5 -37q207 0 393 71.5t354 188.5l109 772h78l-152 -1075h-70l29 227l-2 2q-72 -49 -157 -96t-181 -83t-203.5 -58.5t-224.5 -22.5q-164 0 -277.5 42t-181 118t-91 178t-7.5 223zM1391 1247 l-23 -43l-653 240l30 61z" />
<glyph unicode="&#xfa;" d="M1403 1505l14 -61l-719 -240l-10 43zM217 530l76 545h78l-76 -545q-14 -104 7.5 -194t82.5 -154.5t163.5 -101.5t252.5 -37q207 0 393 71.5t354 188.5l109 772h78l-152 -1075h-70l29 227l-2 2q-72 -49 -157 -96t-181 -83t-203.5 -58.5t-224.5 -22.5q-164 0 -277.5 42 t-181 118t-91 178t-7.5 223z" />
<glyph unicode="&#xfb;" d="M1063 1434l-455 -254l-14 43l479 276l402 -276l-27 -43zM217 530l76 545h78l-76 -545q-14 -104 7.5 -194t82.5 -154.5t163.5 -101.5t252.5 -37q207 0 393 71.5t354 188.5l109 772h78l-152 -1075h-70l29 227l-2 2q-72 -49 -157 -96t-181 -83t-203.5 -58.5t-224.5 -22.5 q-164 0 -277.5 42t-181 118t-91 178t-7.5 223z" />
<glyph unicode="&#xfc;" d="M844 1440l-31 -215h-61l30 215h62zM1348 1440l-31 -215h-62l31 215h62zM217 530l76 545h78l-76 -545q-14 -104 7.5 -194t82.5 -154.5t163.5 -101.5t252.5 -37q207 0 393 71.5t354 188.5l109 772h78l-152 -1075h-70l29 227l-2 2q-72 -49 -157 -96t-181 -83t-203.5 -58.5 t-224.5 -22.5q-164 0 -277.5 42t-181 118t-91 178t-7.5 223z" />
<glyph unicode="&#xfd;" horiz-adv-x="1675" d="M213 1075h92l301 -563l246 -459l821 1022h92l-925 -1155q-74 -92 -141.5 -152.5t-133 -95t-129 -49t-129.5 -14.5q-59 0 -118.5 8t-125.5 23l9 65q59 -12 118.5 -22.5t116.5 -10.5q129 0 236.5 62.5t224.5 204.5l37 45zM1378 1505l15 -61l-721 -240l-10 43z" />
<glyph unicode="&#xfe;" horiz-adv-x="1746" d="M254 246l-39 -287l-49 -348h-78l258 1841l80 12l-53 -379l-21 -133l2 -2q74 33 166 61.5t189.5 50t197 33t189.5 11.5q176 0 302 -43t202.5 -118t106.5 -178t13 -226q-18 -125 -77.5 -229.5t-156.5 -180.5t-230.5 -119t-294.5 -43q-236 0 -413 81t-292 198zM1081 1032 q-88 0 -187 -11t-197.5 -31.5t-189.5 -47.5t-163 -57l-78 -561q51 -57 125 -108.5t164 -89.5t193.5 -60.5t218.5 -22.5q160 0 284.5 43t212.5 118t134.5 176t46.5 220q0 94 -35 173t-104.5 136.5t-175.5 90t-249 32.5z" />
<glyph unicode="&#xff;" horiz-adv-x="1675" d="M213 1075h92l301 -563l246 -459l821 1022h92l-925 -1155q-74 -92 -141.5 -152.5t-133 -95t-129 -49t-129.5 -14.5q-59 0 -118.5 8t-125.5 23l9 65q59 -12 118.5 -22.5t116.5 -10.5q129 0 236.5 62.5t224.5 204.5l37 45zM819 1440l-31 -215h-61l31 215h61zM1323 1440 l-31 -215h-61l31 215h61z" />
<glyph unicode="&#x152;" horiz-adv-x="3407" d="M1845 0l33 233q-135 -123 -335 -193.5t-462 -70.5q-217 0 -379.5 50.5t-270 138.5t-162 208.5t-54.5 262.5q0 174 70.5 326.5t207 265t337 178t460.5 65.5q264 0 442.5 -71.5t280.5 -196.5l33 238h1554l-10 -74h-1476l-82 -586h1353l-10 -74h-1354l-88 -626h1518l-10 -74 h-1596zM1092 43q279 0 478 79t322 216l107 756q-86 137 -264.5 217t-454.5 80q-240 0 -424 -58.5t-308 -160t-188.5 -239.5t-64.5 -296q0 -129 49 -237.5t148.5 -187.5t249 -124t350.5 -45z" />
<glyph unicode="&#x153;" horiz-adv-x="3004" d="M172 467q0 135 52 252t153.5 203t251 135t346.5 49q145 0 256.5 -29.5t189.5 -83t121 -128t53 -167.5q35 88 95.5 163t149.5 129t206 85t264 31q174 0 314.5 -40t224.5 -120t101.5 -199.5t-54.5 -277.5h-1290q-10 -209 146.5 -317.5t498.5 -108.5q109 0 206 9t176 21.5 t134 26t80 23.5l8 -68q-29 -10 -86 -24.5t-137 -28.5t-179.5 -23.5t-209.5 -9.5q-340 0 -509 101.5t-190 298.5q-72 -178 -256 -289t-473 -111q-162 0 -282.5 37t-200.5 103.5t-120 157.5t-40 200zM1538 600q0 94 -35 174t-106.5 137.5t-179 89t-252.5 31.5 q-176 0 -309.5 -42t-223.5 -116.5t-135 -176t-45 -220.5q0 -94 35 -174t106.5 -137t179 -90t252.5 -33q176 0 309.5 43t223.5 118t135 176t45 220zM2832 526q55 135 32 231.5t-102 158t-200 90t-258 28.5q-158 0 -280.5 -38t-210 -105.5t-138.5 -160.5t-63 -204h1220z" />
<glyph unicode="&#x178;" horiz-adv-x="2052" d="M2232 1434l-1106 -985l-61 -449h-78l62 449l-828 985h101l301 -359l475 -561l631 561l403 359h100zM1057 1798l-31 -215h-61l30 215h62zM1561 1798l-31 -215h-62l31 215h62z" />
<glyph unicode="&#x2c6;" horiz-adv-x="1744" d="M973 1434l-455 -254l-14 43l479 276l401 -276l-26 -43z" />
<glyph unicode="&#x2dc;" horiz-adv-x="1744" d="M1386 1386q-90 -80 -154.5 -110.5t-117.5 -30.5q-43 0 -79 15.5t-68.5 34t-63.5 33.5t-63 15q-39 0 -95.5 -24.5t-134.5 -91.5l-28 37q86 78 150.5 107.5t115.5 29.5q39 0 72.5 -15.5t65.5 -34t64.5 -33.5t71.5 -15q41 0 97.5 24.5t138.5 95.5z" />
<glyph unicode="&#x2000;" horiz-adv-x="932" />
<glyph unicode="&#x2001;" horiz-adv-x="1864" />
<glyph unicode="&#x2002;" horiz-adv-x="932" />
<glyph unicode="&#x2003;" horiz-adv-x="1864" />
<glyph unicode="&#x2004;" horiz-adv-x="621" />
<glyph unicode="&#x2005;" horiz-adv-x="466" />
<glyph unicode="&#x2006;" horiz-adv-x="310" />
<glyph unicode="&#x2007;" horiz-adv-x="310" />
<glyph unicode="&#x2008;" horiz-adv-x="233" />
<glyph unicode="&#x2009;" horiz-adv-x="372" />
<glyph unicode="&#x200a;" horiz-adv-x="103" />
<glyph unicode="&#x2010;" horiz-adv-x="1464" d="M344 713h973l-8 -66h-973z" />
<glyph unicode="&#x2011;" horiz-adv-x="1464" d="M344 713h973l-8 -66h-973z" />
<glyph unicode="&#x2012;" horiz-adv-x="1464" d="M344 713h973l-8 -66h-973z" />
<glyph unicode="&#x2013;" horiz-adv-x="1628" d="M352 606l8 64h1096l-8 -64h-1096z" />
<glyph unicode="&#x2014;" horiz-adv-x="2365" d="M360 670h1833l-8 -64h-1833z" />
<glyph unicode="&#x2018;" horiz-adv-x="475" d="M365 922q-16 94 5 233t76 279h52q-18 -61 -33.5 -130t-24 -136.5t-9.5 -131t9 -114.5h-75z" />
<glyph unicode="&#x2019;" horiz-adv-x="475" d="M442 1434q16 -94 -4 -233.5t-80 -278.5h-49q18 61 33.5 129.5t24 136t8.5 130t-10 116.5h77z" />
<glyph unicode="&#x201a;" horiz-adv-x="475" d="M283 295q16 -94 -4.5 -233.5t-79.5 -278.5h-49q18 61 33.5 130t23.5 136.5t8 130t-10 115.5h78z" />
<glyph unicode="&#x201c;" horiz-adv-x="878" d="M766 922q-8 47 -6 106t12 127t29.5 138.5t48.5 140.5h49q-18 -61 -33.5 -130t-22.5 -136.5t-8 -131t9 -114.5h-78zM365 922q-16 94 5 233t76 279h52q-18 -61 -33.5 -130t-24 -136.5t-9.5 -131t9 -114.5h-75z" />
<glyph unicode="&#x201d;" horiz-adv-x="878" d="M442 1434q16 -94 -4 -233.5t-80 -278.5h-49q18 61 33.5 129.5t24 136t8.5 130t-10 116.5h77zM844 1434q8 -47 7 -106.5t-11.5 -127t-31 -138.5t-48.5 -140h-49q18 61 33.5 129.5t23.5 136t8 130t-10 116.5h78z" />
<glyph unicode="&#x201e;" horiz-adv-x="878" d="M283 295q16 -94 -4.5 -233.5t-79.5 -278.5h-49q18 61 33.5 130t23.5 136.5t8 130t-10 115.5h78zM684 295q8 -47 7 -106.5t-11 -127t-30.5 -138t-49.5 -140.5h-49q18 61 33.5 130t23.5 136.5t8 130t-10 115.5h78z" />
<glyph unicode="&#x2022;" horiz-adv-x="661" d="M225 731q10 74 66.5 123t167.5 49q109 0 150.5 -49t31.5 -123q-10 -78 -66.5 -129t-164.5 -51q-111 0 -153 51t-32 129z" />
<glyph unicode="&#x2026;" horiz-adv-x="1320" d="M338 297l-41 -297h-72l41 297h72zM737 297l-41 -297h-71l41 297h71zM1137 297l-41 -297h-72l41 297h72z" />
<glyph unicode="&#x202f;" horiz-adv-x="372" />
<glyph unicode="&#x2039;" horiz-adv-x="978" d="M932 1106l31 -45l-629 -471l497 -469l-43 -45l-542 514z" />
<glyph unicode="&#x203a;" horiz-adv-x="978" d="M897 590l-686 -514l-31 45l629 469l-496 471l43 45z" />
<glyph unicode="&#x205f;" horiz-adv-x="466" />
<glyph unicode="&#x20ac;" horiz-adv-x="1826" d="M180 856l8 49h162q49 154 139.5 260.5t208 173t257 96t288.5 29.5q162 0 327 -30.5t322 -83.5l-28 -72q-150 51 -310.5 82t-316.5 31q-135 0 -260 -26t-230.5 -84t-186.5 -150.5t-126 -225.5h1131l-9 -49h-1144q-33 -147 -39 -278h1145l-7 -50h-1130q8 -133 63.5 -226 t144.5 -150.5t206.5 -83t253.5 -25.5q156 0 324.5 30.5t332.5 82.5l10 -72q-174 -53 -347 -84t-335 -31q-150 0 -280.5 30t-230 96.5t-160 173t-66.5 259.5h-162l6 50h152q2 72 12 144.5t27 133.5h-152z" />
<glyph unicode="&#x2122;" horiz-adv-x="2295" d="M1696 780l-398 580l-14 -123l-84 -592h-51l111 789h49l413 -603l584 603h47l-110 -789h-50l101 715l-561 -580h-37zM776 1386l-104 -741h-49l104 741h-410l7 48h868l-6 -48h-410z" />
<glyph unicode="&#x25fc;" horiz-adv-x="1075" d="M0 1075h1075v-1075h-1075v1075z" />
</font>
</defs>
</svg>
