<?xml version="1.0" standalone="no"?>
<!DOCTYPE svg PUBLIC "-//W3C//DTD SVG 1.1//EN" "http://www.w3.org/Graphics/SVG/1.1/DTD/svg11.dtd" >
<svg xmlns="http://www.w3.org/2000/svg">
<metadata></metadata>
<defs>
<font id="halogenthin" horiz-adv-x="1726" >
<font-face units-per-em="2048" ascent="1536" descent="-512" />
<missing-glyph horiz-adv-x="892" />
<glyph unicode="&#xfb01;" horiz-adv-x="1142" d="M881 0v1008h-598v-1008h-78v1008h-144v67h144v10q0 111 18.5 183.5t52 115.5t80.5 61.5t105 18.5q41 0 87 -8t95 -20v-66q-92 27 -162 27q-111 0 -154.5 -78t-43.5 -234v-10h598l77 10v-1085h-77zM881 1204v246h77v-246h-77z" />
<glyph unicode="&#xfb02;" horiz-adv-x="1093" d="M856 1391q-78 12 -153.5 19t-127.5 7q-90 0 -147 -21.5t-90 -64.5t-44 -104.5t-11 -141.5v-10h282v-67h-282v-1008h-78v1008h-144v67h144v10q0 113 19.5 189t61.5 122t107.5 65.5t159.5 19.5q59 0 138 -8.5t165 -20.5l78 12v-1464h-78v1391z" />
<glyph unicode="&#xfb03;" horiz-adv-x="1839" d="M1577 0v1008h-598v-1008h-78v1008h-618v-1008h-78v1008h-144v67h144v10q0 111 18.5 183.5t52 115.5t80.5 61.5t105 18.5q41 0 87 -8t95 -20v-66q-92 27 -162 27q-111 0 -154.5 -78t-43.5 -234v-10h618v10q0 111 18.5 183.5t52.5 115.5t81 61.5t106 18.5q41 0 86 -8 t94 -20v-66q-92 27 -161 27q-109 0 -154 -78t-45 -234v-10h598l78 10v-1085h-78zM1577 1204v246h78v-246h-78z" />
<glyph unicode="&#xfb04;" horiz-adv-x="1789" d="M1552 0v1391q-78 12 -152.5 19t-127.5 7q-90 0 -147.5 -21.5t-90.5 -64.5t-44 -104.5t-11 -141.5v-10h283v-67h-283v-1008h-78v1008h-618v-1008h-78v1008h-144v67h144v10q0 111 18.5 183.5t52 115.5t80.5 61.5t105 18.5q41 0 87 -8t95 -20v-66q-92 27 -162 27 q-111 0 -154.5 -78t-43.5 -234v-10h618v10q0 113 19.5 189t61.5 122t107.5 65.5t159.5 19.5q59 0 138 -8.5t165 -20.5l78 12v-1464h-78z" />
<glyph horiz-adv-x="0" />
<glyph unicode="&#xd;" horiz-adv-x="892" />
<glyph horiz-adv-x="0" />
<glyph horiz-adv-x="0" />
<glyph unicode=" "  horiz-adv-x="892" />
<glyph unicode="&#x09;" horiz-adv-x="892" />
<glyph unicode="&#xa0;" horiz-adv-x="892" />
<glyph unicode="!" horiz-adv-x="530" d="M301 297v-297h-72v297h72zM225 1434h80l-8 -963h-64z" />
<glyph unicode="&#x22;" horiz-adv-x="849" d="M281 1464q0 -61 -1 -131.5t-2.5 -139.5t-3.5 -130.5t-4 -99.5h-53q-2 39 -4 100t-4 130t-2 139.5v131.5h74zM643 1464v-131.5t-2 -139.5t-4 -130.5t-4 -99.5h-53q-2 39 -4.5 100t-4.5 130t-2 139.5v131.5h74z" />
<glyph unicode="#" horiz-adv-x="1724" d="M516 451h-393l8 49h393l88 489h-393l8 49h394l69 396h49l-71 -396h491l70 396h49l-72 -396h396l-9 -49h-395l-86 -489h393l-8 -49h-393l-70 -394h-49l70 394h-490l-69 -394h-50zM573 500h490l88 489h-492z" />
<glyph unicode="$" horiz-adv-x="1701" d="M168 178q137 -57 305 -94t350 -41v635q-131 8 -257 22.5t-224 53.5t-158.5 110.5t-60.5 194.5q0 84 33.5 147.5t89 107.5t128 72.5t150.5 46t156 23.5t143 8v133h49v-135q178 -2 335 -31.5t274 -64.5l-19 -74q-104 33 -258.5 63.5t-331.5 35.5v-641q131 -8 258 -21.5 t226.5 -49.5t161 -102.5t61.5 -183.5q0 -119 -63.5 -199.5t-165 -130t-227.5 -71t-251 -23.5v-133h-49v133q-186 4 -357 41t-323 99zM1499 391q0 92 -53 145.5t-141 81t-201 39t-232 17.5v-631q111 0 222.5 17.5t201.5 58.5t146.5 107.5t56.5 164.5zM203 1063 q0 -98 52 -156.5t139 -91.5t199 -45t230 -18v639q-86 0 -193.5 -12.5t-202.5 -48.5t-159.5 -99.5t-64.5 -167.5z" />
<glyph unicode="%" horiz-adv-x="2078" d="M600 727q98 0 172 26.5t123 72.5t73.5 108.5t24.5 134.5t-24.5 133.5t-73.5 107.5t-123 72.5t-172 26.5q-100 0 -174 -26.5t-123 -72.5t-73.5 -107.5t-24.5 -133.5t24.5 -134.5t73.5 -108.5t123 -72.5t174 -26.5zM143 1069q0 84 29 155.5t85 125t142 84t201 30.5 q113 0 199 -30.5t142 -84t85 -125t29 -155.5t-29 -156.5t-85 -126t-142 -84t-199 -30.5q-115 0 -201 30.5t-142 84t-85 126t-29 156.5zM416 -16q309 373 609 745.5t597 755.5l39 -35q-309 -373 -609 -745.5t-597 -755.5zM1085 367q0 -72 25 -134.5t74 -108.5t122.5 -72.5 t174.5 -26.5q98 0 171.5 26.5t123 72.5t74 108.5t24.5 134.5t-24.5 133t-74 107t-123 73t-171.5 27q-100 0 -174 -27t-123 -73t-74 -107t-25 -133zM1024 367q0 84 28.5 155.5t85 124.5t142.5 84t201 31q113 0 198.5 -31t142 -84t85 -124.5t28.5 -155.5t-28.5 -157t-85 -126 t-142.5 -84t-198 -31q-115 0 -201 31t-142.5 84t-85 126t-28.5 157z" />
<glyph unicode="&#x26;" horiz-adv-x="2054" d="M1614 705v69h338v-74h-260q-4 -186 -67.5 -323t-178.5 -228.5t-280 -135.5t-371 -44q-113 0 -232 17.5t-217 62.5t-160.5 122t-62.5 198q0 90 38 153.5t113.5 106.5t188 67.5t260.5 36.5q-150 10 -256.5 34t-175 64.5t-101 101t-32.5 144.5q0 113 61.5 187.5t162.5 118.5 t231 62.5t268 18.5q100 0 199.5 -8t187.5 -20.5t161.5 -27.5t122.5 -28l-18 -71q-45 12 -116.5 26.5t-159 26.5t-184.5 20.5t-195 8.5q-123 0 -239 -15.5t-205 -52.5t-143 -98.5t-54 -153.5q0 -86 44 -143.5t140 -91t247.5 -48t364.5 -14.5v-74q-207 -2 -362.5 -18t-260 -53 t-156.5 -99.5t-52 -156.5q0 -100 56 -165t142 -101.5t189.5 -50t200.5 -13.5q401 0 612 167t211 495z" />
<glyph unicode="'" horiz-adv-x="485" d="M281 1464q0 -61 -1 -131.5t-2.5 -139.5t-3.5 -130.5t-4 -99.5h-53q-2 39 -4 100t-4 130t-2 139.5v131.5h74z" />
<glyph unicode="(" horiz-adv-x="796" d="M629 -410q-98 94 -180 219t-140.5 264.5t-91.5 290t-33 298.5q0 147 33 297.5t91.5 290t140 263t180.5 220.5l45 -31q-94 -96 -171 -216t-131.5 -255t-84 -280.5t-29.5 -288.5q0 -145 29.5 -290t84 -280t131.5 -256t171 -215z" />
<glyph unicode=")" horiz-adv-x="796" d="M123 -379q94 94 171 215t131 256t84 279.5t30 290.5q0 143 -30 288.5t-84 280.5t-131 255t-171 216l45 31q98 -96 180 -220t140.5 -263.5t91 -290t32.5 -297.5t-32.5 -298t-91 -290.5t-140.5 -264t-180 -219.5z" />
<glyph unicode="*" horiz-adv-x="1447" d="M762 1464q0 -158 -6 -306t-15 -314q139 90 265.5 170t263.5 157l35 -65q-135 -78 -267.5 -147.5t-277.5 -145.5q145 -76 277 -144.5t268 -146.5l-35 -65q-137 78 -263 157.5t-266 167.5q8 -166 14.5 -314.5t6.5 -303.5h-74q-2 156 4 304t15 314q-141 -88 -266.5 -167.5 t-262.5 -157.5l-35 65q135 78 267.5 146.5t279.5 144.5q-147 76 -279 145.5t-268 147.5l35 65q137 -78 262 -157.5t267 -169.5q-8 166 -14.5 314.5t-4.5 305.5h74z" />
<glyph unicode="+" horiz-adv-x="1464" d="M705 565v479h57v-479h477v-57h-477v-477h-57v477h-480v57h480z" />
<glyph unicode="," horiz-adv-x="522" d="M293 297q29 -94 22.5 -233.5t-45.5 -278.5h-49q10 61 17.5 130t7.5 136.5t-7.5 130t-23.5 115.5h78z" />
<glyph unicode="-" horiz-adv-x="1464" d="M246 713h973v-66h-973v66z" />
<glyph unicode="." horiz-adv-x="522" d="M297 297v-297h-72v297h72z" />
<glyph unicode="/" horiz-adv-x="780" d="M698 1464l-544 -1495h-72l545 1495h71z" />
<glyph unicode="0" horiz-adv-x="1966" d="M123 717q0 158 54 294t161.5 237.5t268.5 158.5t376 57t376 -57t268.5 -158.5t161.5 -238t54 -293.5q0 -158 -54 -294t-161.5 -237.5t-268.5 -159t-376 -57.5t-376 57.5t-268.5 159t-161.5 237.5t-54 294zM203 717q0 -141 48 -265t145.5 -214.5t243.5 -142.5t343 -52 t343.5 52t243.5 142.5t145 214t48 265.5q0 141 -48 265t-145 214t-243.5 142.5t-343.5 52.5t-343 -52.5t-243.5 -142.5t-145.5 -214t-48 -265z" />
<glyph unicode="1" horiz-adv-x="1454" d="M102 74h586v1282l-561 -162l-23 66l586 174h76v-1360h586v-74h-1250v74z" />
<glyph unicode="2" horiz-adv-x="1720" d="M154 0v74q162 55 320.5 122.5t304 142.5t269 158t215 172t143.5 182t52 187q0 78 -34.5 135.5t-91 96.5t-130.5 62.5t-149.5 36.5t-148.5 17.5t-130 4.5q-160 0 -306 -20.5t-306 -61.5l-19 71q166 43 317.5 63.5t305.5 20.5q66 0 149.5 -5t168.5 -20.5t167 -43 t145.5 -73.5t102.5 -113.5t39 -159.5q0 -102 -51 -200.5t-140.5 -191t-209 -176.5t-259 -157.5t-291 -137t-300.5 -112.5h1290v-74h-1423z" />
<glyph unicode="3" horiz-adv-x="1695" d="M162 1309l-19 71q166 43 316.5 63.5t314.5 20.5q63 0 144 -3t166 -15t167 -36t145.5 -64.5t102.5 -102t39 -147.5q0 -166 -155.5 -256t-499.5 -119q172 -8 301 -27.5t215 -59.5t130 -103.5t44 -159.5q0 -115 -57.5 -192t-152.5 -124t-219 -66.5t-255 -19.5 q-113 0 -226.5 12.5t-215 31t-185.5 43t-139 48.5l22 70q53 -25 136.5 -48.5t182.5 -41.5t208.5 -29.5t218.5 -11.5q117 0 226.5 16.5t192.5 56.5t133 105.5t50 161.5q0 104 -65.5 164.5t-195.5 92.5t-325.5 40t-455.5 8h-60v57h60q270 0 461.5 19.5t313.5 59.5t177 103.5 t55 155.5q0 111 -73.5 172.5t-180 92t-223.5 37t-203 6.5q-164 0 -310 -20.5t-306 -61.5z" />
<glyph unicode="4" horiz-adv-x="1722" d="M1395 324v-324h-78v324h-1194v71l1196 1039h76v-1037h184l-2 -73h-182zM1317 1024l2 324l-793 -689l-307 -262h1098v627z" />
<glyph unicode="5" d="M123 100l22 70q53 -23 134 -45.5t179.5 -40.5t207 -29.5t217.5 -11.5q125 0 240.5 19.5t204.5 65.5t142.5 121t53.5 187q0 102 -54.5 177t-147.5 123t-217 71.5t-265 23.5t-297 -25.5t-310 -78.5l33 707h1282v-74h-1208l-25 -563q135 47 277.5 70.5t279.5 23.5 q152 0 285 -26.5t232.5 -83t157 -142.5t57.5 -205q0 -133 -61.5 -222t-163 -143.5t-232.5 -77t-270 -22.5q-113 0 -224.5 11.5t-211 30t-182.5 41.5t-136 48z" />
<glyph unicode="6" horiz-adv-x="1773" d="M205 598q16 111 88 195t176 139t231 82.5t254 27.5q133 0 259 -31.5t223.5 -96t156 -163t58.5 -229.5q0 -125 -54.5 -227t-156 -174t-245.5 -112t-323 -40q-201 0 -343 50.5t-232 140.5t-132 218t-42 286q0 211 61.5 362.5t173 247.5t265 141t338.5 45q143 0 296.5 -19.5 t296.5 -60.5l-18 -71q-131 37 -284.5 57t-297.5 20q-162 0 -304 -38.5t-245.5 -131t-158.5 -244t-41 -374.5zM877 43q160 0 288.5 34t219 96.5t138.5 151.5t48 197q0 113 -52.5 198t-140.5 142.5t-202.5 85t-239.5 27.5q-115 0 -241 -25.5t-230.5 -81t-173 -141.5 t-68.5 -205q0 -82 35 -167t113 -154.5t203 -113.5t303 -44z" />
<glyph unicode="7" horiz-adv-x="1628" d="M543 0h-97l988 1362l-1364 -2v74h1456v-68z" />
<glyph unicode="8" horiz-adv-x="1773" d="M887 43q131 0 255 16.5t219 56.5t152.5 103.5t57.5 159.5q0 80 -47 139.5t-135.5 97t-215 56t-286.5 18.5t-287 -18.5t-215 -56t-135 -97t-47 -139.5q0 -96 57 -159.5t152.5 -103.5t219.5 -56.5t255 -16.5zM887 750q152 0 271.5 19t203.5 56t129 92.5t45 129.5 q0 102 -60.5 168.5t-154.5 105.5t-209 54.5t-225 15.5q-111 0 -225.5 -15.5t-209 -54.5t-154.5 -105.5t-60 -168.5q0 -74 45 -129.5t129 -92.5t203.5 -56t271.5 -19zM887 1464q123 0 252 -18.5t235.5 -64.5t174 -123.5t67.5 -196.5q0 -74 -38 -132.5t-107.5 -100.5 t-165 -68.5t-207.5 -38.5q125 -10 227 -37t174 -70t112 -105.5t40 -146.5q0 -113 -65.5 -187.5t-173 -120.5t-245 -65.5t-280.5 -19.5t-280.5 19.5t-245 65.5t-173 121t-65.5 187q0 84 39 146.5t111.5 105.5t174 70t226.5 37q-113 12 -208 38.5t-164 68.5t-106.5 100.5 t-37.5 132.5q0 119 67.5 196.5t174 123.5t235.5 64.5t252 18.5z" />
<glyph unicode="9" horiz-adv-x="1773" d="M1569 836q-16 -111 -88 -195t-176.5 -139.5t-231.5 -83t-254 -27.5q-133 0 -259 32t-223 96.5t-155.5 161.5t-58.5 230q0 125 54 227.5t155.5 174t246 111.5t322.5 40q201 0 343 -50t232.5 -140t132.5 -219t42 -285q0 -213 -61.5 -363.5t-173 -247t-265.5 -141.5 t-338 -45q-143 0 -297 19.5t-297 60.5l19 72q131 -37 284.5 -57.5t296.5 -20.5q162 0 304.5 39t246 131t158.5 244t41 375zM897 1391q-160 0 -289 -34t-219 -96.5t-138 -151.5t-48 -198q0 -115 52 -198.5t140 -141t203 -85t240 -27.5q115 0 240.5 25.5t230 81t173 141.5 t68.5 204q0 82 -34.5 167t-112.5 155t-203 114t-303 44z" />
<glyph unicode=":" horiz-adv-x="522" d="M297 379v-297h-72v297h72zM297 963v-297h-72v297h72z" />
<glyph unicode=";" horiz-adv-x="522" d="M297 963v-297h-72v297h72zM293 297q29 -94 22.5 -233.5t-45.5 -278.5h-49q10 61 17.5 130t7.5 136.5t-7.5 130t-23.5 115.5h78z" />
<glyph unicode="&#x3c;" horiz-adv-x="1249" d="M1065 1047l-821 -373l821 -373v-63l-881 405v62l881 405v-63z" />
<glyph unicode="=" horiz-adv-x="1464" d="M1239 319v-57h-1014v57h1014zM1239 811v-57h-1014v57h1014z" />
<glyph unicode="&#x3e;" horiz-adv-x="1249" d="M184 1110l881 -405v-62l-881 -405v63l822 373l-822 373v63z" />
<glyph unicode="?" horiz-adv-x="1660" d="M745 471q12 90 68.5 145.5t133.5 93.5t163 66.5t158.5 65.5t121 89t48.5 136q0 72 -35 124t-91.5 88t-128 57.5t-148.5 33.5t-150.5 16.5t-132.5 4.5q-156 0 -303.5 -20.5t-307.5 -61.5l-18 71q166 43 316.5 63.5t308.5 20.5q68 0 151.5 -5t169.5 -19.5t167 -41 t143.5 -70.5t100.5 -107.5t38 -149.5q0 -98 -47.5 -157.5t-119 -99.5t-157.5 -67.5t-165 -61.5t-139.5 -83t-78.5 -131h-66zM815 297v-297h-72v297h72z" />
<glyph unicode="@" horiz-adv-x="2107" d="M1409 -221q-160 -49 -358 -49q-213 0 -382 54t-286 152.5t-178.5 235.5t-61.5 305t61.5 305.5t178.5 235.5t286 152.5t382 54.5q199 0 366.5 -45t289.5 -130t189.5 -207t67.5 -276q0 -123 -36 -215t-92 -154.5t-125 -94t-134 -31.5q-74 0 -123 44t-53 130h-2 q-18 -16 -58.5 -47t-98.5 -60.5t-134 -51t-164 -21.5q-209 0 -316.5 101t-107.5 265q0 109 42 193t114 141t170 87t213 30q63 0 117.5 -10.5t101.5 -26t88 -34.5t78 -36l2 2l12 72h53l-49 -567q-6 -76 24 -119t95 -43q55 0 114.5 28.5t107.5 84t80 138.5t32 191 q0 143 -64.5 257t-179.5 193t-273.5 121t-346.5 42q-203 0 -362 -50.5t-269.5 -142.5t-168.5 -221t-58 -285q0 -158 58 -286t168.5 -220t269.5 -142t362 -50q180 0 338 47zM954 123q82 0 153 19.5t128 47t99 60.5t67 59l37 414q-104 47 -189.5 74.5t-189.5 27.5 q-98 0 -185.5 -24.5t-152 -73.5t-102 -122t-37.5 -169q0 -141 93 -227t279 -86z" />
<glyph unicode="A" horiz-adv-x="2035" d="M2015 0h-90l-266 393h-1284l-264 -393h-91l955 1434h86zM520 614l-100 -147h1196l-100 147l-498 750z" />
<glyph unicode="B" horiz-adv-x="2045" d="M164 0v1434h1134q119 0 215.5 -19.5t165 -62.5t105.5 -113t37 -170q0 -84 -26 -141.5t-73 -94t-111.5 -57t-140.5 -33.5q96 -8 179.5 -26.5t143.5 -57t95 -103t35 -163.5q0 -86 -28.5 -158.5t-91 -125t-161 -81t-235.5 -28.5h-1243zM242 700v-626h1165q119 0 203 24.5 t137 67.5t77.5 103.5t24.5 133.5q0 102 -45 162t-122.5 89.5t-182 37.5t-223.5 8h-1034zM1298 1360h-1056v-586h940q119 0 222 7t179 36t120 85t44 157q0 82 -30.5 140t-89 93t-142 51.5t-187.5 16.5z" />
<glyph unicode="C" horiz-adv-x="2011" d="M1909 84q-35 -12 -99.5 -31.5t-156.5 -38t-211 -32t-262 -13.5q-281 0 -480.5 57.5t-327.5 157t-188.5 236.5t-60.5 297t60.5 297t188.5 236.5t327.5 156.5t480.5 57q143 0 262 -13t211 -31.5t156.5 -38t99.5 -31.5l-19 -70q-43 14 -109.5 32.5t-156.5 36t-201.5 30 t-242.5 12.5q-260 0 -445.5 -51.5t-303.5 -141.5t-173 -214t-55 -267q0 -145 55 -268t173 -213.5t303.5 -141.5t445.5 -51q131 0 242.5 12.5t201.5 29.5t156.5 35.5t109.5 33.5z" />
<glyph unicode="D" horiz-adv-x="2045" d="M164 0v1434h702q279 0 479.5 -52.5t328.5 -146.5t188.5 -226t60.5 -292t-60.5 -292t-188.5 -226.5t-328.5 -146.5t-479.5 -52h-702zM242 1360v-1286h624q260 0 444.5 46t303.5 131t174 202.5t55 263.5q0 143 -55 262t-174 204t-303.5 131t-444.5 46h-624z" />
<glyph unicode="E" horiz-adv-x="1882" d="M164 0v1434h1554v-74h-1476v-586h1353v-74h-1353v-626h1517v-74h-1595z" />
<glyph unicode="F" horiz-adv-x="1800" d="M242 700v-700h-78v1434h1554v-74h-1476v-586h1353v-74h-1353z" />
<glyph unicode="G" horiz-adv-x="2215" d="M1096 684v74h977v-84q0 -199 -78 -333t-211 -217t-310.5 -119t-377.5 -36q-242 0 -424.5 57.5t-304 157t-183 236.5t-61.5 297t60.5 297t188.5 236.5t327.5 156.5t480.5 57q143 0 262 -13t211 -31.5t156.5 -38t99.5 -31.5l-19 -70q-43 14 -109.5 32.5t-156.5 36 t-201.5 30t-242.5 12.5q-260 0 -445.5 -51.5t-303.5 -141.5t-173 -214t-55 -267q0 -145 56 -268t168 -213.5t279.5 -141.5t389.5 -51q190 0 354 33t284.5 105.5t190.5 189t70 282.5v31h-899z" />
<glyph unicode="H" horiz-adv-x="2007" d="M1765 0v700h-1523v-700h-78v1434h78v-660h1523v660h78v-1434h-78z" />
<glyph unicode="I" horiz-adv-x="405" d="M164 1434h78v-1434h-78v1434z" />
<glyph unicode="J" horiz-adv-x="1812" d="M80 156q66 -20 139.5 -40t158.5 -36.5t186.5 -26.5t221.5 -10q193 0 339.5 29.5t245.5 93t149.5 164t50.5 243.5v861h78v-861q0 -317 -217.5 -460.5t-647.5 -143.5q-147 0 -265 14.5t-207 33t-150.5 38t-100.5 29.5z" />
<glyph unicode="K" horiz-adv-x="2004" d="M1944 0h-129l-1192 700h-381v-700h-78v1434h78v-660h381l1149 660h124l-620 -359l-590 -338l649 -379z" />
<glyph unicode="L" horiz-adv-x="1779" d="M164 0v1434h78v-1360h1415v-74h-1493z" />
<glyph unicode="M" horiz-adv-x="2392" d="M1169 244l-929 1081l2 -215v-1110h-78v1434h76l956 -1115l956 1115h76v-1434h-78v1110l2 215l-929 -1081h-54z" />
<glyph unicode="N" horiz-adv-x="2037" d="M1796 1434h78v-1434h-76l-1558 1333l2 -164v-1169h-78v1434h76l1558 -1334l-2 183v1151z" />
<glyph unicode="O" horiz-adv-x="2170" d="M123 717q0 160 61.5 297t182 236.5t301 156.5t417.5 57q238 0 418 -57t301 -156.5t182.5 -236.5t61.5 -297t-61.5 -297t-182.5 -236.5t-301 -157t-418 -57.5t-418 57.5t-300.5 157t-182 236.5t-61.5 297zM203 717q0 -145 56 -268t167 -213.5t275.5 -141.5t383.5 -51 t384 51t275.5 141.5t167 213t56.5 268.5q0 143 -56.5 267t-167 214t-275 141.5t-384.5 51.5q-219 0 -383.5 -51.5t-275.5 -141.5t-167 -214t-56 -267z" />
<glyph unicode="P" horiz-adv-x="1955" d="M164 0v1434h1073q123 0 235.5 -26t196.5 -85t134 -156.5t50 -238.5t-50 -238.5t-134 -158t-196.5 -86t-235.5 -25.5h-995v-420h-78zM242 1360v-866h999q109 0 205 22.5t169 72.5t116 133t43 206q0 121 -43 203.5t-116 133t-169 73t-205 22.5h-999z" />
<glyph unicode="Q" horiz-adv-x="2170" d="M1882 -311q-190 0 -343 9t-259 37.5t-164.5 85t-62.5 148.5q-229 4 -403.5 62.5t-291 159t-176 234.5t-59.5 292q0 160 61.5 297t182 236.5t301 156.5t417.5 57q238 0 418 -57t301 -156.5t182.5 -236.5t61.5 -297q0 -158 -59.5 -292t-176 -234.5t-290.5 -159t-404 -62.5 q6 -68 62.5 -108.5t155 -64t236.5 -31t310 -7.5v-69zM203 717q0 -145 56 -268t167 -213.5t275.5 -141.5t383.5 -51t384 51t275.5 141.5t167 213t56.5 268.5q0 143 -56.5 267t-167 214t-275 141.5t-384.5 51.5q-219 0 -383.5 -51.5t-275.5 -141.5t-167 -214t-56 -267z" />
<glyph unicode="R" horiz-adv-x="1972" d="M164 1434h1136q115 0 216.5 -24t176 -78t117.5 -142t43 -217t-45 -217t-121.5 -141.5t-178 -77t-216.5 -23.5l-200 2l819 -516h-127l-809 512h-733v-512h-78v1434zM1292 586q98 0 186.5 19.5t154 65.5t103.5 119.5t38 182.5t-37 182.5t-100.5 119.5t-149.5 65.5 t-184 19.5h-1061v-774h1050z" />
<glyph unicode="S" horiz-adv-x="1935" d="M979 -31q-227 0 -441 42t-415 114l22 70q197 -70 406 -111t438 -41q78 0 164 7t169 22.5t157.5 41t131 64.5t89.5 92.5t33 120.5q0 94 -60.5 147.5t-163 81t-236.5 38t-282 18.5q-154 8 -302 21.5t-265 51t-188.5 110.5t-71.5 200q0 88 34.5 152.5t93 109.5t135.5 72.5 t160 44t167 21.5t157 5q100 0 210 -8t214.5 -21.5t200.5 -32t170 -36.5l-16 -74q-72 18 -165 37t-196.5 32t-213 21.5t-214.5 8.5q-86 0 -199.5 -10.5t-216 -45.5t-173 -99.5t-70.5 -172.5q0 -102 64.5 -161.5t171 -90.5t242.5 -43t277 -18q154 -6 300.5 -18.5t261 -47.5 t184 -103.5t69.5 -187.5q0 -125 -77.5 -207t-198.5 -130t-268.5 -67.5t-288.5 -19.5z" />
<glyph unicode="T" horiz-adv-x="1822" d="M950 1360v-1360h-78v1360h-790v74h1659v-74h-791z" />
<glyph unicode="U" horiz-adv-x="2048" d="M1806 1434h78v-861q0 -317 -215 -460.5t-645 -143.5t-645 143.5t-215 460.5v861h78v-861q0 -143 50 -243.5t149.5 -164t246 -93t336.5 -29.5t336.5 29.5t246 93t149.5 164t50 243.5v861z" />
<glyph unicode="V" horiz-adv-x="2031" d="M2011 1434l-952 -1434h-86l-953 1434h91l407 -615l498 -749l497 749l408 615h90z" />
<glyph unicode="W" horiz-adv-x="2572" d="M1784 0l-232 612l-266 705l-264 -703l-234 -614h-77l-691 1434h86l295 -615l347 -717l270 721l231 611h74l233 -617l269 -715l346 719l295 613h86l-690 -1434h-78z" />
<glyph unicode="X" horiz-adv-x="1937" d="M1759 1434h111l-850 -697l897 -737h-109l-839 686l-838 -686h-111l898 737l-848 697h110l789 -648z" />
<glyph unicode="Y" horiz-adv-x="2052" d="M2032 1434l-967 -985v-449h-78v449l-967 985h101l352 -359l553 -561l553 561l352 359h101z" />
<glyph unicode="Z" horiz-adv-x="1859" d="M123 0v72l979 870l473 418h-1428v74h1539v-72l-979 -868l-474 -420h1504v-74h-1614z" />
<glyph unicode="[" horiz-adv-x="770" d="M225 1700h402v-58h-328v-1947h328v-57h-402v2062z" />
<glyph unicode="\" horiz-adv-x="780" d="M154 1464l544 -1495h-71l-545 1495h72z" />
<glyph unicode="]" horiz-adv-x="770" d="M545 -362h-402v57h328v1947h-328v58h402v-2062z" />
<glyph unicode="^" horiz-adv-x="1249" d="M1083 614l-460 791l-457 -791h-64l492 850h59l494 -850h-64z" />
<glyph unicode="_" horiz-adv-x="1300" d="M164 -205h973v-63h-973v63z" />
<glyph unicode="`" horiz-adv-x="1744" d="M1180 1247l-17 -43l-686 240l23 61z" />
<glyph unicode="a" horiz-adv-x="1763" d="M1718 0q-74 -31 -135 -31q-104 0 -138 63.5t-32 213.5q-41 -57 -109.5 -107.5t-156.5 -88.5t-192.5 -59.5t-219.5 -21.5q-129 0 -237.5 23.5t-187.5 70t-123 116t-44 159.5q0 102 53.5 168.5t136.5 104.5t185.5 53.5t202.5 15.5q68 0 160 -4t188 -11.5t186.5 -15.5 t155.5 -14q-6 86 -38 158.5t-102.5 126t-186 83t-289.5 29.5q-96 0 -182.5 -8t-156 -19.5t-118.5 -23.5t-70 -20l-24 67q23 8 75 21.5t124.5 25.5t162.5 21.5t189 9.5q193 0 325.5 -37t214.5 -102.5t118 -155.5t36 -197v-366q0 -111 24.5 -158t96.5 -47q23 0 51.5 6t56.5 21 v-70zM223 342q0 -76 39 -133t108.5 -95t166 -57.5t208.5 -19.5q113 0 217.5 22.5t191.5 61.5t153.5 92t103.5 113v266q-174 10 -346 19.5t-346 11.5q-86 0 -174 -12.5t-160 -44t-117 -86t-45 -138.5z" />
<glyph unicode="b" horiz-adv-x="1746" d="M143 1452l78 12v-338l-2 -174l2 -2q70 33 157 61.5t182 50t192.5 33t187.5 11.5q176 0 308 -43t220 -118t132.5 -178t44.5 -226q0 -125 -45.5 -229.5t-132.5 -180.5t-214 -119t-288 -43q-117 0 -223.5 21.5t-202 59.5t-176 88t-144.5 110l-2 -2l-4 -246h-70v1452z M936 1032q-88 0 -186.5 -11t-193.5 -31.5t-181 -47.5t-154 -57v-561q59 -57 140 -108.5t176.5 -89.5t202 -60.5t221.5 -22.5q145 0 257.5 37t189.5 103.5t117 156.5t40 199q0 106 -39 196t-118 156.5t-196.5 103.5t-275.5 37z" />
<glyph unicode="c" horiz-adv-x="1677" d="M1534 55q-27 -10 -79 -24.5t-126 -28.5t-168 -23.5t-207 -9.5q-225 0 -385.5 43t-264 119t-153 180.5t-49.5 227.5t49.5 227t153 180t264 118t385.5 42q113 0 207 -9.5t168 -23.5t126 -28.5t79 -24.5l-16 -68q-25 8 -75 22.5t-123 27t-165 21.5t-201 9q-207 0 -352 -37 t-239.5 -102.5t-137.5 -156.5t-43 -197q0 -109 43 -199t137.5 -156.5t240 -103.5t351.5 -37q109 0 201 9t165 21.5t123 26t75 23.5z" />
<glyph unicode="d" horiz-adv-x="1746" d="M1526 1126v326l78 12v-1464h-70l-4 246l-2 2q-66 -59 -145.5 -109.5t-175 -88.5t-202 -59.5t-223.5 -21.5q-164 0 -289.5 43t-212.5 119t-132.5 180.5t-45.5 229.5q0 123 44 226t132.5 178t220.5 118t308 43q90 0 187.5 -11.5t192.5 -33t182 -50t157 -61.5l2 2zM811 1032 q-158 0 -275.5 -37t-196.5 -103.5t-118 -156.5t-39 -196q0 -109 40 -199t117 -156.5t189.5 -103.5t257.5 -37q113 0 220.5 22.5t203 60.5t176 89t140.5 109v561q-68 31 -155 57.5t-182 47t-192.5 31.5t-185.5 11z" />
<glyph unicode="e" horiz-adv-x="1689" d="M186 469q23 -211 201 -318.5t524 -107.5q109 0 208.5 9t179 21.5t137 26t82.5 23.5l16 -68q-27 -10 -85 -24.5t-140 -28.5t-183.5 -23.5t-212.5 -9.5q-410 0 -610.5 143.5t-200.5 417.5q0 119 44 223.5t133.5 182.5t224.5 124t317 46q174 0 323.5 -40t249 -120 t136.5 -199.5t-12 -277.5h-1332zM184 537h1262q37 129 -4 223t-132 154.5t-219 90t-266 29.5q-131 0 -247.5 -29.5t-203.5 -90t-138.5 -154.5t-51.5 -223z" />
<glyph unicode="f" horiz-adv-x="696" d="M283 1085v-10h327v-67h-327v-1008h-78v1008h-144v67h144v10q0 111 18.5 183.5t52 115.5t80.5 61.5t105 18.5q41 0 87 -8t95 -20v-66q-92 27 -162 27q-111 0 -154.5 -78t-43.5 -234z" />
<glyph unicode="g" horiz-adv-x="1622" d="M145 696q0 100 51.5 177t141.5 129.5t211 78t260 25.5q61 0 118.5 -5t110.5 -16q39 12 96.5 24.5t125 23t143.5 16.5t151 6l5 -55q-55 0 -117 -3t-121 -8.5t-110.5 -13.5t-86.5 -16q156 -43 252.5 -133t96.5 -230q0 -102 -50.5 -173.5t-138.5 -117t-210 -67t-265 -21.5 q-109 0 -201 10.5t-170 34.5q-35 -29 -64.5 -69.5t-50 -84.5t-31.5 -85t-9 -70q53 25 139 48.5t189.5 44t217 32.5t224.5 12q102 0 194 -13t161 -44t110 -80t41 -121q0 -74 -41 -127t-106.5 -91t-148.5 -60.5t-167 -35.5t-160 -17t-129 -4q-154 0 -276.5 10t-215 23.5 t-153 27.5t-88.5 25l16 69q27 -8 86.5 -21.5t151.5 -26.5t216 -23.5t275 -10.5q49 0 118 4t142.5 14.5t145 29t128 47t91.5 69.5t35 96t-37 91t-101.5 57.5t-149.5 31t-179 9.5q-100 0 -206 -9.5t-206 -25.5t-186 -36.5t-146 -45.5q-20 2 -35.5 14.5t-19.5 36.5 q2 39 15.5 84t36 89t54 84t68.5 71q-113 43 -177.5 120.5t-64.5 194.5zM225 696q0 -84 44 -142t122 -96t184.5 -55.5t233.5 -17.5q125 0 232.5 17.5t185.5 55.5t122 96t44 142q0 82 -45 145.5t-124 105.5t-185.5 63.5t-229.5 21.5t-229.5 -21.5t-185.5 -63.5t-124 -105.5 t-45 -145.5z" />
<glyph unicode="h" d="M1505 0v545q0 104 -33.5 193t-104.5 154.5t-181.5 102.5t-263.5 37q-94 0 -191.5 -13t-188.5 -34.5t-173 -48.5t-148 -51v-885h-78v1452l78 12v-338l-2 -172l2 -2q66 27 148 54.5t173 49t189 36t197 14.5q172 0 296 -42t203.5 -118t117.5 -178t38 -223v-545h-78z" />
<glyph unicode="i" horiz-adv-x="446" d="M184 0v1079l78 13v-1092h-78zM184 1204v246h78v-246h-78z" />
<glyph unicode="j" horiz-adv-x="462" d="M201 0v1079l78 13v-1092q0 -117 -21.5 -191.5t-59.5 -118.5t-90.5 -61.5t-113.5 -17.5v63q115 0 161 83t46 243zM201 1204v246h78v-246h-78z" />
<glyph unicode="k" d="M1649 0h-129l-910 506h-389v-506h-78v1452l78 12v-893h391l928 504h125l-979 -536z" />
<glyph unicode="l" horiz-adv-x="397" d="M160 1452l78 12v-1464h-78v1452z" />
<glyph unicode="m" horiz-adv-x="2560" d="M143 0v1079l74 13l2 -138l2 -2q51 29 105.5 56.5t116 49t132 35t154.5 13.5q174 0 290 -50t187 -138q61 37 133 70.5t152 59t166 42t174 16.5q156 0 266.5 -42t181 -118t104.5 -178t34 -223v-545h-78v545q0 104 -29 193t-91 154.5t-160.5 102.5t-235.5 37 q-174 0 -323.5 -53t-262.5 -117q82 -131 82 -317v-545h-78v545q0 104 -27.5 193t-89 154.5t-159 102.5t-234.5 37q-86 0 -160.5 -14t-138 -35.5t-116 -48.5t-95.5 -49v-885h-78z" />
<glyph unicode="n" d="M1505 0v545q0 104 -33.5 193t-104.5 154.5t-181.5 102.5t-263.5 37q-94 0 -191.5 -13t-188.5 -34.5t-173 -48.5t-148 -51v-885h-78v1079l74 13l2 -138l2 -2q66 27 148 54.5t173 49t189 36t197 14.5q172 0 296 -42t203.5 -118t117.5 -178t38 -223v-545h-78z" />
<glyph unicode="o" horiz-adv-x="1679" d="M102 539q0 123 48.5 227t142.5 180t231.5 118t315.5 42t315 -42t231.5 -118t142.5 -180t48 -227t-48 -227.5t-142.5 -180.5t-231.5 -119t-315 -43t-315.5 43t-231.5 119t-142.5 180.5t-48.5 227.5zM182 539q0 -109 43 -199t126 -156.5t206 -103.5t283 -37t282.5 37 t205.5 103.5t126 156.5t43 199q0 106 -43 197t-126 156.5t-206 102.5t-282 37q-160 0 -283 -37t-206 -102.5t-126 -156.5t-43 -197z" />
<glyph unicode="p" horiz-adv-x="1746" d="M219 246l2 -287v-348h-78v1462l72 12l4 -133l2 -2q70 33 157 61.5t182 50t192.5 33t187.5 11.5q176 0 308 -43t220 -118t132.5 -178t44.5 -226q0 -125 -45.5 -229.5t-132.5 -180.5t-214 -119t-288 -43q-117 0 -223.5 21.5t-199.5 59.5t-174 88t-147 110zM936 1032 q-88 0 -186.5 -11t-193.5 -31.5t-181 -47.5t-154 -57v-561q59 -57 140 -108.5t176.5 -89.5t202 -60.5t221.5 -22.5q145 0 257.5 37t189.5 103.5t117 156.5t40 199q0 106 -39 196t-118 156.5t-196.5 103.5t-275.5 37z" />
<glyph unicode="q" horiz-adv-x="1746" d="M1528 246l-2 2q-66 -59 -147 -109.5t-174 -88.5t-199.5 -59.5t-223.5 -21.5q-164 0 -289.5 43t-212.5 119t-132.5 180.5t-45.5 229.5q0 123 44 226t132.5 178t220.5 118t308 43q90 0 187.5 -11.5t192.5 -33t182 -50t157 -61.5l2 2l4 121l72 12v-1474h-78v348zM811 1032 q-158 0 -275.5 -37t-196.5 -103.5t-118 -156.5t-39 -196q0 -109 40 -199t117 -156.5t189.5 -103.5t257.5 -37q113 0 220.5 22.5t203 60.5t176 89t140.5 109v561q-68 31 -155 57.5t-182 47t-192.5 31.5t-185.5 11z" />
<glyph unicode="r" horiz-adv-x="1026" d="M143 1079l74 13l2 -252l2 -2q68 66 141.5 120t160.5 89.5t192.5 51t236.5 3.5l-6 -76q-201 20 -383 -36t-342 -220v-770h-78v1079z" />
<glyph unicode="s" horiz-adv-x="1662" d="M119 131q102 -25 188 -41t165 -27.5t157 -15.5t162 -4q47 0 117.5 3t147.5 12.5t152.5 25.5t136 46t98.5 72t38 101q0 82 -55.5 128t-147.5 67.5t-210 25.5t-241 4q-129 2 -256 8.5t-227 33t-161.5 81t-61.5 152.5q0 72 33.5 123t90 83.5t129 52t149.5 30t152 12.5t136 2 q299 0 655 -62l-14 -73q-182 33 -340 47t-313 14q-57 0 -124 -2t-133.5 -9t-128 -21.5t-109.5 -40t-76.5 -64.5t-28.5 -92q0 -76 52 -117t140 -60.5t199.5 -23.5t232.5 -4q133 -2 265.5 -8t237 -34t170 -86t65.5 -165q0 -78 -42 -132t-111 -91t-155 -59.5t-172 -35 t-164.5 -15.5t-132.5 -3q-88 0 -167.5 4t-160.5 15.5t-167 29t-187 41.5z" />
<glyph unicode="t" horiz-adv-x="712" d="M283 1075h360v-67h-360v-658q0 -156 44 -234.5t154 -78.5q63 0 162 29v-66q-49 -12 -95 -21.5t-87 -9.5q-57 0 -104.5 18.5t-81 62.5t-52 117t-18.5 183v658h-144v67h144v285l78 12v-297z" />
<glyph unicode="u" d="M143 530v545h78v-545q0 -104 34 -194t104.5 -154.5t178 -101.5t257.5 -37q207 0 383 71.5t327 188.5v772h78v-1075h-70l-4 227l-2 2q-63 -49 -142 -96t-170 -83t-195.5 -58.5t-221.5 -22.5q-164 0 -282.5 42t-197.5 118t-117 178t-38 223z" />
<glyph unicode="v" horiz-adv-x="1675" d="M1614 1075l-735 -1075h-82l-736 1075h93l381 -563l303 -444l303 444l381 563h92z" />
<glyph unicode="w" horiz-adv-x="2394" d="M1702 0l-201 389l-305 596l-303 -596l-201 -389h-82l-549 1075h89l282 -563l219 -432l219 432l283 563h86l283 -563l221 -432l219 432l283 563h88l-549 -1075h-82z" />
<glyph unicode="x" horiz-adv-x="1622" d="M1446 1075h110l-698 -536l703 -539h-111l-639 489l-639 -489h-111l701 539l-696 536h110l635 -489z" />
<glyph unicode="y" horiz-adv-x="1675" d="M61 1075h93l381 -563l311 -459l676 1022h92l-762 -1155q-61 -92 -120.5 -151.5t-120 -95t-122 -50t-127.5 -14.5q-59 0 -120.5 8t-126.5 23v65q59 -12 120.5 -22.5t118.5 -10.5q129 0 228.5 62.5t195.5 204.5l29 45z" />
<glyph unicode="z" horiz-adv-x="1654" d="M1532 68v-68h-1409v66l1235 942h-1184v67h1311v-65l-1235 -942h1282z" />
<glyph unicode="{" horiz-adv-x="845" d="M254 668q98 -35 138 -126t40 -216q0 -102 -12 -200.5t-12 -180.5q0 -59 11 -106.5t44 -81t90 -51t149 -13.5v-58q-102 0 -172.5 14.5t-113.5 49.5t-62.5 94.5t-19.5 149.5q0 74 14 179t14 210q0 57 -8 109.5t-27.5 93t-54 69.5t-88.5 39v49q53 10 88 39t54.5 70t27.5 93 t8 110q0 104 -14 209.5t-14 179.5q0 90 19.5 149.5t62.5 94t113.5 49t172.5 14.5v-58q-94 2 -152 -14t-90 -50t-42 -82t-10 -105q0 -82 12 -180.5t12 -200.5q0 -125 -40 -216t-138 -126z" />
<glyph unicode="|" horiz-adv-x="589" d="M324 -307h-58v2048h58v-2048z" />
<glyph unicode="}" horiz-adv-x="845" d="M594 668q-98 35 -139 126t-41 216q0 102 12 200.5t12 180.5q0 57 -11 105t-44 82t-90 51.5t-150 12.5v58q102 0 173 -14.5t114 -49t62.5 -94t19.5 -149.5q0 -74 -14.5 -179.5t-14.5 -209.5q0 -57 7.5 -109.5t28 -93.5t55 -70t88.5 -39v-49q-53 -10 -88 -39t-55.5 -69.5 t-28 -93t-7.5 -109.5q0 -104 14.5 -210t14.5 -179q0 -90 -19.5 -149.5t-62.5 -94.5t-113.5 -49.5t-173.5 -14.5v58q92 -4 149.5 13.5t90.5 51t44 80.5t11 107q0 82 -12 180t-12 201q0 125 41 216t139 126z" />
<glyph unicode="~" horiz-adv-x="1425" d="M1200 831q-98 -100 -174 -136t-141 -36q-53 0 -98.5 19.5t-88.5 42t-84 42t-84 19.5q-47 0 -110.5 -32.5t-149.5 -116.5l-45 45q94 96 169 131t136 35q49 0 94.5 -19.5t87.5 -42t84 -42t89 -19.5q51 0 115.5 33.5t154.5 122.5z" />
<glyph unicode="&#xa1;" horiz-adv-x="530" d="M229 778v297h72v-297h-72zM305 -358h-80l8 962h64z" />
<glyph unicode="&#xa2;" horiz-adv-x="1677" d="M967 1464v-180q219 -2 366.5 -33.5t200.5 -52.5l-16 -68q-25 8 -74 21.5t-120 27t-161 22.5t-196 9v-989q106 0 196 9.5t161 21.5t120 25.5t74 23.5l16 -68q-53 -20 -200.5 -51.5t-366.5 -34.5v-178h-49v178q-213 4 -360.5 48.5t-240 119t-133.5 178t-41 224.5t41 223 t133.5 177t240 119t360.5 48v180h49zM223 717q0 -106 35 -195.5t117 -155t215 -104.5t328 -41v989q-195 -4 -328 -42t-215 -103.5t-117 -154.5t-35 -193z" />
<glyph unicode="&#xa3;" horiz-adv-x="1622" d="M61 741h129l21 256q10 137 70.5 227.5t152.5 142.5t208 73.5t239 21.5q166 0 323.5 -26.5t274.5 -55.5l-17 -71q-51 12 -117.5 26.5t-143.5 26.5t-160 20.5t-164 8.5q-109 0 -210.5 -18.5t-182.5 -62.5t-134 -120t-61 -191l-23 -258h817v-49h-821l-51 -618h1268v-74 h-1350l55 692h-123v49z" />
<glyph unicode="&#xa4;" horiz-adv-x="1761" d="M676 225h-287v287l-205 205l205 205v286h287l205 205l204 -205h287v-286l205 -205l-205 -205v-287h-287l-204 -205zM700 281l181 -179l180 179h256v256l178 180l-178 180v256h-256l-180 178l-181 -178h-256v-256l-178 -180l178 -180v-256h256z" />
<glyph unicode="&#xa5;" horiz-adv-x="1773" d="M1571 164h-645v-164h-78v164h-653v49h653v225h-653v49h622l-776 947h98l486 -596l262 -330l262 330l485 596h99l-777 -947h615v-49h-645v-225h645v-49z" />
<glyph unicode="&#xa6;" horiz-adv-x="589" d="M324 838h-58v903h58v-903zM324 -307h-58v903h58v-903z" />
<glyph unicode="&#xa7;" horiz-adv-x="1718" d="M1155 428q84 -16 151.5 -39.5t115.5 -59.5t74 -88.5t26 -123.5q0 -111 -62.5 -181.5t-163 -111.5t-228.5 -56.5t-259 -15.5q-106 0 -207.5 7.5t-186.5 17.5t-148.5 20t-90.5 17l12 73q27 -6 90.5 -16t149.5 -20.5t187.5 -17.5t203.5 -7q117 0 228.5 12t198.5 45 t141.5 89.5t54.5 144.5q0 74 -37 122t-102.5 78.5t-154.5 48t-195.5 31t-224.5 25.5t-241 33l56 301q-84 16 -151.5 40.5t-116 60.5t-74 88t-25.5 124q0 111 62.5 181.5t163 111.5t228.5 56.5t259 15.5q106 0 207.5 -7.5t186.5 -17.5t147.5 -20.5t91.5 -16.5l-13 -74 q-29 6 -91 16.5t-148 21t-187.5 17.5t-203.5 7q-117 0 -228.5 -12.5t-198.5 -45t-141.5 -89t-54.5 -144.5q0 -74 37 -122t102.5 -78.5t154.5 -48t195.5 -31t224 -25.5t240.5 -33zM1155 676q-160 23 -304 38t-263 36l-45 -240q160 -25 303 -39t264 -35z" />
<glyph unicode="&#xa8;" horiz-adv-x="1744" d="M479 1440v-215h-61v215h61zM983 1440v-215h-61v215h61z" />
<glyph unicode="&#xa9;" horiz-adv-x="1978" d="M123 717q0 160 55 297t164 236.5t271.5 156.5t375.5 57t375 -57t271.5 -156.5t164.5 -236.5t55 -297t-55 -297t-164.5 -236.5t-271.5 -157t-375 -57.5t-375.5 57.5t-271.5 157t-164 236.5t-55 297zM172 717q0 -150 52 -278t154.5 -221t256 -146.5t354.5 -53.5t353.5 53.5 t256 146.5t155.5 221t52 278t-52 276.5t-155.5 221t-256 147.5t-353.5 53t-354.5 -53t-256 -147.5t-154.5 -221t-52 -276.5zM1419 369q-39 -12 -141 -38t-260 -26q-154 0 -264.5 32t-181 87t-103.5 130t-33 163t33 162.5t103.5 130t181 87t264.5 31.5q158 0 260 -25.5 t141 -37.5l-12 -47q-47 16 -147.5 39.5t-241.5 23.5t-241.5 -27.5t-165 -76.5t-94.5 -115.5t-30 -144.5t30 -144.5t94.5 -115.5t165 -77t241.5 -28t241.5 23.5t147.5 40.5z" />
<glyph unicode="&#xaa;" horiz-adv-x="1406" d="M1370 584q-66 -25 -115 -25q-78 0 -108.5 47t-34.5 164q-35 -43 -89 -82t-124 -67.5t-150.5 -45t-168.5 -16.5q-102 0 -188.5 18.5t-148 55.5t-96 92t-34.5 127q0 82 42 134t107.5 83t147.5 42t161 11q55 0 125 -6t143.5 -16t143.5 -24.5t123 -28.5q0 74 -22.5 137 t-77 108t-147.5 71t-234 26q-72 0 -136.5 -6.5t-119 -15.5t-95.5 -18.5t-61 -17.5l-23 66q18 6 60.5 16t101 20.5t130 17.5t149.5 7q156 0 262 -29.5t171.5 -82t94.5 -124t29 -155.5v-268q0 -86 18.5 -125t73.5 -41q16 0 41 5t49 15v-69zM193 856q0 -72 41.5 -117t103 -70.5 t132.5 -34.5t128 -9q86 0 166 16t147.5 46t117.5 71t77 90v160q-49 14 -121 25t-147.5 20.5t-144 14.5t-111.5 5q-68 0 -136.5 -9t-125 -33.5t-92 -66.5t-35.5 -108z" />
<glyph unicode="&#xab;" horiz-adv-x="1511" d="M778 1106l37 -45l-563 -471l563 -469l-37 -45l-614 514zM1311 1106l37 -45l-564 -471l564 -469l-37 -45l-615 514z" />
<glyph unicode="&#xac;" horiz-adv-x="1464" d="M1280 819v-745h-57v688h-1039v57h1096z" />
<glyph unicode="&#xad;" horiz-adv-x="1464" d="M246 713h973v-66h-973v66z" />
<glyph unicode="&#xae;" horiz-adv-x="1978" d="M123 717q0 160 55 297t164 236.5t271.5 156.5t375.5 57t375 -57t271.5 -156.5t164.5 -236.5t55 -297t-55 -297t-164.5 -236.5t-271.5 -157t-375 -57.5t-375.5 57.5t-271.5 157t-164 236.5t-55 297zM172 717q0 -150 52 -278t154.5 -221t256 -146.5t354.5 -53.5t353.5 53.5 t256 146.5t155.5 221t52 278t-52 276.5t-155.5 221t-256 147.5t-353.5 53t-354.5 -53t-256 -147.5t-154.5 -221t-52 -276.5zM557 322v788h627q63 0 118.5 -13.5t96.5 -42t64.5 -77.5t23.5 -119q0 -72 -24.5 -119t-68.5 -75.5t-105.5 -41t-133.5 -12.5l334 -288h-74l-332 286 h-475v-286h-51zM1157 657q61 0 112.5 10.5t88.5 33t57.5 61.5t20.5 96q0 115 -73 160t-179 45h-576v-406h549z" />
<glyph unicode="&#xaf;" horiz-adv-x="1744" d="M1145 1362v-57h-727v57h727z" />
<glyph unicode="&#xb0;" horiz-adv-x="1146" d="M143 1092q0 78 27 146.5t81 118.5t134 78.5t188 28.5q106 0 187.5 -28.5t134.5 -78.5t81 -119t28 -146q0 -80 -28 -147.5t-81 -119t-134 -80t-188 -28.5q-109 0 -188.5 28.5t-133.5 80t-81 119t-27 147.5zM201 1092q0 -68 23.5 -127.5t69.5 -103.5t115.5 -68.5 t163.5 -24.5q92 0 163 24.5t117 68.5t69.5 103.5t23.5 127.5t-23.5 126t-69.5 101t-116.5 67.5t-163.5 24.5q-94 0 -163.5 -24.5t-115.5 -67.5t-69.5 -101t-23.5 -126z" />
<glyph unicode="&#xb1;" horiz-adv-x="1464" d="M705 565v479h57v-479h477v-57h-477v-451h477v-57h-1014v57h480v451h-480v57h480z" />
<glyph unicode="&#xb2;" horiz-adv-x="1372" d="M121 608v74q193 68 377 152t328.5 179t232.5 199.5t88 212.5q0 88 -57.5 141.5t-140.5 81t-173 36t-155 8.5q-131 0 -247 -17.5t-245 -50.5l-16 74q133 35 253.5 51t243.5 16q80 0 186.5 -10t203 -45t163 -99.5t66.5 -174.5q0 -119 -85 -229.5t-223.5 -207t-314.5 -177.5 t-356 -140h1010v-74h-1139z" />
<glyph unicode="&#xb3;" horiz-adv-x="1351" d="M119 762q49 -20 115.5 -38.5t143.5 -33t162 -24t169 -9.5q92 0 176 13.5t148.5 43t103.5 79t39 122.5q0 76 -46.5 122t-136.5 71t-227 32t-317 7h-138v55h138q365 0 531.5 60.5t166.5 193.5q0 55 -26.5 95t-69.5 65.5t-99.5 41t-114 23t-113.5 9.5t-101 2 q-133 0 -249 -17.5t-245 -50.5l-16 74q133 35 253.5 51t249.5 16q51 0 117 -3t133.5 -12t133 -28.5t116.5 -52.5t82 -81t31 -118q0 -131 -121 -200.5t-389 -91.5q133 -6 233.5 -21.5t168 -47.5t101 -82t33.5 -124q0 -92 -46 -153.5t-121.5 -98.5t-175 -52t-205.5 -15 q-90 0 -179.5 9t-171.5 24.5t-149.5 35t-110.5 37.5z" />
<glyph unicode="&#xb4;" horiz-adv-x="1744" d="M1169 1505l23 -61l-686 -240l-17 43z" />
<glyph unicode="&#xb5;" d="M143 -389v1464h80v-545q0 -104 34 -194t103.5 -154.5t177 -101.5t257.5 -37q207 0 383 71.5t327 188.5v772h78v-1075h-70l-4 227l-2 2q-63 -49 -142 -96t-170 -83t-195.5 -58.5t-221.5 -22.5q-231 0 -369.5 89t-187.5 237v-684h-78z" />
<glyph unicode="&#xb6;" horiz-adv-x="1343" d="M1018 0h-66v623h-317q-98 0 -187.5 20.5t-157 68.5t-107.5 124.5t-40 191.5q0 113 40 190.5t107.5 126t157 69t187.5 20.5h383v-1434zM1180 0h-66v1434h66v-1434z" />
<glyph unicode="&#xb7;" horiz-adv-x="522" d="M297 686v-297h-72v297h72z" />
<glyph unicode="&#xb8;" horiz-adv-x="1718" d="M684 -459l27 47q49 -6 121.5 -8t140 8.5t117 38t49.5 82.5q2 31 -20.5 54.5t-61.5 39t-91.5 21.5t-107.5 4q-8 2 -15 9t-5 18l82 149h45l-78 -139q59 6 115.5 -2t100.5 -28.5t69.5 -52.5t23.5 -73q-2 -51 -31.5 -85t-77 -53.5t-104.5 -28.5t-112.5 -10t-105.5 2t-81 7z " />
<glyph unicode="&#xb9;" horiz-adv-x="1159" d="M541 682v979l-437 -123l-22 66l461 137h75v-1059h461v-74h-999v74h461z" />
<glyph unicode="&#xba;" horiz-adv-x="1339" d="M80 1010q0 98 39 180t113.5 141.5t184 93t253.5 33.5q143 0 252.5 -33.5t184.5 -93t114 -141.5t39 -180t-39 -180t-114 -142.5t-184.5 -94.5t-252.5 -34t-253 34t-184.5 94.5t-113.5 142.5t-39 180zM1180 1010q0 82 -34 150.5t-98.5 117.5t-159.5 76.5t-218 27.5 q-125 0 -220.5 -27.5t-160 -76.5t-97 -117.5t-32.5 -150.5t32.5 -150.5t97 -119t160 -79t220.5 -28.5q123 0 218 28.5t159.5 79t98.5 119t34 150.5z" />
<glyph unicode="&#xbb;" horiz-adv-x="1511" d="M1348 590l-615 -514l-37 45l564 469l-564 471l37 45zM815 590l-614 -514l-37 45l563 469l-563 471l37 45z" />
<glyph unicode="&#xbc;" horiz-adv-x="3338" d="M541 375v979l-437 -123l-22 65l461 138h75v-1059h461v-74h-999v74h461zM1065 -16q309 373 609 745.5t597 755.5l39 -35q-307 -373 -608 -745.5t-598 -755.5zM3078 252v-252h-80v252h-938v72l938 809h80v-807h148q0 -18 -1 -37t-1 -37h-146zM2998 682l2 365l-608 -523 l-238 -198h844v356z" />
<glyph unicode="&#xbd;" horiz-adv-x="3592" d="M2341 0v74q193 68 377 151.5t328.5 179t232.5 200t88 212.5q0 88 -57.5 141.5t-140.5 81t-173 35.5t-155 8q-131 0 -247 -17t-245 -50l-16 74q133 35 253.5 51t243.5 16q80 0 186.5 -10t203 -45t163 -99.5t66.5 -175.5q0 -119 -85 -229.5t-223.5 -206.5t-314.5 -177 t-356 -140h1010v-74h-1139zM541 375v979l-437 -123l-22 65l461 138h75v-1059h461v-74h-999v74h461zM1065 -16q309 373 609 745.5t597 755.5l39 -35q-307 -373 -608 -745.5t-598 -755.5z" />
<glyph unicode="&#xbe;" horiz-adv-x="3377" d="M3117 252v-252h-80v252h-938v72l938 809h80v-807h148q0 -18 -1.5 -37t-1.5 -37h-145zM3037 682l2 365l-608 -523l-238 -198h844v356zM119 455q49 -20 115.5 -39t143.5 -33t162 -23.5t169 -9.5q92 0 176 13.5t148.5 43t103.5 79t39 122.5q0 76 -46.5 122t-136.5 70.5 t-227 32t-317 7.5h-138v55h138q365 0 531.5 60.5t166.5 193.5q0 55 -26.5 95t-69.5 65.5t-99.5 41t-114 22.5t-113.5 9t-101 2q-133 0 -249 -17t-245 -50l-16 74q133 35 253.5 51t249.5 16q51 0 117 -3t133.5 -12t133 -28.5t116.5 -52.5t82 -81t31 -118q0 -131 -121 -200.5 t-389 -92.5q133 -6 233.5 -21t168 -47t101 -82t33.5 -124q0 -92 -46 -153.5t-121.5 -98.5t-175 -52.5t-205.5 -15.5q-90 0 -179.5 9.5t-171.5 25t-149.5 35t-110.5 37.5zM1104 -16q309 373 609 745.5t597 755.5l39 -35q-307 -373 -608 -745.5t-598 -755.5z" />
<glyph unicode="&#xbf;" horiz-adv-x="1660" d="M915 604q-12 -90 -68 -145.5t-133 -93t-163 -66.5t-159 -65.5t-121 -89t-48 -136.5q0 -72 35 -124t91.5 -88t128 -57.5t148 -33.5t150.5 -16t133 -4q156 0 303.5 20.5t307.5 61.5l18 -72q-166 -43 -316.5 -63.5t-308.5 -20.5q-70 0 -152.5 5t-168.5 19.5t-167 41 t-143.5 70.5t-100.5 107.5t-38 149.5q0 98 47.5 157.5t119 99.5t157.5 67.5t165 61.5t138 83t80 131h65zM846 778v297h72v-297h-72z" />
<glyph unicode="&#xc0;" horiz-adv-x="2035" d="M2015 0h-90l-266 393h-1284l-264 -393h-91l955 1434h86zM520 614l-100 -147h1196l-100 147l-498 750zM1094 1606l-17 -43l-686 239l23 62z" />
<glyph unicode="&#xc1;" horiz-adv-x="2035" d="M2015 0h-90l-266 393h-1284l-264 -393h-91l955 1434h86zM520 614l-100 -147h1196l-100 147l-498 750zM1636 1864l23 -62l-686 -239l-17 43z" />
<glyph unicode="&#xc2;" horiz-adv-x="2035" d="M2015 0h-90l-266 393h-1284l-264 -393h-91l955 1434h86zM520 614l-100 -147h1196l-100 147l-498 750zM1018 1792l-420 -254l-20 43l440 277l440 -277l-20 -43z" />
<glyph unicode="&#xc3;" horiz-adv-x="2035" d="M2015 0h-90l-266 393h-1284l-264 -393h-91l955 1434h86zM520 614l-100 -147h1196l-100 147l-498 750zM1411 1745q-78 -80 -139.5 -110.5t-114.5 -30.5q-43 0 -81 15t-72.5 33.5t-67.5 34t-66 15.5q-39 0 -92 -24.5t-121 -92.5l-34 37q76 78 136 107.5t111 29.5 q39 0 75 -15t70 -33.5t68.5 -34t73.5 -15.5q41 0 94.5 24.5t124.5 96.5z" />
<glyph unicode="&#xc4;" horiz-adv-x="2035" d="M2015 0h-90l-266 393h-1284l-264 -393h-91l955 1434h86zM520 614l-100 -147h1196l-100 147l-498 750zM797 1798v-215h-62v215h62zM1300 1798v-215h-61v215h61z" />
<glyph unicode="&#xc5;" horiz-adv-x="2035" d="M788 1589q0 82 53.5 136.5t174.5 54.5t174 -54.5t53 -136.5q0 -72 -38 -123t-122 -67l932 -1399h-90l-266 393h-1284l-264 -393h-91l930 1397q-86 16 -124 68t-38 124zM520 614l-100 -147h1196l-100 147l-498 750zM829 1589q0 -63 39 -107t127 -48h39q90 4 129 48t39 107 q0 66 -44 108t-142 42t-142.5 -42t-44.5 -108z" />
<glyph unicode="&#xc6;" horiz-adv-x="3360" d="M3111 700h-1354v-626h1518v-74h-1596v393h-1091l-453 -393h-115l1659 1434h1555v-74h-1477v-586h1354v-74zM842 614l-170 -147h1007v879z" />
<glyph unicode="&#xc7;" horiz-adv-x="2011" d="M772 -459l27 47q49 -6 121.5 -8t140 8.5t117 38t49.5 82.5q2 31 -20.5 54.5t-61.5 39t-91.5 21.5t-107.5 4q-8 2 -15 9t-5 18l65 122q-229 18 -393 82t-269.5 161t-155.5 224t-50 273q0 160 60.5 297t188.5 236.5t327.5 156.5t480.5 57q143 0 262 -13t211 -31.5 t156.5 -38t99.5 -31.5l-19 -70q-43 14 -109.5 32.5t-156.5 36t-201.5 30t-242.5 12.5q-260 0 -445.5 -51.5t-303.5 -141.5t-173 -214t-55 -267q0 -145 55 -268t173 -213.5t303.5 -141.5t445.5 -51q131 0 242.5 12.5t201.5 29.5t156.5 35.5t109.5 33.5l19 -70 q-35 -12 -99.5 -31.5t-156.5 -38t-211 -32t-262 -13.5q-39 0 -75 1t-71 3l-59 -108q59 6 115.5 -2t100.5 -28.5t69.5 -52.5t23.5 -73q-2 -51 -31.5 -85t-77 -53.5t-104.5 -28.5t-112.5 -10t-105.5 2t-81 7z" />
<glyph unicode="&#xc8;" horiz-adv-x="1882" d="M1292 1606l-16 -43l-686 239l22 62zM164 0v1434h1554v-74h-1476v-586h1353v-74h-1353v-626h1517v-74h-1595z" />
<glyph unicode="&#xc9;" horiz-adv-x="1882" d="M1270 1864l22 -62l-686 -239l-16 43zM164 0v1434h1554v-74h-1476v-586h1353v-74h-1353v-626h1517v-74h-1595z" />
<glyph unicode="&#xca;" horiz-adv-x="1882" d="M164 0v1434h1554v-74h-1476v-586h1353v-74h-1353v-626h1517v-74h-1595zM940 1792l-420 -254l-20 43l440 277l440 -277l-20 -43z" />
<glyph unicode="&#xcb;" horiz-adv-x="1882" d="M719 1798v-215h-62v215h62zM1223 1798v-215h-62v215h62zM164 0v1434h1554v-74h-1476v-586h1353v-74h-1353v-626h1517v-74h-1595z" />
<glyph unicode="&#xcc;" horiz-adv-x="405" d="M164 1434h78v-1434h-78v1434zM522 1606l-16 -43l-686 239l22 62z" />
<glyph unicode="&#xcd;" horiz-adv-x="405" d="M164 1434h78v-1434h-78v1434zM567 1864l23 -62l-686 -239l-17 43z" />
<glyph unicode="&#xce;" horiz-adv-x="405" d="M164 1434h78v-1434h-78v1434zM203 1792l-420 -254l-21 43l441 277l440 -277l-20 -43z" />
<glyph unicode="&#xcf;" horiz-adv-x="405" d="M164 1434h78v-1434h-78v1434zM-16 1798v-215h-62v215h62zM487 1798v-215h-61v215h61z" />
<glyph unicode="&#xd0;" horiz-adv-x="2045" d="M164 0v694h-164v49h164v691h702q279 0 479.5 -52.5t328.5 -146.5t188.5 -226t60.5 -292t-60.5 -292t-188.5 -226.5t-328.5 -146.5t-479.5 -52h-702zM242 1360v-617h624v-49h-624v-620h624q260 0 444.5 46t303.5 131t174 202.5t55 263.5q0 143 -55 262t-174 204 t-303.5 131t-444.5 46h-624z" />
<glyph unicode="&#xd1;" horiz-adv-x="2037" d="M1411 1745q-78 -80 -139.5 -110.5t-114.5 -30.5q-43 0 -81 15t-72.5 33.5t-67.5 34t-66 15.5q-39 0 -92 -24.5t-121 -92.5l-34 37q76 78 136 107.5t111 29.5q39 0 75 -15t70 -33.5t68.5 -34t73.5 -15.5q41 0 94.5 24.5t124.5 96.5zM1796 1434h78v-1434h-76l-1558 1333 l2 -164v-1169h-78v1434h76l1558 -1334l-2 183v1151z" />
<glyph unicode="&#xd2;" horiz-adv-x="2170" d="M1436 1606l-17 -43l-686 239l23 62zM123 717q0 160 61.5 297t182 236.5t301 156.5t417.5 57q238 0 418 -57t301 -156.5t182.5 -236.5t61.5 -297t-61.5 -297t-182.5 -236.5t-301 -157t-418 -57.5t-418 57.5t-300.5 157t-182 236.5t-61.5 297zM203 717q0 -145 56 -268 t167 -213.5t275.5 -141.5t383.5 -51t384 51t275.5 141.5t167 213t56.5 268.5q0 143 -56.5 267t-167 214t-275 141.5t-384.5 51.5q-219 0 -383.5 -51.5t-275.5 -141.5t-167 -214t-56 -267z" />
<glyph unicode="&#xd3;" horiz-adv-x="2170" d="M1413 1864l23 -62l-686 -239l-17 43zM123 717q0 160 61.5 297t182 236.5t301 156.5t417.5 57q238 0 418 -57t301 -156.5t182.5 -236.5t61.5 -297t-61.5 -297t-182.5 -236.5t-301 -157t-418 -57.5t-418 57.5t-300.5 157t-182 236.5t-61.5 297zM203 717q0 -145 56 -268 t167 -213.5t275.5 -141.5t383.5 -51t384 51t275.5 141.5t167 213t56.5 268.5q0 143 -56.5 267t-167 214t-275 141.5t-384.5 51.5q-219 0 -383.5 -51.5t-275.5 -141.5t-167 -214t-56 -267z" />
<glyph unicode="&#xd4;" horiz-adv-x="2170" d="M123 717q0 160 61.5 297t182 236.5t301 156.5t417.5 57q238 0 418 -57t301 -156.5t182.5 -236.5t61.5 -297t-61.5 -297t-182.5 -236.5t-301 -157t-418 -57.5t-418 57.5t-300.5 157t-182 236.5t-61.5 297zM203 717q0 -145 56 -268t167 -213.5t275.5 -141.5t383.5 -51 t384 51t275.5 141.5t167 213t56.5 268.5q0 143 -56.5 267t-167 214t-275 141.5t-384.5 51.5q-219 0 -383.5 -51.5t-275.5 -141.5t-167 -214t-56 -267zM1083 1792l-419 -254l-21 43l440 277l441 -277l-21 -43z" />
<glyph unicode="&#xd5;" horiz-adv-x="2170" d="M1479 1745q-78 -80 -139.5 -110.5t-114.5 -30.5q-43 0 -81 15t-73 33.5t-67.5 34t-65.5 15.5q-39 0 -92 -24.5t-121 -92.5l-35 37q76 78 136.5 107.5t111.5 29.5q39 0 75 -15t69.5 -33.5t68.5 -34t74 -15.5q41 0 94 24.5t125 96.5zM123 717q0 160 61.5 297t182 236.5 t301 156.5t417.5 57q238 0 418 -57t301 -156.5t182.5 -236.5t61.5 -297t-61.5 -297t-182.5 -236.5t-301 -157t-418 -57.5t-418 57.5t-300.5 157t-182 236.5t-61.5 297zM203 717q0 -145 56 -268t167 -213.5t275.5 -141.5t383.5 -51t384 51t275.5 141.5t167 213t56.5 268.5 q0 143 -56.5 267t-167 214t-275 141.5t-384.5 51.5q-219 0 -383.5 -51.5t-275.5 -141.5t-167 -214t-56 -267z" />
<glyph unicode="&#xd6;" horiz-adv-x="2170" d="M864 1798v-215h-61v215h61zM1368 1798v-215h-61v215h61zM123 717q0 160 61.5 297t182 236.5t301 156.5t417.5 57q238 0 418 -57t301 -156.5t182.5 -236.5t61.5 -297t-61.5 -297t-182.5 -236.5t-301 -157t-418 -57.5t-418 57.5t-300.5 157t-182 236.5t-61.5 297zM203 717 q0 -145 56 -268t167 -213.5t275.5 -141.5t383.5 -51t384 51t275.5 141.5t167 213t56.5 268.5q0 143 -56.5 267t-167 214t-275 141.5t-384.5 51.5q-219 0 -383.5 -51.5t-275.5 -141.5t-167 -214t-56 -267z" />
<glyph unicode="&#xd7;" horiz-adv-x="1359" d="M639 537l-338 340l41 38l338 -337l338 337l41 -38l-340 -340l340 -338l-41 -39l-338 336l-338 -336l-41 39z" />
<glyph unicode="&#xd8;" horiz-adv-x="2170" d="M123 717q0 160 61.5 297t182 236.5t301 156.5t417.5 57q180 0 328 -33.5t260 -95.5l125 123l35 -35l-115 -112q166 -102 248 -255t82 -339q0 -160 -61.5 -297t-182.5 -236.5t-301 -157t-418 -57.5q-180 0 -324.5 32t-258.5 91l-117 -117l-35 35l107 109 q-166 100 -250 255t-84 343zM203 717q0 -174 77.5 -312.5t231.5 -230.5l1104 1102q-104 55 -235.5 85t-295.5 30q-219 0 -383.5 -51.5t-275.5 -141.5t-167 -214t-56 -267zM1968 717q0 168 -75.5 307t-229.5 229l-1104 -1101q104 -53 234.5 -81t291.5 -28q219 0 384 51 t275.5 141.5t167 213.5t56.5 268z" />
<glyph unicode="&#xd9;" horiz-adv-x="2048" d="M1374 1606l-16 -43l-686 239l22 62zM1806 1434h78v-861q0 -317 -215 -460.5t-645 -143.5t-645 143.5t-215 460.5v861h78v-861q0 -143 50 -243.5t149.5 -164t246 -93t336.5 -29.5t336.5 29.5t246 93t149.5 164t50 243.5v861z" />
<glyph unicode="&#xda;" horiz-adv-x="2048" d="M1352 1864l22 -62l-686 -239l-16 43zM1806 1434h78v-861q0 -317 -215 -460.5t-645 -143.5t-645 143.5t-215 460.5v861h78v-861q0 -143 50 -243.5t149.5 -164t246 -93t336.5 -29.5t336.5 29.5t246 93t149.5 164t50 243.5v861z" />
<glyph unicode="&#xdb;" horiz-adv-x="2048" d="M1806 1434h78v-861q0 -317 -215 -460.5t-645 -143.5t-645 143.5t-215 460.5v861h78v-861q0 -143 50 -243.5t149.5 -164t246 -93t336.5 -29.5t336.5 29.5t246 93t149.5 164t50 243.5v861zM1022 1792l-420 -254l-20 43l440 277l440 -277l-20 -43z" />
<glyph unicode="&#xdc;" horiz-adv-x="2048" d="M803 1798v-215h-62v215h62zM1307 1798v-215h-62v215h62zM1806 1434h78v-861q0 -317 -215 -460.5t-645 -143.5t-645 143.5t-215 460.5v861h78v-861q0 -143 50 -243.5t149.5 -164t246 -93t336.5 -29.5t336.5 29.5t246 93t149.5 164t50 243.5v861z" />
<glyph unicode="&#xdd;" horiz-adv-x="2052" d="M2032 1434l-967 -985v-449h-78v449l-967 985h101l352 -359l553 -561l553 561l352 359h101zM1354 1864l22 -62l-686 -239l-16 43z" />
<glyph unicode="&#xde;" horiz-adv-x="1955" d="M164 0v1434h78v-211h995q123 0 235.5 -26t196.5 -85t134 -156.5t50 -238.5t-50 -238.5t-134 -158t-196.5 -86t-235.5 -25.5h-995v-209h-78zM242 1149v-866h999q109 0 205 22.5t169 72.5t116 133t43 206q0 121 -43 204t-116 133t-169 72.5t-205 22.5h-999z" />
<glyph unicode="&#xdf;" horiz-adv-x="2183" d="M143 0v1161q0 72 34 123t89.5 84t127 52.5t148 29.5t150.5 12t135 2q113 0 234 -8t250 -26l-76 -396q-88 2 -194.5 -4t-199.5 -28.5t-155.5 -69.5t-62.5 -129q0 -76 54 -117t143 -60.5t204 -22.5t236 -5q131 -2 260 -8t230 -35t164.5 -87t63.5 -163q0 -78 -42 -132 t-110.5 -91t-153.5 -59.5t-171 -35t-165 -15.5t-134 -3q-88 0 -167 4t-158.5 15.5t-164.5 29t-186 41.5l15 72q102 -25 188 -41t165 -27.5t155.5 -15.5t160.5 -4q47 0 118 3t147.5 12.5t152.5 25.5t136.5 46t98.5 72t38 101q0 82 -55.5 127t-146.5 66.5t-208 26.5t-240 5 q-131 2 -258 8.5t-227 33t-161.5 81t-61.5 152.5q0 102 66.5 160.5t164.5 89t211 39t205 10.5l53 268q-109 10 -213 18.5t-203 8.5q-57 0 -123.5 -2t-134 -10.5t-130 -22.5t-111.5 -41t-78 -65.5t-29 -94.5v-1161h-78z" />
<glyph unicode="&#xe0;" horiz-adv-x="1763" d="M1718 0q-74 -31 -135 -31q-104 0 -138 63.5t-32 213.5q-41 -57 -109.5 -107.5t-156.5 -88.5t-192.5 -59.5t-219.5 -21.5q-129 0 -237.5 23.5t-187.5 70t-123 116t-44 159.5q0 102 53.5 168.5t136.5 104.5t185.5 53.5t202.5 15.5q68 0 160 -4t188 -11.5t186.5 -15.5 t155.5 -14q-6 86 -38 158.5t-102.5 126t-186 83t-289.5 29.5q-96 0 -182.5 -8t-156 -19.5t-118.5 -23.5t-70 -20l-24 67q23 8 75 21.5t124.5 25.5t162.5 21.5t189 9.5q193 0 325.5 -37t214.5 -102.5t118 -155.5t36 -197v-366q0 -111 24.5 -158t96.5 -47q23 0 51.5 6t56.5 21 v-70zM223 342q0 -76 39 -133t108.5 -95t166 -57.5t208.5 -19.5q113 0 217.5 22.5t191.5 61.5t153.5 92t103.5 113v266q-174 10 -346 19.5t-346 11.5q-86 0 -174 -12.5t-160 -44t-117 -86t-45 -138.5zM1231 1247l-17 -43l-686 240l23 61z" />
<glyph unicode="&#xe1;" horiz-adv-x="1763" d="M1718 0q-74 -31 -135 -31q-104 0 -138 63.5t-32 213.5q-41 -57 -109.5 -107.5t-156.5 -88.5t-192.5 -59.5t-219.5 -21.5q-129 0 -237.5 23.5t-187.5 70t-123 116t-44 159.5q0 102 53.5 168.5t136.5 104.5t185.5 53.5t202.5 15.5q68 0 160 -4t188 -11.5t186.5 -15.5 t155.5 -14q-6 86 -38 158.5t-102.5 126t-186 83t-289.5 29.5q-96 0 -182.5 -8t-156 -19.5t-118.5 -23.5t-70 -20l-24 67q23 8 75 21.5t124.5 25.5t162.5 21.5t189 9.5q193 0 325.5 -37t214.5 -102.5t118 -155.5t36 -197v-366q0 -111 24.5 -158t96.5 -47q23 0 51.5 6t56.5 21 v-70zM223 342q0 -76 39 -133t108.5 -95t166 -57.5t208.5 -19.5q113 0 217.5 22.5t191.5 61.5t153.5 92t103.5 113v266q-174 10 -346 19.5t-346 11.5q-86 0 -174 -12.5t-160 -44t-117 -86t-45 -138.5zM1208 1505l23 -61l-686 -240l-17 43z" />
<glyph unicode="&#xe2;" horiz-adv-x="1763" d="M1718 0q-74 -31 -135 -31q-104 0 -138 63.5t-32 213.5q-41 -57 -109.5 -107.5t-156.5 -88.5t-192.5 -59.5t-219.5 -21.5q-129 0 -237.5 23.5t-187.5 70t-123 116t-44 159.5q0 102 53.5 168.5t136.5 104.5t185.5 53.5t202.5 15.5q68 0 160 -4t188 -11.5t186.5 -15.5 t155.5 -14q-6 86 -38 158.5t-102.5 126t-186 83t-289.5 29.5q-96 0 -182.5 -8t-156 -19.5t-118.5 -23.5t-70 -20l-24 67q23 8 75 21.5t124.5 25.5t162.5 21.5t189 9.5q193 0 325.5 -37t214.5 -102.5t118 -155.5t36 -197v-366q0 -111 24.5 -158t96.5 -47q23 0 51.5 6t56.5 21 v-70zM223 342q0 -76 39 -133t108.5 -95t166 -57.5t208.5 -19.5q113 0 217.5 22.5t191.5 61.5t153.5 92t103.5 113v266q-174 10 -346 19.5t-346 11.5q-86 0 -174 -12.5t-160 -44t-117 -86t-45 -138.5zM864 1434l-420 -254l-20 43l440 276l441 -276l-21 -43z" />
<glyph unicode="&#xe3;" horiz-adv-x="1763" d="M1718 0q-74 -31 -135 -31q-104 0 -138 63.5t-32 213.5q-41 -57 -109.5 -107.5t-156.5 -88.5t-192.5 -59.5t-219.5 -21.5q-129 0 -237.5 23.5t-187.5 70t-123 116t-44 159.5q0 102 53.5 168.5t136.5 104.5t185.5 53.5t202.5 15.5q68 0 160 -4t188 -11.5t186.5 -15.5 t155.5 -14q-6 86 -38 158.5t-102.5 126t-186 83t-289.5 29.5q-96 0 -182.5 -8t-156 -19.5t-118.5 -23.5t-70 -20l-24 67q23 8 75 21.5t124.5 25.5t162.5 21.5t189 9.5q193 0 325.5 -37t214.5 -102.5t118 -155.5t36 -197v-366q0 -111 24.5 -158t96.5 -47q23 0 51.5 6t56.5 21 v-70zM223 342q0 -76 39 -133t108.5 -95t166 -57.5t208.5 -19.5q113 0 217.5 22.5t191.5 61.5t153.5 92t103.5 113v266q-174 10 -346 19.5t-346 11.5q-86 0 -174 -12.5t-160 -44t-117 -86t-45 -138.5zM1241 1386q-78 -80 -139.5 -110.5t-114.5 -30.5q-43 0 -81 15.5t-72.5 34 t-67.5 33.5t-66 15q-39 0 -92 -24.5t-121 -91.5l-34 37q76 78 136 107.5t111 29.5q39 0 75 -15.5t70 -34t68.5 -33.5t73.5 -15q41 0 94.5 24.5t124.5 95.5z" />
<glyph unicode="&#xe4;" horiz-adv-x="1763" d="M1718 0q-74 -31 -135 -31q-104 0 -138 63.5t-32 213.5q-41 -57 -109.5 -107.5t-156.5 -88.5t-192.5 -59.5t-219.5 -21.5q-129 0 -237.5 23.5t-187.5 70t-123 116t-44 159.5q0 102 53.5 168.5t136.5 104.5t185.5 53.5t202.5 15.5q68 0 160 -4t188 -11.5t186.5 -15.5 t155.5 -14q-6 86 -38 158.5t-102.5 126t-186 83t-289.5 29.5q-96 0 -182.5 -8t-156 -19.5t-118.5 -23.5t-70 -20l-24 67q23 8 75 21.5t124.5 25.5t162.5 21.5t189 9.5q193 0 325.5 -37t214.5 -102.5t118 -155.5t36 -197v-366q0 -111 24.5 -158t96.5 -47q23 0 51.5 6t56.5 21 v-70zM223 342q0 -76 39 -133t108.5 -95t166 -57.5t208.5 -19.5q113 0 217.5 22.5t191.5 61.5t153.5 92t103.5 113v266q-174 10 -346 19.5t-346 11.5q-86 0 -174 -12.5t-160 -44t-117 -86t-45 -138.5zM659 1440v-215h-61v215h61zM1163 1440v-215h-61v215h61z" />
<glyph unicode="&#xe5;" horiz-adv-x="1763" d="M1718 0q-74 -31 -135 -31q-104 0 -138 63.5t-32 213.5q-41 -57 -109.5 -107.5t-156.5 -88.5t-192.5 -59.5t-219.5 -21.5q-129 0 -237.5 23.5t-187.5 70t-123 116t-44 159.5q0 102 53.5 168.5t136.5 104.5t185.5 53.5t202.5 15.5q68 0 160 -4t188 -11.5t186.5 -15.5 t155.5 -14q-6 86 -38 158.5t-102.5 126t-186 83t-289.5 29.5q-96 0 -182.5 -8t-156 -19.5t-118.5 -23.5t-70 -20l-24 67q23 8 75 21.5t124.5 25.5t162.5 21.5t189 9.5q193 0 325.5 -37t214.5 -102.5t118 -155.5t36 -197v-366q0 -111 24.5 -158t96.5 -47q23 0 51.5 6t56.5 21 v-70zM223 342q0 -76 39 -133t108.5 -95t166 -57.5t208.5 -19.5q113 0 217.5 22.5t191.5 61.5t153.5 92t103.5 113v266q-174 10 -346 19.5t-346 11.5q-86 0 -174 -12.5t-160 -44t-117 -86t-45 -138.5zM635 1339q0 82 53 136.5t174 54.5t174.5 -54.5t53.5 -136.5 q0 -84 -53.5 -140t-174.5 -56t-174 56t-53 140zM676 1339q0 -66 44 -110.5t142 -44.5t142.5 45t44.5 110q0 66 -44 108t-143 42q-98 0 -142 -42t-44 -108z" />
<glyph unicode="&#xe6;" horiz-adv-x="2924" d="M705 -31q-121 0 -224.5 23.5t-178.5 71t-117 116t-42 160.5q0 102 51.5 167.5t131.5 104.5t176 53.5t186 14.5q158 0 342 -38t348 -114q6 129 -22.5 224.5t-100 157t-189.5 92t-288 30.5q-96 0 -180 -8t-149.5 -19.5t-112.5 -23.5t-68 -20l-24 67q23 8 72 21.5 t119.5 25.5t157.5 21.5t187 9.5q162 0 278 -27.5t192.5 -78t118.5 -119t56 -150.5q27 82 79 150.5t133 119t191.5 78t254.5 27.5q174 0 318.5 -41t238.5 -122t127 -199.5t-17 -274.5h-1290q18 -207 189.5 -316.5t519.5 -109.5q106 0 201.5 9t172 21.5t130 26t77.5 23.5 l17 -68q-27 -10 -82 -24.5t-133 -28.5t-176.5 -23.5t-208.5 -9.5q-348 0 -535.5 106.5t-232.5 307.5q-31 -90 -90.5 -166t-147.5 -131t-202.5 -86t-253.5 -31zM223 344q0 -76 37 -133t103.5 -96t156.5 -58.5t195 -19.5q143 0 261 33.5t204 93t137 140.5t61 177 q-74 35 -166 61.5t-187 44t-184 27t-155 9.5q-76 0 -158 -12.5t-149.5 -43t-111.5 -85t-44 -138.5zM2679 526q37 135 -1 231.5t-124 158t-210 90t-261 28.5q-164 0 -282 -38t-194.5 -105.5t-113.5 -160.5t-35 -204h1221z" />
<glyph unicode="&#xe7;" horiz-adv-x="1677" d="M702 -471l27 47q49 -6 122 -8t140.5 8t116.5 38t49 83q2 31 -20.5 54.5t-61.5 38.5t-91 21.5t-107 4.5q-8 2 -15.5 9t-5.5 17l70 127q-217 2 -373 46t-256 120t-147.5 178.5t-47.5 225.5t49.5 227t153 180t264 118t385.5 42q113 0 207 -9.5t168 -23.5t126 -28.5t79 -24.5 l-16 -68q-25 8 -75 22.5t-123 27t-165 21.5t-201 9q-207 0 -352 -37t-239.5 -102.5t-137.5 -156.5t-43 -197q0 -109 43 -199t137.5 -156.5t240 -103.5t351.5 -37q109 0 201 9t165 21.5t123 26t75 23.5l16 -68q-27 -10 -77 -24.5t-121.5 -27.5t-164 -23.5t-200.5 -10.5 l-66 -116q59 6 115.5 -2.5t100.5 -29t70 -52t23 -72.5q-2 -51 -31.5 -85t-76.5 -53.5t-104.5 -28.5t-112.5 -10t-105.5 2t-81.5 7z" />
<glyph unicode="&#xe8;" horiz-adv-x="1689" d="M186 469q23 -211 201 -318.5t524 -107.5q109 0 208.5 9t179 21.5t137 26t82.5 23.5l16 -68q-27 -10 -85 -24.5t-140 -28.5t-183.5 -23.5t-212.5 -9.5q-410 0 -610.5 143.5t-200.5 417.5q0 119 44 223.5t133.5 182.5t224.5 124t317 46q174 0 323.5 -40t249 -120 t136.5 -199.5t-12 -277.5h-1332zM184 537h1262q37 129 -4 223t-132 154.5t-219 90t-266 29.5q-131 0 -247.5 -29.5t-203.5 -90t-138.5 -154.5t-51.5 -223zM1194 1247l-16 -43l-686 240l22 61z" />
<glyph unicode="&#xe9;" horiz-adv-x="1689" d="M1171 1505l23 -61l-686 -240l-16 43zM186 469q23 -211 201 -318.5t524 -107.5q109 0 208.5 9t179 21.5t137 26t82.5 23.5l16 -68q-27 -10 -85 -24.5t-140 -28.5t-183.5 -23.5t-212.5 -9.5q-410 0 -610.5 143.5t-200.5 417.5q0 119 44 223.5t133.5 182.5t224.5 124t317 46 q174 0 323.5 -40t249 -120t136.5 -199.5t-12 -277.5h-1332zM184 537h1262q37 129 -4 223t-132 154.5t-219 90t-266 29.5q-131 0 -247.5 -29.5t-203.5 -90t-138.5 -154.5t-51.5 -223z" />
<glyph unicode="&#xea;" horiz-adv-x="1689" d="M844 1434l-420 -254l-21 43l441 276l440 -276l-20 -43zM186 469q23 -211 201 -318.5t524 -107.5q109 0 208.5 9t179 21.5t137 26t82.5 23.5l16 -68q-27 -10 -85 -24.5t-140 -28.5t-183.5 -23.5t-212.5 -9.5q-410 0 -610.5 143.5t-200.5 417.5q0 119 44 223.5t133.5 182.5 t224.5 124t317 46q174 0 323.5 -40t249 -120t136.5 -199.5t-12 -277.5h-1332zM184 537h1262q37 129 -4 223t-132 154.5t-219 90t-266 29.5q-131 0 -247.5 -29.5t-203.5 -90t-138.5 -154.5t-51.5 -223z" />
<glyph unicode="&#xeb;" horiz-adv-x="1689" d="M623 1440v-215h-62v215h62zM1126 1440v-215h-61v215h61zM186 469q23 -211 201 -318.5t524 -107.5q109 0 208.5 9t179 21.5t137 26t82.5 23.5l16 -68q-27 -10 -85 -24.5t-140 -28.5t-183.5 -23.5t-212.5 -9.5q-410 0 -610.5 143.5t-200.5 417.5q0 119 44 223.5 t133.5 182.5t224.5 124t317 46q174 0 323.5 -40t249 -120t136.5 -199.5t-12 -277.5h-1332zM184 537h1262q37 129 -4 223t-132 154.5t-219 90t-266 29.5q-131 0 -247.5 -29.5t-203.5 -90t-138.5 -154.5t-51.5 -223z" />
<glyph unicode="&#xec;" horiz-adv-x="446" d="M184 0v1079l78 13v-1092h-78zM322 1247l-17 -43l-686 240l23 61z" />
<glyph unicode="&#xed;" horiz-adv-x="446" d="M815 1505l23 -61l-686 -240l-17 43zM184 0v1079l78 13v-1092h-78z" />
<glyph unicode="&#xee;" horiz-adv-x="446" d="M223 1434l-420 -254l-20 43l440 276l441 -276l-21 -43zM184 0v1079l78 13v-1092h-78z" />
<glyph unicode="&#xef;" horiz-adv-x="446" d="M4 1440v-215h-61v215h61zM508 1440v-215h-62v215h62zM184 0v1079l78 13v-1092h-78z" />
<glyph unicode="&#xf0;" horiz-adv-x="1773" d="M1227 1075l141 142q-100 90 -237.5 128.5t-296.5 40.5q-127 0 -259 -12l-18 72q66 6 131.5 10t124.5 4q188 0 342 -47t264 -145l191 190l24 -24l-188 -189q98 -98 151.5 -240.5t53.5 -340.5q0 -158 -42 -286t-132.5 -218t-231.5 -140.5t-340 -50.5q-180 0 -325.5 40 t-247 114t-155.5 177t-54 230q0 131 57.5 231.5t154.5 168t222 101.5t260 34q127 0 257 -32t236.5 -93t177.5 -149.5t83 -200.5q14 215 -34 362.5t-142 241.5l-144 -143zM203 528q0 -109 48 -198.5t138 -153t218 -98.5t286 -35q180 0 306 44t204 113.5t112.5 154.5t34.5 167 q0 119 -67.5 208t-173 147.5t-232.5 88t-243 29.5q-123 0 -237 -29.5t-202 -88t-140 -146.5t-52 -203z" />
<glyph unicode="&#xf1;" d="M1505 0v545q0 104 -33.5 193t-104.5 154.5t-181.5 102.5t-263.5 37q-94 0 -191.5 -13t-188.5 -34.5t-173 -48.5t-148 -51v-885h-78v1079l74 13l2 -138l2 -2q66 27 148 54.5t173 49t189 36t197 14.5q172 0 296 -42t203.5 -118t117.5 -178t38 -223v-545h-78zM1255 1386 q-78 -80 -139 -110.5t-115 -30.5q-43 0 -80.5 15.5t-72.5 34t-67.5 33.5t-65.5 15q-39 0 -92.5 -24.5t-120.5 -91.5l-35 37q76 78 136.5 107.5t111.5 29.5q39 0 74.5 -15.5t69.5 -34t69 -33.5t73 -15q41 0 94.5 24.5t125.5 95.5z" />
<glyph unicode="&#xf2;" horiz-adv-x="1679" d="M102 539q0 123 48.5 227t142.5 180t231.5 118t315.5 42t315 -42t231.5 -118t142.5 -180t48 -227t-48 -227.5t-142.5 -180.5t-231.5 -119t-315 -43t-315.5 43t-231.5 119t-142.5 180.5t-48.5 227.5zM182 539q0 -109 43 -199t126 -156.5t206 -103.5t283 -37t282.5 37 t205.5 103.5t126 156.5t43 199q0 106 -43 197t-126 156.5t-206 102.5t-282 37q-160 0 -283 -37t-206 -102.5t-126 -156.5t-43 -197zM1190 1247l-16 -43l-687 240l23 61z" />
<glyph unicode="&#xf3;" horiz-adv-x="1679" d="M1169 1505l23 -61l-686 -240l-17 43zM102 539q0 123 48.5 227t142.5 180t231.5 118t315.5 42t315 -42t231.5 -118t142.5 -180t48 -227t-48 -227.5t-142.5 -180.5t-231.5 -119t-315 -43t-315.5 43t-231.5 119t-142.5 180.5t-48.5 227.5zM182 539q0 -109 43 -199 t126 -156.5t206 -103.5t283 -37t282.5 37t205.5 103.5t126 156.5t43 199q0 106 -43 197t-126 156.5t-206 102.5t-282 37q-160 0 -283 -37t-206 -102.5t-126 -156.5t-43 -197z" />
<glyph unicode="&#xf4;" horiz-adv-x="1679" d="M838 1434l-420 -254l-21 43l441 276l440 -276l-21 -43zM102 539q0 123 48.5 227t142.5 180t231.5 118t315.5 42t315 -42t231.5 -118t142.5 -180t48 -227t-48 -227.5t-142.5 -180.5t-231.5 -119t-315 -43t-315.5 43t-231.5 119t-142.5 180.5t-48.5 227.5zM182 539 q0 -109 43 -199t126 -156.5t206 -103.5t283 -37t282.5 37t205.5 103.5t126 156.5t43 199q0 106 -43 197t-126 156.5t-206 102.5t-282 37q-160 0 -283 -37t-206 -102.5t-126 -156.5t-43 -197z" />
<glyph unicode="&#xf5;" horiz-adv-x="1679" d="M102 539q0 123 48.5 227t142.5 180t231.5 118t315.5 42t315 -42t231.5 -118t142.5 -180t48 -227t-48 -227.5t-142.5 -180.5t-231.5 -119t-315 -43t-315.5 43t-231.5 119t-142.5 180.5t-48.5 227.5zM182 539q0 -109 43 -199t126 -156.5t206 -103.5t283 -37t282.5 37 t205.5 103.5t126 156.5t43 199q0 106 -43 197t-126 156.5t-206 102.5t-282 37q-160 0 -283 -37t-206 -102.5t-126 -156.5t-43 -197zM1233 1386q-78 -80 -139.5 -110.5t-114.5 -30.5q-43 0 -81 15.5t-72.5 34t-67.5 33.5t-66 15q-39 0 -92 -24.5t-121 -91.5l-35 37 q76 78 136.5 107.5t111.5 29.5q39 0 75 -15.5t69.5 -34t68.5 -33.5t74 -15q41 0 94 24.5t125 95.5z" />
<glyph unicode="&#xf6;" horiz-adv-x="1679" d="M618 1440v-215h-61v215h61zM1122 1440v-215h-61v215h61zM102 539q0 123 48.5 227t142.5 180t231.5 118t315.5 42t315 -42t231.5 -118t142.5 -180t48 -227t-48 -227.5t-142.5 -180.5t-231.5 -119t-315 -43t-315.5 43t-231.5 119t-142.5 180.5t-48.5 227.5zM182 539 q0 -109 43 -199t126 -156.5t206 -103.5t283 -37t282.5 37t205.5 103.5t126 156.5t43 199q0 106 -43 197t-126 156.5t-206 102.5t-282 37q-160 0 -283 -37t-206 -102.5t-126 -156.5t-43 -197z" />
<glyph unicode="&#xf7;" horiz-adv-x="1464" d="M762 834h-57v210h57v-210zM1239 565v-57h-1014v57h1014zM762 31h-57v211h57v-211z" />
<glyph unicode="&#xf8;" horiz-adv-x="1679" d="M303 -37l-35 35l88 88q-125 76 -189.5 191.5t-64.5 261.5q0 123 48.5 227t142.5 180t231.5 118t315.5 42q135 0 246.5 -24.5t199.5 -69.5l105 104l34 -35l-98 -96q123 -76 186.5 -190.5t63.5 -255.5q0 -123 -48 -227.5t-142.5 -180.5t-231.5 -119t-315 -43 q-133 0 -243 23.5t-196 68.5zM182 539q0 -129 57.5 -230.5t174.5 -169.5l813 813q-78 39 -174.5 59.5t-212.5 20.5q-160 0 -283 -37t-206 -102.5t-126 -156.5t-43 -197zM1497 539q0 123 -56.5 224t-166.5 167l-813 -811q76 -37 169 -56.5t210 -19.5q160 0 282.5 37 t205.5 103.5t126 156.5t43 199z" />
<glyph unicode="&#xf9;" d="M143 530v545h78v-545q0 -104 34 -194t104.5 -154.5t178 -101.5t257.5 -37q207 0 383 71.5t327 188.5v772h78v-1075h-70l-4 227l-2 2q-63 -49 -142 -96t-170 -83t-195.5 -58.5t-221.5 -22.5q-164 0 -282.5 42t-197.5 118t-117 178t-38 223zM1214 1247l-16 -43l-686 240 l23 61z" />
<glyph unicode="&#xfa;" d="M1192 1505l22 -61l-686 -240l-16 43zM143 530v545h78v-545q0 -104 34 -194t104.5 -154.5t178 -101.5t257.5 -37q207 0 383 71.5t327 188.5v772h78v-1075h-70l-4 227l-2 2q-63 -49 -142 -96t-170 -83t-195.5 -58.5t-221.5 -22.5q-164 0 -282.5 42t-197.5 118t-117 178 t-38 223z" />
<glyph unicode="&#xfb;" d="M862 1434l-420 -254l-20 43l440 276l441 -276l-21 -43zM143 530v545h78v-545q0 -104 34 -194t104.5 -154.5t178 -101.5t257.5 -37q207 0 383 71.5t327 188.5v772h78v-1075h-70l-4 227l-2 2q-63 -49 -142 -96t-170 -83t-195.5 -58.5t-221.5 -22.5q-164 0 -282.5 42 t-197.5 118t-117 178t-38 223z" />
<glyph unicode="&#xfc;" d="M641 1440v-215h-61v215h61zM1145 1440v-215h-62v215h62zM143 530v545h78v-545q0 -104 34 -194t104.5 -154.5t178 -101.5t257.5 -37q207 0 383 71.5t327 188.5v772h78v-1075h-70l-4 227l-2 2q-63 -49 -142 -96t-170 -83t-195.5 -58.5t-221.5 -22.5q-164 0 -282.5 42 t-197.5 118t-117 178t-38 223z" />
<glyph unicode="&#xfd;" horiz-adv-x="1675" d="M61 1075h93l381 -563l311 -459l676 1022h92l-762 -1155q-61 -92 -120.5 -151.5t-120 -95t-122 -50t-127.5 -14.5q-59 0 -120.5 8t-126.5 23v65q59 -12 120.5 -22.5t118.5 -10.5q129 0 228.5 62.5t195.5 204.5l29 45zM1167 1505l23 -61l-686 -240l-17 43z" />
<glyph unicode="&#xfe;" horiz-adv-x="1746" d="M219 246l2 -287v-348h-78v1841l78 12v-379l-2 -133l2 -2q70 33 157 61.5t182 50t192.5 33t187.5 11.5q176 0 308 -43t220 -118t132.5 -178t44.5 -226q0 -125 -45.5 -229.5t-132.5 -180.5t-214 -119t-288 -43q-117 0 -223.5 21.5t-199.5 59.5t-174 88t-147 110zM936 1032 q-88 0 -186.5 -11t-193.5 -31.5t-181 -47.5t-154 -57v-561q59 -57 140 -108.5t176.5 -89.5t202 -60.5t221.5 -22.5q145 0 257.5 37t189.5 103.5t117 156.5t40 199q0 106 -39 196t-118 156.5t-196.5 103.5t-275.5 37z" />
<glyph unicode="&#xff;" horiz-adv-x="1675" d="M61 1075h93l381 -563l311 -459l676 1022h92l-762 -1155q-61 -92 -120.5 -151.5t-120 -95t-122 -50t-127.5 -14.5q-59 0 -120.5 8t-126.5 23v65q59 -12 120.5 -22.5t118.5 -10.5q129 0 228.5 62.5t195.5 204.5l29 45zM616 1440v-215h-61v215h61zM1120 1440v-215h-61v215 h61z" />
<glyph unicode="&#x152;" horiz-adv-x="3407" d="M1845 0v233q-119 -123 -308 -193.5t-452 -70.5q-238 0 -418 57.5t-300.5 157t-182 236.5t-61.5 297t61.5 297t182 236.5t301 156.5t417.5 57q264 0 452.5 -71.5t307.5 -196.5v238h1555v-74h-1477v-586h1354v-74h-1354v-626h1518v-74h-1596zM1085 43q279 0 467.5 79 t292.5 216v756q-104 137 -293.5 217t-466.5 80q-219 0 -383.5 -51.5t-275.5 -141.5t-167 -214t-56 -267q0 -145 56 -268t167 -213.5t275.5 -141.5t383.5 -51z" />
<glyph unicode="&#x153;" horiz-adv-x="3004" d="M102 539q0 123 45.5 227t135.5 180t224 118t312 42q145 0 261 -29.5t201 -83t139.5 -128t76.5 -167.5q23 88 73 163t131 129t193.5 85t259.5 31q174 0 320.5 -40t242 -120t129 -199.5t-15.5 -277.5h-1290q20 -211 190.5 -318.5t514.5 -107.5q109 0 205 9t172.5 21.5 t130 26t77.5 23.5l17 -68q-27 -10 -82 -24.5t-133 -28.5t-176.5 -23.5t-208.5 -9.5q-338 0 -522.5 102.5t-231.5 297.5q-47 -178 -216 -289t-458 -111q-178 0 -312 43t-224 119t-135.5 180.5t-45.5 227.5zM1456 539q0 106 -40 197t-118.5 156.5t-198.5 102.5t-280 37 t-279.5 -37t-198.5 -102.5t-119 -156.5t-40 -197q0 -109 40 -199t119 -156.5t198.5 -103.5t279.5 -37t280 37t198.5 103.5t118.5 156.5t40 199zM2759 526q37 135 -1 231.5t-125 158t-212 90t-262 28.5q-158 0 -276 -38t-195.5 -105.5t-114.5 -160.5t-35 -204h1221z" />
<glyph unicode="&#x178;" horiz-adv-x="2052" d="M2032 1434l-967 -985v-449h-78v449l-967 985h101l352 -359l553 -561l553 561l352 359h101zM805 1798v-215h-62v215h62zM1309 1798v-215h-62v215h62z" />
<glyph unicode="&#x2c6;" horiz-adv-x="1744" d="M772 1434l-420 -254l-20 43l440 276l440 -276l-20 -43z" />
<glyph unicode="&#x2dc;" horiz-adv-x="1744" d="M1192 1386q-78 -80 -139.5 -110.5t-114.5 -30.5q-43 0 -81 15.5t-72.5 34t-67.5 33.5t-66 15q-39 0 -92 -24.5t-121 -91.5l-35 37q76 78 136.5 107.5t111.5 29.5q39 0 75 -15.5t69.5 -34t68.5 -33.5t74 -15q41 0 94 24.5t125 95.5z" />
<glyph unicode="&#x2000;" horiz-adv-x="932" />
<glyph unicode="&#x2001;" horiz-adv-x="1864" />
<glyph unicode="&#x2002;" horiz-adv-x="932" />
<glyph unicode="&#x2003;" horiz-adv-x="1864" />
<glyph unicode="&#x2004;" horiz-adv-x="621" />
<glyph unicode="&#x2005;" horiz-adv-x="466" />
<glyph unicode="&#x2006;" horiz-adv-x="310" />
<glyph unicode="&#x2007;" horiz-adv-x="310" />
<glyph unicode="&#x2008;" horiz-adv-x="233" />
<glyph unicode="&#x2009;" horiz-adv-x="372" />
<glyph unicode="&#x200a;" horiz-adv-x="103" />
<glyph unicode="&#x2010;" horiz-adv-x="1464" d="M246 713h973v-66h-973v66z" />
<glyph unicode="&#x2011;" horiz-adv-x="1464" d="M246 713h973v-66h-973v66z" />
<glyph unicode="&#x2012;" horiz-adv-x="1464" d="M246 713h973v-66h-973v66z" />
<glyph unicode="&#x2013;" horiz-adv-x="1628" d="M266 606v64h1096v-64h-1096z" />
<glyph unicode="&#x2014;" horiz-adv-x="2365" d="M266 670h1833v-64h-1833v64z" />
<glyph unicode="&#x2018;" horiz-adv-x="475" d="M236 922q-31 94 -29 233t39 279h51q-10 -61 -16.5 -130t-4 -136.5t10.5 -131t24 -114.5h-75z" />
<glyph unicode="&#x2019;" horiz-adv-x="475" d="M242 1434q14 -47 21 -106.5t6 -127t-11 -138.5t-29 -140h-49q10 61 15.5 129.5t4.5 136t-10.5 130t-25.5 116.5h78z" />
<glyph unicode="&#x201a;" horiz-adv-x="475" d="M242 295q14 -47 21 -106.5t6 -127t-11 -138t-29 -140.5h-49q10 61 15.5 130t4.5 136.5t-10.5 130t-25.5 115.5h78z" />
<glyph unicode="&#x201c;" horiz-adv-x="878" d="M637 922q-14 47 -21.5 106t-6.5 127t11.5 138.5t28.5 140.5h49q-10 -61 -15 -130t-4 -136.5t10 -131t26 -114.5h-78zM236 922q-31 94 -29 233t39 279h51q-10 -61 -16.5 -130t-4 -136.5t10.5 -131t24 -114.5h-75z" />
<glyph unicode="&#x201d;" horiz-adv-x="878" d="M242 1434q14 -47 21 -106.5t6 -127t-11 -138.5t-29 -140h-49q10 61 15.5 129.5t4.5 136t-10.5 130t-25.5 116.5h78zM643 1434q31 -94 29 -233.5t-41 -278.5h-49q10 61 15 129.5t4 136t-10 130t-26 116.5h78z" />
<glyph unicode="&#x201e;" horiz-adv-x="878" d="M242 295q14 -47 21 -106.5t6 -127t-11 -138t-29 -140.5h-49q10 61 15.5 130t4.5 136.5t-10.5 130t-25.5 115.5h78zM643 295q31 -94 29 -233.5t-41 -278.5h-49q10 61 15 130t4 136.5t-10 130t-26 115.5h78z" />
<glyph unicode="&#x2022;" horiz-adv-x="661" d="M123 731q0 74 49 123t160 49q109 0 158 -49t49 -123q0 -78 -49.5 -129t-157.5 -51q-111 0 -160 51t-49 129z" />
<glyph unicode="&#x2026;" horiz-adv-x="1320" d="M297 297v-297h-72v297h72zM696 297v-297h-71v297h71zM1096 297v-297h-72v297h72z" />
<glyph unicode="&#x202f;" horiz-adv-x="372" />
<glyph unicode="&#x2039;" horiz-adv-x="978" d="M778 1106l37 -45l-563 -471l563 -469l-37 -45l-614 514z" />
<glyph unicode="&#x203a;" horiz-adv-x="978" d="M815 590l-614 -514l-37 45l563 469l-563 471l37 45z" />
<glyph unicode="&#x205f;" horiz-adv-x="466" />
<glyph unicode="&#x20ac;" horiz-adv-x="1826" d="M61 856v49h162q29 154 103.5 260.5t183 173t244 96t284.5 29.5q162 0 331 -30.5t335 -83.5l-18 -72q-158 51 -323 82t-321 31q-135 0 -255.5 -26t-218 -84t-166 -150.5t-95.5 -225.5h1131v-49h-1145q-14 -147 0 -278h1145v-50h-1131q27 -133 95.5 -226t166 -150.5 t218 -83t255.5 -25.5q156 0 321 30.5t323 82.5l18 -72q-166 -53 -335 -84t-331 -31q-150 0 -285 30t-243.5 96.5t-183 173t-103.5 259.5h-162v50h152q-10 72 -9 141t9 137h-152z" />
<glyph unicode="&#x2122;" horiz-adv-x="2295" d="M1587 780l-479 580l2 -123v-592h-51v789h49l498 -603l499 603h47v-789h-49v715l-479 -580h-37zM582 1386v-741h-50v741h-409v48h868v-48h-409z" />
<glyph unicode="&#x25fc;" horiz-adv-x="1075" d="M0 1075h1075v-1075h-1075v1075z" />
</font>
</defs>
</svg>
