<?xml version="1.0" standalone="no"?>
<!DOCTYPE svg PUBLIC "-//W3C//DTD SVG 1.1//EN" "http://www.w3.org/Graphics/SVG/1.1/DTD/svg11.dtd" >
<svg xmlns="http://www.w3.org/2000/svg">
<metadata></metadata>
<defs>
<font id="halogenmedium_oblique" horiz-adv-x="1675" >
<font-face units-per-em="2048" ascent="1536" descent="-512" />
<missing-glyph horiz-adv-x="872" />
<glyph unicode="&#xfb01;" horiz-adv-x="1329" d="M948 0l125 891h-547l-125 -891h-221l125 891h-143l26 184h142l2 10q18 106 51 178t79 116t106.5 63.5t136.5 19.5q100 0 227 -28l-23 -170q-51 8 -92 12t-76 4q-86 0 -128 -45t-60 -150l-2 -10h549l223 15l-154 -1090h-221zM1118 1204l33 246h221l-33 -246h-221z" />
<glyph unicode="&#xfb02;" horiz-adv-x="1259" d="M1094 1278q-78 10 -146.5 16t-120.5 6q-72 0 -120 -13t-78.5 -40.5t-48 -67.5t-27.5 -94l-2 -10h254l-27 -184h-252l-125 -891h-221l125 891h-143l26 184h142l2 10q18 106 51 180t85 119.5t128 64.5t182 19q70 0 155 -7t183 -21l223 24l-204 -1464h-222z" />
<glyph unicode="&#xfb03;" horiz-adv-x="2117" d="M1739 0l125 891h-549l-125 -891h-221l125 891h-568l-125 -891h-221l125 891h-143l26 184h142l2 10q18 106 51 178t79 116t106.5 63.5t136.5 19.5q100 0 227 -28l-23 -170q-51 8 -92 12t-76 4q-86 0 -128 -45t-60 -150l-2 -10h567l2 10q18 106 51 178t79 116t107.5 63.5 t137.5 19.5q100 0 227 -28l-22 -170q-53 8 -93 12t-75 4q-86 0 -129 -45t-62 -150l-2 -10h551l224 15l-154 -1090h-221zM1909 1204l33 246h221l-33 -246h-221z" />
<glyph unicode="&#xfb04;" horiz-adv-x="2048" d="M1704 0l180 1278q-78 10 -146.5 16t-121.5 6q-72 0 -120 -13t-79 -40.5t-48 -67.5t-28 -94l-2 -10h256l-26 -184h-254l-125 -891h-221l125 891h-568l-125 -891h-221l125 891h-143l26 184h142l2 10q18 106 51 178t79 116t106.5 63.5t136.5 19.5q100 0 227 -28l-23 -170 q-51 8 -92 12t-76 4q-86 0 -128 -45t-60 -150l-2 -10h567l2 10q18 106 51 180t86.5 119.5t129 64.5t180.5 19q72 0 156.5 -7t183.5 -21l223 24l-205 -1464h-221z" />
<glyph horiz-adv-x="0" />
<glyph unicode="&#xd;" horiz-adv-x="872" />
<glyph horiz-adv-x="0" />
<glyph horiz-adv-x="0" />
<glyph unicode=" "  horiz-adv-x="872" />
<glyph unicode="&#x09;" horiz-adv-x="872" />
<glyph unicode="&#xa0;" horiz-adv-x="872" />
<glyph unicode="!" horiz-adv-x="620" d="M451 297l-41 -297h-199l41 297h199zM401 1434h220l-154 -963h-182z" />
<glyph unicode="&#x22;" horiz-adv-x="946" d="M586 1464q-10 -74 -23.5 -148.5t-28 -141t-27.5 -122t-22 -89.5h-141q0 35 3 90t8 121.5t12.5 141.5t17.5 148h201zM971 1464q-10 -74 -23.5 -148.5t-28 -141t-26.5 -122t-21 -89.5h-141q0 35 2 90t7 121.5t12.5 141.5t17.5 148h201z" />
<glyph unicode="#" horiz-adv-x="1685" d="M514 416h-356l37 121h356l133 417h-354l37 121h356l115 359h120l-116 -359h420l114 359h121l-117 -359h361l-37 -121h-361l-133 -417h359l-37 -121h-358l-115 -359h-121l115 359h-418l-115 -359h-121zM672 537h418l133 417h-418z" />
<glyph unicode="$" horiz-adv-x="1658" d="M223 303q45 -18 108.5 -37.5t139.5 -37t161 -31t171 -19.5l59 430q-115 8 -226.5 23.5t-200.5 53.5t-144 105.5t-55 178.5q0 145 69.5 240.5t178 150.5t240.5 77.5t259 24.5l18 135h121l-18 -137q160 -6 301 -31.5t242 -54.5l-76 -203q-29 10 -80 22.5t-116.5 25 t-142.5 22.5t-157 14l-63 -446q113 -8 222 -21.5t196.5 -49.5t140.5 -98t53 -169q0 -135 -62.5 -229.5t-166 -152.5t-234.5 -86t-266 -32l-21 -135h-120l20 135q-186 6 -352 44t-287 91zM1395 430q0 51 -34 82t-91.5 48.5t-131 25.5t-155.5 14l-59 -426q88 0 173 14.5 t151.5 44t106.5 77.5t40 120zM467 1010q0 -57 34 -92t92 -55.5t136 -30t164 -15.5l61 443q-82 0 -169 -11.5t-157.5 -39t-115.5 -75.5t-45 -124z" />
<glyph unicode="%" horiz-adv-x="2088" d="M690 815q152 0 233 73t95 181q14 106 -46.5 179t-209.5 73q-154 0 -236 -72.5t-98 -179.5q-14 -109 48 -181.5t214 -72.5zM268 1069q12 84 51 155.5t103.5 125t154 84t203.5 30.5q113 0 195 -30.5t131 -84t67.5 -125t6.5 -155.5t-50 -156.5t-102.5 -126t-155 -84 t-202.5 -30.5q-115 0 -196 30.5t-131 84t-68.5 126t-6.5 156.5zM373 31q756 700 1462 1456l80 -82q-381 -354 -743.5 -715.5t-718.5 -742.5zM1270 332q0 -94 63.5 -156.5t200.5 -62.5q84 0 146.5 22.5t103.5 62.5t61.5 92t20.5 111q0 92 -62.5 154.5t-199.5 62.5 q-84 0 -147.5 -22.5t-104.5 -62t-61.5 -92t-20.5 -109.5zM1108 313q0 92 33 174t98.5 142.5t161.5 96.5t223 36q102 0 178 -25.5t126 -72t75 -108.5t25 -136q0 -92 -33 -174t-98.5 -143.5t-162 -97.5t-221.5 -36q-102 0 -179 25.5t-127 72t-74.5 109.5t-24.5 137z" />
<glyph unicode="&#x26;" horiz-adv-x="2023" d="M1599 639l29 203h438l-30 -207h-219q-37 -180 -130.5 -306t-228.5 -206t-306 -117t-361 -37q-125 0 -241 17.5t-205 59.5t-143.5 112.5t-54.5 175.5q0 96 35 163.5t104.5 113.5t176 74t252.5 40q-227 25 -331.5 92.5t-104.5 200.5q0 131 67.5 217t178 137t250.5 71.5 t286 20.5q100 0 198.5 -8t184.5 -20.5t157.5 -27.5t120.5 -28l-75 -202q-35 8 -99.5 22t-148.5 26.5t-180.5 21.5t-192.5 9q-102 0 -196.5 -12t-167 -39.5t-116.5 -74t-44 -113.5q0 -51 34.5 -85t109.5 -54.5t193.5 -28.5t288.5 -8l-30 -209q-186 0 -321.5 -14.5t-224.5 -44 t-132 -79t-43 -120.5q0 -61 38 -99t99 -60.5t138 -31t155 -8.5q354 0 557.5 123t234.5 340z" />
<glyph unicode="'" horiz-adv-x="559" d="M586 1464q-10 -74 -23.5 -148.5t-28 -141t-27.5 -122t-22 -89.5h-141q0 35 3 90t8 121.5t12.5 141.5t17.5 148h201z" />
<glyph unicode="(" horiz-adv-x="823" d="M545 -410q-86 94 -149.5 219t-102.5 264.5t-50.5 290t9.5 298.5q20 147 73.5 297.5t132.5 290t177 263t211 220.5l112 -70q-203 -203 -330.5 -461t-168.5 -540q-41 -283 16 -541t201 -461z" />
<glyph unicode=")" horiz-adv-x="823" d="M51 -340q199 203 329 461t171 541q39 283 -18.5 540.5t-200.5 460.5l131 70q86 -96 150.5 -220t103.5 -263.5t50 -290t-9 -297.5t-73.5 -298t-132.5 -290.5t-178.5 -264t-211.5 -219.5z" />
<glyph unicode="*" horiz-adv-x="1460" d="M1036 1464q-10 -72 -26.5 -146.5t-35 -148t-36.5 -143.5t-35 -129q53 37 114.5 79t127 86t135.5 86t137 79l74 -174q-68 -37 -139.5 -70t-143 -62.5t-140.5 -56t-126 -51.5q104 -47 235.5 -106.5t245.5 -131.5l-123 -174q-117 72 -225 164t-194 164q0 -59 -1 -128 t-3.5 -142.5t-7.5 -149.5t-15 -145h-201q10 70 25.5 145.5t34 149t37 142.5t34.5 128q-53 -35 -114.5 -78t-127 -86t-134 -86t-136.5 -78l-73 174q66 35 137.5 68t142 62.5t138 56t126.5 51.5q-51 25 -111.5 51.5t-123 56t-124.5 62.5t-118 70l123 174q57 -37 113.5 -79 t110 -86t102.5 -86t92 -79q2 121 5 272.5t24 294.5h200z" />
<glyph unicode="+" horiz-adv-x="1413" d="M719 612l61 432h150l-62 -432h432l-20 -149h-432l-62 -432h-149l61 432h-432l21 149h432z" />
<glyph unicode="," horiz-adv-x="600" d="M438 297q8 -53 4 -116.5t-21.5 -131t-46 -135.5t-67.5 -129h-127q16 59 30.5 128t22 136.5t8.5 131t-10 116.5h207z" />
<glyph unicode="-" horiz-adv-x="1413" d="M330 768h973l-25 -174h-973z" />
<glyph unicode="." horiz-adv-x="600" d="M440 297l-41 -297h-198l41 297h198z" />
<glyph unicode="/" horiz-adv-x="858" d="M1010 1464l-756 -1495h-201l756 1495h201z" />
<glyph unicode="0" horiz-adv-x="1914" d="M199 717q23 158 95.5 294t194 237.5t290.5 158.5t384 57t367.5 -57t247 -158.5t129.5 -238t12 -293.5q-23 -158 -95.5 -294t-194.5 -237.5t-291 -159t-384 -57.5t-367.5 57.5t-246.5 159t-129 237.5t-12 294zM424 717q-16 -115 8.5 -214.5t92 -172t181 -113.5t277.5 -41 q162 0 288 41t214 113.5t139 172t68 214.5q16 115 -8.5 214t-92 172t-181.5 113.5t-275 40.5q-164 0 -289 -40.5t-214 -113.5t-140.5 -172t-67.5 -214z" />
<glyph unicode="1" horiz-adv-x="1402" d="M106 207h515l141 1007l-467 -131l-39 177l541 174h217l-172 -1227h514l-29 -207h-1249z" />
<glyph unicode="2" horiz-adv-x="1669" d="M129 0l29 207q252 92 481 191.5t405.5 204t281 213t104.5 216.5q0 78 -54.5 123t-130.5 67.5t-158.5 28.5t-140.5 6q-88 0 -166 -6t-151.5 -16t-147 -24.5t-151.5 -32.5l-17 202q172 43 325 63.5t308 20.5q63 0 142 -4t159 -18.5t156 -40t133 -67.5t93 -102.5t36 -144.5 q0 -133 -88 -256.5t-244.5 -235.5t-374 -210t-473.5 -178h1096l-29 -207h-1423z" />
<glyph unicode="3" horiz-adv-x="1644" d="M330 1178l-17 202q170 43 324 63.5t319 20.5q61 0 138 -4t156 -16t154 -35t133 -62.5t94 -98t36 -140.5q0 -86 -32.5 -151.5t-102.5 -111.5t-177.5 -77t-256.5 -47q125 -10 220 -29.5t158.5 -54.5t96.5 -87t33 -126q0 -129 -64.5 -216t-170 -139.5t-241 -75t-278.5 -22.5 q-113 0 -223.5 11.5t-207.5 31t-177 43t-131 47.5l88 199q49 -23 125.5 -44t169 -39.5t195 -30t200.5 -11.5t187 13.5t157 44t107.5 82t39.5 126.5q0 70 -52 110t-159.5 60.5t-269.5 25.5t-383 5h-61l20 143h62q250 0 420.5 11.5t275 40t151 79t46.5 130.5q0 51 -24 86.5 t-63.5 58.5t-91 36t-105.5 19t-106.5 7t-95.5 1q-88 0 -166 -6t-151.5 -16t-147 -24.5t-151.5 -32.5z" />
<glyph unicode="4" horiz-adv-x="1673" d="M1411 289l-41 -289h-221l41 289h-1051l29 205l1184 940h221l-133 -938h186l-33 -207h-182zM1276 897l47 309l-655 -524l-248 -186h799z" />
<glyph unicode="5" d="M113 102l88 199q49 -20 125.5 -41.5t171 -40t197 -30t202.5 -11.5q102 0 195.5 14.5t165 48t114.5 89t43 137.5q0 74 -48 125t-132 82t-195.5 44t-240.5 13q-117 0 -244 -12t-256 -35l143 750h1282l-28 -207h-1073l-74 -381q201 41 385 41q154 0 284 -21.5t225 -68.5 t148.5 -124t53.5 -188q0 -147 -68 -245.5t-180.5 -159t-256 -85t-292.5 -24.5q-113 0 -222.5 11.5t-206.5 30t-176 41.5t-130 48z" />
<glyph unicode="6" horiz-adv-x="1722" d="M422 741q55 76 134 131.5t171 92t190.5 55t194.5 18.5q119 0 226.5 -29.5t188.5 -87t129 -142.5t48 -197q0 -137 -61.5 -250t-175 -194t-272.5 -125t-351 -44q-178 0 -303 42t-205 118t-117 183.5t-37 238.5q0 250 76 423t207 281.5t306 157.5t372 49q143 0 290.5 -21.5 t286.5 -60.5l-73 -202q-49 12 -113 26.5t-135.5 26.5t-149.5 20.5t-155 8.5q-117 0 -225.5 -25t-199.5 -85t-155.5 -159.5t-91.5 -249.5zM887 174q135 0 244.5 27.5t185.5 77t117 120t41 156.5q0 70 -32 125t-89.5 94t-140.5 59.5t-183 20.5q-57 0 -125.5 -7t-137.5 -24.5 t-134.5 -45t-115.5 -68.5t-79.5 -96.5t-29.5 -127.5q0 -63 28.5 -119.5t87 -99.5t148.5 -67.5t215 -24.5z" />
<glyph unicode="7" horiz-adv-x="1597" d="M637 0h-270l1067 1233l-1196 -6l28 207h1456l-26 -193z" />
<glyph unicode="8" horiz-adv-x="1722" d="M887 178q115 0 218 13.5t182 44t125 81t46 123.5q0 106 -136 153.5t-370 47.5q-133 0 -238.5 -13.5t-179 -43t-113.5 -75.5t-40 -112q0 -61 40 -103t108.5 -67.5t161 -37t196.5 -11.5zM973 793q252 0 393 57t141 184q0 70 -43 113t-111.5 67.5t-151.5 33.5t-163 9 q-90 0 -185 -11t-174 -39.5t-130 -81t-51 -134.5q0 -104 125 -151t350 -47zM1067 1464q117 0 236.5 -17t218 -59t160 -112t61.5 -176q0 -92 -49 -159t-126 -112t-172.5 -71.5t-185.5 -36.5q94 -10 179.5 -31.5t150 -59.5t102 -94.5t37.5 -136.5q0 -123 -71.5 -205.5 t-187 -132t-263 -71t-299.5 -21.5q-137 0 -265 17.5t-227.5 59.5t-160 109.5t-60.5 170.5q0 100 47.5 169.5t125 115.5t180 72t213.5 38q-78 8 -155 30.5t-138.5 60.5t-100 92t-38.5 128q0 125 74.5 209t189 133t255 69.5t269.5 20.5z" />
<glyph unicode="9" horiz-adv-x="1722" d="M1503 692q-55 -74 -134 -130t-171 -93t-191.5 -55.5t-195.5 -18.5q-119 0 -225.5 30t-187.5 87t-129 142t-48 198q0 137 62.5 249.5t175 193.5t271.5 125t353 44q178 0 303 -42t205 -117.5t117 -183t37 -238.5q0 -250 -77 -423t-208 -281.5t-307 -158t-373 -49.5 q-143 0 -290.5 21.5t-284.5 60.5l76 203q49 -12 111.5 -25.5t134 -25.5t149.5 -20.5t155 -8.5q117 0 225.5 24.5t199 84t154.5 158.5t93 249zM1040 1260q-137 0 -245.5 -27t-185.5 -77t-117.5 -120.5t-40.5 -156.5q0 -70 31.5 -125.5t89 -94t139.5 -59t184 -20.5q57 0 126 7 t137.5 24.5t134 45t115.5 68.5t80 96.5t30 126.5q0 63 -29 119.5t-87.5 99.5t-148.5 68t-213 25z" />
<glyph unicode=":" horiz-adv-x="600" d="M453 379l-41 -297h-199l41 297h199zM535 963l-41 -297h-199l41 297h199z" />
<glyph unicode=";" horiz-adv-x="600" d="M535 963l-43 -297h-199l43 297h199zM438 297q8 -53 4 -116.5t-21.5 -131t-46 -135.5t-67.5 -129h-127q16 59 30.5 128t22 136.5t8.5 131t-10 116.5h207z" />
<glyph unicode="&#x3c;" horiz-adv-x="1198" d="M1182 1001l-783 -327l691 -326l-23 -164l-823 408l22 162l938 409z" />
<glyph unicode="=" horiz-adv-x="1413" d="M1266 367l-21 -150h-1014l21 150h1014zM1335 858l-20 -149h-1014l21 149h1013z" />
<glyph unicode="&#x3e;" horiz-adv-x="1198" d="M324 1163l823 -409l-23 -162l-938 -408l23 164l782 326l-690 327z" />
<glyph unicode="?" horiz-adv-x="1609" d="M729 471q18 94 75.5 155.5t133.5 105.5t160 75t153.5 64.5t115.5 75.5t46 108q0 68 -55 108.5t-134 61t-165 26.5t-148 6q-156 0 -302 -22.5t-300 -56.5l-16 202q172 43 325.5 63.5t311.5 20.5q66 0 143.5 -4t157.5 -18.5t154.5 -39t132 -65.5t92.5 -100t35 -141 q0 -111 -45.5 -179.5t-116 -112.5t-156.5 -73t-168 -61.5t-148.5 -77.5t-97.5 -121h-184zM897 297l-43 -297h-201l43 297h201z" />
<glyph unicode="@" horiz-adv-x="2056" d="M1354 -221q-166 -49 -365 -49q-195 0 -346 47t-254.5 133t-157 206t-53.5 267q0 184 72 339t204 266.5t321.5 174t422.5 62.5q186 0 339 -41t261.5 -117t167.5 -184.5t59 -245.5q0 -139 -45 -245.5t-115.5 -178.5t-154.5 -108.5t-164 -36.5q-76 0 -133 37.5t-74 111.5h-2 q-23 -16 -62.5 -41.5t-95 -50.5t-123 -42t-145.5 -17q-190 0 -283 87t-93 228q0 119 46 212t126.5 157.5t189.5 98.5t233 34q57 0 103.5 -7.5t85.5 -18.5t73.5 -26.5t69.5 -31.5l2 2l21 49h151l-120 -526q-16 -66 5 -101t68 -35q45 0 99.5 29t101.5 82t79 132t32 179 q0 117 -52.5 209t-147.5 155.5t-227.5 96.5t-291.5 33q-201 0 -364 -51.5t-277.5 -144.5t-177 -223t-62.5 -286q0 -123 47 -224t137 -174t221.5 -112t299.5 -39q162 0 307 41zM963 215q74 0 140 15.5t118.5 38t89.5 50t53 50.5l68 299q-84 29 -155 48t-163 19 q-78 0 -152.5 -18.5t-133 -57t-93.5 -100t-35 -145.5q0 -88 64 -143.5t199 -55.5z" />
<glyph unicode="A" horiz-adv-x="1986" d="M1991 0h-254l-160 328h-1079l-248 -328h-256l1073 1434h254zM711 614l-64 -79h842l-41 79l-281 625z" />
<glyph unicode="B" horiz-adv-x="1994" d="M139 0l201 1434h1135q109 0 196.5 -16.5t150 -54.5t96.5 -97.5t34 -145.5q0 -78 -20.5 -136t-57.5 -101t-89 -74t-116 -53q63 -14 116.5 -38t91.5 -60.5t59.5 -88t21.5 -120.5q0 -96 -32 -178.5t-101.5 -141.5t-178 -94t-264.5 -35h-1243zM451 635l-62 -428h1022 q184 0 264 68.5t80 183.5q0 53 -23.5 87t-66.5 54.5t-104.5 27.5t-137.5 7h-972zM1446 1227h-914l-53 -385h869q94 0 166.5 8t122 31.5t75 65.5t25.5 112q0 92 -73 130t-218 38z" />
<glyph unicode="C" horiz-adv-x="1959" d="M1896 84q-37 -12 -104.5 -31.5t-162.5 -38t-215 -32t-263 -13.5q-254 0 -436.5 50.5t-299 137.5t-171 206.5t-54.5 261.5q0 174 68 327.5t210 267t363.5 179t528.5 65.5q143 0 260 -13t207 -31.5t151.5 -38t94.5 -31.5l-78 -199q-125 39 -289 72.5t-375 33.5 q-248 0 -421 -47t-282.5 -128t-159.5 -191.5t-50 -239.5q0 -104 42 -191t134 -149.5t236.5 -98.5t349.5 -36q211 0 384 34t308 73z" />
<glyph unicode="D" horiz-adv-x="1994" d="M139 0l201 1434h702q254 0 437.5 -45.5t300 -128t172 -198.5t55.5 -255q0 -176 -66.5 -323.5t-208 -255t-361.5 -168t-529 -60.5h-703zM532 1227l-143 -1020h481q246 0 419 41t281.5 116.5t158 181t49.5 234.5q0 102 -43 185.5t-135.5 141.5t-236.5 89t-349 31h-482z" />
<glyph unicode="E" horiz-adv-x="1830" d="M139 0l201 1434h1554l-28 -207h-1334l-53 -385h1211l-29 -207h-1210l-62 -428h1374l-28 -207h-1596z" />
<glyph unicode="F" horiz-adv-x="1748" d="M451 635l-91 -635h-221l201 1434h1554l-28 -207h-1334l-53 -385h1211l-29 -207h-1210z" />
<glyph unicode="G" horiz-adv-x="2164" d="M1157 614l29 207h977l-21 -147q-29 -199 -125 -333t-240.5 -217t-326.5 -119t-383 -36q-221 0 -386 50.5t-273.5 137.5t-163 207.5t-54.5 262.5q0 174 68 326.5t210 266t363.5 179t528.5 65.5q143 0 260 -14t206 -32.5t151.5 -38t95.5 -29.5l-78 -197q-125 39 -289 71.5 t-375 32.5q-248 0 -421 -47t-282.5 -128t-159.5 -191.5t-50 -237.5q0 -104 42 -192t126 -150.5t211 -98.5t299 -36t315 28.5t249.5 82t171 132.5t79.5 181l2 14h-756z" />
<glyph unicode="H" horiz-adv-x="1955" d="M1597 0l91 635h-1237l-91 -635h-221l201 1434h221l-82 -592h1237l82 592h221l-200 -1434h-222z" />
<glyph unicode="I" horiz-adv-x="497" d="M340 1434h221l-201 -1434h-221z" />
<glyph unicode="J" horiz-adv-x="1761" d="M125 281q76 -23 149.5 -42.5t153.5 -32.5t169 -21.5t196 -8.5q145 0 266 18.5t210 64.5t144 122t72 192l121 861h221l-121 -861q-45 -317 -282.5 -460.5t-667.5 -143.5q-147 0 -263 14.5t-202 33t-145.5 38t-96.5 29.5z" />
<glyph unicode="K" horiz-adv-x="1953" d="M1919 0h-342l-844 635h-282l-91 -635h-221l201 1434h221l-82 -592h285l981 592h328l-592 -359l-566 -338l521 -379z" />
<glyph unicode="L" horiz-adv-x="1728" d="M139 0l201 1434h221l-172 -1227h1272l-29 -207h-1493z" />
<glyph unicode="M" horiz-adv-x="2340" d="M1139 258l-625 881l-22 -211l-132 -928h-221l201 1434h219l680 -959l944 959h221l-200 -1434h-222l132 928l32 211l-870 -881h-137z" />
<glyph unicode="N" horiz-adv-x="1986" d="M1829 1434h221l-201 -1434h-221l-1112 1155l-22 -205l-134 -950h-221l201 1434h219l1112 -1155l27 210z" />
<glyph unicode="O" horiz-adv-x="2119" d="M199 717q23 160 102.5 297t214.5 236.5t323.5 156.5t426.5 57t409.5 -57t279 -156.5t149.5 -236.5t20 -297q-23 -160 -104 -297t-216 -236.5t-322.5 -157t-424.5 -57.5q-238 0 -410 57.5t-279.5 157t-149.5 236.5t-19 297zM424 717q-16 -117 15.5 -216.5t112.5 -172 t214 -112.5t319 -40t330 40t245 112.5t160.5 172t75.5 216.5t-14.5 216t-112 172t-214 112.5t-318.5 39.5t-330.5 -39.5t-246 -112.5t-161 -172t-75.5 -216z" />
<glyph unicode="P" horiz-adv-x="1904" d="M139 0l201 1434h1073q113 0 214.5 -22.5t176 -73t118.5 -133.5t44 -201q0 -164 -57.5 -275t-153.5 -180.5t-222 -99t-261 -29.5h-852l-60 -420h-221zM532 1227l-83 -600h866q88 0 164.5 17.5t134 58t90.5 107.5t33 163q0 70 -25.5 119t-71 78.5t-108 43t-133.5 13.5h-867 z" />
<glyph unicode="Q" horiz-adv-x="2119" d="M1806 -354q-219 0 -382.5 7t-269 39t-153 97.5t-34.5 181.5q-195 10 -341.5 63.5t-242.5 140.5t-144.5 203t-48.5 249q0 174 71 327.5t207 266t337 178t461 65.5q217 0 378.5 -50t270 -138t163 -209t54.5 -262q0 -166 -64.5 -313.5t-189.5 -259t-309.5 -180t-421.5 -81.5 q2 -49 48 -75.5t134 -39t215 -15.5t291 -3zM418 651q0 -104 40 -191t123 -149.5t208.5 -98.5t295.5 -36q203 0 356.5 46t256 128t154 192.5t51.5 239.5q0 104 -40 191.5t-123 150t-208 98t-295 35.5q-205 0 -358.5 -46t-256 -128t-153.5 -192.5t-51 -239.5z" />
<glyph unicode="R" horiz-adv-x="1923" d="M340 1434h1137q104 0 195 -20.5t157.5 -67t104.5 -121t38 -181.5q0 -147 -50 -247.5t-136 -162t-199.5 -88t-238.5 -26.5h-86l626 -520h-344l-598 512h-514l-72 -512h-221zM1378 719q76 0 142.5 15.5t116 50t77 90t27.5 137.5q0 59 -21.5 100t-59.5 66.5t-91 37 t-115 11.5h-922l-71 -508h917z" />
<glyph unicode="S" horiz-adv-x="1894" d="M948 -31q-211 0 -423 36t-410 108l86 196q195 -66 390 -100.5t425 -34.5q45 0 108.5 3t132 13.5t135 28t120 46t86 69.5t32.5 98q0 51 -38 82t-109.5 48.5t-174 25.5t-229.5 14q-145 8 -286.5 20.5t-255 49.5t-183 106.5t-69.5 192.5q0 104 38.5 182t103.5 133t151 90 t180 54.5t192.5 26.5t186.5 7q184 0 378.5 -24.5t366.5 -65.5l-76 -203q-152 37 -337 61.5t-396 24.5q-35 0 -90 -2t-116.5 -10t-125 -24.5t-113.5 -43t-82 -66.5t-32 -97q0 -63 51 -101.5t136 -58.5t195 -28.5t224 -12.5q141 -6 275.5 -19.5t238 -48t166 -100t62.5 -176.5 q0 -102 -41 -179t-111 -133.5t-162 -92t-193.5 -57t-206 -30t-200.5 -8.5z" />
<glyph unicode="T" horiz-adv-x="1771" d="M1169 1227l-172 -1227h-221l172 1227h-719l29 207h1659l-29 -207h-719z" />
<glyph unicode="U" horiz-adv-x="1996" d="M1839 1434h221l-121 -861q-45 -317 -279.5 -460.5t-664.5 -143.5t-625.5 143.5t-150.5 460.5l121 861h221l-121 -861q-16 -117 18 -192.5t110.5 -121.5t192.5 -64.5t263 -18.5q145 0 266 18.5t211 64.5t145.5 122t71.5 192z" />
<glyph unicode="V" horiz-adv-x="1972" d="M2177 1434l-1065 -1434h-254l-663 1434h256l280 -615l281 -624l458 624l453 615h254z" />
<glyph unicode="W" horiz-adv-x="2521" d="M1661 0l-137 614l-105 510l-250 -510l-309 -614h-235l-430 1434h241l182 -615l156 -540l264 542l308 613h231l137 -615l111 -540l307 540l356 615h240l-830 -1434h-237z" />
<glyph unicode="X" horiz-adv-x="1888" d="M1749 1434h303l-862 -699l704 -735h-303l-563 592l-729 -592h-305l909 735l-663 699h303l524 -555z" />
<glyph unicode="Y" horiz-adv-x="2000" d="M2208 1434l-1034 -998l-62 -436h-221l61 436l-757 998h282l268 -359l342 -461l469 461l369 359h283z" />
<glyph unicode="Z" horiz-adv-x="1808" d="M98 0l29 207l1001 735l396 285h-1229l29 207h1538l-29 -207l-999 -735l-400 -285h1307l-29 -207h-1614z" />
<glyph unicode="[" horiz-adv-x="851" d="M440 1700h535l-23 -150h-327l-248 -1763h328l-21 -149h-534z" />
<glyph unicode="\" horiz-adv-x="858" d="M463 1464l334 -1495h-201l-334 1495h201z" />
<glyph unicode="]" horiz-adv-x="851" d="M602 -362h-534l20 149h328l248 1763h-328l22 150h535z" />
<glyph unicode="^" horiz-adv-x="1198" d="M1044 614l-262 707l-456 -707h-162l559 850h162l323 -850h-164z" />
<glyph unicode="_" horiz-adv-x="1249" d="M111 -205h972l-24 -174h-973z" />
<glyph unicode="`" horiz-adv-x="1693" d="M1364 1290l-53 -108l-662 219l82 164z" />
<glyph unicode="a" horiz-adv-x="1726" d="M1671 0q-133 -31 -213 -31q-78 0 -120 18.5t-60 49.5t-19.5 70.5t3.5 82.5q-47 -49 -116 -89t-151 -69.5t-171 -46t-177 -16.5q-109 0 -198 21.5t-152.5 64.5t-98 105.5t-34.5 144.5q0 115 53 188.5t138 116.5t191.5 60.5t211.5 17.5q68 0 145.5 -5t153.5 -12 t142.5 -18.5t113.5 -23.5q2 59 -17.5 108t-68.5 85t-135 56.5t-218 20.5q-90 0 -169.5 -7t-144 -17.5t-111 -21.5t-66.5 -17l-43 192q25 8 79 21.5t129 25.5t166 21.5t189 9.5q193 0 321 -39t201.5 -106.5t96 -159.5t8.5 -201l-43 -303q-8 -59 8 -91t84 -32q47 0 119 19z M393 344q0 -47 23.5 -83t66.5 -58.5t101.5 -33.5t128.5 -11q88 0 179 19.5t170 52t138.5 77.5t81.5 96l18 136h-573q-59 0 -118.5 -9.5t-107.5 -31t-78 -59.5t-30 -95z" />
<glyph unicode="b" horiz-adv-x="1695" d="M322 1440l223 24l-47 -338l-21 -139l2 -2q129 53 285 87t313 34q178 0 303 -43t201 -118t103.5 -178t11.5 -224q-18 -125 -76.5 -230.5t-154 -181.5t-224.5 -119t-287 -43q-113 0 -208 20.5t-169.5 53.5t-131 73t-89.5 77l-2 -3l-41 -190h-194zM1028 901 q-139 0 -293.5 -28.5t-281.5 -67.5l-58 -408q20 -39 71.5 -78.5t126.5 -71.5t168 -52.5t195 -20.5q129 0 225.5 32t161 88t97.5 132t33 162q0 68 -25 125t-79 99t-138 65.5t-203 23.5z" />
<glyph unicode="c" horiz-adv-x="1626" d="M1518 55q-29 -10 -82.5 -24.5t-129 -28.5t-172 -23.5t-208.5 -9.5q-205 0 -352.5 37t-241.5 103.5t-139.5 158.5t-45.5 203q0 135 54.5 251t168 202t292 134t423.5 48q113 0 206 -9.5t165 -23.5t122 -28.5t75 -24.5l-70 -193q-23 6 -70 18.5t-115.5 25t-154.5 21.5 t-186 9q-193 0 -323 -30.5t-210 -85t-114.5 -128t-34.5 -159.5q0 -70 30.5 -129.5t99 -102.5t179.5 -67.5t270 -24.5q100 0 189.5 9.5t161 21.5t123 24.5t73.5 18.5z" />
<glyph unicode="d" horiz-adv-x="1695" d="M1516 1126l45 314l223 24l-205 -1464h-197l13 190l-2 3q-45 -37 -110.5 -77t-150.5 -73t-185.5 -53.5t-213.5 -20.5q-143 0 -252.5 37t-183.5 102.5t-112 157.5t-38 201q0 135 48.5 252t145.5 203t244.5 135t344.5 49q158 0 305 -34t262 -87l2 2zM922 901 q-147 0 -251 -31.5t-169.5 -87t-96 -130t-30.5 -158.5q0 -70 24.5 -128.5t75.5 -101.5t129 -66.5t184 -23.5q102 0 200.5 20.5t182.5 52.5t147.5 71.5t94.5 78.5l57 408q-117 39 -262 67.5t-286 28.5z" />
<glyph unicode="e" horiz-adv-x="1640" d="M377 446q12 -135 139 -203.5t389 -68.5q104 0 201.5 9.5t177.5 21.5t137.5 24.5t79.5 18.5l17 -193q-29 -10 -89.5 -24.5t-144.5 -28.5t-186.5 -23.5t-212.5 -9.5q-373 0 -556.5 126t-183.5 360q0 131 51.5 249.5t153 207.5t252 141.5t350.5 52.5q174 0 319.5 -41 t233.5 -124t106.5 -206t-57.5 -289h-1177zM397 612h967q23 74 0 129.5t-80 91t-147 54t-203 18.5q-123 0 -213 -21.5t-153.5 -60.5t-104.5 -93.5t-66 -117.5z" />
<glyph unicode="f" horiz-adv-x="790" d="M553 1085l-2 -10h295l-27 -184h-293l-125 -891h-221l125 891h-143l26 184h144v10q14 106 47 179t80 117t108.5 62.5t137.5 18.5q100 0 227 -28l-23 -170q-51 8 -92 12t-76 4q-86 0 -128 -45.5t-60 -149.5z" />
<glyph unicode="g" horiz-adv-x="1579" d="M219 655q0 111 57.5 196t155.5 141.5t230.5 85t281.5 28.5q61 0 116.5 -5t108.5 -16q39 12 97.5 25.5t129 25t147.5 18.5t153 7l-6 -135q-20 0 -69.5 -1t-102 -3t-97.5 -5t-59 -5q88 -43 139 -114t51 -165q0 -111 -54 -189.5t-151.5 -128.5t-228.5 -74t-284 -24 q-92 0 -173 8.5t-147 26.5q-25 -18 -51.5 -47t-47 -60.5t-32.5 -63t-8 -58.5q53 18 133 36.5t175 34t197.5 24.5t200.5 9q92 0 174 -12t143.5 -40t98.5 -76t37 -117q0 -90 -44 -154t-115.5 -105.5t-160 -67.5t-178.5 -38t-171 -16t-136 -4q-154 0 -275.5 10t-211.5 23.5 t-148.5 27.5t-85.5 25l70 194q20 -6 77.5 -18.5t149.5 -24.5t218 -22.5t280 -10.5q74 0 161 5.5t161.5 21.5t126 45t51.5 78q0 31 -31 51.5t-83 32.5t-122 17t-147 5q-78 0 -162 -4t-165 -12t-154.5 -18.5t-131.5 -22.5q-47 4 -86 38t-33 99q16 59 70.5 129t149.5 121 q-88 39 -138.5 106.5t-50.5 161.5zM446 680q0 -47 31 -81t86 -55.5t130 -31.5t165 -10q98 0 184 12t148.5 38t98.5 65.5t36 95.5q0 45 -30.5 80.5t-86 58t-131.5 35t-164 12.5q-96 0 -181 -13.5t-148.5 -41t-100.5 -68.5t-37 -96z" />
<glyph unicode="h" d="M1337 0l76 543q10 76 -3 142.5t-59 113.5t-131 74.5t-216 27.5q-143 0 -284.5 -30.5t-266.5 -65.5l-113 -805h-221l203 1440l223 24l-47 -338l-21 -139l2 -2q123 49 266.5 85t309.5 36q176 0 294.5 -42t187.5 -118t91.5 -178t5.5 -223l-75 -545h-222z" />
<glyph unicode="i" horiz-adv-x="538" d="M160 0l149 1067l226 25l-154 -1092h-221zM330 1204l35 246h221l-35 -246h-221z" />
<glyph unicode="j" horiz-adv-x="544" d="M170 29l145 1038l226 25l-150 -1063q-18 -131 -61 -213t-105.5 -127t-142.5 -61.5t-170 -16.5l25 170q111 0 164 62.5t69 185.5zM334 1204l35 246h221l-35 -246h-221z" />
<glyph unicode="k" horiz-adv-x="1671" d="M1628 0h-336l-612 451h-277l-63 -451h-221l203 1440l223 24l-117 -835h281l755 446h320l-893 -536z" />
<glyph unicode="l" horiz-adv-x="468" d="M328 1440l223 24l-205 -1464h-221z" />
<glyph unicode="m" horiz-adv-x="2508" d="M119 0l149 1067l217 25l-8 -105l2 -2q113 51 222.5 86t232.5 35q166 0 271.5 -42t164.5 -114q63 33 139 60.5t154 49t152.5 34t136.5 12.5q170 0 278.5 -42t167 -118t72.5 -178t-2 -223l-76 -545h-221l76 543q10 76 5 142.5t-42 113.5t-111 74.5t-198 27.5 q-137 0 -254 -33.5t-213 -70.5q16 -55 17 -119t-9 -133l-76 -545h-221l76 543q10 76 6 142.5t-38 113.5t-105.5 74.5t-196.5 27.5q-139 0 -243.5 -32.5t-190.5 -63.5l-113 -805h-221z" />
<glyph unicode="n" d="M1337 0l76 543q10 76 -3 142.5t-59 113.5t-131 74.5t-216 27.5q-143 0 -284.5 -30.5t-266.5 -65.5l-113 -805h-221l149 1067l217 25l-8 -105l2 -2q123 49 266.5 85t309.5 36q176 0 294.5 -42t187.5 -118t91.5 -178t5.5 -223l-75 -545h-222z" />
<glyph unicode="o" horiz-adv-x="1628" d="M154 539q18 123 80.5 227t167 180t248 118t321.5 42t310 -42t215 -118t117 -180t15 -227q-18 -123 -80.5 -227.5t-167 -180.5t-248 -119t-321.5 -43t-310 43t-215 119t-116.5 180.5t-15.5 227.5zM375 498q0 -70 28.5 -129.5t87 -102.5t145.5 -67.5t204 -24.5 q125 0 225 27.5t171 77t113 116t52 144.5q10 80 -12.5 146.5t-80 114.5t-149.5 74.5t-217 26.5q-139 0 -244.5 -30.5t-177 -84t-108.5 -128t-37 -160.5z" />
<glyph unicode="p" horiz-adv-x="1695" d="M365 190l-27 -206l-53 -373h-222l205 1454l213 25l-6 -103l2 -2q129 53 286 87t314 34q178 0 303 -43t201 -118t103.5 -178t11.5 -224q-18 -125 -76.5 -230.5t-154 -181.5t-224.5 -119t-287 -43q-113 0 -206 20.5t-166.5 53.5t-128 73t-86.5 77zM1028 901 q-70 0 -144.5 -8t-150.5 -21.5t-147.5 -31t-132.5 -35.5l-58 -408q20 -39 71.5 -78.5t126.5 -71.5t168 -52.5t195 -20.5q129 0 225.5 32t161 88t97.5 132t33 162q0 68 -25 125t-79 99t-138 65.5t-203 23.5z" />
<glyph unicode="q" horiz-adv-x="1695" d="M1386 190l-2 3q-45 -37 -110.5 -77t-147.5 -73t-181 -53.5t-212 -20.5q-158 0 -274.5 43t-190 119t-103.5 181.5t-11 230.5q16 121 72.5 224t153.5 178t234.5 118t315.5 43q158 0 304 -34t261 -87l2 2l19 78l215 25l-207 -1479h-221l53 373zM922 901q-147 0 -251 -31.5 t-169.5 -87t-96 -130t-30.5 -158.5q0 -70 24.5 -128.5t75.5 -101.5t129 -66.5t184 -23.5q102 0 200.5 20.5t182.5 52.5t147.5 71.5t94.5 78.5l57 408q-117 39 -262 67.5t-286 28.5z" />
<glyph unicode="r" horiz-adv-x="1038" d="M268 1067l217 25l-20 -193l2 -2q147 117 303 167t344 40l-41 -215q-78 8 -162 4t-166.5 -24.5t-160.5 -57.5t-144 -94l-100 -717h-221z" />
<glyph unicode="s" horiz-adv-x="1619" d="M158 262q102 -25 188 -41t163 -27.5t151.5 -15.5t156.5 -4q37 0 91.5 2t115.5 7t121.5 15.5t110 29t80 45t30.5 63.5q0 43 -41 64.5t-108.5 31.5t-155.5 12t-182 5q-117 2 -237 11t-216 37.5t-156.5 83t-60.5 150.5q0 88 37 150.5t98.5 104.5t139 65.5t159.5 36t163 15.5 t144 3q297 0 647 -62l-65 -204q-92 16 -174 27.5t-159 18.5t-153.5 10t-162.5 3q-82 0 -162 -4t-143.5 -19.5t-102.5 -44t-39 -77.5q0 -41 38 -63.5t102.5 -34t147.5 -13.5t175 -2q119 -2 243 -8t224 -34t163.5 -83t63.5 -154q0 -92 -46 -157.5t-118.5 -109.5t-165 -68.5 t-184.5 -38t-176 -16.5t-139 -3q-90 0 -171 4t-161 15.5t-165 29t-181 41.5z" />
<glyph unicode="t" horiz-adv-x="796" d="M553 1075h330l-27 -184h-330l-75 -543q-14 -104 16.5 -148t116.5 -44q35 0 76.5 4t95.5 12l-25 -172q-66 -14 -125 -22.5t-110 -8.5q-76 0 -132.5 19.5t-91 63.5t-47 117t3.5 179l76 543h-143l26 184h144l37 273l225 24z" />
<glyph unicode="u" d="M193 530l75 545h224l-76 -543q-10 -78 3 -144t59 -113.5t129 -74t212 -26.5q98 0 186.5 18.5t162 49t131 69.5t94.5 78l96 686h221l-151 -1075h-197l12 182l-2 2q-49 -37 -112.5 -74.5t-143.5 -69.5t-175 -51.5t-204 -19.5q-168 0 -280.5 42t-177 118t-83.5 178t-3 223z " />
<glyph unicode="v" horiz-adv-x="1624" d="M1741 1075l-809 -1075h-240l-504 1075h258l250 -563l144 -319l231 319l410 563h260z" />
<glyph unicode="w" horiz-adv-x="2285" d="M1516 0l-127 391l-132 428l-249 -428l-238 -391h-238l-344 1075h244l166 -563l86 -281l164 281l326 563h239l168 -563l86 -281l164 281l326 563h243l-647 -1075h-237z" />
<glyph unicode="x" horiz-adv-x="1570" d="M1384 1075h299l-690 -536l543 -539h-301l-391 403l-508 -403h-299l692 539l-536 536h296l392 -401z" />
<glyph unicode="y" horiz-adv-x="1624" d="M188 1075h258l250 -563l144 -319l641 882h260l-858 -1155q-68 -92 -134.5 -153.5t-134 -98.5t-137 -52t-143.5 -15q-68 0 -141.5 10t-153.5 27l24 172q59 -10 128 -23.5t139 -13.5q100 0 187 38.5t159 139.5l29 41z" />
<glyph unicode="z" horiz-adv-x="1603" d="M1534 184l-27 -184h-1409l27 184l1106 707h-957l27 184h1311l-27 -182l-1110 -709h1059z" />
<glyph unicode="{" horiz-adv-x="868" d="M397 668q82 -33 132.5 -106t50.5 -197q0 -61 -12.5 -119t-27 -110t-26.5 -101t-12 -92q0 -72 46 -117t173 -41l-23 -150q-109 0 -184.5 11.5t-124.5 40t-71.5 74.5t-22.5 118q0 55 14.5 118.5t32.5 129.5t32.5 132.5t14.5 129.5q0 80 -30.5 141.5t-112.5 77.5l16 119 q55 10 93 37t63.5 66.5t40 88t22.5 101.5q14 98 14.5 198.5t10.5 174.5q12 90 44 149.5t88 94t142 49t209 14.5l-20 -150q-76 2 -125 -12t-80 -39.5t-45 -63.5t-21 -83q-10 -66 -9 -145t-11 -165q-23 -160 -99 -247.5t-182 -126.5z" />
<glyph unicode="|" horiz-adv-x="630" d="M348 -307h-149l288 2048h150z" />
<glyph unicode="}" horiz-adv-x="868" d="M659 668q-82 33 -132 106.5t-50 198.5q0 57 12.5 113.5t25.5 110.5t25.5 103.5t12.5 94.5q0 37 -10.5 65.5t-35 49t-66.5 31.5t-105 9l22 150q106 0 183 -11.5t126.5 -40t72 -75.5t22.5 -117q0 -55 -14.5 -117.5t-33 -127t-32.5 -131t-14 -132.5q0 -80 29.5 -142.5 t113.5 -78.5l-16 -119q-55 -10 -93 -36.5t-64 -65.5t-40 -88t-23 -103q-14 -98 -14 -198.5t-10 -173.5q-12 -90 -44 -149.5t-89.5 -94.5t-142.5 -49.5t-207 -14.5l20 150q74 -2 123 12.5t80 40t45 63.5t20 83q10 66 10.5 144.5t12.5 164.5q23 162 98.5 250t181.5 125z" />
<glyph unicode="~" horiz-adv-x="1447" d="M1360 795q-121 -109 -213 -149t-164 -40q-55 0 -100 19.5t-86 42t-78 42t-74 19.5q-41 0 -98.5 -29.5t-143.5 -103.5l-102 119q119 104 208 143t161 39q53 0 97 -19.5t84 -42t77 -42t78 -19.5t101 31t153 108z" />
<glyph unicode="&#xa1;" horiz-adv-x="620" d="M319 778l41 297h199l-41 -297h-199zM369 -358h-219l153 962h182z" />
<glyph unicode="&#xa2;" horiz-adv-x="1626" d="M1174 1464l-27 -180q104 -2 191 -12t155 -23.5t114 -28t70 -22.5l-69 -192q-20 6 -64.5 17t-108 23.5t-143.5 21.5t-174 11l-102 -727q94 2 177 11.5t149.5 20.5t113.5 23.5t70 18.5l16 -193q-27 -10 -77 -23t-120.5 -26.5t-160.5 -23.5t-197 -13l-24 -178h-121l24 181 q-178 6 -302 44.5t-202.5 103t-113.5 152t-35 189.5q0 129 42 242.5t137 199.5t251 139.5t383 61.5l27 182h121zM440 664q0 -63 22.5 -117.5t75 -95.5t140.5 -66t219 -31l100 721q-172 -6 -280.5 -42t-170 -91t-84 -126.5t-22.5 -151.5z" />
<glyph unicode="&#xa3;" horiz-adv-x="1570" d="M145 778h131l50 219q31 137 103.5 227.5t171.5 143.5t218 74.5t242 21.5q166 0 320.5 -27.5t267.5 -56.5l-76 -202q-33 8 -91.5 22t-133 27.5t-159.5 23t-169 9.5q-82 0 -160 -11.5t-141.5 -41t-108.5 -78t-61 -121.5l-53 -230h671l-16 -121h-684l-102 -450h1118 l-29 -207h-1350l144 657h-119z" />
<glyph unicode="&#xa4;" horiz-adv-x="1761" d="M707 225h-287l41 287l-176 205l233 205l41 286h287l233 205l176 -205h287l-41 -286l176 -205l-233 -205l-41 -287h-287l-233 -205zM793 375l120 -142l162 142h201l27 200l161 142l-121 141l27 201h-201l-120 141l-162 -141h-201l-27 -201l-161 -141l120 -142l-26 -200 h201z" />
<glyph unicode="&#xa5;" horiz-adv-x="1742" d="M1579 164h-573l-23 -164h-221l22 164h-581l16 121h582l26 186h-581l16 121h496l-541 842h279l268 -447l199 -348l290 348l396 447h280l-780 -842h489l-16 -121h-573l-27 -186h573z" />
<glyph unicode="&#xa6;" horiz-adv-x="630" d="M510 846h-150l127 895h150zM348 -307h-149l125 895h149z" />
<glyph unicode="&#xa7;" horiz-adv-x="1667" d="M1227 420q135 -29 213 -88.5t78 -175.5q0 -123 -68 -201t-177.5 -123t-246.5 -62.5t-276 -17.5q-106 0 -207 7.5t-185 17.5t-145 20t-88 17l63 204q27 -8 90.5 -18t149.5 -19.5t186.5 -16.5t198.5 -7q92 0 178 8t151.5 27.5t105.5 53.5t40 87q0 66 -69.5 98.5t-185 51 t-266.5 33t-314 42.5l131 406q-133 31 -210 90t-77 174q0 123 67.5 202t177 124t247 62.5t276.5 17.5q106 0 206.5 -7.5t184.5 -17.5t145.5 -20.5t88.5 -16.5l-66 -205q-25 8 -89.5 18.5t-150.5 19.5t-186 16.5t-199 7.5q-92 0 -178 -8.5t-151.5 -27.5t-105.5 -54t-40 -86 q0 -66 70 -97.5t185.5 -50t266 -33t314.5 -45.5zM1204 678q-147 23 -277 36t-241 31l-78 -237q145 -23 276.5 -37t241.5 -31z" />
<glyph unicode="&#xa8;" horiz-adv-x="1693" d="M760 1456l-33 -231h-162l33 231h162zM1264 1456l-33 -231h-162l33 231h162z" />
<glyph unicode="&#xa9;" horiz-adv-x="1927" d="M190 618q0 176 64.5 331t189.5 269.5t307.5 180t417.5 65.5q193 0 338.5 -49t240.5 -136t143 -206t48 -258q0 -176 -64.5 -330.5t-189 -269.5t-307 -180.5t-417.5 -65.5q-193 0 -337.5 49.5t-240.5 136.5t-144.5 205.5t-48.5 257.5zM313 637q0 -117 41 -217.5t124 -174 t208 -114.5t291 -41q201 0 357.5 55.5t264 150.5t164 224t56.5 277q0 117 -42 217t-125 174t-208 114.5t-291 40.5q-203 0 -358.5 -55t-263 -150.5t-163 -224.5t-55.5 -276zM1446 369q-41 -12 -146.5 -38t-263.5 -26q-139 0 -239.5 27.5t-165 76t-94 114t-29.5 143.5 q0 96 37 180t115.5 147.5t199.5 99t291 35.5q158 0 257 -25.5t136 -37.5l-47 -113q-68 23 -158 41.5t-204 18.5q-135 0 -230.5 -25.5t-155 -70t-87 -104.5t-27.5 -130q0 -57 23.5 -104.5t73.5 -82t129 -54t192 -19.5q115 0 210 18.5t169 40.5z" />
<glyph unicode="&#xaa;" horiz-adv-x="1368" d="M1403 584q-117 -25 -189 -25q-86 0 -133 31t-51 125q-35 -35 -88 -63.5t-114.5 -49t-127 -32t-125.5 -11.5q-170 0 -270 68.5t-100 199.5q0 90 41 149.5t106.5 93.5t149.5 47t168 13q55 0 112.5 -5t110.5 -13t99 -18.5t77 -20.5q14 94 -66.5 146.5t-257.5 52.5 q-106 0 -206.5 -15.5t-161.5 -37.5l-39 178q18 6 61 16t103.5 20.5t133.5 17.5t150 7q156 0 259.5 -30.5t163 -86t79 -129t6.5 -159.5l-26 -179q-8 -53 3 -81.5t58 -30.5q37 0 103 16zM436 866q0 -35 20.5 -59.5t52.5 -39.5t72 -21.5t78 -6.5q59 0 122 11.5t117 34t94 55 t57 78.5l10 69q-18 6 -71.5 10t-115 7.5t-114.5 5.5t-70 2q-49 0 -95 -7.5t-81 -24.5t-55.5 -45t-20.5 -69z" />
<glyph unicode="&#xab;" horiz-adv-x="1519" d="M907 1106l80 -115l-543 -401l430 -400l-110 -114l-543 514zM1440 1106l80 -115l-543 -401l430 -400l-111 -114l-542 514z" />
<glyph unicode="&#xac;" horiz-adv-x="1413" d="M1370 819l-104 -745h-150l84 596h-946l20 149h1096z" />
<glyph unicode="&#xad;" horiz-adv-x="1413" d="M330 768h973l-25 -174h-973z" />
<glyph unicode="&#xae;" horiz-adv-x="1927" d="M190 618q0 176 64.5 331t189.5 269.5t307.5 180t417.5 65.5q193 0 338.5 -49t240.5 -136t143 -206t48 -258q0 -176 -64.5 -330.5t-189 -269.5t-307 -180.5t-417.5 -65.5q-193 0 -337.5 49.5t-240.5 136.5t-144.5 205.5t-48.5 257.5zM313 637q0 -117 41 -217.5t124 -174 t208 -114.5t291 -41q201 0 357.5 55.5t264 150.5t164 224t56.5 277q0 117 -42 217t-125 174t-208 114.5t-291 40.5q-203 0 -358.5 -55t-263 -150.5t-163 -224.5t-55.5 -276zM578 322l110 788h627q57 0 107.5 -11.5t87 -36t57 -65.5t20.5 -100q0 -82 -27.5 -136t-77.5 -88 t-118 -48.5t-147 -14.5l292 -288h-178l-282 284h-306l-41 -284h-124zM1253 723q90 0 147.5 34t57.5 122q0 63 -44 88.5t-114 25.5h-503l-37 -270h493z" />
<glyph unicode="&#xaf;" horiz-adv-x="1693" d="M1321 1425l-21 -145h-727l21 145h727z" />
<glyph unicode="&#xb0;" horiz-adv-x="1095" d="M272 1092q10 78 47 146.5t97.5 118.5t144.5 78.5t193 28.5q106 0 183 -28.5t124 -78.5t64.5 -119t7.5 -146q-12 -80 -49 -147.5t-97.5 -119t-145.5 -80t-192 -28.5q-109 0 -184.5 28.5t-122.5 80t-64.5 119t-5.5 147.5zM418 1092q-16 -104 43 -174t207 -70 q145 0 222 69.5t93 174.5q14 102 -45 170.5t-203 68.5q-147 0 -225 -67.5t-92 -171.5z" />
<glyph unicode="&#xb1;" horiz-adv-x="1413" d="M719 612l61 432h150l-62 -432h432l-20 -149h-432l-45 -313h432l-21 -150h-1013l20 150h432l45 313h-432l21 149h432z" />
<glyph unicode="&#xb2;" horiz-adv-x="1318" d="M180 608l29 209q197 74 372 148.5t305 149.5t206.5 148.5t76.5 147.5q0 51 -37.5 80t-91 43t-111 18t-95.5 4q-74 0 -137.5 -5t-122 -13t-115 -19.5t-117.5 -25.5q-4 51 -9 103.5t-7 101.5q137 35 259 51t249 16q78 0 177 -9t187 -41t148.5 -91t60.5 -158 q0 -193 -226.5 -356.5t-645.5 -292.5h813l-29 -209h-1139z" />
<glyph unicode="&#xb3;" horiz-adv-x="1298" d="M256 891q115 -43 254 -70.5t287 -27.5q68 0 129 9t107 29.5t74 54.5t28 85q0 80 -108.5 105.5t-340.5 25.5h-248l21 145q70 0 138.5 -1t113.5 -1q125 0 212 8.5t141 27.5t78.5 52t24.5 80q0 53 -34.5 83t-86 44t-109.5 17.5t-103 3.5q-74 0 -137.5 -5.5t-122 -14.5 t-116 -21.5t-118.5 -26.5l-16 205q137 35 260 51t258 16q74 0 172 -8t185 -36.5t147.5 -87t60.5 -156.5q0 -137 -96.5 -205t-313.5 -94q180 -16 271.5 -67.5t91.5 -162.5q0 -104 -51.5 -173.5t-136.5 -111.5t-193.5 -59.5t-222.5 -17.5q-90 0 -178.5 9t-166 23.5t-142 34 t-103.5 37.5z" />
<glyph unicode="&#xb4;" horiz-adv-x="1693" d="M1358 1565l37 -164l-723 -219l-25 108z" />
<glyph unicode="&#xb5;" d="M63 -389l205 1464h226l-76 -543q-10 -78 2 -144t58 -113.5t129 -74t212 -26.5q98 0 186.5 18.5t161 49t130 69.5t94.5 78l96 686h221l-149 -1075h-197l10 182l-2 2q-47 -37 -111.5 -74.5t-143.5 -69.5t-174 -51.5t-204 -19.5q-147 0 -241.5 42t-143.5 112l-67 -512h-222z " />
<glyph unicode="&#xb6;" horiz-adv-x="1517" d="M1106 0h-178l88 623h-318q-90 0 -169.5 18t-140 59t-95.5 106.5t-35 162.5q0 129 46 218t123 144t176 79t208 24h496zM1380 0h-178l201 1434h178z" />
<glyph unicode="&#xb7;" horiz-adv-x="600" d="M496 686l-41 -297h-199l41 297h199z" />
<glyph unicode="&#xb8;" horiz-adv-x="1667" d="M590 -492l80 119q47 -2 100 -1t101.5 8.5t83 24.5t42.5 48q6 23 -8 40t-44 29.5t-68.5 19.5t-81.5 9q-10 2 -19.5 14.5t-5.5 28.5l117 168h92l-98 -139q45 2 97 -8t93 -32.5t63.5 -57.5t10.5 -80q-14 -51 -52 -86t-88.5 -56.5t-108.5 -31.5t-115.5 -14.5t-107.5 -3.5 t-83 1z" />
<glyph unicode="&#xb9;" horiz-adv-x="1105" d="M555 817l100 703l-333 -95l-41 179l411 137h219l-131 -924h387l-28 -209h-1000l29 209h387z" />
<glyph unicode="&#xba;" horiz-adv-x="1286" d="M190 956q0 106 44.5 198.5t129.5 160t206.5 105.5t277.5 38q131 0 230.5 -29.5t167 -82t101 -125t33.5 -158.5q0 -109 -45 -201t-129 -159.5t-206.5 -105.5t-278.5 -38q-131 0 -230.5 29.5t-166 83t-100.5 126t-34 158.5zM1149 1034q0 94 -82 154.5t-248 60.5 q-98 0 -173 -20.5t-125 -56t-75.5 -84t-25.5 -105.5q0 -94 82 -155.5t250 -61.5q195 0 296 77.5t101 190.5z" />
<glyph unicode="&#xbb;" horiz-adv-x="1519" d="M1462 590l-686 -514l-78 114l541 400l-428 401l111 115zM930 590l-686 -514l-78 114l541 400l-428 401l110 115z" />
<glyph unicode="&#xbc;" horiz-adv-x="3287" d="M512 510l100 702l-333 -94l-41 178l411 138h219l-131 -924h387l-28 -209h-1000l29 209h387zM991 31q381 352 744.5 713.5t718.5 742.5l81 -82q-381 -354 -745.5 -715.5t-716.5 -742.5zM3082 215l-30 -215h-226l31 215h-793l29 209l893 709h225l-100 -709h149 q-6 -53 -14 -104.5t-18 -104.5h-146zM2918 651l41 254l-446 -358l-168 -123h541z" />
<glyph unicode="&#xbd;" horiz-adv-x="3538" d="M512 510l100 702l-333 -94l-41 178l411 138h219l-131 -924h387l-28 -209h-1000l29 209h387zM2314 0l31 209q197 74 371 148.5t304 149.5t206.5 148.5t76.5 147.5q0 51 -37.5 79.5t-91 43t-111 18.5t-95.5 4q-74 0 -137.5 -5t-122 -13t-115 -19.5t-117.5 -25.5 q-4 51 -8 103t-8 102q137 35 260 51t250 16q51 0 113.5 -4t126 -15.5t122.5 -32t106.5 -53t75 -80.5t27.5 -114q0 -193 -226.5 -356.5t-643.5 -292.5h813l-31 -209h-1139zM991 31q381 352 744.5 713.5t718.5 742.5l81 -82q-381 -354 -745.5 -715.5t-716.5 -742.5z" />
<glyph unicode="&#xbe;" horiz-adv-x="3325" d="M1030 31q756 700 1462 1456l80 -82q-381 -354 -744.5 -715.5t-717.5 -742.5zM213 584q115 -43 254 -71t287 -28q68 0 129 9.5t107 30t74 54t28 85.5q0 80 -109 105.5t-340 25.5h-248l21 145q70 0 138.5 -1t113.5 -1q125 0 212 8t141 27.5t78.5 52.5t24.5 80 q0 53 -34.5 83t-86 44t-109.5 17t-103 3q-74 0 -137.5 -5t-122 -14t-116 -21.5t-118.5 -26.5l-16 205q137 35 260 51t258 16q74 0 172 -8t185 -37t147.5 -87t60.5 -157q0 -137 -96.5 -204.5t-313.5 -94.5q180 -16 271.5 -67t91.5 -162q0 -104 -51.5 -174t-136.5 -112 t-193.5 -59t-222.5 -17q-90 0 -178.5 9t-166 23.5t-142 34t-103.5 37.5zM3119 215l-29 -215h-225l29 215h-793l31 209l891 709h225l-98 -709h149q-8 -53 -16 -104.5t-18 -104.5h-146zM2955 651l43 254l-448 -358l-166 -123h541z" />
<glyph unicode="&#xbf;" horiz-adv-x="1609" d="M1034 604q-18 -94 -75.5 -155.5t-134 -104.5t-160.5 -74.5t-154 -64.5t-116 -76t-46 -109q0 -68 55.5 -108.5t135 -61t166 -26.5t147.5 -6q156 0 301 22.5t299 57.5l18 -203q-172 -43 -324.5 -63.5t-309.5 -20.5q-98 0 -222.5 11t-235 50t-185 112t-74.5 196 q0 111 45 179t115.5 112t156.5 73t168 61.5t147.5 77.5t98.5 121h184zM866 778l41 297h201l-41 -297h-201z" />
<glyph unicode="&#xc0;" horiz-adv-x="1986" d="M1991 0h-254l-160 328h-1079l-248 -328h-256l1073 1434h254zM711 614l-64 -79h842l-41 79l-281 625zM1401 1649l-53 -109l-662 219l82 164z" />
<glyph unicode="&#xc1;" horiz-adv-x="1986" d="M1991 0h-254l-160 328h-1079l-248 -328h-256l1073 1434h254zM711 614l-64 -79h842l-41 79l-281 625zM1769 1923l37 -164l-723 -219l-24 109z" />
<glyph unicode="&#xc2;" horiz-adv-x="1986" d="M1991 0h-254l-160 328h-1079l-248 -328h-256l1073 1434h254zM711 614l-64 -79h842l-41 79l-281 625zM1235 1729l-447 -199l-32 104l501 267l431 -267l-64 -104z" />
<glyph unicode="&#xc3;" horiz-adv-x="1986" d="M1991 0h-254l-160 328h-1079l-248 -328h-256l1073 1434h254zM711 614l-64 -79h842l-41 79l-281 625zM1653 1741q-96 -88 -169 -127t-132 -39q-45 0 -82 15.5t-69 33.5t-61.5 33.5t-60.5 15.5t-82 -16.5t-120 -75.5l-70 84q92 86 162.5 124t130.5 38q43 0 77.5 -15.5 t66.5 -34t63.5 -33.5t66.5 -15q33 0 85 16t124 80z" />
<glyph unicode="&#xc4;" horiz-adv-x="1986" d="M1991 0h-254l-160 328h-1079l-248 -328h-256l1073 1434h254zM711 614l-64 -79h842l-41 79l-281 625zM1077 1815l-33 -232h-161l32 232h162zM1581 1815l-33 -232h-162l33 232h162z" />
<glyph unicode="&#xc5;" horiz-adv-x="1986" d="M969 1518q0 47 15 89t48 73.5t84 50t123 18.5q113 0 163 -49t50 -123q0 -59 -25.5 -110.5t-80.5 -86.5l645 -1380h-254l-160 328h-1079l-248 -328h-256l1034 1380q-31 23 -45 60t-14 78zM711 614l-64 -79h842l-41 79l-281 625zM1063 1532q0 -41 29.5 -69.5t101.5 -28.5 q86 0 125 37.5t39 91.5q0 41 -31 67.5t-100 26.5q-88 0 -126 -36t-38 -89z" />
<glyph unicode="&#xc6;" horiz-adv-x="3309" d="M3152 635h-1210l-62 -428h1374l-28 -207h-1596l45 328h-948l-410 -328h-323l1837 1434h1554l-28 -207h-1334l-53 -385h1211zM1090 614l-103 -79h719l92 665z" />
<glyph unicode="&#xc7;" horiz-adv-x="1959" d="M750 -492l79 119q47 -2 101.5 -1t101.5 8.5t82 24.5t43 48q6 23 -8 40t-43 29.5t-69 19.5t-83 9q-10 2 -19 14.5t-5 28.5l86 125q-219 12 -375 65.5t-256 140.5t-147.5 201t-47.5 245q0 174 68 327.5t210 267t363.5 179t528.5 65.5q143 0 260 -13t207 -31.5t151.5 -38 t94.5 -31.5l-78 -199q-125 39 -289 72.5t-375 33.5q-248 0 -421 -47t-282.5 -128t-159.5 -191.5t-50 -239.5q0 -104 42 -191t134 -149.5t236.5 -98.5t349.5 -36q211 0 384 34t308 73l24 -199q-37 -12 -104.5 -31.5t-162.5 -38t-215 -32t-263 -13.5q-10 0 -22.5 1t-22.5 1 l-66 -94q45 2 97.5 -8t93.5 -32.5t63.5 -57.5t10.5 -80q-14 -51 -52.5 -86t-88.5 -56.5t-108.5 -31.5t-115.5 -14.5t-107 -3.5t-83 1z" />
<glyph unicode="&#xc8;" horiz-adv-x="1830" d="M1511 1649l-53 -109l-661 219l82 164zM139 0l201 1434h1554l-28 -207h-1334l-53 -385h1211l-29 -207h-1210l-62 -428h1374l-28 -207h-1596z" />
<glyph unicode="&#xc9;" horiz-adv-x="1830" d="M1491 1923l37 -164l-723 -219l-25 109zM139 0l201 1434h1554l-28 -207h-1334l-53 -385h1211l-29 -207h-1210l-62 -428h1374l-28 -207h-1596z" />
<glyph unicode="&#xca;" horiz-adv-x="1830" d="M139 0l201 1434h1554l-28 -207h-1334l-53 -385h1211l-29 -207h-1210l-62 -428h1374l-28 -207h-1596zM1157 1729l-446 -199l-33 104l502 267l430 -267l-64 -104z" />
<glyph unicode="&#xcb;" horiz-adv-x="1830" d="M999 1815l-32 -232h-162l33 232h161zM1503 1815l-33 -232h-161l32 232h162zM139 0l201 1434h1554l-28 -207h-1334l-53 -385h1211l-29 -207h-1210l-62 -428h1374l-28 -207h-1596z" />
<glyph unicode="&#xcc;" horiz-adv-x="497" d="M342 1434h221l-203 -1434h-221zM731 1649l-53 -109l-662 219l82 164z" />
<glyph unicode="&#xcd;" horiz-adv-x="497" d="M340 1434h221l-201 -1434h-221zM946 1923l37 -164l-723 -219l-24 109z" />
<glyph unicode="&#xce;" horiz-adv-x="497" d="M340 1434h221l-201 -1434h-221zM492 1729l-445 -199l-33 104l502 267l430 -267l-63 -104z" />
<glyph unicode="&#xcf;" horiz-adv-x="497" d="M340 1434h221l-201 -1434h-221zM336 1815l-33 -232h-162l33 232h162zM840 1815l-33 -232h-162l33 232h162z" />
<glyph unicode="&#xd0;" horiz-adv-x="1994" d="M139 0l92 657h-139l17 121h139l92 656h702q254 0 437.5 -45.5t300 -128t172 -198.5t55.5 -255q0 -176 -66.5 -323.5t-208 -255t-361.5 -168t-529 -60.5h-703zM532 1227l-63 -449h481l-16 -121h-481l-64 -450h481q246 0 419 41t281.5 116.5t158 181t49.5 234.5 q0 102 -43 185.5t-135.5 141.5t-236.5 89t-349 31h-482z" />
<glyph unicode="&#xd1;" horiz-adv-x="1986" d="M1653 1741q-96 -88 -169 -127t-132 -39q-45 0 -82 15.5t-69 33.5t-61.5 33.5t-60.5 15.5t-82 -16.5t-120 -75.5l-70 84q92 86 162.5 124t130.5 38q43 0 77.5 -15.5t66.5 -34t63.5 -33.5t66.5 -15q33 0 85 16t124 80zM1829 1434h221l-201 -1434h-221l-1112 1155l-22 -205 l-134 -950h-221l201 1434h219l1112 -1155l27 210z" />
<glyph unicode="&#xd2;" horiz-adv-x="2119" d="M1657 1649l-53 -109l-662 219l82 164zM199 717q23 160 102.5 297t214.5 236.5t323.5 156.5t426.5 57t409.5 -57t279 -156.5t149.5 -236.5t20 -297q-23 -160 -104 -297t-216 -236.5t-322.5 -157t-424.5 -57.5q-238 0 -410 57.5t-279.5 157t-149.5 236.5t-19 297zM424 717 q-16 -117 15.5 -216.5t112.5 -172t214 -112.5t319 -40t330 40t245 112.5t160.5 172t75.5 216.5t-14.5 216t-112 172t-214 112.5t-318.5 39.5t-330.5 -39.5t-246 -112.5t-161 -172t-75.5 -216z" />
<glyph unicode="&#xd3;" horiz-adv-x="2119" d="M1636 1923l37 -164l-723 -219l-24 109zM199 717q23 160 102.5 297t214.5 236.5t323.5 156.5t426.5 57t409.5 -57t279 -156.5t149.5 -236.5t20 -297q-23 -160 -104 -297t-216 -236.5t-322.5 -157t-424.5 -57.5q-238 0 -410 57.5t-279.5 157t-149.5 236.5t-19 297zM424 717 q-16 -117 15.5 -216.5t112.5 -172t214 -112.5t319 -40t330 40t245 112.5t160.5 172t75.5 216.5t-14.5 216t-112 172t-214 112.5t-318.5 39.5t-330.5 -39.5t-246 -112.5t-161 -172t-75.5 -216z" />
<glyph unicode="&#xd4;" horiz-adv-x="2119" d="M199 717q23 160 102.5 297t214.5 236.5t323.5 156.5t426.5 57t409.5 -57t279 -156.5t149.5 -236.5t20 -297q-23 -160 -104 -297t-216 -236.5t-322.5 -157t-424.5 -57.5q-238 0 -410 57.5t-279.5 157t-149.5 236.5t-19 297zM424 717q-16 -117 15.5 -216.5t112.5 -172 t214 -112.5t319 -40t330 40t245 112.5t160.5 172t75.5 216.5t-14.5 216t-112 172t-214 112.5t-318.5 39.5t-330.5 -39.5t-246 -112.5t-161 -172t-75.5 -216zM1300 1729l-446 -199l-33 104l502 267l430 -267l-63 -104z" />
<glyph unicode="&#xd5;" horiz-adv-x="2119" d="M1720 1741q-96 -88 -168.5 -127t-132.5 -39q-45 0 -82 15.5t-68.5 33.5t-61 33.5t-60.5 15.5t-82 -16.5t-121 -75.5l-70 84q92 86 163 124t130 38q43 0 78 -15.5t66.5 -34t63.5 -33.5t67 -15q33 0 85 16t124 80zM199 717q23 160 102.5 297t214.5 236.5t323.5 156.5 t426.5 57t409.5 -57t279 -156.5t149.5 -236.5t20 -297q-23 -160 -104 -297t-216 -236.5t-322.5 -157t-424.5 -57.5q-238 0 -410 57.5t-279.5 157t-149.5 236.5t-19 297zM424 717q-16 -117 15.5 -216.5t112.5 -172t214 -112.5t319 -40t330 40t245 112.5t160.5 172t75.5 216.5 t-14.5 216t-112 172t-214 112.5t-318.5 39.5t-330.5 -39.5t-246 -112.5t-161 -172t-75.5 -216z" />
<glyph unicode="&#xd6;" horiz-adv-x="2119" d="M1145 1815l-33 -232h-162l33 232h162zM1649 1815l-33 -232h-162l33 232h162zM199 717q23 160 102.5 297t214.5 236.5t323.5 156.5t426.5 57t409.5 -57t279 -156.5t149.5 -236.5t20 -297q-23 -160 -104 -297t-216 -236.5t-322.5 -157t-424.5 -57.5q-238 0 -410 57.5 t-279.5 157t-149.5 236.5t-19 297zM424 717q-16 -117 15.5 -216.5t112.5 -172t214 -112.5t319 -40t330 40t245 112.5t160.5 172t75.5 216.5t-14.5 216t-112 172t-214 112.5t-318.5 39.5t-330.5 -39.5t-246 -112.5t-161 -172t-75.5 -216z" />
<glyph unicode="&#xd7;" horiz-adv-x="1374" d="M657 537l-262 307l119 104l264 -305l348 305l91 -104l-349 -307l262 -306l-118 -104l-262 305l-351 -305l-90 104z" />
<glyph unicode="&#xd8;" horiz-adv-x="2119" d="M190 627q0 174 71 327.5t207 266t337 178t461 65.5q166 0 299 -28.5t235 -81.5l148 131l73 -86l-118 -107q117 -86 173 -213t56 -274q0 -174 -70.5 -326.5t-208 -265.5t-337 -178.5t-459.5 -65.5q-168 0 -302 29t-239 80l-147 -129l-72 88l121 104q-115 86 -171.5 212.5 t-56.5 273.5zM418 651q0 -111 43 -203t131 -153l1024 897q-150 66 -379 65q-205 0 -358.5 -46t-256 -128t-153.5 -192.5t-51 -239.5zM1903 782q0 109 -43 202t-134 155l-1024 -897q76 -31 170.5 -48.5t212.5 -17.5q203 0 356.5 46t256 128t154 192.5t51.5 239.5z" />
<glyph unicode="&#xd9;" horiz-adv-x="1996" d="M1595 1649l-55 -109l-661 219l84 164zM1839 1434h221l-121 -861q-45 -317 -279.5 -460.5t-664.5 -143.5t-625.5 143.5t-150.5 460.5l121 861h221l-121 -861q-16 -117 18 -192.5t110.5 -121.5t192.5 -64.5t263 -18.5q145 0 266 18.5t211 64.5t145.5 122t71.5 192z" />
<glyph unicode="&#xda;" horiz-adv-x="1996" d="M1575 1923l35 -164l-723 -219l-23 109zM1839 1434h221l-121 -861q-45 -317 -279.5 -460.5t-664.5 -143.5t-625.5 143.5t-150.5 460.5l121 861h221l-121 -861q-16 -117 18 -192.5t110.5 -121.5t192.5 -64.5t263 -18.5q145 0 266 18.5t211 64.5t145.5 122t71.5 192z" />
<glyph unicode="&#xdb;" horiz-adv-x="1996" d="M1839 1434h221l-121 -861q-45 -317 -279.5 -460.5t-664.5 -143.5t-625.5 143.5t-150.5 460.5l121 861h221l-121 -861q-16 -117 18 -192.5t110.5 -121.5t192.5 -64.5t263 -18.5q145 0 266 18.5t211 64.5t145.5 122t71.5 192zM1237 1729l-444 -199l-33 104l502 267 l430 -267l-64 -104z" />
<glyph unicode="&#xdc;" horiz-adv-x="1996" d="M1081 1815l-32 -232h-162l33 232h161zM1585 1815l-33 -232h-161l32 232h162zM1839 1434h221l-121 -861q-45 -317 -279.5 -460.5t-664.5 -143.5t-625.5 143.5t-150.5 460.5l121 861h221l-121 -861q-16 -117 18 -192.5t110.5 -121.5t192.5 -64.5t263 -18.5q145 0 266 18.5 t211 64.5t145.5 122t71.5 192z" />
<glyph unicode="&#xdd;" horiz-adv-x="2000" d="M2208 1434l-1034 -998l-62 -436h-221l61 436l-757 998h282l268 -359l342 -461l469 461l369 359h283zM1577 1923l35 -164l-723 -219l-23 109z" />
<glyph unicode="&#xde;" horiz-adv-x="1904" d="M139 0l201 1434h221l-29 -211h852q113 0 213.5 -22.5t175 -73t118.5 -133.5t44 -201q0 -164 -57 -274.5t-153.5 -180.5t-222.5 -99.5t-261 -29.5h-852l-29 -209h-221zM504 1016l-84 -600h866q88 0 164 17.5t133 58t90 107.5t33 163q0 70 -25.5 119t-70.5 78.5t-106.5 43 t-133.5 13.5h-866z" />
<glyph unicode="&#xdf;" horiz-adv-x="2131" d="M119 0l157 1122q10 80 51.5 137.5t100.5 95.5t132 59.5t148.5 31.5t149.5 13t135 3q135 0 281.5 -12t304.5 -39l-164 -504q-92 4 -180 -1t-157.5 -23.5t-111.5 -49t-42 -79.5q0 -43 38.5 -64.5t104.5 -32t152 -12.5t178 -4q117 -2 236.5 -9t216 -35t156.5 -82t60 -153 q0 -92 -46 -157.5t-118.5 -109.5t-164.5 -68.5t-184.5 -38t-176.5 -16.5t-139 -3q-90 0 -169 4t-156.5 15.5t-159.5 29t-179 41.5l72 203q102 -25 185 -41t159 -27.5t147.5 -15.5t153.5 -4q37 0 91.5 2t116 7t121.5 15.5t109.5 29t80 45t30.5 63.5q0 43 -41 64.5 t-108.5 31.5t-156.5 12t-183 5q-115 2 -232 11t-211 37.5t-152.5 84t-58.5 149.5q0 117 61.5 186.5t156 107.5t205 51.5t206.5 15.5l53 157q-100 10 -206.5 20.5t-206.5 10.5q-78 0 -157 -5t-145.5 -22.5t-111.5 -49.5t-53 -83l-158 -1120h-221z" />
<glyph unicode="&#xe0;" horiz-adv-x="1726" d="M1671 0q-133 -31 -213 -31q-78 0 -120 18.5t-60 49.5t-19.5 70.5t3.5 82.5q-47 -49 -116 -89t-151 -69.5t-171 -46t-177 -16.5q-109 0 -198 21.5t-152.5 64.5t-98 105.5t-34.5 144.5q0 115 53 188.5t138 116.5t191.5 60.5t211.5 17.5q68 0 145.5 -5t153.5 -12 t142.5 -18.5t113.5 -23.5q2 59 -17.5 108t-68.5 85t-135 56.5t-218 20.5q-90 0 -169.5 -7t-144 -17.5t-111 -21.5t-66.5 -17l-43 192q25 8 79 21.5t129 25.5t166 21.5t189 9.5q193 0 321 -39t201.5 -106.5t96 -159.5t8.5 -201l-43 -303q-8 -59 8 -91t84 -32q47 0 119 19z M393 344q0 -47 23.5 -83t66.5 -58.5t101.5 -33.5t128.5 -11q88 0 179 19.5t170 52t138.5 77.5t81.5 96l18 136h-573q-59 0 -118.5 -9.5t-107.5 -31t-78 -59.5t-30 -95zM1409 1290l-53 -108l-662 219l82 164z" />
<glyph unicode="&#xe1;" horiz-adv-x="1726" d="M1671 0q-133 -31 -213 -31q-78 0 -120 18.5t-60 49.5t-19.5 70.5t3.5 82.5q-47 -49 -116 -89t-151 -69.5t-171 -46t-177 -16.5q-109 0 -198 21.5t-152.5 64.5t-98 105.5t-34.5 144.5q0 115 53 188.5t138 116.5t191.5 60.5t211.5 17.5q68 0 145.5 -5t153.5 -12 t142.5 -18.5t113.5 -23.5q2 59 -17.5 108t-68.5 85t-135 56.5t-218 20.5q-90 0 -169.5 -7t-144 -17.5t-111 -21.5t-66.5 -17l-43 192q25 8 79 21.5t129 25.5t166 21.5t189 9.5q193 0 321 -39t201.5 -106.5t96 -159.5t8.5 -201l-43 -303q-8 -59 8 -91t84 -32q47 0 119 19z M393 344q0 -47 23.5 -83t66.5 -58.5t101.5 -33.5t128.5 -11q88 0 179 19.5t170 52t138.5 77.5t81.5 96l18 136h-573q-59 0 -118.5 -9.5t-107.5 -31t-78 -59.5t-30 -95zM1389 1565l36 -164l-723 -219l-24 108z" />
<glyph unicode="&#xe2;" horiz-adv-x="1726" d="M1671 0q-133 -31 -213 -31q-78 0 -120 18.5t-60 49.5t-19.5 70.5t3.5 82.5q-47 -49 -116 -89t-151 -69.5t-171 -46t-177 -16.5q-109 0 -198 21.5t-152.5 64.5t-98 105.5t-34.5 144.5q0 115 53 188.5t138 116.5t191.5 60.5t211.5 17.5q68 0 145.5 -5t153.5 -12 t142.5 -18.5t113.5 -23.5q2 59 -17.5 108t-68.5 85t-135 56.5t-218 20.5q-90 0 -169.5 -7t-144 -17.5t-111 -21.5t-66.5 -17l-43 192q25 8 79 21.5t129 25.5t166 21.5t189 9.5q193 0 321 -39t201.5 -106.5t96 -159.5t8.5 -201l-43 -303q-8 -59 8 -91t84 -32q47 0 119 19z M393 344q0 -47 23.5 -83t66.5 -58.5t101.5 -33.5t128.5 -11q88 0 179 19.5t170 52t138.5 77.5t81.5 96l18 136h-573q-59 0 -118.5 -9.5t-107.5 -31t-78 -59.5t-30 -95zM995 1370l-446 -199l-33 105l504 266l428 -266l-64 -105z" />
<glyph unicode="&#xe3;" horiz-adv-x="1726" d="M1671 0q-133 -31 -213 -31q-78 0 -120 18.5t-60 49.5t-19.5 70.5t3.5 82.5q-47 -49 -116 -89t-151 -69.5t-171 -46t-177 -16.5q-109 0 -198 21.5t-152.5 64.5t-98 105.5t-34.5 144.5q0 115 53 188.5t138 116.5t191.5 60.5t211.5 17.5q68 0 145.5 -5t153.5 -12 t142.5 -18.5t113.5 -23.5q2 59 -17.5 108t-68.5 85t-135 56.5t-218 20.5q-90 0 -169.5 -7t-144 -17.5t-111 -21.5t-66.5 -17l-43 192q25 8 79 21.5t129 25.5t166 21.5t189 9.5q193 0 321 -39t201.5 -106.5t96 -159.5t8.5 -201l-43 -303q-8 -59 8 -91t84 -32q47 0 119 19z M393 344q0 -47 23.5 -83t66.5 -58.5t101.5 -33.5t128.5 -11q88 0 179 19.5t170 52t138.5 77.5t81.5 96l18 136h-573q-59 0 -118.5 -9.5t-107.5 -31t-78 -59.5t-30 -95zM1462 1382q-96 -88 -169.5 -126.5t-133.5 -38.5q-45 0 -82 15t-68.5 33.5t-61 34t-60.5 15.5t-82 -16.5 t-119 -75.5l-70 84q92 86 163 123.5t130 37.5q43 0 78 -15t66.5 -33.5t62.5 -34t66 -15.5q33 0 86 16.5t125 79.5z" />
<glyph unicode="&#xe4;" horiz-adv-x="1726" d="M1671 0q-133 -31 -213 -31q-78 0 -120 18.5t-60 49.5t-19.5 70.5t3.5 82.5q-47 -49 -116 -89t-151 -69.5t-171 -46t-177 -16.5q-109 0 -198 21.5t-152.5 64.5t-98 105.5t-34.5 144.5q0 115 53 188.5t138 116.5t191.5 60.5t211.5 17.5q68 0 145.5 -5t153.5 -12 t142.5 -18.5t113.5 -23.5q2 59 -17.5 108t-68.5 85t-135 56.5t-218 20.5q-90 0 -169.5 -7t-144 -17.5t-111 -21.5t-66.5 -17l-43 192q25 8 79 21.5t129 25.5t166 21.5t189 9.5q193 0 321 -39t201.5 -106.5t96 -159.5t8.5 -201l-43 -303q-8 -59 8 -91t84 -32q47 0 119 19z M393 344q0 -47 23.5 -83t66.5 -58.5t101.5 -33.5t128.5 -11q88 0 179 19.5t170 52t138.5 77.5t81.5 96l18 136h-573q-59 0 -118.5 -9.5t-107.5 -31t-78 -59.5t-30 -95zM895 1456l-33 -231h-162l33 231h162zM1399 1456l-33 -231h-162l33 231h162z" />
<glyph unicode="&#xe5;" horiz-adv-x="1726" d="M1671 0q-133 -31 -213 -31q-78 0 -120 18.5t-60 49.5t-19.5 70.5t3.5 82.5q-47 -49 -116 -89t-151 -69.5t-171 -46t-177 -16.5q-109 0 -198 21.5t-152.5 64.5t-98 105.5t-34.5 144.5q0 115 53 188.5t138 116.5t191.5 60.5t211.5 17.5q68 0 145.5 -5t153.5 -12 t142.5 -18.5t113.5 -23.5q2 59 -17.5 108t-68.5 85t-135 56.5t-218 20.5q-90 0 -169.5 -7t-144 -17.5t-111 -21.5t-66.5 -17l-43 192q25 8 79 21.5t129 25.5t166 21.5t189 9.5q193 0 321 -39t201.5 -106.5t96 -159.5t8.5 -201l-43 -303q-8 -59 8 -91t84 -32q47 0 119 19z M393 344q0 -47 23.5 -83t66.5 -58.5t101.5 -33.5t128.5 -11q88 0 179 19.5t170 52t138.5 77.5t81.5 96l18 136h-573q-59 0 -118.5 -9.5t-107.5 -31t-78 -59.5t-30 -95zM752 1325q0 47 15 89t48 74t84 50t123 18q113 0 162 -49t49 -123q0 -47 -15.5 -90t-48 -75.5t-84 -51 t-120.5 -18.5q-115 0 -164 50t-49 126zM846 1356q-8 -49 22.5 -82t108.5 -33q86 0 125 38t39 91q0 41 -31 67.5t-102 26.5q-78 0 -117 -30.5t-45 -77.5z" />
<glyph unicode="&#xe6;" horiz-adv-x="2736" d="M637 -31q-106 0 -193.5 21.5t-150 64.5t-96 106.5t-33.5 145.5q0 113 52 186.5t136 116.5t187.5 60.5t205.5 17.5q72 0 148 -7t147.5 -20.5t137 -32t116.5 -40.5q10 74 -6 132t-66.5 98t-137.5 60.5t-216 20.5q-90 0 -168.5 -7t-142 -17.5t-109 -21.5t-65.5 -17l-43 192 q25 8 78 21.5t126.5 25.5t164 21.5t188.5 9.5q250 0 381 -67.5t178 -176.5q88 111 238.5 177.5t371.5 66.5q174 0 315.5 -42t225.5 -125t99.5 -206t-60.5 -287h-1137q8 -133 128 -202.5t382 -69.5q102 0 196.5 9.5t170.5 21.5t130 24.5t77 18.5l16 -193q-29 -10 -86 -24.5 t-137 -28.5t-179.5 -23.5t-209.5 -9.5q-303 0 -471 80t-215 234q-133 -168 -309.5 -241t-364.5 -73zM393 344q0 -47 23.5 -83t64.5 -58.5t97.5 -33.5t121.5 -11q100 0 199.5 23.5t181.5 66.5t136.5 103.5t62.5 133.5q-16 8 -60 15.5t-101.5 13.5t-121 11t-121 8.5 t-101.5 4.5t-60 1q-55 0 -111.5 -9.5t-103.5 -31t-77 -59.5t-30 -95zM2447 596q31 78 14.5 136.5t-70.5 96t-142 57t-201 19.5q-123 0 -214 -22.5t-154.5 -64.5t-100.5 -98t-51 -124h919z" />
<glyph unicode="&#xe7;" horiz-adv-x="1626" d="M573 -496l80 119q47 -2 101.5 -1t101.5 8.5t82 24.5t43 48q6 23 -8.5 40t-43 29.5t-68.5 19.5t-83 9q-10 2 -19 14.5t-5 28.5l88 127q-182 8 -314.5 48t-216.5 105.5t-124 154t-40 192.5q0 135 54.5 251t168 202t292 134t423.5 48q113 0 206 -9.5t165 -23.5t122 -28.5 t75 -24.5l-70 -193q-23 6 -70 18.5t-115.5 25t-154.5 21.5t-186 9q-193 0 -323 -30.5t-210 -85t-114.5 -128t-34.5 -159.5q0 -70 30.5 -129.5t99 -102.5t179.5 -67.5t270 -24.5q100 0 189.5 9.5t161 21.5t123 24.5t73.5 18.5l17 -193q-57 -20 -210 -52t-376 -34l-68 -96 q45 2 97.5 -8t93.5 -32.5t63.5 -57.5t9.5 -80q-14 -51 -52 -86t-88 -55.5t-108.5 -31.5t-115.5 -15.5t-107.5 -4.5t-83.5 2z" />
<glyph unicode="&#xe8;" horiz-adv-x="1640" d="M377 446q12 -135 139 -203.5t389 -68.5q104 0 201.5 9.5t177.5 21.5t137.5 24.5t79.5 18.5l17 -193q-29 -10 -89.5 -24.5t-144.5 -28.5t-186.5 -23.5t-212.5 -9.5q-373 0 -556.5 126t-183.5 360q0 131 51.5 249.5t153 207.5t252 141.5t350.5 52.5q174 0 319.5 -41 t233.5 -124t106.5 -206t-57.5 -289h-1177zM397 612h967q23 74 0 129.5t-80 91t-147 54t-203 18.5q-123 0 -213 -21.5t-153.5 -60.5t-104.5 -93.5t-66 -117.5zM1366 1290l-53 -108l-662 219l82 164z" />
<glyph unicode="&#xe9;" horiz-adv-x="1640" d="M1348 1565l36 -164l-722 -219l-25 108zM377 446q12 -135 139 -203.5t389 -68.5q104 0 201.5 9.5t177.5 21.5t137.5 24.5t79.5 18.5l17 -193q-29 -10 -89.5 -24.5t-144.5 -28.5t-186.5 -23.5t-212.5 -9.5q-373 0 -556.5 126t-183.5 360q0 131 51.5 249.5t153 207.5 t252 141.5t350.5 52.5q174 0 319.5 -41t233.5 -124t106.5 -206t-57.5 -289h-1177zM397 612h967q23 74 0 129.5t-80 91t-147 54t-203 18.5q-123 0 -213 -21.5t-153.5 -60.5t-104.5 -93.5t-66 -117.5z" />
<glyph unicode="&#xea;" horiz-adv-x="1640" d="M1012 1370l-447 -199l-33 105l504 266l428 -266l-63 -105zM377 446q12 -135 139 -203.5t389 -68.5q104 0 201.5 9.5t177.5 21.5t137.5 24.5t79.5 18.5l17 -193q-29 -10 -89.5 -24.5t-144.5 -28.5t-186.5 -23.5t-212.5 -9.5q-373 0 -556.5 126t-183.5 360 q0 131 51.5 249.5t153 207.5t252 141.5t350.5 52.5q174 0 319.5 -41t233.5 -124t106.5 -206t-57.5 -289h-1177zM397 612h967q23 74 0 129.5t-80 91t-147 54t-203 18.5q-123 0 -213 -21.5t-153.5 -60.5t-104.5 -93.5t-66 -117.5z" />
<glyph unicode="&#xeb;" horiz-adv-x="1640" d="M854 1456l-33 -231h-162l33 231h162zM1358 1456l-33 -231h-162l33 231h162zM377 446q12 -135 139 -203.5t389 -68.5q104 0 201.5 9.5t177.5 21.5t137.5 24.5t79.5 18.5l17 -193q-29 -10 -89.5 -24.5t-144.5 -28.5t-186.5 -23.5t-212.5 -9.5q-373 0 -556.5 126t-183.5 360 q0 131 51.5 249.5t153 207.5t252 141.5t350.5 52.5q174 0 319.5 -41t233.5 -124t106.5 -206t-57.5 -289h-1177zM397 612h967q23 74 0 129.5t-80 91t-147 54t-203 18.5q-123 0 -213 -21.5t-153.5 -60.5t-104.5 -93.5t-66 -117.5z" />
<glyph unicode="&#xec;" horiz-adv-x="538" d="M160 0l149 1067l226 25l-154 -1092h-221zM721 1290l-53 -108l-662 219l82 164z" />
<glyph unicode="&#xed;" horiz-adv-x="538" d="M895 1565l37 -164l-723 -219l-23 108zM160 0l149 1067l226 25l-154 -1092h-221z" />
<glyph unicode="&#xee;" horiz-adv-x="538" d="M463 1370l-445 -199l-32 105l501 266l431 -266l-64 -105zM160 0l151 1067l224 25l-154 -1092h-221z" />
<glyph unicode="&#xef;" horiz-adv-x="538" d="M305 1456l-33 -231h-161l32 231h162zM809 1456l-33 -231h-162l33 231h162zM160 0l149 1067l226 25l-154 -1092h-221z" />
<glyph unicode="&#xf0;" horiz-adv-x="1722" d="M1288 1063l94 82q-66 55 -155.5 80.5t-194.5 29.5q-137 6 -276 -12l-19 205q66 6 129.5 10t122.5 4q174 0 317.5 -40t243.5 -128l172 150l43 -49l-168 -148q66 -72 101 -184.5t35 -253.5q0 -180 -47.5 -333.5t-149.5 -266.5t-266 -176.5t-400 -63.5q-164 0 -295 34 t-222 97.5t-139 154.5t-48 208q0 141 60.5 253.5t161.5 189.5t234.5 118t280.5 41q96 0 196.5 -24.5t185.5 -69.5t146.5 -110.5t79.5 -145.5q18 135 -4 229t-75 158l-101 -86zM393 487q0 -147 127 -230t363 -83q145 0 252.5 32t179 84t107.5 119.5t36 139.5q0 88 -53 149.5 t-132 100.5t-171 56t-170 17q-115 0 -214.5 -27.5t-171 -77.5t-112.5 -121t-41 -159z" />
<glyph unicode="&#xf1;" d="M1337 0l76 543q10 76 -3 142.5t-59 113.5t-131 74.5t-216 27.5q-143 0 -284.5 -30.5t-266.5 -65.5l-113 -805h-221l149 1067l217 25l-8 -105l2 -2q123 49 266.5 85t309.5 36q176 0 294.5 -42t187.5 -118t91.5 -178t5.5 -223l-75 -545h-222zM1448 1382 q-96 -88 -170 -126.5t-133 -38.5q-45 0 -82 15t-68.5 33.5t-61.5 34t-61 15.5t-82 -16.5t-118 -75.5l-70 84q92 86 163 123.5t130 37.5q43 0 78 -15t66.5 -33.5t62.5 -34t65 -15.5q33 0 86.5 16.5t124.5 79.5z" />
<glyph unicode="&#xf2;" horiz-adv-x="1628" d="M154 539q18 123 80.5 227t167 180t248 118t321.5 42t310 -42t215 -118t117 -180t15 -227q-18 -123 -80.5 -227.5t-167 -180.5t-248 -119t-321.5 -43t-310 43t-215 119t-116.5 180.5t-15.5 227.5zM375 498q0 -70 28.5 -129.5t87 -102.5t145.5 -67.5t204 -24.5 q125 0 225 27.5t171 77t113 116t52 144.5q10 80 -12.5 146.5t-80 114.5t-149.5 74.5t-217 26.5q-139 0 -244.5 -30.5t-177 -84t-108.5 -128t-37 -160.5zM1364 1290l-55 -108l-662 219l82 164z" />
<glyph unicode="&#xf3;" horiz-adv-x="1628" d="M1341 1565l37 -164l-723 -219l-22 108zM154 539q18 123 80.5 227t167 180t248 118t321.5 42t310 -42t215 -118t117 -180t15 -227q-18 -123 -80.5 -227.5t-167 -180.5t-248 -119t-321.5 -43t-310 43t-215 119t-116.5 180.5t-15.5 227.5zM375 498q0 -70 28.5 -129.5 t87 -102.5t145.5 -67.5t204 -24.5q125 0 225 27.5t171 77t113 116t52 144.5q10 80 -12.5 146.5t-80 114.5t-149.5 74.5t-217 26.5q-139 0 -244.5 -30.5t-177 -84t-108.5 -128t-37 -160.5z" />
<glyph unicode="&#xf4;" horiz-adv-x="1628" d="M1004 1370l-447 -199l-31 105l502 266l430 -266l-65 -105zM154 539q18 123 80.5 227t167 180t248 118t321.5 42t310 -42t215 -118t117 -180t15 -227q-18 -123 -80.5 -227.5t-167 -180.5t-248 -119t-321.5 -43t-310 43t-215 119t-116.5 180.5t-15.5 227.5zM375 498 q0 -70 28.5 -129.5t87 -102.5t145.5 -67.5t204 -24.5q125 0 225 27.5t171 77t113 116t52 144.5q10 80 -12.5 146.5t-80 114.5t-149.5 74.5t-217 26.5q-139 0 -244.5 -30.5t-177 -84t-108.5 -128t-37 -160.5z" />
<glyph unicode="&#xf5;" horiz-adv-x="1628" d="M154 539q18 123 80.5 227t167 180t248 118t321.5 42t310 -42t215 -118t117 -180t15 -227q-18 -123 -80.5 -227.5t-167 -180.5t-248 -119t-321.5 -43t-310 43t-215 119t-116.5 180.5t-15.5 227.5zM375 498q0 -70 28.5 -129.5t87 -102.5t145.5 -67.5t204 -24.5 q125 0 225 27.5t171 77t113 116t52 144.5q10 80 -12.5 146.5t-80 114.5t-149.5 74.5t-217 26.5q-139 0 -244.5 -30.5t-177 -84t-108.5 -128t-37 -160.5zM1425 1382q-96 -88 -169.5 -126.5t-133.5 -38.5q-45 0 -81.5 15t-68.5 33.5t-61.5 34t-60.5 15.5t-82 -16.5t-119 -75.5 l-69 84q92 86 162.5 123.5t129.5 37.5q43 0 78 -15t67 -33.5t62.5 -34t65.5 -15.5q33 0 86 16.5t125 79.5z" />
<glyph unicode="&#xf6;" horiz-adv-x="1628" d="M848 1456l-33 -231h-162l33 231h162zM1352 1456l-33 -231h-162l33 231h162zM154 539q18 123 80.5 227t167 180t248 118t321.5 42t310 -42t215 -118t117 -180t15 -227q-18 -123 -80.5 -227.5t-167 -180.5t-248 -119t-321.5 -43t-310 43t-215 119t-116.5 180.5t-15.5 227.5 zM375 498q0 -70 28.5 -129.5t87 -102.5t145.5 -67.5t204 -24.5q125 0 225 27.5t171 77t113 116t52 144.5q10 80 -12.5 146.5t-80 114.5t-149.5 74.5t-217 26.5q-139 0 -244.5 -30.5t-177 -84t-108.5 -128t-37 -160.5z" />
<glyph unicode="&#xf7;" horiz-adv-x="1413" d="M899 834h-149l30 210h150zM1300 612l-20 -149h-1014l21 149h1013zM786 31h-149l31 211h149z" />
<glyph unicode="&#xf8;" horiz-adv-x="1628" d="M307 -55l-74 86l84 73q-86 63 -128 159.5t-42 207.5q0 135 55.5 252t162 202t259 133t347.5 48q123 0 222 -20.5t177 -57.5l127 111l74 -86l-101 -90q80 -63 122 -156.5t42 -202.5q0 -135 -55 -250.5t-161.5 -201.5t-259 -134.5t-347.5 -48.5q-121 0 -217 19.5t-174 54.5 zM375 496q0 -72 29.5 -134.5t91.5 -103.5l686 602q-98 41 -240 41q-139 0 -244.5 -30.5t-177 -85t-108.5 -128t-37 -161.5zM1405 580q0 70 -27.5 129t-85.5 100l-682 -598q47 -16 103.5 -26.5t126.5 -10.5q137 0 242.5 32t177 86t108.5 128t37 160z" />
<glyph unicode="&#xf9;" d="M193 530l75 545h224l-76 -543q-10 -78 3 -144t59 -113.5t129 -74t212 -26.5q98 0 186.5 18.5t162 49t131 69.5t94.5 78l96 686h221l-151 -1075h-197l12 182l-2 2q-49 -37 -112.5 -74.5t-143.5 -69.5t-175 -51.5t-204 -19.5q-168 0 -280.5 42t-177 118t-83.5 178t-3 223z M1384 1290l-55 -108l-661 219l82 164z" />
<glyph unicode="&#xfa;" d="M1364 1565l37 -164l-723 -219l-23 108zM193 530l75 545h224l-76 -543q-10 -78 3 -144t59 -113.5t129 -74t212 -26.5q98 0 186.5 18.5t162 49t131 69.5t94.5 78l96 686h221l-151 -1075h-197l12 182l-2 2q-49 -37 -112.5 -74.5t-143.5 -69.5t-175 -51.5t-204 -19.5 q-168 0 -280.5 42t-177 118t-83.5 178t-3 223z" />
<glyph unicode="&#xfb;" d="M1028 1370l-446 -199l-31 105l502 266l430 -266l-66 -105zM193 530l75 545h224l-76 -543q-10 -78 3 -144t59 -113.5t129 -74t212 -26.5q98 0 186.5 18.5t162 49t131 69.5t94.5 78l96 686h221l-151 -1075h-197l12 182l-2 2q-49 -37 -112.5 -74.5t-143.5 -69.5t-175 -51.5 t-204 -19.5q-168 0 -280.5 42t-177 118t-83.5 178t-3 223z" />
<glyph unicode="&#xfc;" d="M870 1456l-32 -231h-162l33 231h161zM1374 1456l-33 -231h-161l32 231h162zM193 530l75 545h224l-76 -543q-10 -78 3 -144t59 -113.5t129 -74t212 -26.5q98 0 186.5 18.5t162 49t131 69.5t94.5 78l96 686h221l-151 -1075h-197l12 182l-2 2q-49 -37 -112.5 -74.5 t-143.5 -69.5t-175 -51.5t-204 -19.5q-168 0 -280.5 42t-177 118t-83.5 178t-3 223z" />
<glyph unicode="&#xfd;" horiz-adv-x="1624" d="M188 1075h258l250 -563l144 -319l641 882h260l-858 -1155q-68 -92 -134.5 -153.5t-134 -98.5t-137 -52t-143.5 -15q-68 0 -141.5 10t-153.5 27l24 172q59 -10 128 -23.5t139 -13.5q100 0 187 38.5t159 139.5l29 41zM1339 1565l37 -164l-723 -219l-24 108z" />
<glyph unicode="&#xfe;" horiz-adv-x="1695" d="M365 190l-27 -206l-53 -373h-222l259 1829l223 24l-49 -352l-21 -125l2 -2q129 53 286 87t314 34q178 0 303 -43t201 -118t103.5 -178t11.5 -224q-18 -125 -76.5 -230.5t-154 -181.5t-224.5 -119t-287 -43q-113 0 -206 20.5t-166.5 53.5t-128 73t-86.5 77zM1028 901 q-70 0 -144.5 -8t-150.5 -21.5t-147.5 -31t-132.5 -35.5l-58 -408q20 -39 71.5 -78.5t126.5 -71.5t168 -52.5t195 -20.5q129 0 225.5 32t161 88t97.5 132t33 162q0 68 -25 125t-79 99t-138 65.5t-203 23.5z" />
<glyph unicode="&#xff;" horiz-adv-x="1624" d="M188 1075h258l250 -563l144 -319l641 882h260l-858 -1155q-68 -92 -134.5 -153.5t-134 -98.5t-137 -52t-143.5 -15q-68 0 -141.5 10t-153.5 27l24 172q59 -10 128 -23.5t139 -13.5q100 0 187 38.5t159 139.5l29 41zM846 1456l-33 -231h-162l33 231h162zM1350 1456 l-33 -231h-162l33 231h162z" />
<glyph unicode="&#x152;" horiz-adv-x="3356" d="M1722 0l23 170q-129 -92 -301 -146.5t-387 -54.5q-217 0 -380 50.5t-270.5 138.5t-162 208.5t-54.5 262.5q0 174 71 326.5t207 265t337 178t461 65.5q215 0 371.5 -55t260.5 -149l25 174h1555l-29 -207h-1333l-56 -385h1211l-29 -207h-1210l-60 -428h1374l-28 -207h-1596 zM1085 176q256 0 430.5 73t268.5 200l76 532q-59 129 -213 202.5t-410 73.5q-205 0 -358.5 -46t-256 -128t-153.5 -192.5t-51 -239.5q0 -104 40 -191t123 -149.5t208.5 -98.5t295.5 -36z" />
<glyph unicode="&#x153;" horiz-adv-x="2809" d="M147 467q0 135 52.5 252t154 203t251 135t345.5 49q236 0 375 -77t186 -206q84 127 237 205t390 78q174 0 316.5 -41t226.5 -124t100.5 -206t-59.5 -289h-1137q8 -135 127 -203.5t381 -68.5q102 0 196.5 9.5t171 21.5t131 24.5t77.5 18.5l14 -193q-29 -10 -86 -24.5 t-137 -28.5t-179.5 -23.5t-209.5 -9.5q-279 0 -435.5 71t-208.5 206q-86 -127 -243.5 -202t-392.5 -75q-162 0 -283 37t-201 103.5t-120 157.5t-40 200zM1364 584q0 139 -106.5 228t-335.5 89q-139 0 -243 -30.5t-171.5 -86t-100 -130t-32.5 -160.5q0 -70 26.5 -128.5 t81 -101.5t138.5 -66.5t198 -23.5q139 0 241.5 32t170 87t100.5 130t33 161zM2523 596q31 78 14.5 136.5t-72 96t-143.5 57t-200 19.5q-244 0 -367 -86t-153 -223h921z" />
<glyph unicode="&#x178;" horiz-adv-x="2000" d="M2208 1434l-1034 -998l-62 -436h-221l61 436l-757 998h282l268 -359l342 -461l469 461l369 359h283zM1083 1815l-32 -232h-162l33 232h161zM1587 1815l-33 -232h-161l32 232h162z" />
<glyph unicode="&#x2c6;" horiz-adv-x="1693" d="M965 1370l-445 -199l-33 105l502 266l430 -266l-63 -105z" />
<glyph unicode="&#x2dc;" horiz-adv-x="1693" d="M1409 1382q-96 -88 -169 -126.5t-132 -38.5q-45 0 -82 15t-68.5 33.5t-61.5 34t-60 15.5q-31 0 -82.5 -16.5t-120.5 -75.5l-70 84q92 86 163 123.5t130 37.5q43 0 78 -15t66.5 -33.5t62.5 -34t65 -15.5q33 0 86.5 16.5t124.5 79.5z" />
<glyph unicode="&#x2000;" horiz-adv-x="961" />
<glyph unicode="&#x2001;" horiz-adv-x="1923" />
<glyph unicode="&#x2002;" horiz-adv-x="961" />
<glyph unicode="&#x2003;" horiz-adv-x="1923" />
<glyph unicode="&#x2004;" horiz-adv-x="641" />
<glyph unicode="&#x2005;" horiz-adv-x="480" />
<glyph unicode="&#x2006;" horiz-adv-x="320" />
<glyph unicode="&#x2007;" horiz-adv-x="320" />
<glyph unicode="&#x2008;" horiz-adv-x="240" />
<glyph unicode="&#x2009;" horiz-adv-x="384" />
<glyph unicode="&#x200a;" horiz-adv-x="106" />
<glyph unicode="&#x2010;" horiz-adv-x="1413" d="M330 768h973l-25 -174h-973z" />
<glyph unicode="&#x2011;" horiz-adv-x="1413" d="M330 768h973l-25 -174h-973z" />
<glyph unicode="&#x2012;" horiz-adv-x="1413" d="M330 768h973l-25 -174h-973z" />
<glyph unicode="&#x2013;" horiz-adv-x="1576" d="M319 553l25 170h1096l-25 -170h-1096z" />
<glyph unicode="&#x2014;" horiz-adv-x="2314" d="M344 723h1833l-25 -170h-1833z" />
<glyph unicode="&#x2018;" horiz-adv-x="548" d="M332 922q-8 53 -4 116.5t21.5 131t45 135t64.5 129.5h129q-16 -59 -29.5 -128t-21 -136.5t-7.5 -132t11 -115.5h-209z" />
<glyph unicode="&#x2019;" horiz-adv-x="548" d="M547 1434q8 -53 4 -117t-20.5 -131.5t-44 -135t-66.5 -128.5h-127q16 59 29.5 127.5t20.5 136t7 131t-10 117.5h207z" />
<glyph unicode="&#x201a;" horiz-adv-x="548" d="M387 297q8 -53 4 -117.5t-20.5 -132t-44 -135.5t-66.5 -127h-127q16 59 29.5 127t20.5 136.5t7 132t-10 116.5h207z" />
<glyph unicode="&#x201c;" horiz-adv-x="964" d="M748 922q-8 53 -4 116.5t20 131t44 135t66 129.5h127q-16 -59 -29.5 -128t-20.5 -136.5t-7 -132t10 -115.5h-206zM332 922q-8 53 -4 116.5t21.5 131t45 135t64.5 129.5h129q-16 -59 -29.5 -128t-21 -136.5t-7.5 -132t11 -115.5h-209z" />
<glyph unicode="&#x201d;" horiz-adv-x="964" d="M547 1434q8 -53 4 -117t-20.5 -131.5t-44 -135t-66.5 -128.5h-127q16 59 29.5 127.5t20.5 136t7 131t-10 117.5h207zM963 1434q8 -53 4 -117t-21.5 -131.5t-45.5 -135t-66 -128.5h-127q16 59 29.5 127.5t20.5 136t7 131t-10 117.5h209z" />
<glyph unicode="&#x201e;" horiz-adv-x="964" d="M387 297q8 -53 4 -117.5t-20.5 -132t-44 -135.5t-66.5 -127h-127q16 59 29.5 127t20.5 136.5t7 132t-10 116.5h207zM803 297q8 -53 4 -117.5t-21.5 -132t-45 -135.5t-66.5 -127h-127q16 59 29.5 127t20.5 136.5t7 132t-10 116.5h209z" />
<glyph unicode="&#x2022;" horiz-adv-x="659" d="M201 731q12 84 74.5 139.5t185.5 55.5q121 0 168 -56.5t35 -138.5q-12 -86 -75 -143.5t-186 -57.5t-168.5 57.5t-33.5 143.5z" />
<glyph unicode="&#x2026;" horiz-adv-x="1654" d="M440 297l-41 -297h-198l41 297h198zM969 297l-41 -297h-201l41 297h201zM1495 297l-41 -297h-199l41 297h199z" />
<glyph unicode="&#x202f;" horiz-adv-x="384" />
<glyph unicode="&#x2039;" horiz-adv-x="987" d="M907 1106l80 -115l-543 -401l430 -400l-110 -114l-543 514z" />
<glyph unicode="&#x203a;" horiz-adv-x="987" d="M930 590l-686 -514l-78 114l541 400l-428 401l110 115z" />
<glyph unicode="&#x205f;" horiz-adv-x="480" />
<glyph unicode="&#x20ac;" horiz-adv-x="1775" d="M152 821l18 121h168q53 141 143 240.5t206 162t252 91t282 28.5q162 0 326.5 -30.5t322.5 -83.5l-80 -199q-133 45 -285.5 75.5t-304.5 30.5q-98 0 -191.5 -16t-173 -54t-145 -98.5t-108.5 -146.5h964l-18 -121h-1002q-14 -55 -20 -106t-8 -101h1001l-16 -120h-965 q18 -88 66.5 -148.5t119 -98.5t158.5 -54.5t187 -16.5q152 0 312.5 31t307.5 78l23 -201q-174 -53 -347.5 -84t-334.5 -31q-145 0 -273.5 29t-226.5 91.5t-159.5 161.5t-76.5 243h-168l17 120h147q2 53 9.5 111.5t19.5 95.5h-147z" />
<glyph unicode="&#x2122;" horiz-adv-x="2246" d="M1653 788l-320 474l-14 -113l-70 -504h-125l111 789h125l348 -523l498 523h123l-111 -789h-123l70 504l18 115l-452 -476h-78zM778 1317l-94 -672h-125l94 672h-370l16 117h868l-16 -117h-373z" />
<glyph unicode="&#x25fc;" horiz-adv-x="1075" d="M0 1075h1075v-1075h-1075v1075z" />
</font>
</defs>
</svg>
