<?xml version="1.0" standalone="no"?>
<!DOCTYPE svg PUBLIC "-//W3C//DTD SVG 1.1//EN" "http://www.w3.org/Graphics/SVG/1.1/DTD/svg11.dtd" >
<svg xmlns="http://www.w3.org/2000/svg">
<metadata></metadata>
<defs>
<font id="halogenblack" horiz-adv-x="1644" >
<font-face units-per-em="2048" ascent="1536" descent="-512" />
<missing-glyph horiz-adv-x="860" />
<glyph unicode="&#xfb01;" horiz-adv-x="1439" d="M989 0v821h-518v-821h-307v821h-144v254h144v10q0 104 23.5 177t69.5 117t112.5 63.5t152.5 19.5q57 0 123 -7t139 -21v-236q-53 4 -96 7t-78 3q-74 0 -106.5 -24.5t-32.5 -98.5v-10h518l307 17v-1092h-307zM989 1204v246h307v-246h-307z" />
<glyph unicode="&#xfb02;" horiz-adv-x="1357" d="M948 1210q-82 10 -146.5 15.5t-115.5 5.5q-123 0 -169 -34t-46 -112v-10h236v-254h-236v-821h-307v821h-144v254h144v10q0 104 22.5 177t72.5 117t130 63.5t193 19.5q76 0 166 -7t200 -21l307 30v-1464h-307v1210z" />
<glyph unicode="&#xfb03;" horiz-adv-x="2285" d="M1835 0v821h-518v-821h-307v821h-539v-821h-307v821h-144v254h144v10q0 104 23.5 177t69.5 117t112.5 63.5t152.5 19.5q57 0 123 -7t139 -21v-236q-53 4 -96 7t-78 3q-74 0 -106.5 -24.5t-32.5 -98.5v-10h539v10q0 104 23.5 177t69.5 117t112.5 63.5t152.5 19.5 q57 0 122.5 -7t139.5 -21v-236q-53 4 -96 7t-78 3q-74 0 -106.5 -24.5t-32.5 -98.5v-10h518l307 17v-1092h-307zM1835 1204v246h307v-246h-307z" />
<glyph unicode="&#xfb04;" horiz-adv-x="2203" d="M1794 0v1210q-82 10 -146.5 15.5t-115.5 5.5q-123 0 -169 -34t-46 -112v-10h235v-254h-235v-821h-307v821h-539v-821h-307v821h-144v254h144v10q0 104 23.5 177t69.5 117t112.5 63.5t152.5 19.5q57 0 123 -7t139 -21v-236q-53 4 -96 7t-78 3q-74 0 -106.5 -24.5 t-32.5 -98.5v-10h539v10q0 104 22.5 177t72.5 117t130 63.5t192 19.5q76 0 166 -7t201 -21l307 30v-1464h-307z" />
<glyph horiz-adv-x="0" />
<glyph unicode="&#xd;" horiz-adv-x="860" />
<glyph horiz-adv-x="0" />
<glyph horiz-adv-x="0" />
<glyph unicode=" "  horiz-adv-x="860" />
<glyph unicode="&#x09;" horiz-adv-x="860" />
<glyph unicode="&#xa0;" horiz-adv-x="860" />
<glyph unicode="!" horiz-adv-x="673" d="M475 297v-297h-276v297h276zM184 1434h305l-24 -963h-256z" />
<glyph unicode="&#x22;" horiz-adv-x="1003" d="M440 1464q0 -82 -4 -158.5t-10 -143t-13 -118t-14 -81.5h-194q-6 31 -13.5 82t-13.5 117.5t-10 143t-4 158.5h276zM840 1464q0 -82 -4.5 -158.5t-10.5 -143t-13 -118t-13 -81.5h-195q-6 31 -13 82t-13.5 117.5t-10.5 143t-4 158.5h277z" />
<glyph unicode="#" horiz-adv-x="1662" d="M418 393h-336l29 164h335l66 375h-334l29 164h334l61 338h164l-61 -338h374l62 338h164l-62 -338h338l-29 -164h-338l-65 -375h336l-29 -164h-336l-59 -336h-164l59 336h-374l-60 -336h-164zM610 557h375l66 375h-375z" />
<glyph unicode="$" horiz-adv-x="1632" d="M190 379q33 -12 93.5 -29.5t135.5 -35t160 -32t171 -22.5v307q-119 8 -238 26.5t-214 65t-155.5 126t-60.5 212.5q0 131 55.5 219.5t148.5 142.5t214 76.5t250 26.5v135h163v-139q152 -8 289 -31.5t236 -46.5l-64 -280q-18 6 -62 15t-106.5 20.5t-138.5 21.5t-154 17 v-328q115 -8 228.5 -25.5t205 -59.5t147.5 -118t56 -201q0 -127 -52 -214t-139 -142t-203 -82t-243 -33v-135h-163v137q-92 4 -183.5 16.5t-174.5 30t-155.5 39t-130.5 45.5zM1237 428q0 35 -24.5 56.5t-68.5 36t-103.5 21.5t-127.5 13v-301q68 0 127.5 9t102.5 29.5 t68.5 53.5t25.5 82zM395 1014q0 -45 28 -73t75 -45t112.5 -25.5t139.5 -14.5v324q-72 0 -136.5 -9.5t-112.5 -28t-77 -50t-29 -78.5z" />
<glyph unicode="%" horiz-adv-x="2095" d="M559 868q123 0 178.5 57.5t55.5 143.5t-55.5 142.5t-178.5 56.5t-179 -56.5t-56 -142.5t56 -143.5t179 -57.5zM102 1069q0 84 29 155.5t85 125t142 84t201 30.5q113 0 199 -30.5t142 -84t85 -125t29 -155.5t-29 -156.5t-85 -126t-142 -84t-199 -30.5q-115 0 -201 30.5 t-142 84t-85 126t-29 156.5zM340 57q344 342 664.5 697.5t623.5 734.5l125 -113q-344 -342 -664.5 -697t-623.5 -734zM1303 367q0 -86 56 -143.5t179 -57.5t178.5 57.5t55.5 143.5t-55.5 142t-178.5 56t-179 -56t-56 -142zM1081 367q0 84 29 155.5t85 124.5t142 84t201 31 q113 0 199 -31t142 -84t85 -124.5t29 -155.5t-29 -157t-85 -126t-142 -84t-199 -31q-115 0 -201 31t-142 84t-85 126t-29 157z" />
<glyph unicode="&#x26;" horiz-adv-x="2004" d="M1446 598v283h498v-287h-195q-16 -176 -99 -295t-213 -192.5t-296 -105.5t-346 -32q-143 0 -272.5 20.5t-227.5 70t-155.5 129t-57.5 198.5q0 162 114.5 235.5t350.5 98.5q-225 31 -327.5 106.5t-102.5 223.5q0 121 61.5 200.5t162.5 126.5t231 66.5t268 19.5 q100 0 199.5 -8t187.5 -20.5t161.5 -27.5t122.5 -28l-63 -280q-29 8 -93.5 21.5t-148.5 25.5t-181 21.5t-191 9.5q-82 0 -155 -8.5t-128 -28t-87 -50t-32 -73.5q0 -39 28.5 -65.5t95.5 -42t173.5 -22.5t263.5 -7v-289q-311 0 -453.5 -43t-142.5 -139q0 -49 32 -79t84 -46.5 t120.5 -22.5t142.5 -6q326 0 498 95t172 247z" />
<glyph unicode="'" horiz-adv-x="604" d="M440 1464q0 -82 -4 -158.5t-10 -143t-13 -118t-14 -81.5h-194q-6 31 -13.5 82t-13.5 117.5t-10 143t-4 158.5h276z" />
<glyph unicode="(" horiz-adv-x="837" d="M588 -410q-98 94 -180 219t-140.5 264.5t-91.5 290t-33 298.5q0 147 33 297.5t91.5 290t140 263t180.5 220.5l168 -93q-326 -422 -326 -978q0 -557 326 -979z" />
<glyph unicode=")" horiz-adv-x="837" d="M82 -317q326 422 326 979t-326 978l168 93q98 -96 180 -220t140.5 -263.5t91 -290t32.5 -297.5t-32.5 -298t-91 -290.5t-140.5 -264t-180 -219.5z" />
<glyph unicode="*" horiz-adv-x="1468" d="M872 1464q0 -68 -8 -142.5t-18 -146t-23.5 -136t-21.5 -109.5q35 31 84 74t105.5 88t117.5 89t121 79l137 -240q-59 -35 -127 -65.5t-134.5 -56.5t-128 -48.5t-104.5 -36.5q43 -16 104.5 -37.5t128 -47.5t134.5 -56.5t127 -63.5l-137 -239q-59 33 -120.5 78t-118 90 t-105.5 87l-84 72q8 -45 21.5 -108.5t23.5 -136t18 -146.5t8 -141h-276q0 68 7 141.5t18.5 146t22.5 136t22 108.5q-35 -31 -84.5 -72.5t-105.5 -86.5t-117.5 -90.5t-118.5 -77.5l-138 239q57 33 125 63.5t135.5 56.5t128 47.5t105.5 37.5q-45 14 -105.5 36.5t-128 48.5 t-135 56.5t-125.5 65.5l138 240q57 -35 118.5 -79t117.5 -89t105.5 -88t84.5 -74q-10 45 -21.5 109.5t-23 136t-18.5 146.5t-7 142h276z" />
<glyph unicode="+" horiz-adv-x="1382" d="M590 639v405h205v-405h403v-205h-403v-403h-205v403h-406v205h406z" />
<glyph unicode="," horiz-adv-x="645" d="M461 297q16 -55 19 -121.5t-7 -135.5t-33.5 -134.5t-60.5 -120.5h-174q6 57 9 126t0 136.5t-13.5 132t-26.5 117.5h287z" />
<glyph unicode="-" horiz-adv-x="1382" d="M205 801h973v-240h-973v240z" />
<glyph unicode="." horiz-adv-x="645" d="M461 297v-297h-277v297h277z" />
<glyph unicode="/" horiz-adv-x="905" d="M864 1464l-545 -1495h-278l545 1495h278z" />
<glyph unicode="0" horiz-adv-x="1884" d="M82 717q0 158 54 294t162 237.5t268.5 158.5t375.5 57t376 -57t268.5 -158.5t161.5 -238t54 -293.5q0 -158 -54 -294t-161.5 -237.5t-268.5 -159t-376 -57.5t-375.5 57.5t-268.5 159t-162 237.5t-54 294zM395 717q0 -98 32 -183t98.5 -146.5t170 -96.5t246.5 -35 t246.5 35t170 96.5t98.5 146t32 183.5q0 98 -32 183t-98.5 146.5t-170 96.5t-246.5 35t-246.5 -35t-170 -96.5t-98.5 -146.5t-32 -183z" />
<glyph unicode="1" horiz-adv-x="1372" d="M61 287h471v843l-378 -114l-91 244l476 174h301v-1147h471v-287h-1250v287z" />
<glyph unicode="2" horiz-adv-x="1638" d="M113 0v287q223 90 417.5 180t339 179t228.5 176t84 171q0 66 -48.5 103t-115 55t-137 22.5t-115.5 4.5q-92 0 -171 -6.5t-149.5 -16.5t-138 -24.5t-141.5 -30.5l-64 280q166 43 316.5 63.5t308.5 20.5q68 0 152 -5t169 -20.5t165.5 -44t144 -75.5t101.5 -114.5t38 -162.5 q0 -221 -231.5 -410.5t-708.5 -344.5h979v-287h-1423z" />
<glyph unicode="3" horiz-adv-x="1613" d="M166 1100l-64 280q166 43 316.5 63.5t318.5 20.5q66 0 148 -4t166 -19.5t164.5 -43t143 -73.5t100.5 -113.5t38 -161.5q0 -147 -104.5 -222t-325.5 -106q233 -25 349 -97.5t116 -232.5q0 -121 -58.5 -201.5t-154.5 -129t-221 -69t-260 -20.5q-113 0 -224.5 11.5t-212 31 t-183.5 43t-136 47.5l84 275q49 -18 127 -40t171 -40t193.5 -29.5t192.5 -11.5q76 0 142.5 9t116.5 32t79 57.5t29 87.5q0 61 -45.5 96t-142.5 52.5t-248.5 21.5t-366.5 4h-64v197h64q213 0 359.5 4t237.5 21.5t131 52.5t40 96q0 70 -44 109t-107.5 56t-136.5 20.5t-128 3.5 q-92 0 -171 -6.5t-149.5 -16.5t-138 -24.5t-141.5 -30.5z" />
<glyph unicode="4" d="M1354 266v-266h-307v266h-965v287l965 881h307v-881h188l-6 -287h-182zM1047 819l6 303l-455 -428l-170 -141h619v266z" />
<glyph unicode="5" d="M82 104l84 275q51 -20 131 -42t175 -39t196.5 -28.5t197.5 -11.5q80 0 148.5 9t121 32t82 58.5t29.5 88.5q0 68 -50 112t-136 68.5t-203 34t-248 9.5q-102 0 -209.5 -4t-216.5 -9l41 777h1282v-287h-991l-16 -273q72 4 138.5 7.5t131.5 3.5q172 0 317.5 -22.5t251 -75 t165 -138.5t59.5 -215q0 -133 -61.5 -221t-163 -141.5t-232.5 -76t-270 -22.5q-113 0 -224.5 11.5t-211 30t-182.5 41.5t-136 48z" />
<glyph unicode="6" horiz-adv-x="1691" d="M385 827q125 106 279.5 157.5t308.5 51.5q125 0 240.5 -33.5t203.5 -98t140.5 -161t52.5 -221.5t-54.5 -227t-156 -174t-245.5 -112t-323 -40q-205 0 -347 51.5t-231 145.5t-130 226t-41 294q0 221 67.5 370.5t182 239.5t268.5 129t324 39q143 0 292.5 -23.5t292.5 -60.5 l-63 -280q-41 8 -102.5 21.5t-135 26.5t-154.5 23.5t-161 10.5q-90 0 -173 -16.5t-151.5 -56.5t-117 -109t-66.5 -173zM852 254q213 0 328.5 70.5t115.5 193.5q0 117 -102 190.5t-301 73.5q-61 0 -144 -10t-159 -38.5t-129 -81t-53 -136.5q0 -121 114.5 -191.5t329.5 -70.5z " />
<glyph unicode="7" horiz-adv-x="1579" d="M692 0h-373l840 1155l-1098 -8v287h1457v-267z" />
<glyph unicode="8" horiz-adv-x="1691" d="M846 258q96 0 178 9t142.5 32t94 57.5t33.5 87.5q0 47 -31.5 79t-90 52.5t-141.5 28.5t-185 8t-185 -8t-141.5 -28.5t-90.5 -52t-32 -79.5q0 -53 34 -87.5t94.5 -57.5t142.5 -32t178 -9zM846 819q199 0 306.5 39t107.5 131q0 61 -39 98t-99.5 56.5t-133.5 27t-142 7.5 q-70 0 -142.5 -7.5t-133 -27t-99.5 -56t-39 -98.5q0 -92 107.5 -131t306.5 -39zM846 1464q123 0 252 -18.5t235.5 -64.5t174 -123.5t67.5 -196.5q0 -84 -47 -144.5t-116 -101.5t-148.5 -63.5t-145.5 -30.5q88 -12 176 -33.5t158 -62.5t114 -104.5t44 -158.5 q0 -113 -65.5 -187.5t-173 -120.5t-245 -65.5t-280.5 -19.5t-280.5 19.5t-245 65.5t-173 121t-65.5 187q0 94 44 158t113.5 105t157.5 62.5t176 33.5q-66 8 -145.5 30.5t-148 63.5t-115.5 101.5t-47 144.5q0 119 67.5 196.5t174 123.5t235.5 64.5t252 18.5z" />
<glyph unicode="9" horiz-adv-x="1691" d="M1307 606q-125 -106 -280 -157.5t-308 -51.5q-125 0 -241 34t-204 98.5t-140 160.5t-52 221t54 227.5t155.5 174t246 111.5t322.5 40q205 0 347.5 -51t231.5 -145t130 -226.5t41 -293.5q0 -221 -67.5 -371t-183.5 -240t-268.5 -129t-322.5 -39q-143 0 -292.5 23.5 t-293.5 60.5l64 281q41 -8 102.5 -21.5t135 -27t154.5 -23.5t161 -10q88 0 172 16.5t152.5 56.5t117 108.5t66.5 172.5zM840 1180q-213 0 -329 -71t-116 -194q0 -117 102.5 -190.5t301.5 -73.5q61 0 144 10.5t159 39t129 81t53 136.5q0 121 -114.5 191.5t-329.5 70.5z" />
<glyph unicode=":" horiz-adv-x="645" d="M461 379v-297h-277v297h277zM461 963v-297h-277v297h277z" />
<glyph unicode=";" horiz-adv-x="645" d="M461 963v-297h-277v297h277zM461 297q16 -55 19 -121.5t-7 -135.5t-33.5 -134.5t-60.5 -120.5h-174q6 57 9 126t0 136.5t-13.5 132t-26.5 117.5h287z" />
<glyph unicode="&#x3c;" horiz-adv-x="1167" d="M1024 973l-686 -299l686 -299v-223l-881 409v223l881 412v-223z" />
<glyph unicode="=" horiz-adv-x="1382" d="M1198 393v-205h-1014v205h1014zM1198 885v-205h-1014v205h1014z" />
<glyph unicode="&#x3e;" horiz-adv-x="1167" d="M143 1196l881 -412v-223l-881 -409v223l686 299l-686 299v223z" />
<glyph unicode="?" horiz-adv-x="1579" d="M610 471q0 92 41 156.5t102.5 109.5t132 78t132 63.5t102.5 63.5t41 80q0 53 -50 84t-120.5 47t-145.5 20.5t-124 4.5q-154 0 -293 -22.5t-283 -55.5l-63 280q166 43 316.5 63.5t308.5 20.5q68 0 151.5 -5t169.5 -20.5t167 -44t143.5 -75.5t100.5 -115.5t38 -163.5 q0 -98 -40 -159.5t-100.5 -102.5t-134.5 -69.5t-141.5 -59.5t-120.5 -71.5t-74 -106.5h-256zM877 297v-297h-277v297h277z" />
<glyph unicode="@" horiz-adv-x="2025" d="M1368 -221q-160 -49 -358 -49q-213 0 -382 54t-286 152.5t-178.5 235.5t-61.5 305t61.5 305.5t178.5 235.5t286 152.5t382 54.5q199 0 366.5 -45t289.5 -130t189.5 -207t67.5 -276q0 -127 -37 -221t-95 -156.5t-132 -93t-148 -30.5q-78 0 -146.5 33.5t-111.5 101.5h-2 q-18 -16 -53 -40t-83 -45.5t-109.5 -35.5t-131.5 -14q-209 0 -316 101t-107 265q0 109 38.5 193t109.5 141t166 87t210 30q106 0 176 -19.5t143 -52.5l2 2l11 37h213l-45 -502q-4 -61 19.5 -91t57.5 -30q31 0 67 21.5t66.5 62.5t51 99.5t20.5 134.5q0 125 -56 221 t-155.5 161.5t-237 99.5t-298.5 34q-172 0 -310.5 -42t-234.5 -118t-147.5 -184.5t-51.5 -239.5q0 -133 51.5 -240.5t147.5 -183.5t234.5 -117.5t310.5 -41.5q78 0 147.5 10t132.5 26zM920 270q68 0 128 13.5t105 33t72.5 43t31.5 43.5l21 230q-80 18 -147.5 32.5 t-151.5 14.5q-55 0 -109.5 -11.5t-97.5 -38t-69.5 -70.5t-26.5 -109q0 -80 56.5 -130.5t187.5 -50.5z" />
<glyph unicode="A" horiz-adv-x="1955" d="M1976 0h-354l-166 287h-958l-164 -287h-354l821 1434h354zM686 614l-24 -41h630l-22 41l-293 551z" />
<glyph unicode="B" horiz-adv-x="1964" d="M123 0v1434h1134q119 0 215.5 -19.5t165 -62.5t105.5 -113t37 -170q0 -111 -43 -184.5t-119 -120.5q119 -43 191.5 -130t72.5 -237q0 -88 -28.5 -161.5t-91 -126t-161 -81t-235.5 -28.5h-1243zM430 594v-307h936q123 0 176 37.5t53 117.5q0 78 -53 115t-176 37h-936z M1257 1147h-827v-266h827q129 0 182.5 30.5t53.5 102.5t-53.5 102.5t-182.5 30.5z" />
<glyph unicode="C" horiz-adv-x="1929" d="M1868 84q-35 -12 -99.5 -31.5t-156.5 -38t-211 -32t-262 -13.5q-281 0 -480.5 57.5t-327.5 157t-188.5 236.5t-60.5 297t60.5 297t188.5 236.5t327.5 156.5t480.5 57q143 0 262 -13t211 -31.5t156.5 -38t99.5 -31.5l-70 -277q-156 45 -317.5 75t-341.5 30 q-203 0 -344.5 -34t-230.5 -95.5t-129 -146.5t-40 -185q0 -102 40 -186.5t129 -145.5t230.5 -95t344.5 -34q180 0 341.5 29.5t317.5 74.5z" />
<glyph unicode="D" horiz-adv-x="1964" d="M123 0v1434h702q279 0 479.5 -52.5t328.5 -146.5t188.5 -226t60.5 -292t-60.5 -292t-188.5 -226.5t-328.5 -146.5t-479.5 -52h-702zM430 1147v-860h395q203 0 344.5 28.5t230.5 84t129 135t40 182.5q0 100 -40 180t-129 135t-230.5 85t-344.5 30h-395z" />
<glyph unicode="E" horiz-adv-x="1800" d="M123 0v1434h1554v-287h-1247v-266h1124v-287h-1124v-307h1288v-287h-1595z" />
<glyph unicode="F" horiz-adv-x="1718" d="M430 594v-594h-307v1434h1554v-287h-1247v-266h1124v-287h-1124z" />
<glyph unicode="G" horiz-adv-x="2134" d="M1055 573v287h977v-186q0 -199 -78 -333t-211 -217t-310.5 -119t-377.5 -36q-242 0 -424 57.5t-304 157t-183.5 236.5t-61.5 297t60.5 297t188.5 236.5t327.5 156.5t480.5 57q143 0 262 -14t211 -32.5t156.5 -38t99.5 -29.5l-70 -273q-156 45 -317.5 73t-341.5 28 q-203 0 -344.5 -34t-230.5 -95.5t-129 -146.5t-40 -185q0 -102 41 -186.5t124 -145.5t206 -95t289 -34q162 0 286.5 25.5t209.5 68.5t129 99.5t44 119.5v4h-669z" />
<glyph unicode="H" horiz-adv-x="1925" d="M1495 0v594h-1065v-594h-307v1434h307v-553h1065v553h307v-1434h-307z" />
<glyph unicode="I" horiz-adv-x="552" d="M123 1434h307v-1434h-307v1434z" />
<glyph unicode="J" horiz-adv-x="1730" d="M90 356q86 -25 165 -43t158 -31.5t161.5 -19.5t181.5 -6q119 0 219 12.5t172 47t112.5 96t40.5 161.5v861h308v-861q0 -317 -217 -460.5t-648 -143.5q-147 0 -265 14.5t-207 33t-150.5 38t-100.5 29.5z" />
<glyph unicode="K" horiz-adv-x="1923" d="M1903 0h-469l-779 594h-225v-594h-307v1434h307v-553h229l748 553h448l-493 -359l-475 -338l528 -379z" />
<glyph unicode="L" horiz-adv-x="1697" d="M123 0v1434h307v-1147h1186v-287h-1493z" />
<glyph unicode="M" horiz-adv-x="2310" d="M1061 266l-637 760l6 -207v-819h-307v1434h307l725 -865l725 865h307v-1434h-307v819l6 207l-639 -760h-186z" />
<glyph unicode="N" horiz-adv-x="1955" d="M1526 1434h307v-1434h-307l-1102 1047l6 -228v-819h-307v1434h307l1102 -1049l-6 229v820z" />
<glyph unicode="O" horiz-adv-x="2088" d="M82 717q0 160 61.5 297t182 236.5t301 156.5t417.5 57q238 0 418 -57t301 -156.5t182.5 -236.5t61.5 -297t-61.5 -297t-182.5 -236.5t-301 -157t-418 -57.5t-418 57.5t-300.5 157t-182 236.5t-61.5 297zM395 717q0 -102 39 -186.5t119 -145.5t203 -95t288 -34 q166 0 289 34t203 95t119 145t39 187q0 100 -39 185t-119 146.5t-203 95.5t-289 34t-288.5 -34t-202.5 -95.5t-119 -146.5t-39 -185z" />
<glyph unicode="P" horiz-adv-x="1873" d="M123 0v1434h1073q123 0 235.5 -26t196.5 -85t134 -156.5t50 -238.5t-50 -238.5t-134 -158t-196.5 -86t-235.5 -25.5h-766v-420h-307zM430 1147v-440h787q61 0 113 11t90 36.5t58.5 68.5t20.5 105q0 123 -79 171t-203 48h-787z" />
<glyph unicode="Q" horiz-adv-x="2088" d="M1841 -379q-236 0 -407.5 5t-284.5 39t-168 104.5t-59 203.5q-207 14 -365 77t-263.5 161t-158.5 227t-53 279q0 160 61.5 297t182 236.5t301 156.5t417.5 57q238 0 418 -57t301 -156.5t182.5 -236.5t61.5 -297q0 -150 -53 -279t-158.5 -227t-262.5 -160.5t-364 -77.5 q10 -37 57.5 -55t132.5 -24.5t204.5 -6.5h277.5v-266zM395 717q0 -102 39 -186.5t119 -145.5t203 -95t288 -34q166 0 289 34t203 95t119 145t39 187q0 100 -39 185t-119 146.5t-203 95.5t-289 34t-288.5 -34t-202.5 -95.5t-119 -146.5t-39 -185z" />
<glyph unicode="R" horiz-adv-x="1894" d="M123 1434h1137q115 0 216 -24t175.5 -78t117.5 -142t43 -217q0 -127 -43 -213t-117.5 -139.5t-175 -76t-212.5 -22.5h-19l629 -522h-475l-586 512h-383v-512h-307v1434zM1270 799q100 0 164.5 39t64.5 135t-64.5 135t-164.5 39h-840v-348h840z" />
<glyph unicode="S" horiz-adv-x="1869" d="M936 -31q-199 0 -418 32t-436 103l84 275q207 -61 402.5 -93t422.5 -32q23 0 68 1t99 6t110.5 16.5t101.5 31t75 48t30 71.5q0 39 -27 61.5t-85 35t-149.5 19.5t-218.5 13q-102 6 -206.5 13.5t-199.5 23.5t-178 44t-144.5 75t-96.5 116.5t-35 167.5t35 171t94.5 125.5 t139 85t169 52t184.5 26.5t185 7q170 0 355.5 -21.5t377.5 -62.5l-63 -280q-164 35 -337 56.5t-384 21.5q-18 0 -58 -1t-89.5 -5.5t-101.5 -14.5t-95 -28.5t-70.5 -46t-27.5 -68.5q0 -53 47 -83t125.5 -46.5t179 -22.5t209.5 -10q150 -6 291 -21.5t248.5 -58.5t173 -121 t65.5 -209q0 -100 -38 -173.5t-103.5 -127t-151.5 -86t-180 -52t-191.5 -27t-187.5 -7.5z" />
<glyph unicode="T" horiz-adv-x="1740" d="M1024 1147v-1147h-307v1147h-676v287h1659v-287h-676z" />
<glyph unicode="U" horiz-adv-x="1966" d="M1536 1434h307v-861q0 -317 -215 -460.5t-645 -143.5t-645 143.5t-215 460.5v861h307v-861q0 -100 42 -161.5t116 -96t175 -47t220 -12.5t220.5 12.5t175 47t115.5 96t42 161.5v861z" />
<glyph unicode="V" horiz-adv-x="1935" d="M1956 1434l-811 -1434h-354l-811 1434h354l342 -615l291 -551l293 551l342 615h354z" />
<glyph unicode="W" horiz-adv-x="2490" d="M1587 0l-217 614l-125 396l-125 -396l-217 -614h-332l-591 1434h331l254 -615l164 -436l137 436l217 615h324l217 -615l137 -436l164 436l254 615h332l-592 -1434h-332z" />
<glyph unicode="X" horiz-adv-x="1859" d="M1421 1434h420l-713 -699l752 -735h-420l-530 537l-531 -537h-419l751 735l-711 699h418l492 -500z" />
<glyph unicode="Y" horiz-adv-x="1970" d="M1991 1434l-852 -1006v-428h-308v428l-851 1006h389l301 -359l315 -399l318 399l299 359h389z" />
<glyph unicode="Z" horiz-adv-x="1777" d="M82 0v287l848 655l289 205h-1113v287h1539v-287l-846 -655l-291 -205h1188v-287h-1614z" />
<glyph unicode="[" horiz-adv-x="901" d="M184 1700h615v-205h-328v-1653h328v-204h-615v2062z" />
<glyph unicode="\" horiz-adv-x="905" d="M319 1464l545 -1495h-278l-545 1495h278z" />
<glyph unicode="]" horiz-adv-x="901" d="M717 -362h-615v204h328v1653h-328v205h615v-2062z" />
<glyph unicode="^" horiz-adv-x="1167" d="M883 614l-299 656l-299 -656h-224l410 850h223l412 -850h-223z" />
<glyph unicode="_" horiz-adv-x="1218" d="M123 -205h973v-239h-973v239z" />
<glyph unicode="`" horiz-adv-x="1662" d="M1186 1315l-53 -148l-697 209l82 226z" />
<glyph unicode="a" horiz-adv-x="1703" d="M1642 0q-158 -31 -251 -31q-92 0 -143.5 20.5t-77 49.5t-33 61.5t-9.5 57.5q-37 -43 -97 -78t-132 -59.5t-149.5 -38t-147.5 -13.5q-111 0 -203 25.5t-158.5 75t-102.5 122t-36 166.5q0 98 45.5 163t119 103t167.5 53t193 15q68 0 138.5 -6t135 -15t118.5 -21.5t93 -24.5 q-4 41 -26.5 76.5t-68.5 61t-120 41t-178 15.5q-84 0 -159 -7t-134 -16.5t-100 -19.5t-60 -16l-98 268q23 8 75 21.5t124.5 25.5t163 21.5t188.5 9.5q193 0 327 -39t218 -108.5t120.5 -164t36.5 -204.5v-264q0 -29 17.5 -51.5t83.5 -22.5q49 0 120 14v-266zM416 379 q0 -80 70.5 -115t168.5 -35q74 0 154 17.5t146.5 46.5t110.5 68.5t48 87.5v38h-504q-37 0 -71.5 -5t-62 -17t-44 -33.5t-16.5 -52.5z" />
<glyph unicode="b" horiz-adv-x="1665" d="M102 1434l308 30v-338l-2 -118l2 -2q111 47 233.5 73.5t267.5 26.5q178 0 309.5 -42t216.5 -118t126 -178t41 -223q0 -127 -43 -232.5t-126 -181.5t-204 -119t-277 -43q-111 0 -203 20.5t-162.5 49.5t-119.5 61.5t-74 57.5l-2 -2l-20 -156h-271v1434zM881 821 q-117 0 -237 -19.5t-234 -43.5v-318q4 -29 48 -60.5t113.5 -60t158.5 -47t185 -18.5q98 0 170 21.5t117 59.5t66.5 91t21.5 117q0 59 -20.5 110.5t-67.5 88t-125.5 58t-195.5 21.5z" />
<glyph unicode="c" horiz-adv-x="1554" d="M1493 55q-27 -10 -79 -24.5t-126 -28.5t-168 -23.5t-207 -9.5q-225 0 -385.5 43t-264 119t-153 180.5t-49.5 227.5t49.5 227t153 180t264 118t385.5 42q113 0 207 -9.5t168 -23.5t126 -28.5t79 -24.5l-57 -268q-20 6 -68.5 17t-118 23.5t-154.5 20.5t-180 8 q-156 0 -260 -21.5t-166.5 -58t-88 -89t-25.5 -113.5t25.5 -113.5t88 -90.5t167 -59.5t259.5 -21.5q94 0 179.5 8t155 20.5t117.5 23.5t69 18z" />
<glyph unicode="d" horiz-adv-x="1665" d="M1255 1126v308l308 30v-1464h-271l-20 156l-2 2q-25 -25 -74 -57.5t-119.5 -61.5t-163 -49.5t-202.5 -20.5q-156 0 -277 43t-204 119t-126 181.5t-43 232.5q0 121 41 223t126 178t216 118t310 42q145 0 268 -26.5t233 -73.5l2 2zM784 821q-117 0 -195.5 -21.5t-125.5 -58 t-67.5 -88t-20.5 -110.5q0 -63 21.5 -116.5t66.5 -91.5t116.5 -59.5t170.5 -21.5q94 0 184 18.5t159.5 47t113.5 60.5t48 60v318q-115 25 -234.5 44t-236.5 19z" />
<glyph unicode="e" horiz-adv-x="1611" d="M393 432q35 -90 145.5 -134t323.5 -44q100 0 194.5 8t171.5 20.5t132 23.5t76 18l57 -269q-27 -10 -85 -24.5t-140 -28.5t-183.5 -23.5t-212.5 -9.5q-410 0 -610.5 143.5t-200.5 417.5q0 119 44.5 223.5t133.5 182.5t224 124t317 46q174 0 325.5 -42t252 -126t137.5 -211 t-18 -295h-1084zM387 637h780q23 88 -76.5 139t-293.5 51q-188 0 -281.5 -48t-122.5 -124z" />
<glyph unicode="f" horiz-adv-x="845" d="M471 1085v-10h274v-254h-274v-821h-307v821h-144v254h144v10q0 104 23.5 177t69.5 117t112.5 63.5t152.5 19.5q57 0 123 -7t139 -21v-236q-53 4 -96 7t-78 3q-74 0 -106.5 -24.5t-32.5 -98.5z" />
<glyph unicode="g" horiz-adv-x="1552" d="M113 696q0 100 51 177t141 129.5t211 78t260 25.5q61 0 118.5 -5t111.5 -16q35 12 91 26.5t124.5 26t146.5 18.5t154 7l16 -180h-260q76 -51 119 -123t43 -164q0 -102 -50.5 -173.5t-138.5 -117t-209.5 -67t-265.5 -21.5q-80 0 -153.5 6.5t-139.5 20.5 q-16 -12 -34.5 -34.5t-34 -48t-21.5 -54.5t4 -53q49 14 123 30.5t161 31.5t181 25.5t187 10.5q94 0 181 -13.5t152.5 -47t104.5 -90t39 -140.5q0 -88 -41 -148.5t-106.5 -100.5t-148.5 -63.5t-167 -34.5t-160 -14t-129 -3q-154 0 -276.5 10t-215 23.5t-152.5 27.5t-89 25 l57 268q18 -4 78 -15.5t155 -23.5t223 -22.5t284 -10.5q68 0 134 2t118.5 10.5t85 22.5t32.5 37q0 20 -28.5 34.5t-76.5 23.5t-113.5 12.5t-139.5 3.5q-131 0 -271.5 -8.5t-248.5 -18.5q-31 2 -64 15.5t-59.5 36t-44 57t-19.5 79.5q10 47 53.5 102.5t137.5 100.5 q-104 45 -162.5 120.5t-58.5 186.5zM426 696q0 -33 26.5 -56.5t73.5 -38.5t111.5 -22.5t138.5 -7.5t138.5 7.5t111.5 22.5t73.5 39t26.5 56q0 31 -26.5 53.5t-73.5 38t-111.5 23.5t-138.5 8t-138.5 -8t-111.5 -23.5t-73.5 -38t-26.5 -53.5z" />
<glyph unicode="h" d="M1235 0v543q0 59 -16.5 110.5t-59.5 88t-117.5 58t-191.5 21.5t-221.5 -19.5t-218.5 -43.5v-758h-308v1434l308 30v-338l-2 -118l2 -2q55 23 108 41t109.5 31.5t119 20.5t134.5 7q178 0 304 -42t205.5 -118t115.5 -178t36 -223v-545h-307z" />
<glyph unicode="i" horiz-adv-x="593" d="M143 0v1061l308 31v-1092h-308zM143 1204v246h308v-246h-308z" />
<glyph unicode="j" horiz-adv-x="593" d="M143 45v1016l308 31v-1047q0 -141 -38 -226t-104.5 -131t-158 -61.5t-197.5 -15.5v235q104 0 147 49.5t43 149.5zM143 1204v246h308v-246h-308z" />
<glyph unicode="k" horiz-adv-x="1636" d="M1616 0h-459l-536 416h-211v-416h-308v1434l308 30v-802h215l551 413h438l-721 -536z" />
<glyph unicode="l" horiz-adv-x="512" d="M102 1434l308 30v-1464h-308v1434z" />
<glyph unicode="m" horiz-adv-x="2478" d="M102 0v1061l297 31l9 -84l2 -2q111 47 206 73.5t191 26.5q164 0 272.5 -36t175.5 -99q59 31 130 55.5t141.5 41.5t136.5 27.5t113 10.5q178 0 294.5 -42t184 -118t94.5 -178t27 -223v-545h-308v543q0 59 -7 110.5t-37.5 88t-96 58t-182.5 21.5t-207 -20.5t-168 -42.5 q12 -49 17.5 -102.5t5.5 -110.5v-545h-308v543q0 59 -4 110.5t-33.5 88t-92 58t-179.5 21.5t-203 -20.5t-163 -42.5v-758h-308z" />
<glyph unicode="n" d="M1235 0v543q0 59 -16.5 110.5t-59.5 88t-117.5 58t-191.5 21.5t-221.5 -19.5t-218.5 -43.5v-758h-308v1061l297 31l9 -84l2 -2q55 23 108 41t109.5 31.5t119 20.5t134.5 7q178 0 304 -42t205.5 -118t115.5 -178t36 -223v-545h-307z" />
<glyph unicode="o" horiz-adv-x="1597" d="M61 539q0 123 48.5 227t142.5 180t231.5 118t315.5 42t315 -42t231.5 -118t142.5 -180t48 -227t-48 -227.5t-142.5 -180.5t-231.5 -119t-315 -43t-315.5 43t-231.5 119t-142.5 180.5t-48.5 227.5zM375 539q0 -123 105.5 -204t318.5 -81t318.5 81t105.5 204t-105.5 202.5 t-318.5 79.5t-318.5 -79.5t-105.5 -202.5z" />
<glyph unicode="p" horiz-adv-x="1665" d="M408 156l2 -156v-389h-308v1450l297 31l9 -84l2 -2q111 47 233.5 73.5t267.5 26.5q178 0 309.5 -42t216.5 -118t126 -178t41 -223q0 -127 -43 -232.5t-126 -181.5t-204 -119t-277 -43q-111 0 -200.5 20.5t-157.5 49.5t-115 61.5t-71 57.5zM881 821q-117 0 -237 -19.5 t-234 -43.5v-318q4 -29 48 -60.5t113.5 -60t158.5 -47t185 -18.5q98 0 170 21.5t117 59.5t66.5 91t21.5 117q0 59 -20.5 110.5t-67.5 88t-125.5 58t-195.5 21.5z" />
<glyph unicode="q" horiz-adv-x="1665" d="M1257 156l-2 2q-25 -25 -71.5 -57.5t-114.5 -61.5t-158 -49.5t-200 -20.5q-156 0 -277 43t-204 119t-126 181.5t-43 232.5q0 121 41 223t126 178t216 118t310 42q145 0 268 -26.5t233 -73.5l2 2l9 53l297 31v-1481h-308v389zM784 821q-117 0 -195.5 -21.5t-125.5 -58 t-67.5 -88t-20.5 -110.5q0 -63 21.5 -116.5t66.5 -91.5t116.5 -59.5t170.5 -21.5q94 0 184 18.5t159.5 47t113.5 60.5t48 60v318q-115 25 -234.5 44t-236.5 19z" />
<glyph unicode="r" horiz-adv-x="1044" d="M102 1061l297 31l9 -158l2 -2q127 106 267 140t286 34l-13 -301q-66 6 -142.5 5t-150 -15.5t-139 -41t-108.5 -69.5v-684h-308v1061z" />
<glyph unicode="s" horiz-adv-x="1595" d="M123 340q109 -25 198 -41t166.5 -26.5t151.5 -14.5t154 -4q41 0 113.5 2t142 10t121 25.5t51.5 48.5q0 25 -33 36t-90.5 16t-132 6t-158.5 3q-121 2 -247 13.5t-229.5 46.5t-170 101.5t-66.5 178.5q0 86 34 146.5t90 101.5t129 63.5t149.5 35t151.5 15.5t136 3 q299 0 656 -62l-49 -282q-98 16 -180.5 27.5t-159 17.5t-154.5 9t-168 3q-150 0 -235.5 -16.5t-85.5 -63.5q0 -27 30.5 -41t85 -21t125 -9t150.5 -2q82 -2 168 -5.5t168 -13.5t154.5 -30.5t126.5 -56.5t86 -89t32 -129q0 -90 -43 -151.5t-111.5 -103.5t-153.5 -65.5 t-172 -35t-165 -14.5t-131 -3q-92 0 -174 4t-165 15.5t-170 29t-188 41.5z" />
<glyph unicode="t" horiz-adv-x="845" d="M471 1075h313v-254h-313v-473q0 -74 33 -98.5t106 -24.5q35 0 78 3t96 8v-236q-74 -14 -139 -22.5t-123 -8.5q-86 0 -152.5 19.5t-112.5 64.5t-69.5 118t-23.5 177v473h-144v254h144v266l307 31v-297z" />
<glyph unicode="u" d="M102 530v545h308v-543q0 -61 16 -112t59 -88t118 -57.5t192 -20.5q94 0 174 18.5t137 47t91 60.5t38 60v635h307v-1075h-270l-21 156l-2 2q-31 -31 -78 -64t-112.5 -60.5t-150.5 -46t-189 -18.5q-170 0 -288 42t-190.5 118t-105.5 178t-33 223z" />
<glyph unicode="v" horiz-adv-x="1593" d="M1573 1075l-608 -1075h-336l-609 1075h359l299 -563l119 -244l118 244l299 563h359z" />
<glyph unicode="w" horiz-adv-x="2220" d="M1403 0l-170 391l-123 328l-123 -328l-170 -391h-332l-465 1075h338l226 -563l67 -190l68 190l225 563h332l225 -563l68 -190l67 190l226 563h338l-465 -1075h-332z" />
<glyph unicode="x" horiz-adv-x="1540" d="M1104 1075h414l-566 -536l568 -539h-414l-336 350l-336 -350h-414l568 539l-563 536h411l334 -348z" />
<glyph unicode="y" horiz-adv-x="1593" d="M20 1075h359l299 -563l115 -238l421 801h359l-651 -1155q-53 -92 -110.5 -154.5t-120 -100.5t-132.5 -53t-149 -15q-76 0 -159 11t-177 30v235q61 -10 139 -24.5t156 -14.5q82 0 151.5 25.5t108.5 99.5l18 37z" />
<glyph unicode="z" horiz-adv-x="1572" d="M1491 254v-254h-1409v254l872 567h-821v254h1311v-254l-877 -567h924z" />
<glyph unicode="{" horiz-adv-x="880" d="M332 668q51 -20 97 -50t82 -76t57.5 -111.5t21.5 -156.5q0 -76 -10.5 -144.5t-10.5 -123.5q0 -37 8.5 -67.5t32 -52t63.5 -34t105 -12.5v-205q-133 0 -226 14.5t-150.5 49.5t-83 94.5t-25.5 149.5q0 74 14.5 171t14.5 191q0 51 -8.5 98.5t-28 85t-54 63.5t-88.5 36v160 q53 10 88 35.5t54.5 63.5t28 85t8.5 98q0 94 -14.5 191.5t-14.5 171.5q0 90 25.5 149.5t83 94t150.5 49t226 14.5v-205q-66 0 -105.5 -12.5t-63 -34t-32 -52t-8.5 -67.5q0 -55 10.5 -123.5t10.5 -144.5q0 -90 -21.5 -155.5t-57.5 -111.5t-82 -76t-97 -50z" />
<glyph unicode="|" horiz-adv-x="655" d="M430 -307h-205v2048h205v-2048z" />
<glyph unicode="}" horiz-adv-x="880" d="M549 668q-51 20 -97 50t-82 76t-57.5 111.5t-21.5 155.5q0 76 10 144.5t10 123.5q0 37 -8 67.5t-31.5 52t-64.5 34t-105 12.5v205q133 0 226.5 -14.5t151 -49t83 -94t25.5 -149.5q0 -74 -14.5 -171.5t-14.5 -191.5q0 -51 7 -98t27.5 -85t55.5 -63.5t88 -35.5v-160 q-53 -10 -88 -36t-55.5 -63.5t-27.5 -85t-7 -98.5q0 -94 14.5 -191.5t14.5 -170.5q0 -90 -25.5 -149.5t-83 -94.5t-150.5 -49.5t-227 -14.5v205q63 0 104.5 12.5t65 34t31.5 52t8 67.5q0 55 -10 124t-10 144q0 90 21.5 156t57.5 112t82 76t97 50z" />
<glyph unicode="~" horiz-adv-x="1462" d="M1278 772q-57 -57 -108.5 -95t-97.5 -61.5t-88 -33t-81 -9.5q-55 0 -105 19.5t-94.5 42t-83 42t-71.5 19.5q-35 0 -83 -26.5t-118 -96.5l-164 164q109 109 198 151t167 42q55 0 104 -19.5t92 -42t82 -42t76 -19.5q35 0 86 27.5t125 101.5z" />
<glyph unicode="&#xa1;" horiz-adv-x="673" d="M199 778v297h276v-297h-276zM489 -358h-305l25 962h256z" />
<glyph unicode="&#xa2;" horiz-adv-x="1595" d="M967 1464v-180q102 -2 187 -12t152.5 -23.5t114.5 -28t72 -22.5l-57 -268q-18 6 -62.5 16t-106 21.5t-138 20.5t-162.5 11v-567q86 2 162.5 11.5t138 19.5t105.5 21.5t63 17.5l57 -269q-25 -10 -72 -23t-114.5 -26.5t-152.5 -23.5t-187 -13v-178h-164v181 q-193 10 -327 57t-217 121.5t-120 173t-37 215.5q0 115 37 214t120 173t217 120t327 56v184h164zM416 717q0 -55 15 -103.5t58 -85t118 -61.5t196 -33v561q-121 -8 -196 -31.5t-118 -60.5t-58 -84t-15 -102z" />
<glyph unicode="&#xa3;" horiz-adv-x="1540" d="M20 799h134l16 198q10 137 70.5 227.5t152.5 143.5t208 74.5t239 21.5q166 0 323.5 -27.5t274.5 -56.5l-64 -280q-23 6 -79 20.5t-133 27.5t-165 23.5t-174 10.5q-68 0 -128 -8.5t-107 -28t-77 -51t-34 -80.5l-20 -215h585v-164h-600l-32 -348h1028v-287h-1350l51 635 h-119v164z" />
<glyph unicode="&#xa4;" horiz-adv-x="1761" d="M676 225h-287v287l-205 205l205 205v286h287l205 205l204 -205h287v-286l205 -205l-205 -205v-287h-287l-204 -205zM762 430l119 -119l118 119h168v168l119 119l-119 119v168h-168l-118 118l-119 -118h-168v-168l-119 -119l119 -119v-168h168z" />
<glyph unicode="&#xa5;" horiz-adv-x="1724" d="M1546 164h-530v-164h-307v164h-539v164h539v164h-539v163h422l-592 779h389l240 -359l233 -358l236 358l237 359h389l-591 -779h413v-163h-530v-164h530v-164z" />
<glyph unicode="&#xa6;" horiz-adv-x="655" d="M430 850h-205v891h205v-891zM430 -307h-205v891h205v-891z" />
<glyph unicode="&#xa7;" horiz-adv-x="1636" d="M1176 416q143 -33 224 -98.5t81 -200.5q0 -111 -62.5 -181.5t-163 -111.5t-228.5 -56.5t-259 -15.5q-106 0 -207.5 7.5t-186.5 17.5t-148.5 20t-90.5 17l49 282q27 -8 93.5 -18t155.5 -19.5t189.5 -15.5t196.5 -6q72 0 135.5 4t110.5 13t74.5 25.5t27.5 39.5 q0 49 -64.5 72.5t-176 37t-259 27.5t-313.5 45l84 467q-141 33 -222 99.5t-81 201.5q0 111 62.5 181.5t163 111.5t228.5 56.5t259 15.5q106 0 207.5 -7.5t186.5 -17.5t147.5 -20.5t91.5 -16.5l-49 -282q-27 8 -93.5 18t-155.5 19.5t-190.5 15.5t-195.5 6q-72 0 -135.5 -4 t-110.5 -13.5t-74.5 -25.5t-27.5 -39q0 -49 64.5 -72.5t176 -37t259 -28t313.5 -44.5zM1083 680q-143 20 -270 33.5t-235 29.5l-46 -237q141 -23 268.5 -35t237.5 -29z" />
<glyph unicode="&#xa8;" horiz-adv-x="1662" d="M600 1464v-239h-223v239h223zM1104 1464v-239h-223v239h223z" />
<glyph unicode="&#xa9;" horiz-adv-x="1896" d="M82 717q0 160 55.5 297t164 236.5t271 156.5t375.5 57t375 -57t271.5 -156.5t165 -236.5t55.5 -297t-55.5 -297t-165 -236.5t-271.5 -157t-375 -57.5t-375.5 57.5t-271 157t-164 236.5t-55.5 297zM246 717q0 -125 45 -231.5t133 -185.5t220 -123t304 -44t304 44 t220.5 123t133.5 185.5t45 231.5t-45 231.5t-133.5 184t-220.5 122.5t-304 45t-304 -45t-220 -122.5t-133 -184t-45 -231.5zM1378 369q-39 -12 -141 -38t-260 -26q-154 0 -264.5 32t-181 87t-103.5 130t-33 163t33 162.5t103.5 130t181 87t264.5 31.5q158 0 260 -25.5 t141 -37.5l-39 -152q-86 25 -175 41.5t-187 16.5q-111 0 -188.5 -18.5t-127 -52.5t-72 -81t-22.5 -102t22.5 -102.5t72 -81t127 -52t188.5 -18.5q98 0 187 16.5t175 40.5z" />
<glyph unicode="&#xaa;" horiz-adv-x="1277" d="M1257 635q-59 -12 -105 -17.5t-83 -5.5q-68 0 -106.5 15.5t-58 37t-25 46t-7.5 43.5q-29 -33 -73.5 -59.5t-99 -45t-112 -28t-110.5 -9.5q-168 0 -271.5 75t-103.5 218q0 74 34 122t89.5 77t126 40t144.5 11q102 0 202.5 -16.5t159.5 -34.5q-4 31 -20.5 56.5t-50 46 t-88 31.5t-134.5 11q-129 0 -221 -16t-119 -27l-73 201q16 6 55 15.5t94 18.5t123 16t141 7q145 0 245.5 -29.5t163 -80.5t90.5 -123t28 -154v-196q0 -23 14 -39.5t61 -16.5q16 0 39 2t51 9v-201zM338 920q0 -59 52 -86t126 -27q55 0 115.5 13.5t110 35t82 51t36.5 64.5v30 h-377q-55 0 -100 -17t-45 -64z" />
<glyph unicode="&#xab;" horiz-adv-x="1523" d="M737 1106l131 -156l-440 -360l440 -359l-131 -155l-614 514zM1270 1106l131 -156l-440 -360l440 -359l-131 -155l-615 514z" />
<glyph unicode="&#xac;" horiz-adv-x="1382" d="M1239 819v-745h-205v540h-891v205h1096z" />
<glyph unicode="&#xad;" horiz-adv-x="1382" d="M205 801h973v-240h-973v240z" />
<glyph unicode="&#xae;" horiz-adv-x="1896" d="M82 717q0 160 55.5 297t164 236.5t271 156.5t375.5 57t375 -57t271.5 -156.5t165 -236.5t55.5 -297t-55.5 -297t-165 -236.5t-271.5 -157t-375 -57.5t-375.5 57.5t-271 157t-164 236.5t-55.5 297zM246 717q0 -125 45 -231.5t133 -185.5t220 -123t304 -44t304 44 t220.5 123t133.5 185.5t45 231.5t-45 231.5t-133.5 184t-220.5 122.5t-304 45t-304 -45t-220 -122.5t-133 -184t-45 -231.5zM516 322v788h627q63 0 118.5 -13.5t96.5 -42t64.5 -77.5t23.5 -119q0 -72 -24.5 -119t-68.5 -75.5t-104.5 -41t-132.5 -12.5l332 -288h-240 l-317 282h-205v-282h-170zM1147 762q57 0 92 21.5t35 74.5t-35 73.5t-92 20.5h-461v-190h461z" />
<glyph unicode="&#xaf;" horiz-adv-x="1662" d="M1104 1464v-198h-727v198h727z" />
<glyph unicode="&#xb0;" horiz-adv-x="1064" d="M102 1092q0 78 27 146.5t81 118.5t134 78.5t188 28.5q106 0 187.5 -28.5t134.5 -78.5t81 -119t28 -146q0 -80 -28 -147.5t-81 -119t-134 -80t-188 -28.5q-109 0 -188.5 28.5t-133.5 80t-81 119t-27 147.5zM303 1092q0 -84 54.5 -140.5t174.5 -56.5q121 0 174.5 55.5 t53.5 141.5q0 84 -53.5 137t-174.5 53q-123 0 -176 -53t-53 -137z" />
<glyph unicode="&#xb1;" horiz-adv-x="1382" d="M590 639v405h205v-405h403v-205h-403v-229h403v-205h-1014v205h406v229h-406v205h406z" />
<glyph unicode="&#xb2;" horiz-adv-x="1286" d="M78 608v289q172 74 317.5 139.5t250 126t162.5 114.5t58 103q0 37 -30.5 56.5t-72.5 29t-85 10.5t-68 1q-78 0 -141 -5.5t-119.5 -14.5t-109 -19.5t-107.5 -22.5q-16 72 -32.5 141.5t-30.5 141.5q133 35 252.5 51t246.5 16q55 0 123 -4t135.5 -16t133 -34.5t114.5 -60.5 t80 -92.5t31 -127.5q0 -74 -32 -142.5t-107.5 -135.5t-204.5 -130.5t-322 -124.5h697v-289h-1139z" />
<glyph unicode="&#xb3;" horiz-adv-x="1265" d="M137 969q135 -45 268.5 -70t266.5 -25q96 0 159.5 22t63.5 81q0 55 -70.5 76.5t-242.5 21.5h-314v199q98 0 177 -1t143 -1q76 0 129 3t87 12t48 27.5t14 47.5q0 45 -26.5 68.5t-65.5 35t-84 13.5t-82 2q-78 0 -140 -6.5t-118.5 -15.5t-109 -20.5t-107.5 -23.5l-63 283 q133 35 253.5 51t256.5 16q53 0 118.5 -4t132 -16t131 -34.5t113.5 -60.5t80 -93.5t31 -133.5q0 -113 -69.5 -167t-213.5 -78q156 -23 232.5 -80.5t76.5 -173.5q0 -98 -47 -163t-124.5 -104t-179 -55t-208.5 -16q-90 0 -178 9t-168 23.5t-145.5 34t-108.5 37.5z" />
<glyph unicode="&#xb4;" horiz-adv-x="1662" d="M1116 1602l82 -226l-696 -209l-53 148z" />
<glyph unicode="&#xb5;" d="M102 -389v1464h314v-543q0 -61 15 -112t57 -88t116 -57.5t191 -20.5q94 0 174 18.5t137 47t91 60.5t38 60v635h307v-1075h-270l-21 156l-2 2q-31 -31 -78 -64t-112.5 -60.5t-150.5 -46t-189 -18.5q-96 0 -173 14.5t-140 36.5l4 -409h-308z" />
<glyph unicode="&#xb6;" horiz-adv-x="1622" d="M1157 0h-246v623h-317q-98 0 -187.5 20.5t-157 68.5t-107.5 124.5t-40 191.5q0 113 40 190.5t107.5 126t157 69t187.5 20.5h563v-1434zM1499 0h-246v1434h246v-1434z" />
<glyph unicode="&#xb7;" horiz-adv-x="645" d="M461 686v-297h-277v297h277z" />
<glyph unicode="&#xb8;" horiz-adv-x="1636" d="M643 -510l88 160q90 0 163 11t83 44q6 18 -8.5 32.5t-40 25t-59 17.5t-68.5 11q-10 4 -23.5 18.5t-11.5 34.5l98 181h121l-78 -142q35 0 86 -11t96.5 -34.5t73 -59.5t19.5 -85q-14 -76 -81 -117t-151 -60.5t-170 -22.5t-137 -3z" />
<glyph unicode="&#xb9;" horiz-adv-x="1073" d="M381 897v539l-252 -78l-90 246l348 137h305v-844h344v-289h-999v289h344z" />
<glyph unicode="&#xba;" horiz-adv-x="1310" d="M102 1038q0 92 36 171t106.5 135.5t174 88t236.5 31.5t236.5 -31.5t174.5 -88t106.5 -135.5t35.5 -171t-35.5 -171t-106.5 -136t-174.5 -89t-236.5 -32t-236.5 32t-174 89t-106.5 136t-36 171zM338 1038q0 -92 79 -152.5t238 -60.5q160 0 239 60.5t79 152.5t-79 151.5 t-239 59.5t-238.5 -59.5t-78.5 -151.5z" />
<glyph unicode="&#xbb;" horiz-adv-x="1523" d="M1401 590l-615 -514l-131 155l441 359l-441 360l131 156zM868 590l-614 -514l-131 155l440 359l-440 360l131 156z" />
<glyph unicode="&#xbc;" horiz-adv-x="3256" d="M3035 193v-193h-311v193h-707v290l707 650h311v-650h152l-6 -290h-146zM381 590v538l-252 -77l-90 245l348 138h305v-844h344v-289h-999v289h344zM940 57q344 342 664.5 697.5t623.5 734.5l125 -113q-344 -342 -664.5 -697t-623.5 -734zM2724 633l8 186l-270 -260 l-99 -76h361v150z" />
<glyph unicode="&#xbd;" horiz-adv-x="3506" d="M381 590v538l-252 -77l-90 245l348 138h305v-844h344v-289h-999v289h344zM940 57q344 342 664.5 697.5t623.5 734.5l125 -113q-344 -342 -664.5 -697t-623.5 -734zM2298 0v289q172 74 317.5 139.5t250 125.5t162.5 114.5t58 103.5q0 37 -30.5 56.5t-72.5 28.5t-85 10 t-68 1q-78 0 -141 -5t-119.5 -14t-109 -19.5t-107.5 -22.5q-16 72 -32.5 141.5t-30.5 141.5q133 35 252.5 51t246.5 16q55 0 123 -4t135.5 -16.5t133 -35t114.5 -60t80 -91t31 -129.5q0 -74 -32 -142.5t-107.5 -135t-204.5 -130t-322 -124.5h697v-289h-1139z" />
<glyph unicode="&#xbe;" horiz-adv-x="3295" d="M137 662q135 -45 268.5 -70t266.5 -25q96 0 159.5 21.5t63.5 81.5q0 55 -70.5 76.5t-242.5 21.5h-314v199q98 0 177 -1t143 -1q76 0 129 3t87 12t48 27.5t14 47.5q0 45 -26.5 68.5t-65.5 34.5t-84 13.5t-82 2.5q-78 0 -140 -6.5t-118.5 -15.5t-109 -20.5t-107.5 -23.5 l-63 283q133 35 253.5 51t256.5 16q53 0 118.5 -4t132 -16.5t131 -35t113.5 -60t80 -93t31 -133.5q0 -113 -69.5 -167t-213.5 -79q156 -23 232.5 -80t76.5 -174q0 -98 -47 -162.5t-124.5 -103.5t-179 -55t-208.5 -16q-90 0 -178 9t-168 23.5t-145.5 34t-108.5 37.5z M3074 193v-193h-311v193h-707v290l707 650h311v-650h152l-7 -290h-145zM979 57q344 342 664.5 697.5t623.5 734.5l125 -113q-344 -342 -664.5 -697t-623.5 -734zM2763 633l8 186l-270 -260l-99 -76h361v150z" />
<glyph unicode="&#xbf;" horiz-adv-x="1579" d="M969 604q0 -92 -41 -156.5t-102.5 -109.5t-132 -78t-132 -63.5t-102.5 -63.5t-41 -80q0 -53 50 -83.5t120.5 -47t145.5 -20.5t124 -4q154 0 293 22.5t283 54.5l63 -280q-166 -43 -316.5 -63.5t-308.5 -20.5q-70 0 -152.5 5t-168.5 20.5t-167 44t-143.5 75.5t-100.5 116 t-38 163q0 98 40 159.5t100.5 102.5t134.5 69.5t141.5 59.5t120.5 72t74 106h256zM702 778v297h277v-297h-277z" />
<glyph unicode="&#xc0;" horiz-adv-x="1955" d="M1976 0h-354l-166 287h-958l-164 -287h-354l821 1434h354zM686 614l-24 -41h630l-22 41l-293 551zM1214 1673l-53 -147l-696 209l82 225z" />
<glyph unicode="&#xc1;" horiz-adv-x="1955" d="M1976 0h-354l-166 287h-958l-164 -287h-354l821 1434h354zM686 614l-24 -41h630l-22 41l-293 551zM1417 1960l82 -225l-696 -209l-53 147z" />
<glyph unicode="&#xc2;" horiz-adv-x="1955" d="M1976 0h-354l-166 287h-958l-164 -287h-354l821 1434h354zM686 614l-24 -41h630l-22 41l-293 551zM977 1690l-416 -164l-65 141l481 260l483 -260l-65 -141z" />
<glyph unicode="&#xc3;" horiz-adv-x="1955" d="M1976 0h-354l-166 287h-958l-164 -287h-354l821 1434h354zM686 614l-24 -41h630l-22 41l-293 551zM1409 1737q-86 -92 -156.5 -135t-136.5 -43q-45 0 -85 15t-75.5 33.5t-67.5 34t-59 15.5t-72.5 -12.5t-101.5 -67.5l-110 115q84 90 152.5 132t131.5 42q43 0 82 -15.5 t74 -34t67.5 -34t63.5 -15.5q29 0 76 12.5t106 71.5z" />
<glyph unicode="&#xc4;" horiz-adv-x="1955" d="M1976 0h-354l-166 287h-958l-164 -287h-354l821 1434h354zM686 614l-24 -41h630l-22 41l-293 551zM838 1823v-240h-224v240h224zM1341 1823v-240h-223v240h223z" />
<glyph unicode="&#xc5;" horiz-adv-x="1955" d="M731 1524q0 90 58.5 148.5t189.5 58.5q129 0 187.5 -58.5t58.5 -148.5q0 -82 -43 -138l794 -1386h-354l-166 287h-958l-164 -287h-354l794 1386q-23 29 -33 63t-10 75zM686 614l-24 -41h630l-22 41l-293 551zM854 1524q0 -39 29.5 -64.5t95.5 -25.5h12q57 4 84 28.5 t27 61.5t-29 60.5t-94 23.5q-66 0 -95.5 -23.5t-29.5 -60.5z" />
<glyph unicode="&#xc6;" horiz-adv-x="3278" d="M3033 594h-1124v-307h1288v-287h-1595v287h-863l-313 -287h-446l1622 1434h1554v-287h-1247v-266h1124v-287zM1100 614l-45 -41h547v539z" />
<glyph unicode="&#xc7;" horiz-adv-x="1929" d="M848 -510l88 160q90 0 162.5 11t83.5 44q6 18 -8.5 32.5t-40 25t-59.5 17.5t-68 11q-10 4 -23.5 18.5t-11.5 34.5l69 127q-254 10 -435 70.5t-298 160t-171 230.5t-54 285q0 160 60.5 297t188.5 236.5t327.5 156.5t480.5 57q143 0 262 -13t211 -31.5t156.5 -38 t99.5 -31.5l-70 -277q-156 45 -317.5 75t-341.5 30q-203 0 -344.5 -34t-230.5 -95.5t-129 -146.5t-40 -185q0 -102 40 -186.5t129 -145.5t230.5 -95t344.5 -34q180 0 341.5 29.5t317.5 74.5l70 -276q-35 -12 -97.5 -30.5t-152.5 -37t-206 -32t-253 -15.5l-47 -86 q35 0 86 -11t96 -34.5t73 -59.5t19 -85q-14 -76 -80.5 -117t-150.5 -60.5t-170 -22.5t-137 -3z" />
<glyph unicode="&#xc8;" horiz-adv-x="1800" d="M123 0v1434h1554v-287h-1247v-266h1124v-287h-1124v-307h1288v-287h-1595zM1274 1673l-53 -147l-697 209l82 225z" />
<glyph unicode="&#xc9;" horiz-adv-x="1800" d="M123 0v1434h1554v-287h-1247v-266h1124v-287h-1124v-307h1288v-287h-1595zM1192 1960l82 -225l-696 -209l-54 147z" />
<glyph unicode="&#xca;" horiz-adv-x="1800" d="M123 0v1434h1554v-287h-1247v-266h1124v-287h-1124v-307h1288v-287h-1595zM899 1690l-416 -164l-65 141l481 260l483 -260l-65 -141z" />
<glyph unicode="&#xcb;" horiz-adv-x="1800" d="M123 0v1434h1554v-287h-1247v-266h1124v-287h-1124v-307h1288v-287h-1595zM760 1823v-240h-223v240h223zM1264 1823v-240h-224v240h224z" />
<glyph unicode="&#xcc;" horiz-adv-x="552" d="M123 1434h307v-1434h-307v1434zM483 1673l-53 -147l-696 209l82 225z" />
<glyph unicode="&#xcd;" horiz-adv-x="552" d="M123 1434h307v-1434h-307v1434zM739 1960l82 -225l-696 -209l-53 147z" />
<glyph unicode="&#xce;" horiz-adv-x="552" d="M123 1434h307v-1434h-307v1434zM276 1690l-415 -164l-66 141l481 260l484 -260l-66 -141z" />
<glyph unicode="&#xcf;" horiz-adv-x="552" d="M123 1434h307v-1434h-307v1434zM137 1823v-240h-223v240h223zM641 1823v-240h-223v240h223z" />
<glyph unicode="&#xd0;" horiz-adv-x="1964" d="M123 1434h702q279 0 479.5 -52.5t328.5 -146.5t188.5 -226t60.5 -292t-60.5 -292t-188.5 -226.5t-328.5 -146.5t-479.5 -52h-702v635h-123v164h123v635zM827 799v-164h-397v-348h395q203 0 344.5 28.5t230.5 84t129 135t40 182.5q0 100 -40 180t-129 135t-230.5 85 t-344.5 30h-395v-348h397z" />
<glyph unicode="&#xd1;" horiz-adv-x="1955" d="M1526 1434h307v-1434h-307l-1102 1047l6 -228v-819h-307v1434h307l1102 -1049l-6 229v820zM1409 1737q-86 -92 -156.5 -135t-136.5 -43q-45 0 -85 15t-75.5 33.5t-67.5 34t-59 15.5t-72.5 -12.5t-101.5 -67.5l-110 115q84 90 152.5 132t131.5 42q43 0 82 -15.5t74 -34 t67.5 -34t63.5 -15.5q29 0 76 12.5t106 71.5z" />
<glyph unicode="&#xd2;" horiz-adv-x="2088" d="M82 717q0 160 61.5 297t182 236.5t301 156.5t417.5 57q238 0 418 -57t301 -156.5t182.5 -236.5t61.5 -297t-61.5 -297t-182.5 -236.5t-301 -157t-418 -57.5t-418 57.5t-300.5 157t-182 236.5t-61.5 297zM395 717q0 -102 39 -186.5t119 -145.5t203 -95t288 -34 q166 0 289 34t203 95t119 145t39 187q0 100 -39 185t-119 146.5t-203 95.5t-289 34t-288.5 -34t-202.5 -95.5t-119 -146.5t-39 -185zM1419 1673l-53 -147l-696 209l82 225z" />
<glyph unicode="&#xd3;" horiz-adv-x="2088" d="M82 717q0 160 61.5 297t182 236.5t301 156.5t417.5 57q238 0 418 -57t301 -156.5t182.5 -236.5t61.5 -297t-61.5 -297t-182.5 -236.5t-301 -157t-418 -57.5t-418 57.5t-300.5 157t-182 236.5t-61.5 297zM395 717q0 -102 39 -186.5t119 -145.5t203 -95t288 -34 q166 0 289 34t203 95t119 145t39 187q0 100 -39 185t-119 146.5t-203 95.5t-289 34t-288.5 -34t-202.5 -95.5t-119 -146.5t-39 -185zM1337 1960l82 -225l-696 -209l-53 147z" />
<glyph unicode="&#xd4;" horiz-adv-x="2088" d="M82 717q0 160 61.5 297t182 236.5t301 156.5t417.5 57q238 0 418 -57t301 -156.5t182.5 -236.5t61.5 -297t-61.5 -297t-182.5 -236.5t-301 -157t-418 -57.5t-418 57.5t-300.5 157t-182 236.5t-61.5 297zM395 717q0 -102 39 -186.5t119 -145.5t203 -95t288 -34 q166 0 289 34t203 95t119 145t39 187q0 100 -39 185t-119 146.5t-203 95.5t-289 34t-288.5 -34t-202.5 -95.5t-119 -146.5t-39 -185zM1042 1690l-415 -164l-66 141l481 260l484 -260l-66 -141z" />
<glyph unicode="&#xd5;" horiz-adv-x="2088" d="M82 717q0 160 61.5 297t182 236.5t301 156.5t417.5 57q238 0 418 -57t301 -156.5t182.5 -236.5t61.5 -297t-61.5 -297t-182.5 -236.5t-301 -157t-418 -57.5t-418 57.5t-300.5 157t-182 236.5t-61.5 297zM395 717q0 -102 39 -186.5t119 -145.5t203 -95t288 -34 q166 0 289 34t203 95t119 145t39 187q0 100 -39 185t-119 146.5t-203 95.5t-289 34t-288.5 -34t-202.5 -95.5t-119 -146.5t-39 -185zM1477 1737q-86 -92 -157 -135t-136 -43q-45 0 -85 15t-76 33.5t-67.5 34t-58.5 15.5t-73 -12.5t-101 -67.5l-111 115q84 90 153 132t132 42 q43 0 82 -15.5t73.5 -34t67.5 -34t64 -15.5q29 0 76 12.5t106 71.5z" />
<glyph unicode="&#xd6;" horiz-adv-x="2088" d="M82 717q0 160 61.5 297t182 236.5t301 156.5t417.5 57q238 0 418 -57t301 -156.5t182.5 -236.5t61.5 -297t-61.5 -297t-182.5 -236.5t-301 -157t-418 -57.5t-418 57.5t-300.5 157t-182 236.5t-61.5 297zM395 717q0 -102 39 -186.5t119 -145.5t203 -95t288 -34 q166 0 289 34t203 95t119 145t39 187q0 100 -39 185t-119 146.5t-203 95.5t-289 34t-288.5 -34t-202.5 -95.5t-119 -146.5t-39 -185zM903 1823v-240h-223v240h223zM1407 1823v-240h-223v240h223z" />
<glyph unicode="&#xd7;" horiz-adv-x="1382" d="M547 537l-287 288l146 144l286 -287l287 287l143 -146l-286 -286l286 -285l-143 -146l-287 287l-286 -287l-146 144z" />
<glyph unicode="&#xd8;" horiz-adv-x="2088" d="M82 717q0 160 61.5 297t182 236.5t301 156.5t417.5 57q158 0 289 -25.5t238 -72.5l133 133l117 -117l-101 -100q143 -102 215 -246.5t72 -318.5q0 -160 -61.5 -297t-182.5 -236.5t-301 -157t-418 -57.5q-160 0 -294 27t-242 74l-135 -136l-117 117l104 105 q-139 102 -208.5 244.5t-69.5 316.5zM395 717q0 -109 43 -198t135 -150l773 772q-127 37 -302 37q-166 0 -288.5 -34t-202.5 -95.5t-119 -146.5t-39 -185zM1694 717q0 111 -46 201t-141 151l-774 -774q66 -18 142.5 -28.5t168.5 -10.5q166 0 289 34t203 95t119 145.5 t39 186.5z" />
<glyph unicode="&#xd9;" horiz-adv-x="1966" d="M1536 1434h307v-861q0 -317 -215 -460.5t-645 -143.5t-645 143.5t-215 460.5v861h307v-861q0 -100 42 -161.5t116 -96t175 -47t220 -12.5t220.5 12.5t175 47t115.5 96t42 161.5v861zM1358 1673l-53 -147l-697 209l82 225z" />
<glyph unicode="&#xda;" horiz-adv-x="1966" d="M1536 1434h307v-861q0 -317 -215 -460.5t-645 -143.5t-645 143.5t-215 460.5v861h307v-861q0 -100 42 -161.5t116 -96t175 -47t220 -12.5t220.5 12.5t175 47t115.5 96t42 161.5v861zM1276 1960l82 -225l-696 -209l-54 147z" />
<glyph unicode="&#xdb;" horiz-adv-x="1966" d="M1536 1434h307v-861q0 -317 -215 -460.5t-645 -143.5t-645 143.5t-215 460.5v861h307v-861q0 -100 42 -161.5t116 -96t175 -47t220 -12.5t220.5 12.5t175 47t115.5 96t42 161.5v861zM981 1690l-416 -164l-65 141l481 260l483 -260l-65 -141z" />
<glyph unicode="&#xdc;" horiz-adv-x="1966" d="M1536 1434h307v-861q0 -317 -215 -460.5t-645 -143.5t-645 143.5t-215 460.5v861h307v-861q0 -100 42 -161.5t116 -96t175 -47t220 -12.5t220.5 12.5t175 47t115.5 96t42 161.5v861zM842 1823v-240h-224v240h224zM1346 1823v-240h-224v240h224z" />
<glyph unicode="&#xdd;" horiz-adv-x="1970" d="M1991 1434l-852 -1006v-428h-308v428l-851 1006h389l301 -359l315 -399l318 399l299 359h389zM1278 1960l82 -225l-696 -209l-54 147z" />
<glyph unicode="&#xde;" horiz-adv-x="1873" d="M123 0v1434h307v-211h766q123 0 235.5 -26t196.5 -85t134 -156.5t50 -238.5t-50 -238.5t-134 -158t-196.5 -86t-235.5 -25.5h-766v-209h-307zM430 936v-440h787q61 0 113 11t90 36.5t58.5 68.5t20.5 105q0 123 -79 171t-203 48h-787z" />
<glyph unicode="&#xdf;" horiz-adv-x="2101" d="M102 0v1098q0 86 32 146.5t86 101t123 63.5t142.5 35t146.5 15t134 3q299 0 655 -61l-102 -572q-182 12 -283.5 -15.5t-101.5 -74.5q0 -29 31.5 -43t87 -20t128 -7t154.5 -3q119 -2 244 -10.5t227.5 -41t168 -96t65.5 -176.5q0 -90 -43 -151.5t-111.5 -103.5 t-153.5 -65.5t-172 -35t-165 -14.5t-131 -3q-92 0 -171 4t-158 15.5t-163 29t-184 41.5l61 281q109 -25 195 -41t160.5 -26.5t144.5 -14.5t149 -4q41 0 114 2t142.5 10t120.5 25.5t51 48.5q0 25 -33.5 36t-91 16t-134 6t-160.5 3q-117 2 -239 14.5t-221 47.5t-162.5 101.5 t-63.5 176.5q0 109 51 174.5t130 102.5t174 50t185 17l17 93q-98 10 -207 19t-211 11q-72 0 -136.5 -4t-111.5 -17t-74.5 -36t-27.5 -55v-1096h-308z" />
<glyph unicode="&#xe0;" horiz-adv-x="1703" d="M1642 0q-158 -31 -251 -31q-92 0 -143.5 20.5t-77 49.5t-33 61.5t-9.5 57.5q-37 -43 -97 -78t-132 -59.5t-149.5 -38t-147.5 -13.5q-111 0 -203 25.5t-158.5 75t-102.5 122t-36 166.5q0 98 45.5 163t119 103t167.5 53t193 15q68 0 138.5 -6t135 -15t118.5 -21.5t93 -24.5 q-4 41 -26.5 76.5t-68.5 61t-120 41t-178 15.5q-84 0 -159 -7t-134 -16.5t-100 -19.5t-60 -16l-98 268q23 8 75 21.5t124.5 25.5t163 21.5t188.5 9.5q193 0 327 -39t218 -108.5t120.5 -164t36.5 -204.5v-264q0 -29 17.5 -51.5t83.5 -22.5q49 0 120 14v-266zM416 379 q0 -80 70.5 -115t168.5 -35q74 0 154 17.5t146.5 46.5t110.5 68.5t48 87.5v38h-504q-37 0 -71.5 -5t-62 -17t-44 -33.5t-16.5 -52.5zM1227 1315l-53 -148l-697 209l82 226z" />
<glyph unicode="&#xe1;" horiz-adv-x="1703" d="M1642 0q-158 -31 -251 -31q-92 0 -143.5 20.5t-77 49.5t-33 61.5t-9.5 57.5q-37 -43 -97 -78t-132 -59.5t-149.5 -38t-147.5 -13.5q-111 0 -203 25.5t-158.5 75t-102.5 122t-36 166.5q0 98 45.5 163t119 103t167.5 53t193 15q68 0 138.5 -6t135 -15t118.5 -21.5t93 -24.5 q-4 41 -26.5 76.5t-68.5 61t-120 41t-178 15.5q-84 0 -159 -7t-134 -16.5t-100 -19.5t-60 -16l-98 268q23 8 75 21.5t124.5 25.5t163 21.5t188.5 9.5q193 0 327 -39t218 -108.5t120.5 -164t36.5 -204.5v-264q0 -29 17.5 -51.5t83.5 -22.5q49 0 120 14v-266zM416 379 q0 -80 70.5 -115t168.5 -35q74 0 154 17.5t146.5 46.5t110.5 68.5t48 87.5v38h-504q-37 0 -71.5 -5t-62 -17t-44 -33.5t-16.5 -52.5zM1145 1602l82 -226l-697 -209l-53 148z" />
<glyph unicode="&#xe2;" horiz-adv-x="1703" d="M1642 0q-158 -31 -251 -31q-92 0 -143.5 20.5t-77 49.5t-33 61.5t-9.5 57.5q-37 -43 -97 -78t-132 -59.5t-149.5 -38t-147.5 -13.5q-111 0 -203 25.5t-158.5 75t-102.5 122t-36 166.5q0 98 45.5 163t119 103t167.5 53t193 15q68 0 138.5 -6t135 -15t118.5 -21.5t93 -24.5 q-4 41 -26.5 76.5t-68.5 61t-120 41t-178 15.5q-84 0 -159 -7t-134 -16.5t-100 -19.5t-60 -16l-98 268q23 8 75 21.5t124.5 25.5t163 21.5t188.5 9.5q193 0 327 -39t218 -108.5t120.5 -164t36.5 -204.5v-264q0 -29 17.5 -51.5t83.5 -22.5q49 0 120 14v-266zM416 379 q0 -80 70.5 -115t168.5 -35q74 0 154 17.5t146.5 46.5t110.5 68.5t48 87.5v38h-504q-37 0 -71.5 -5t-62 -17t-44 -33.5t-16.5 -52.5zM768 1331l-416 -164l-65 142l481 260l483 -260l-65 -142z" />
<glyph unicode="&#xe3;" horiz-adv-x="1703" d="M1642 0q-158 -31 -251 -31q-92 0 -143.5 20.5t-77 49.5t-33 61.5t-9.5 57.5q-37 -43 -97 -78t-132 -59.5t-149.5 -38t-147.5 -13.5q-111 0 -203 25.5t-158.5 75t-102.5 122t-36 166.5q0 98 45.5 163t119 103t167.5 53t193 15q68 0 138.5 -6t135 -15t118.5 -21.5t93 -24.5 q-4 41 -26.5 76.5t-68.5 61t-120 41t-178 15.5q-84 0 -159 -7t-134 -16.5t-100 -19.5t-60 -16l-98 268q23 8 75 21.5t124.5 25.5t163 21.5t188.5 9.5q193 0 327 -39t218 -108.5t120.5 -164t36.5 -204.5v-264q0 -29 17.5 -51.5t83.5 -22.5q49 0 120 14v-266zM416 379 q0 -80 70.5 -115t168.5 -35q74 0 154 17.5t146.5 46.5t110.5 68.5t48 87.5v38h-504q-37 0 -71.5 -5t-62 -17t-44 -33.5t-16.5 -52.5zM1284 1378q-86 -92 -156.5 -135t-136.5 -43q-45 0 -85 15.5t-75.5 34t-67.5 33.5t-58 15q-27 0 -73 -12t-102 -67l-110 114 q84 90 152.5 132t132.5 42q43 0 81.5 -15t73.5 -33.5t68 -34t63 -15.5q29 0 76 12.5t107 71.5z" />
<glyph unicode="&#xe4;" horiz-adv-x="1703" d="M1642 0q-158 -31 -251 -31q-92 0 -143.5 20.5t-77 49.5t-33 61.5t-9.5 57.5q-37 -43 -97 -78t-132 -59.5t-149.5 -38t-147.5 -13.5q-111 0 -203 25.5t-158.5 75t-102.5 122t-36 166.5q0 98 45.5 163t119 103t167.5 53t193 15q68 0 138.5 -6t135 -15t118.5 -21.5t93 -24.5 q-4 41 -26.5 76.5t-68.5 61t-120 41t-178 15.5q-84 0 -159 -7t-134 -16.5t-100 -19.5t-60 -16l-98 268q23 8 75 21.5t124.5 25.5t163 21.5t188.5 9.5q193 0 327 -39t218 -108.5t120.5 -164t36.5 -204.5v-264q0 -29 17.5 -51.5t83.5 -22.5q49 0 120 14v-266zM416 379 q0 -80 70.5 -115t168.5 -35q74 0 154 17.5t146.5 46.5t110.5 68.5t48 87.5v38h-504q-37 0 -71.5 -5t-62 -17t-44 -33.5t-16.5 -52.5zM711 1464v-239h-224v239h224zM1214 1464v-239h-223v239h223z" />
<glyph unicode="&#xe5;" horiz-adv-x="1703" d="M1642 0q-158 -31 -251 -31q-92 0 -143.5 20.5t-77 49.5t-33 61.5t-9.5 57.5q-37 -43 -97 -78t-132 -59.5t-149.5 -38t-147.5 -13.5q-111 0 -203 25.5t-158.5 75t-102.5 122t-36 166.5q0 98 45.5 163t119 103t167.5 53t193 15q68 0 138.5 -6t135 -15t118.5 -21.5t93 -24.5 q-4 41 -26.5 76.5t-68.5 61t-120 41t-178 15.5q-84 0 -159 -7t-134 -16.5t-100 -19.5t-60 -16l-98 268q23 8 75 21.5t124.5 25.5t163 21.5t188.5 9.5q193 0 327 -39t218 -108.5t120.5 -164t36.5 -204.5v-264q0 -29 17.5 -51.5t83.5 -22.5q49 0 120 14v-266zM416 379 q0 -80 70.5 -115t168.5 -35q74 0 154 17.5t146.5 46.5t110.5 68.5t48 87.5v38h-504q-37 0 -71.5 -5t-62 -17t-44 -33.5t-16.5 -52.5zM518 1364q0 90 58.5 148.5t189.5 58.5q129 0 187.5 -58.5t58.5 -148.5q0 -92 -58.5 -152.5t-187.5 -60.5q-131 0 -189.5 60.5t-58.5 152.5z M641 1364q0 -39 29.5 -64.5t95.5 -25.5t94.5 25.5t28.5 64.5q0 37 -29 60.5t-94 23.5q-66 0 -95.5 -23.5t-29.5 -60.5z" />
<glyph unicode="&#xe6;" horiz-adv-x="2621" d="M602 -31q-111 0 -203 25.5t-158.5 75t-102.5 122t-36 166.5q0 98 45.5 163t119 103t167.5 53t193 15q68 0 138.5 -6t135 -15t118.5 -21.5t93 -24.5q-4 41 -26.5 76.5t-68.5 61t-120 41t-178 15.5q-84 0 -159 -7t-134 -16.5t-100 -19.5t-60 -16l-98 268q23 8 75 21.5 t124.5 25.5t163 21.5t188.5 9.5q205 0 342 -44t221 -120q86 76 216 120t310 44q174 0 322.5 -42t245 -126t130.5 -211t-22 -295h-1044q14 -45 47 -77.5t87 -55.5t132 -34t184 -11q100 0 191.5 8t165 20.5t125 23.5t71.5 18l58 -269q-27 -10 -82.5 -24.5t-133 -28.5 t-176 -23.5t-208.5 -9.5q-274 0 -447.5 64.5t-259.5 189.5q-68 -80 -144.5 -130t-153.5 -77.5t-151.5 -37t-142.5 -9.5zM416 379q0 -80 70.5 -115t168.5 -35q74 0 158 17.5t153.5 51.5t112.5 81t35 108h-504q-37 0 -71.5 -5t-62 -17t-44 -33.5t-16.5 -52.5zM2175 637 q23 88 -66.5 139t-283.5 51q-100 0 -170 -14t-116 -38.5t-70.5 -59.5t-34.5 -78h741z" />
<glyph unicode="&#xe7;" horiz-adv-x="1554" d="M604 -510l88 160q90 0 163 11t83 44q6 18 -8.5 32.5t-40 25t-59 17.5t-68.5 11q-10 4 -23.5 18.5t-11.5 34.5l70 129q-193 10 -332 57.5t-228.5 121t-132.5 173t-43 214.5q0 123 49.5 227t153 180t264 118t385.5 42q113 0 207 -9.5t168 -23.5t126 -28.5t79 -24.5 l-57 -268q-20 6 -68.5 17t-118 23.5t-154.5 20.5t-180 8q-156 0 -260 -21.5t-166.5 -58t-88 -89t-25.5 -113.5t25.5 -113.5t88 -90.5t167 -59.5t259.5 -21.5q94 0 179.5 8t155 20.5t117.5 23.5t69 18l57 -269q-27 -10 -78 -24.5t-124.5 -28.5t-168 -23.5t-207.5 -9.5 l-47 -86q35 0 86.5 -11t96.5 -34.5t72.5 -59.5t19.5 -85q-14 -76 -81 -117t-151 -60.5t-170 -22.5t-137 -3z" />
<glyph unicode="&#xe8;" horiz-adv-x="1611" d="M393 432q35 -90 145.5 -134t323.5 -44q100 0 194.5 8t171.5 20.5t132 23.5t76 18l57 -269q-27 -10 -85 -24.5t-140 -28.5t-183.5 -23.5t-212.5 -9.5q-410 0 -610.5 143.5t-200.5 417.5q0 119 44.5 223.5t133.5 182.5t224 124t317 46q174 0 325.5 -42t252 -126t137.5 -211 t-18 -295h-1084zM1182 1315l-54 -148l-696 209l82 226zM387 637h780q23 88 -76.5 139t-293.5 51q-188 0 -281.5 -48t-122.5 -124z" />
<glyph unicode="&#xe9;" horiz-adv-x="1611" d="M393 432q35 -90 145.5 -134t323.5 -44q100 0 194.5 8t171.5 20.5t132 23.5t76 18l57 -269q-27 -10 -85 -24.5t-140 -28.5t-183.5 -23.5t-212.5 -9.5q-410 0 -610.5 143.5t-200.5 417.5q0 119 44.5 223.5t133.5 182.5t224 124t317 46q174 0 325.5 -42t252 -126t137.5 -211 t-18 -295h-1084zM1100 1602l82 -226l-697 -209l-53 148zM387 637h780q23 88 -76.5 139t-293.5 51q-188 0 -281.5 -48t-122.5 -124z" />
<glyph unicode="&#xea;" horiz-adv-x="1611" d="M393 432q35 -90 145.5 -134t323.5 -44q100 0 194.5 8t171.5 20.5t132 23.5t76 18l57 -269q-27 -10 -85 -24.5t-140 -28.5t-183.5 -23.5t-212.5 -9.5q-410 0 -610.5 143.5t-200.5 417.5q0 119 44.5 223.5t133.5 182.5t224 124t317 46q174 0 325.5 -42t252 -126t137.5 -211 t-18 -295h-1084zM805 1331l-416 -164l-65 142l481 260l483 -260l-65 -142zM387 637h780q23 88 -76.5 139t-293.5 51q-188 0 -281.5 -48t-122.5 -124z" />
<glyph unicode="&#xeb;" horiz-adv-x="1611" d="M393 432q35 -90 145.5 -134t323.5 -44q100 0 194.5 8t171.5 20.5t132 23.5t76 18l57 -269q-27 -10 -85 -24.5t-140 -28.5t-183.5 -23.5t-212.5 -9.5q-410 0 -610.5 143.5t-200.5 417.5q0 119 44.5 223.5t133.5 182.5t224 124t317 46q174 0 325.5 -42t252 -126t137.5 -211 t-18 -295h-1084zM387 637h780q23 88 -76.5 139t-293.5 51q-188 0 -281.5 -48t-122.5 -124zM666 1464v-239h-224v239h224zM1169 1464v-239h-223v239h223z" />
<glyph unicode="&#xec;" horiz-adv-x="593" d="M143 0v1061l308 31v-1092h-308zM672 1315l-54 -148l-696 209l82 226z" />
<glyph unicode="&#xed;" horiz-adv-x="593" d="M143 0v1061l308 31v-1092h-308zM590 1602l82 -226l-697 -209l-53 148z" />
<glyph unicode="&#xee;" horiz-adv-x="593" d="M143 0v1061l308 31v-1092h-308zM297 1331l-416 -164l-65 142l481 260l483 -260l-65 -142z" />
<glyph unicode="&#xef;" horiz-adv-x="593" d="M143 0v1061l308 31v-1092h-308zM158 1464v-239h-224v239h224zM662 1464v-239h-224v239h224z" />
<glyph unicode="&#xf0;" horiz-adv-x="1691" d="M1087 1057l48 45q-57 35 -125 53.5t-140 22.5q-72 6 -144.5 2t-141.5 -15l-64 283q63 8 126 12t122 4q166 0 312.5 -35.5t260.5 -119.5l125 125l66 -64l-121 -121q92 -92 145.5 -229t53.5 -334q0 -162 -41 -294t-130 -226t-231.5 -145.5t-347.5 -51.5q-178 0 -322.5 37 t-246 108.5t-155.5 175t-54 238.5q0 123 48 222.5t133 169t201 107.5t251 38q78 0 167 -20.5t172 -56.5t151.5 -86t109.5 -111q-8 86 -37 148t-72 108l-53 -54zM395 524q0 -133 116 -201.5t329 -68.5q215 0 329.5 70.5t114.5 191.5q0 84 -53 139.5t-129 87t-159 44 t-144 12.5q-98 0 -174 -21.5t-127.5 -58.5t-77 -87.5t-25.5 -107.5z" />
<glyph unicode="&#xf1;" d="M1235 0v543q0 59 -16.5 110.5t-59.5 88t-117.5 58t-191.5 21.5t-221.5 -19.5t-218.5 -43.5v-758h-308v1061l297 31l9 -84l2 -2q55 23 108 41t109.5 31.5t119 20.5t134.5 7q178 0 304 -42t205.5 -118t115.5 -178t36 -223v-545h-307zM1253 1378q-86 -92 -156.5 -135 t-135.5 -43q-45 0 -85 15.5t-76 34t-68 33.5t-58 15q-27 0 -73 -12t-101 -67l-111 114q84 90 152.5 132t132.5 42q43 0 82 -15t73.5 -33.5t67.5 -34t64 -15.5q29 0 75.5 12.5t106.5 71.5z" />
<glyph unicode="&#xf2;" horiz-adv-x="1597" d="M61 539q0 123 48.5 227t142.5 180t231.5 118t315.5 42t315 -42t231.5 -118t142.5 -180t48 -227t-48 -227.5t-142.5 -180.5t-231.5 -119t-315 -43t-315.5 43t-231.5 119t-142.5 180.5t-48.5 227.5zM375 539q0 -123 105.5 -204t318.5 -81t318.5 81t105.5 204t-105.5 202.5 t-318.5 79.5t-318.5 -79.5t-105.5 -202.5zM1174 1315l-54 -148l-696 209l82 226z" />
<glyph unicode="&#xf3;" horiz-adv-x="1597" d="M61 539q0 123 48.5 227t142.5 180t231.5 118t315.5 42t315 -42t231.5 -118t142.5 -180t48 -227t-48 -227.5t-142.5 -180.5t-231.5 -119t-315 -43t-315.5 43t-231.5 119t-142.5 180.5t-48.5 227.5zM375 539q0 -123 105.5 -204t318.5 -81t318.5 81t105.5 204t-105.5 202.5 t-318.5 79.5t-318.5 -79.5t-105.5 -202.5zM1092 1602l82 -226l-697 -209l-53 148z" />
<glyph unicode="&#xf4;" horiz-adv-x="1597" d="M61 539q0 123 48.5 227t142.5 180t231.5 118t315.5 42t315 -42t231.5 -118t142.5 -180t48 -227t-48 -227.5t-142.5 -180.5t-231.5 -119t-315 -43t-315.5 43t-231.5 119t-142.5 180.5t-48.5 227.5zM375 539q0 -123 105.5 -204t318.5 -81t318.5 81t105.5 204t-105.5 202.5 t-318.5 79.5t-318.5 -79.5t-105.5 -202.5zM797 1331l-416 -164l-66 142l482 260l483 -260l-66 -142z" />
<glyph unicode="&#xf5;" horiz-adv-x="1597" d="M61 539q0 123 48.5 227t142.5 180t231.5 118t315.5 42t315 -42t231.5 -118t142.5 -180t48 -227t-48 -227.5t-142.5 -180.5t-231.5 -119t-315 -43t-315.5 43t-231.5 119t-142.5 180.5t-48.5 227.5zM375 539q0 -123 105.5 -204t318.5 -81t318.5 81t105.5 204t-105.5 202.5 t-318.5 79.5t-318.5 -79.5t-105.5 -202.5zM1231 1378q-86 -92 -156.5 -135t-136.5 -43q-45 0 -85 15.5t-76 34t-67.5 33.5t-58.5 15t-73 -12t-101 -67l-110 114q84 90 152.5 132t131.5 42q43 0 82 -15t74 -33.5t67.5 -34t63.5 -15.5q29 0 76 12.5t106 71.5z" />
<glyph unicode="&#xf6;" horiz-adv-x="1597" d="M61 539q0 123 48.5 227t142.5 180t231.5 118t315.5 42t315 -42t231.5 -118t142.5 -180t48 -227t-48 -227.5t-142.5 -180.5t-231.5 -119t-315 -43t-315.5 43t-231.5 119t-142.5 180.5t-48.5 227.5zM375 539q0 -123 105.5 -204t318.5 -81t318.5 81t105.5 204t-105.5 202.5 t-318.5 79.5t-318.5 -79.5t-105.5 -202.5zM657 1464v-239h-223v239h223zM1161 1464v-239h-223v239h223z" />
<glyph unicode="&#xf7;" horiz-adv-x="1382" d="M795 834h-205v210h205v-210zM1198 639v-205h-1014v205h1014zM795 31h-205v211h205v-211z" />
<glyph unicode="&#xf8;" horiz-adv-x="1597" d="M324 -66l-117 117l63 64q-104 78 -156.5 185.5t-52.5 238.5q0 123 48.5 227t142.5 180t231.5 118t315.5 42q225 0 393 -70l115 115l116 -117l-84 -84q98 -76 147.5 -181t49.5 -230q0 -123 -48 -227.5t-142.5 -180.5t-231.5 -119t-315 -43q-111 0 -205 16.5t-172 47.5z M375 539q0 -63 27.5 -116.5t82.5 -92.5l476 475q-76 16 -162 16q-213 0 -318.5 -79.5t-105.5 -202.5zM1223 539q0 59 -24.5 109t-74.5 87l-469 -469q63 -12 144 -12q213 0 318.5 81t105.5 204z" />
<glyph unicode="&#xf9;" d="M102 530v545h308v-543q0 -61 16 -112t59 -88t118 -57.5t192 -20.5q94 0 174 18.5t137 47t91 60.5t38 60v635h307v-1075h-270l-21 156l-2 2q-31 -31 -78 -64t-112.5 -60.5t-150.5 -46t-189 -18.5q-170 0 -288 42t-190.5 118t-105.5 178t-33 223zM1196 1315l-53 -148 l-697 209l82 226z" />
<glyph unicode="&#xfa;" d="M102 530v545h308v-543q0 -61 16 -112t59 -88t118 -57.5t192 -20.5q94 0 174 18.5t137 47t91 60.5t38 60v635h307v-1075h-270l-21 156l-2 2q-31 -31 -78 -64t-112.5 -60.5t-150.5 -46t-189 -18.5q-170 0 -288 42t-190.5 118t-105.5 178t-33 223zM1116 1602l82 -226 l-696 -209l-53 148z" />
<glyph unicode="&#xfb;" d="M102 530v545h308v-543q0 -61 16 -112t59 -88t118 -57.5t192 -20.5q94 0 174 18.5t137 47t91 60.5t38 60v635h307v-1075h-270l-21 156l-2 2q-31 -31 -78 -64t-112.5 -60.5t-150.5 -46t-189 -18.5q-170 0 -288 42t-190.5 118t-105.5 178t-33 223zM821 1331l-415 -164 l-66 142l481 260l484 -260l-66 -142z" />
<glyph unicode="&#xfc;" d="M102 530v545h308v-543q0 -61 16 -112t59 -88t118 -57.5t192 -20.5q94 0 174 18.5t137 47t91 60.5t38 60v635h307v-1075h-270l-21 156l-2 2q-31 -31 -78 -64t-112.5 -60.5t-150.5 -46t-189 -18.5q-170 0 -288 42t-190.5 118t-105.5 178t-33 223zM682 1464v-239h-223v239 h223zM1186 1464v-239h-223v239h223z" />
<glyph unicode="&#xfd;" horiz-adv-x="1593" d="M20 1075h359l299 -563l115 -238l421 801h359l-651 -1155q-53 -92 -110.5 -154.5t-120 -100.5t-132.5 -53t-149 -15q-76 0 -159 11t-177 30v235q61 -10 139 -24.5t156 -14.5q82 0 151.5 25.5t108.5 99.5l18 37zM1090 1602l81 -226l-696 -209l-53 148z" />
<glyph unicode="&#xfe;" horiz-adv-x="1665" d="M408 156l2 -156v-389h-308v1823l308 30v-338l-2 -118l2 -2q111 47 233.5 73.5t267.5 26.5q178 0 309.5 -42t216.5 -118t126 -178t41 -223q0 -127 -43 -232.5t-126 -181.5t-204 -119t-277 -43q-111 0 -200.5 20.5t-157.5 49.5t-115 61.5t-71 57.5zM881 821 q-117 0 -237 -19.5t-234 -43.5v-318q4 -29 48 -60.5t113.5 -60t158.5 -47t185 -18.5q98 0 170 21.5t117 59.5t66.5 91t21.5 117q0 59 -20.5 110.5t-67.5 88t-125.5 58t-195.5 21.5z" />
<glyph unicode="&#xff;" horiz-adv-x="1593" d="M20 1075h359l299 -563l115 -238l421 801h359l-651 -1155q-53 -92 -110.5 -154.5t-120 -100.5t-132.5 -53t-149 -15q-76 0 -159 11t-177 30v235q61 -10 139 -24.5t156 -14.5q82 0 151.5 25.5t108.5 99.5l18 37zM655 1464v-239h-223v239h223zM1159 1464v-239h-223v239h223z " />
<glyph unicode="&#x152;" horiz-adv-x="3325" d="M1649 0v131q-117 -74 -267.5 -118t-337.5 -44q-238 0 -418 57.5t-300.5 157t-182 236.5t-61.5 297t61.5 297t182 236.5t301 156.5t417.5 57q186 0 337 -46t268 -120v136h1554v-287h-1247v-266h1124v-287h-1124v-307h1288v-287h-1595zM1044 256q246 0 394.5 69.5 t210.5 190.5v397q-61 123 -211 194t-394 71q-166 0 -288.5 -34t-202.5 -95.5t-119 -146.5t-39 -185q0 -102 39 -186.5t119 -145.5t202.5 -95t288.5 -34z" />
<glyph unicode="&#x153;" horiz-adv-x="2693" d="M61 539q0 123 45.5 227t135.5 180t224 118t312 42q205 0 342 -54.5t217 -152.5q76 96 207 151.5t336 55.5q174 0 322.5 -42t245 -126t130 -211t-21.5 -295h-1045q14 -45 47 -77.5t87.5 -55.5t132 -34t184.5 -11q100 0 191.5 8t165 20.5t124.5 23.5t72 18l57 -269 q-27 -10 -82 -24.5t-133 -28.5t-176 -23.5t-209 -9.5q-242 0 -397.5 51.5t-241.5 151.5q-80 -96 -216 -149.5t-339 -53.5q-178 0 -312 43t-224 119t-135.5 180.5t-45.5 227.5zM1182 539q0 123 -96.5 202.5t-307.5 79.5q-106 0 -182 -21.5t-125 -58t-72.5 -89t-23.5 -113.5 t23.5 -113.5t72.5 -90.5t125 -59.5t182 -21.5q211 0 307.5 81t96.5 204zM2247 637q23 88 -66.5 139t-284.5 51q-100 0 -169.5 -14t-115.5 -38.5t-70.5 -59.5t-35.5 -78h742z" />
<glyph unicode="&#x178;" horiz-adv-x="1970" d="M1991 1434l-852 -1006v-428h-308v428l-851 1006h389l301 -359l315 -399l318 399l299 359h389zM844 1823v-240h-223v240h223zM1348 1823v-240h-224v240h224z" />
<glyph unicode="&#x2c6;" horiz-adv-x="1662" d="M772 1331l-416 -164l-65 142l481 260l483 -260l-65 -142z" />
<glyph unicode="&#x2dc;" horiz-adv-x="1662" d="M1227 1378q-86 -92 -157 -135t-136 -43q-45 0 -85 15.5t-76 34t-67.5 33.5t-58.5 15t-73 -12t-101 -67l-111 114q84 90 153 132t132 42q43 0 82 -15t74 -33.5t67.5 -34t63.5 -15.5q29 0 76 12.5t106 71.5z" />
<glyph unicode="&#x2000;" horiz-adv-x="980" />
<glyph unicode="&#x2001;" horiz-adv-x="1960" />
<glyph unicode="&#x2002;" horiz-adv-x="980" />
<glyph unicode="&#x2003;" horiz-adv-x="1960" />
<glyph unicode="&#x2004;" horiz-adv-x="653" />
<glyph unicode="&#x2005;" horiz-adv-x="490" />
<glyph unicode="&#x2006;" horiz-adv-x="326" />
<glyph unicode="&#x2007;" horiz-adv-x="326" />
<glyph unicode="&#x2008;" horiz-adv-x="245" />
<glyph unicode="&#x2009;" horiz-adv-x="392" />
<glyph unicode="&#x200a;" horiz-adv-x="108" />
<glyph unicode="&#x2010;" horiz-adv-x="1382" d="M205 801h973v-240h-973v240z" />
<glyph unicode="&#x2011;" horiz-adv-x="1382" d="M205 801h973v-240h-973v240z" />
<glyph unicode="&#x2012;" horiz-adv-x="1382" d="M205 801h973v-240h-973v240z" />
<glyph unicode="&#x2013;" horiz-adv-x="1546" d="M225 520v236h1096v-236h-1096z" />
<glyph unicode="&#x2014;" horiz-adv-x="2283" d="M225 756h1833v-236h-1833v236z" />
<glyph unicode="&#x2018;" horiz-adv-x="593" d="M184 922q-16 55 -19 121.5t7 135t33.5 134t60.5 121.5h174q-6 -59 -9 -127t0 -135.5t13.5 -133t26.5 -116.5h-287z" />
<glyph unicode="&#x2019;" horiz-adv-x="593" d="M410 1434q16 -55 19 -122t-7 -135.5t-33.5 -134t-60.5 -120.5h-174q6 57 9 125.5t0 136t-13.5 132t-26.5 118.5h287z" />
<glyph unicode="&#x201a;" horiz-adv-x="593" d="M410 297q16 -55 19 -121.5t-7 -135.5t-33.5 -134.5t-60.5 -120.5h-174q6 57 9 126t0 136.5t-13.5 132t-26.5 117.5h287z" />
<glyph unicode="&#x201c;" horiz-adv-x="1015" d="M606 922q-16 55 -19 121.5t7 135t33.5 134t60.5 121.5h174q-6 -59 -9 -127t0 -135.5t13.5 -133t26.5 -116.5h-287zM184 922q-16 55 -19 121.5t7 135t33.5 134t60.5 121.5h174q-6 -59 -9 -127t0 -135.5t13.5 -133t26.5 -116.5h-287z" />
<glyph unicode="&#x201d;" horiz-adv-x="1015" d="M410 1434q16 -55 19 -122t-7 -135.5t-33.5 -134t-60.5 -120.5h-174q6 57 9 125.5t0 136t-13.5 132t-26.5 118.5h287zM831 1434q16 -55 19.5 -122t-6.5 -135.5t-34 -134t-60 -120.5h-175q6 57 9.5 125.5t0.5 136t-13.5 132t-26.5 118.5h286z" />
<glyph unicode="&#x201e;" horiz-adv-x="1015" d="M410 297q16 -55 19 -121.5t-7 -135.5t-33.5 -134.5t-60.5 -120.5h-174q6 57 9 126t0 136.5t-13.5 132t-26.5 117.5h287zM831 297q16 -55 19.5 -121.5t-6.5 -135.5t-34 -134.5t-60 -120.5h-175q6 57 9.5 126t0.5 136.5t-13.5 132t-26.5 117.5h286z" />
<glyph unicode="&#x2022;" horiz-adv-x="657" d="M82 731q0 90 58.5 148.5t189.5 58.5q129 0 187 -58.5t58 -148.5q0 -92 -58 -152.5t-187 -60.5q-131 0 -189.5 60.5t-58.5 152.5z" />
<glyph unicode="&#x2026;" horiz-adv-x="1853" d="M461 297v-297h-277v297h277zM1065 297v-297h-277v297h277zM1669 297v-297h-276v297h276z" />
<glyph unicode="&#x202f;" horiz-adv-x="392" />
<glyph unicode="&#x2039;" horiz-adv-x="991" d="M737 1106l131 -156l-440 -360l440 -359l-131 -155l-614 514z" />
<glyph unicode="&#x203a;" horiz-adv-x="991" d="M868 590l-614 -514l-131 155l440 359l-440 360l131 156z" />
<glyph unicode="&#x205f;" horiz-adv-x="490" />
<glyph unicode="&#x20ac;" horiz-adv-x="1744" d="M20 799v164h175q37 137 112.5 232t182 154.5t235.5 87t272 27.5q162 0 331 -30.5t335 -83.5l-70 -277q-129 41 -280.5 73t-298.5 32q-78 0 -150.5 -11.5t-135 -37t-113 -66.5t-83.5 -100h865v-164h-916q-10 -84 0 -164h916v-164h-865q33 -59 83.5 -100t113 -66.5t135 -37 t150.5 -11.5q147 0 298.5 31.5t280.5 72.5l70 -276q-166 -53 -335 -84t-331 -31q-143 0 -272 27t-235.5 87t-182.5 155.5t-112 232.5h-175v164h146q-10 84 0 164h-146z" />
<glyph unicode="&#x2122;" horiz-adv-x="2215" d="M1516 793l-330 409l4 -106v-451h-170v789h170l377 -476l379 476h168v-789h-168v451l4 110l-332 -413h-102zM602 1276v-631h-170v631h-350v158h870v-158h-350z" />
<glyph unicode="&#x25fc;" horiz-adv-x="1075" d="M0 1075h1075v-1075h-1075v1075z" />
</font>
</defs>
</svg>
