<?xml version="1.0" standalone="no"?>
<!DOCTYPE svg PUBLIC "-//W3C//DTD SVG 1.1//EN" "http://www.w3.org/Graphics/SVG/1.1/DTD/svg11.dtd" >
<svg xmlns="http://www.w3.org/2000/svg">
<metadata></metadata>
<defs>
<font id="halogenlight_oblique" horiz-adv-x="1712" >
<font-face units-per-em="2048" ascent="1536" descent="-512" />
<missing-glyph horiz-adv-x="886" />
<glyph unicode="&#xfb01;" horiz-adv-x="1198" d="M901 0l137 973h-583l-138 -973h-120l137 973h-144l15 102h143l2 10q18 109 49 181.5t72 116.5t93 62.5t116 18.5q45 0 92 -8t100 -20l-14 -99q-96 25 -160 25q-104 0 -153 -68.5t-74 -208.5l-2 -10h584l123 10l-154 -1085h-121zM1071 1204l35 246h121l-35 -246h-121z" />
<glyph unicode="&#xfb02;" horiz-adv-x="1142" d="M1065 1358q-78 10 -150.5 17t-123.5 7q-86 0 -141.5 -19.5t-91.5 -57t-55.5 -93t-31.5 -127.5l-2 -10h274l-14 -102h-274l-138 -973h-120l137 973h-144l15 102h143l2 10q20 111 51 186t80 121t119 65.5t166 19.5q66 0 145.5 -7.5t167.5 -21.5l123 16l-207 -1464h-121z " />
<glyph unicode="&#xfb03;" horiz-adv-x="1923" d="M1626 0l137 973h-583l-138 -973h-120l137 973h-604l-138 -973h-120l137 973h-144l15 102h143l2 10q18 109 49 181.5t72 116.5t93 62.5t116 18.5q45 0 92 -8t100 -20l-14 -99q-96 25 -160 25q-104 0 -153 -68.5t-74 -208.5l-2 -10h604l2 10q18 109 49 181.5t72 116.5 t93 62.5t116 18.5q43 0 91 -8t101 -20l-14 -99q-96 25 -160 25q-104 0 -153 -68.5t-74 -208.5l-2 -10h584l123 10l-154 -1085h-121zM1796 1204l35 246h121l-35 -246h-121z" />
<glyph unicode="&#xfb04;" horiz-adv-x="1867" d="M1597 0l191 1358q-78 10 -149.5 17t-122.5 7q-86 0 -141.5 -19.5t-91.5 -57t-55.5 -93t-31.5 -127.5l-2 -10h274l-14 -102h-274l-138 -973h-120l137 973h-604l-138 -973h-120l137 973h-144l15 102h143l2 10q18 109 49 181.5t72 116.5t93 62.5t116 18.5q45 0 92 -8 t100 -20l-14 -99q-96 25 -160 25q-104 0 -153 -68.5t-74 -208.5l-2 -10h604l2 10q20 111 51 186t80 121t119 65.5t166 19.5q63 0 143 -7.5t168 -21.5l123 16l-207 -1464h-121z" />
<glyph horiz-adv-x="0" />
<glyph unicode="&#xd;" horiz-adv-x="886" />
<glyph horiz-adv-x="0" />
<glyph horiz-adv-x="0" />
<glyph unicode=" "  horiz-adv-x="886" />
<glyph unicode="&#x09;" horiz-adv-x="886" />
<glyph unicode="&#xa0;" horiz-adv-x="886" />
<glyph unicode="!" horiz-adv-x="557" d="M375 297l-41 -297h-111l41 297h111zM418 1434h123l-146 -963h-100z" />
<glyph unicode="&#x22;" horiz-adv-x="878" d="M514 1464q-8 -66 -19.5 -137.5t-22.5 -140t-22.5 -127t-19.5 -96.5h-80q2 39 7 97t12.5 126.5t15.5 140.5t18 137h111zM885 1464q-8 -66 -19.5 -137.5t-24 -140t-23.5 -127t-19 -96.5h-80q2 39 8 97t13.5 126.5t15.5 140.5t18 137h111z" />
<glyph unicode="#" d="M559 440h-383l23 70h383l149 469h-383l23 70h383l120 385h72l-123 -385h469l121 385h72l-123 -385h383l-23 -70h-383l-147 -469h381l-23 -70h-381l-120 -383h-72l121 383h-467l-121 -383h-72zM653 510h467l150 469h-469z" />
<glyph unicode="$" horiz-adv-x="1687" d="M201 215q119 -51 278.5 -87t339.5 -44l82 573q-121 6 -235.5 20.5t-205.5 49.5t-146.5 100.5t-55.5 173.5q0 143 77 233.5t190.5 140.5t245.5 68.5t243 20.5l18 133h72l-19 -135q172 -4 321.5 -32.5t258.5 -61.5l-43 -111q-43 14 -102.5 28.5t-131 28t-152.5 23 t-167 13.5l-82 -582q119 -8 235.5 -20.5t207 -45t146.5 -93t56 -163.5q0 -133 -67.5 -223t-176 -145t-243.5 -81t-268 -28l-21 -133h-72l21 135q-186 4 -352 40t-301 95zM1507 424q0 72 -45 114t-119.5 65.5t-171 32.5t-200.5 15l-80 -569q109 0 218.5 17.5t198.5 57.5 t144 105.5t55 161.5zM383 1024q0 -78 45 -125t119 -73.5t170 -38t201 -17.5l79 582q-86 0 -193.5 -13.5t-200.5 -48.5t-156.5 -98.5t-63.5 -167.5z" />
<glyph unicode="%" horiz-adv-x="2082" d="M698 754q92 0 164 24.5t123 66.5t81 99t40 125q8 66 -5.5 123t-53 99t-104 66.5t-157.5 24.5q-92 0 -163.5 -24.5t-124 -66.5t-83 -99t-38.5 -123q-10 -68 5 -125t54 -99t104.5 -66.5t157.5 -24.5zM285 1069q12 84 51 155.5t103.5 125t153.5 84t204 30.5 q113 0 194.5 -30.5t130.5 -84t67.5 -125t6.5 -155.5t-50 -156.5t-102.5 -126t-154.5 -84t-203 -30.5q-115 0 -195.5 30.5t-131 84t-68.5 126t-6 156.5zM401 -2q367 367 723.5 736.5t706.5 750.5l51 -49q-369 -367 -725 -736.5t-708 -750.5zM1174 324q0 -117 79.5 -195 t245.5 -78q102 0 179 29t129.5 77t78 112.5t25.5 138.5q0 117 -79 194.5t-245 77.5q-102 0 -179 -28.5t-129 -77t-78.5 -112.5t-26.5 -138zM1081 313q0 92 33 174t98.5 142.5t161.5 96.5t223 36q102 0 178 -25.5t126.5 -72t75 -108.5t24.5 -136q0 -92 -33 -174t-98.5 -143.5 t-161.5 -97.5t-221 -36q-102 0 -179 25.5t-127.5 72t-75 109.5t-24.5 137z" />
<glyph unicode="&#x26;" horiz-adv-x="2045" d="M1679 684l17 111h366l-16 -115h-248q-33 -184 -119 -318.5t-216 -221.5t-301 -129t-371 -42q-111 0 -223.5 16.5t-202 57.5t-145.5 110.5t-56 176.5q0 98 39 168.5t117.5 119t196.5 75t276 38.5q-256 20 -376 88t-120 209q0 127 67.5 211t177 134t250 70.5t287.5 20.5 q100 0 197.5 -8t184.5 -20.5t158 -27.5t120 -28l-43 -110q-41 10 -108.5 24.5t-152.5 26.5t-180.5 21.5t-193.5 9.5q-121 0 -236.5 -15.5t-205 -53.5t-143.5 -99.5t-54 -153.5q0 -68 41 -114t127 -72.5t222 -37.5t327 -11l-17 -115q-209 -2 -365.5 -18.5t-260 -54.5 t-154.5 -100.5t-51 -156.5q0 -82 47 -133t120.5 -81t165 -41t177.5 -11q387 0 611 152.5t267 447.5z" />
<glyph unicode="'" horiz-adv-x="507" d="M514 1464q-8 -66 -19.5 -137.5t-22.5 -140t-22.5 -127t-19.5 -96.5h-80q2 39 7 97t12.5 126.5t15.5 140.5t18 137h111z" />
<glyph unicode="(" horiz-adv-x="804" d="M561 -410q-86 94 -149.5 219t-102.5 264.5t-50 290t9 298.5q20 147 73.5 297.5t132.5 290t177.5 263t210.5 220.5l66 -41q-106 -98 -197.5 -217t-162 -252t-118 -275.5t-67.5 -285.5t-12 -286t40.5 -276t90 -251.5t135.5 -217.5z" />
<glyph unicode=")" horiz-adv-x="804" d="M63 -369q106 98 196.5 217t161.5 252t119 275.5t68 286.5q20 143 12 285.5t-40.5 275.5t-90 251.5t-137.5 217.5l76 41q86 -96 150.5 -220t103.5 -263.5t50 -290t-9 -297.5t-73.5 -298t-132.5 -290.5t-178 -264t-212 -219.5z" />
<glyph unicode="*" horiz-adv-x="1452" d="M989 1464q-23 -154 -53.5 -302t-61.5 -302q137 86 274.5 169t281.5 159l40 -98q-141 -76 -285.5 -143.5t-289.5 -133.5q127 -66 252 -133.5t246 -140.5l-70 -99q-123 76 -235.5 160t-225.5 166q-12 -152 -23.5 -300.5t-33.5 -301.5h-113q23 154 53.5 302t61.5 300 q-139 -82 -275.5 -166t-279.5 -160l-41 99q141 74 285.5 141.5t289.5 132.5q-127 66 -251.5 133.5t-245.5 143.5l69 98q123 -76 235 -159t226 -169q12 154 23.5 302.5t34.5 301.5h112z" />
<glyph unicode="+" horiz-adv-x="1449" d="M766 580l65 464h84l-65 -464h463l-13 -86h-462l-66 -463h-84l66 463h-467l12 86h467z" />
<glyph unicode="," horiz-adv-x="544" d="M365 297q8 -49 5 -109.5t-17.5 -128t-38 -138.5t-54.5 -136h-72q18 61 33 129t24 135.5t11 131t-8 116.5h117z" />
<glyph unicode="-" horiz-adv-x="1449" d="M340 729h973l-15 -98h-972z" />
<glyph unicode="." horiz-adv-x="544" d="M369 297l-41 -297h-111l41 297h111z" />
<glyph unicode="/" horiz-adv-x="804" d="M936 1464l-756 -1495h-110l755 1495h111z" />
<glyph unicode="0" horiz-adv-x="1951" d="M215 717q23 158 95.5 294t194.5 237.5t291 158.5t384 57t367.5 -57t246.5 -158.5t129 -238t12 -293.5q-23 -158 -95.5 -294t-194 -237.5t-290.5 -159t-384 -57.5t-367.5 57.5t-247 159t-129.5 237.5t-12 294zM338 717q-18 -133 11.5 -249t109.5 -201t211 -134t317 -49 t331.5 49t249 134t165 201t79.5 249q18 135 -10 250.5t-107 200.5t-211 134.5t-319 49.5q-186 0 -331.5 -49.5t-249 -134.5t-166 -200.5t-80.5 -250.5z" />
<glyph unicode="1" horiz-adv-x="1439" d="M111 115h565l168 1198l-547 -152l-25 99l590 174h119l-184 -1319h563l-17 -115h-1249z" />
<glyph unicode="2" horiz-adv-x="1705" d="M145 0l17 115q172 59 343 126.5t325.5 142.5t286.5 156t229.5 167t152.5 175t55 179q0 66 -29.5 112t-78.5 78.5t-112.5 52t-129 31t-129 14.5t-112.5 3q-164 0 -310.5 -21.5t-312.5 -60.5l-10 110q172 43 325.5 63.5t309.5 20.5q63 0 141 -4t157.5 -18.5t154.5 -40 t133.5 -66.5t94 -101t35.5 -142q0 -102 -52 -200.5t-144 -190t-218 -175.5t-273.5 -157.5t-310.5 -138t-329 -115.5h1231l-16 -115h-1424z" />
<glyph unicode="3" horiz-adv-x="1681" d="M340 1270l-10 110q170 43 323.5 63.5t317.5 20.5q61 0 138 -3t157 -14t154.5 -32.5t134 -59.5t95.5 -94.5t36 -134.5q0 -90 -38 -158.5t-119 -117.5t-207 -81t-304 -48q150 -8 262.5 -26.5t188 -53.5t113.5 -90t38 -135q0 -127 -63.5 -213t-168 -138.5t-238.5 -74 t-276 -21.5q-113 0 -223 12.5t-208.5 31t-180.5 43t-133 48.5l49 109q49 -23 128 -46.5t175.5 -42t203 -29.5t210.5 -11q117 0 225.5 17.5t193.5 57.5t135 104.5t50 160.5q0 86 -60.5 136t-181 76t-300 33t-418.5 7h-62l12 82h62q276 0 467.5 18.5t311.5 58t174.5 103 t54.5 158.5q0 61 -30 103t-79 70.5t-111.5 45t-128 25t-129 10.5t-114.5 2q-168 0 -315.5 -21.5t-311.5 -60.5z" />
<glyph unicode="4" horiz-adv-x="1708" d="M1432 313l-46 -313h-120l45 313h-1151l16 113l1294 1008h119l-141 -1008h186l-20 -113h-182zM1405 985l47 322l-819 -641l-314 -240h1008z" />
<glyph unicode="5" d="M129 102l49 107q49 -23 127 -44.5t173 -40t201.5 -29.5t213.5 -11q125 0 240.5 19.5t206 65.5t144.5 119.5t54 184.5q0 86 -49 148.5t-134 102.5t-200 58.5t-246 18.5q-135 0 -283.5 -21.5t-299.5 -64.5l133 719h1282l-15 -113h-1167l-94 -510q129 41 259 60.5t253 19.5 q145 0 270 -23.5t217 -74t144.5 -127t52.5 -183.5q0 -147 -67.5 -245.5t-180.5 -158t-256 -84t-293 -24.5q-113 0 -222.5 11.5t-206.5 30t-176 41.5t-130 48z" />
<glyph unicode="6" horiz-adv-x="1759" d="M330 641q39 100 120.5 176t187 126t227.5 74.5t239 24.5q123 0 234.5 -28.5t196.5 -86t135 -144.5t50 -201q0 -137 -62.5 -250t-175 -194t-272 -125t-352.5 -44q-176 0 -301 41t-205 117t-117.5 182.5t-37.5 237.5q0 242 73.5 415t202.5 283.5t304 162.5t380 52 q143 0 294 -19.5t288 -60.5l-41 -110q-119 33 -269.5 55.5t-298.5 22.5q-147 0 -284 -35t-244.5 -117t-180.5 -218t-91 -337zM883 82q162 0 294 35t225 98.5t143 152.5t50 197q0 92 -42 162t-114.5 118t-170 71.5t-209.5 23.5q-111 0 -239 -25.5t-237.5 -81t-182 -142.5 t-72.5 -212q0 -74 29.5 -144.5t95 -126.5t172 -91t258.5 -35z" />
<glyph unicode="7" horiz-adv-x="1619" d="M571 0h-147l1145 1323l-1315 -2l16 113h1456l-14 -105z" />
<glyph unicode="8" horiz-adv-x="1759" d="M889 84q131 0 255 16.5t220 55.5t154.5 103.5t58.5 158.5q0 133 -161 195.5t-443 62.5q-158 0 -285 -18.5t-215 -56.5t-135 -97.5t-47 -141.5q0 -78 49 -131t132 -85.5t191.5 -47t225.5 -14.5zM985 762q301 0 474 75.5t173 229.5q0 84 -52 139.5t-134 87t-182.5 45 t-196.5 13.5q-109 0 -223.5 -15.5t-208.5 -54.5t-155.5 -103.5t-61.5 -164.5q0 -127 149.5 -189.5t417.5 -62.5zM1083 1464q117 0 237 -17t218 -59t159.5 -112t61.5 -176q0 -86 -45 -152.5t-120.5 -113t-177 -74t-214.5 -39.5q109 -10 200 -33.5t156.5 -62.5t101.5 -94.5 t36 -131.5q0 -123 -72 -205.5t-187.5 -132t-263 -71t-299.5 -21.5q-137 0 -265 17.5t-227 59.5t-159.5 109.5t-60.5 170.5q0 94 45 163.5t124 116.5t187.5 75t237.5 40q-96 10 -180 33.5t-146.5 62.5t-98.5 92.5t-36 122.5q0 125 74.5 209t189.5 133t255 69.5t269 20.5z" />
<glyph unicode="9" horiz-adv-x="1759" d="M1632 793q-39 -100 -122 -176t-189.5 -126.5t-227 -75t-237.5 -24.5q-123 0 -234.5 29t-197.5 87t-136 144t-50 203q0 135 62 247.5t175 193.5t271.5 125t353.5 44q176 0 302 -41t206 -116.5t116.5 -182t36.5 -237.5q0 -242 -72.5 -415t-201.5 -283.5t-304 -163 t-380 -52.5q-143 0 -294 19.5t-288 60.5l43 111q117 -33 266.5 -55.5t296.5 -22.5t284.5 35t246 116.5t181.5 218t93 337.5zM1077 1352q-162 0 -294 -35t-225 -98.5t-144.5 -152.5t-51.5 -198q0 -92 42 -161.5t115 -117.5t171 -71.5t211 -23.5q111 0 239 25.5t238.5 80.5 t183 142t72.5 212q0 74 -30.5 144.5t-97 127t-172 91.5t-257.5 35z" />
<glyph unicode=":" horiz-adv-x="544" d="M381 379l-41 -297h-111l41 297h111zM463 963l-41 -297h-111l41 297h111z" />
<glyph unicode=";" horiz-adv-x="544" d="M463 963l-43 -297h-111l43 297h111zM365 297q8 -49 5 -109.5t-17.5 -128t-38 -138.5t-54.5 -136h-72q18 61 33 129t24 135.5t11 131t-8 116.5h117z" />
<glyph unicode="&#x3c;" horiz-adv-x="1234" d="M1202 1032l-846 -358l744 -359l-13 -94l-823 408l12 90l938 407z" />
<glyph unicode="=" horiz-adv-x="1449" d="M1278 334l-12 -86h-1014l12 86h1014zM1348 825l-13 -86h-1013l12 86h1014z" />
<glyph unicode="&#x3e;" horiz-adv-x="1234" d="M334 1126l823 -407l-12 -90l-938 -408l12 94l848 359l-745 358z" />
<glyph unicode="?" horiz-adv-x="1646" d="M788 471q23 92 88.5 150.5t148.5 98.5t173 70.5t166 67.5t125 89t49 136q0 88 -64.5 141.5t-157.5 81t-196.5 37t-183.5 9.5q-154 0 -303.5 -21.5t-313.5 -60.5l-10 110q172 43 325.5 63.5t311.5 20.5q66 0 143.5 -4t157.5 -18.5t155 -38t133 -64.5t93 -98t35 -137 q0 -111 -48 -176.5t-124 -108.5t-167 -71.5t-177 -62.5t-155.5 -83t-102.5 -131h-101zM868 297l-43 -297h-108l43 297h108z" />
<glyph unicode="@" horiz-adv-x="2093" d="M1370 -221q-166 -49 -364 -49q-195 0 -346.5 47t-255 133t-156.5 206t-53 267q0 184 71.5 339t203.5 266.5t321.5 174t422.5 62.5q186 0 339 -41t261.5 -117t168 -184.5t59.5 -245.5t-45 -242.5t-113.5 -177.5t-151.5 -108.5t-157 -36.5q-76 0 -123 41t-43 125h-2 q-23 -16 -66 -46t-103 -58t-135 -48t-161 -20q-190 0 -283.5 87t-93.5 228q0 119 47 213t129 157.5t191.5 97.5t234.5 34q61 0 112.5 -9.5t94.5 -23.5t80 -32.5t72 -35.5l2 2l22 66h84l-127 -555q-16 -72 6.5 -113t83.5 -41q55 0 120 32t121 93.5t93 151.5t37 205 q0 125 -55 223t-155.5 166.5t-241 105.5t-310.5 37q-215 0 -388 -56.5t-296 -156.5t-189.5 -240.5t-66.5 -308.5q0 -133 50.5 -242.5t145.5 -187.5t235.5 -121t318.5 -43q92 0 174 11.5t160 33.5zM971 152q80 0 150.5 17t129 44t102.5 57.5t68 55.5l88 381q-94 41 -173 66.5 t-179 25.5q-98 0 -188 -24.5t-159 -75t-110 -125t-41 -175.5q0 -111 76 -179t236 -68z" />
<glyph unicode="A" horiz-adv-x="2021" d="M2009 0h-141l-193 373h-1224l-297 -373h-142l1131 1434h137zM637 614l-105 -127h1090l-66 127l-360 713z" />
<glyph unicode="B" horiz-adv-x="2031" d="M156 0l200 1434h1135q109 0 197 -16.5t150.5 -54.5t96 -97.5t33.5 -145.5q0 -92 -26.5 -156.5t-74.5 -107.5t-116 -68.5t-147 -39.5q80 -10 147.5 -29t117.5 -53.5t77.5 -88t27.5 -131.5q0 -94 -31.5 -175t-101 -141t-178.5 -95t-264 -35h-1243zM373 680l-80 -565h1122 q121 0 206 24.5t139.5 69.5t79 105.5t24.5 134.5q0 76 -37 121.5t-100.5 70.5t-150.5 32t-187 7h-1016zM1477 1321h-1014l-74 -526h920q117 0 217 8t171.5 38.5t112.5 89t41 159.5q0 127 -98 179t-276 52z" />
<glyph unicode="C" horiz-adv-x="1996" d="M1913 84q-37 -12 -104.5 -31.5t-163 -38t-215 -32t-263.5 -13.5q-254 0 -436 50.5t-299 137.5t-171 206.5t-54 261.5q0 174 67.5 327.5t210 267t363.5 179t528 65.5q143 0 260 -13t207 -31.5t151.5 -38t94.5 -31.5l-43 -109q-47 14 -112.5 33.5t-151.5 37t-190.5 29 t-229.5 11.5q-274 0 -470 -55.5t-319.5 -151.5t-182 -225t-58.5 -279q0 -121 48 -223.5t150.5 -176t264 -115.5t389.5 -42q125 0 232.5 11t197.5 27.5t161.5 35t122.5 35.5z" />
<glyph unicode="D" horiz-adv-x="2031" d="M156 0l200 1434h703q254 0 437 -45.5t300 -128t172 -198.5t55 -255q0 -176 -66.5 -323.5t-207.5 -255t-361.5 -168t-529.5 -60.5h-702zM463 1321l-170 -1206h581q276 0 471 50t318 139t180.5 214t57.5 275q0 119 -48.5 217t-153 166.5t-266 106.5t-389.5 38h-581z" />
<glyph unicode="E" horiz-adv-x="1867" d="M156 0l200 1434h1555l-15 -113h-1433l-74 -526h1311l-17 -115h-1310l-80 -565h1474l-16 -115h-1595z" />
<glyph unicode="F" horiz-adv-x="1785" d="M373 680l-97 -680h-120l200 1434h1555l-15 -113h-1433l-74 -526h1311l-17 -115h-1310z" />
<glyph unicode="G" horiz-adv-x="2201" d="M1180 664l16 114h977l-14 -104q-27 -199 -123.5 -333t-240.5 -217t-327.5 -119t-384.5 -36q-221 0 -386 50.5t-273.5 137.5t-162.5 207.5t-54 262.5q0 174 67.5 326.5t210 266t363.5 179t528 65.5q143 0 260 -14t206 -32.5t151.5 -38t95.5 -29.5l-43 -107 q-47 14 -113.5 33.5t-152.5 36t-190.5 28t-229.5 11.5q-274 0 -469 -55.5t-320 -150.5t-182 -225t-57 -278q0 -121 47 -223.5t142 -177t239.5 -116.5t337.5 -42q184 0 345 30.5t284.5 98.5t202.5 172t102 252l4 27h-856z" />
<glyph unicode="H" horiz-adv-x="1992" d="M1714 0l96 680h-1437l-97 -680h-120l200 1434h121l-88 -639h1438l88 639h121l-201 -1434h-121z" />
<glyph unicode="I" horiz-adv-x="434" d="M356 1434h121l-201 -1434h-120z" />
<glyph unicode="J" horiz-adv-x="1798" d="M109 193q68 -20 139 -40t153 -35.5t178.5 -24.5t213.5 -9q178 0 319 25.5t243.5 84t165 151.5t81.5 228l120 861h121l-121 -861q-45 -317 -282.5 -460.5t-667.5 -143.5q-147 0 -263 14.5t-202 33t-145.5 38t-95.5 29.5z" />
<glyph unicode="K" horiz-adv-x="1990" d="M1935 0h-192l-1018 680h-352l-97 -680h-120l200 1434h121l-88 -639h354l1162 639h184l-645 -359l-617 -338l574 -379z" />
<glyph unicode="L" horiz-adv-x="1765" d="M156 0l200 1434h121l-184 -1319h1372l-16 -115h-1493z" />
<glyph unicode="M" horiz-adv-x="2377" d="M1184 248l-731 1020l-29 -213l-148 -1055h-120l200 1434h121l762 -1067l1063 1067h119l-201 -1434h-121l148 1055l32 213l-1017 -1020h-78z" />
<glyph unicode="N" horiz-adv-x="2023" d="M1946 1434h120l-200 -1434h-119l-1292 1280l-23 -176l-156 -1104h-120l200 1434h121l1292 -1280l25 192z" />
<glyph unicode="O" horiz-adv-x="2156" d="M215 717q23 160 102.5 297t215 236.5t323.5 156.5t426 57t410 -57t279.5 -156.5t149.5 -236.5t19 -297t-103.5 -297t-215.5 -236.5t-322.5 -157t-425.5 -57.5t-409.5 57.5t-279.5 157t-150 236.5t-19 297zM338 717q-18 -135 17.5 -252t130 -201t245 -132t359.5 -48 t372.5 48t280.5 132t186.5 201t87.5 252q18 137 -17.5 252.5t-128.5 200.5t-243.5 133.5t-359.5 48.5t-373 -48.5t-281.5 -133.5t-187.5 -200.5t-88 -252.5z" />
<glyph unicode="P" horiz-adv-x="1941" d="M156 0l200 1434h1074q113 0 214 -22.5t175.5 -73t118.5 -133.5t44 -201q0 -164 -57 -275t-153.5 -180.5t-222.5 -99t-261 -29.5h-952l-60 -420h-120zM463 1321l-111 -786h961q111 0 209 23.5t172.5 76.5t119 139t44.5 213q0 92 -34 156.5t-92.5 103.5t-137 56.5 t-171.5 17.5h-960z" />
<glyph unicode="Q" horiz-adv-x="2156" d="M1827 -324q-199 0 -353.5 8.5t-257 39t-152.5 89t-40 158.5q-205 6 -357.5 57.5t-255 139.5t-153.5 206t-51 255q0 174 70.5 326.5t207 265t337 178t460.5 65.5q217 0 379 -50t270.5 -138t162.5 -209t54 -262q0 -170 -67.5 -318.5t-197.5 -261t-320.5 -180.5t-438.5 -74 q-4 -61 45.5 -99t143.5 -57.5t228 -25.5t302 -6zM332 641q0 -121 46 -223.5t140 -176t236.5 -115.5t332.5 -42q229 0 404.5 55.5t293.5 150.5t178 224t60 279q0 121 -47 223t-141 177t-236.5 117t-332.5 42q-229 0 -403.5 -55.5t-292 -150.5t-178 -225t-60.5 -280z" />
<glyph unicode="R" horiz-adv-x="1957" d="M356 1434h1137q104 0 195.5 -20.5t158 -67t104.5 -121t38 -181.5q0 -147 -51.5 -248.5t-138.5 -164t-201.5 -89t-239.5 -26.5h-166l713 -516h-193l-696 512h-668l-72 -512h-120zM1376 627q98 0 187.5 20.5t156 67.5t105.5 122.5t39 188.5q0 82 -29 138.5t-80 91 t-120.5 50t-151.5 15.5h-1020l-98 -694h1011z" />
<glyph unicode="S" horiz-adv-x="1923" d="M967 -31q-221 0 -432 40t-404 112l49 108q190 -68 390 -107.5t429 -39.5q72 0 155 6t166 21.5t158.5 40t135 62.5t94.5 90t35 120q0 74 -52.5 117t-141.5 66.5t-208.5 32.5t-255.5 15q-145 8 -285.5 20.5t-251 47.5t-179 101.5t-68.5 181.5q0 98 38 171.5t102.5 125 t148.5 83t175 50t183 24.5t174 6q98 0 203 -7t205 -20.5t193.5 -30.5t168.5 -38l-41 -111q-72 18 -160.5 36t-188 30t-205 20.5t-210.5 8.5q-53 0 -122.5 -4.5t-142 -15.5t-144.5 -33.5t-127 -58.5t-90 -88t-35 -124q0 -84 58.5 -132t153.5 -74.5t218 -36t252 -15.5 q143 -6 280.5 -18.5t244 -45t171 -95t64.5 -169.5q0 -94 -40 -165.5t-106.5 -124t-156.5 -88t-189.5 -56t-205 -30t-203.5 -9.5z" />
<glyph unicode="T" horiz-adv-x="1808" d="M1151 1321l-186 -1321h-121l186 1321h-770l16 113h1659l-16 -113h-768z" />
<glyph unicode="U" horiz-adv-x="2033" d="M1956 1434h121l-121 -861q-45 -317 -279.5 -460.5t-664.5 -143.5t-626 143.5t-150 460.5l120 861h121l-121 -861q-18 -135 18 -228t122 -151.5t220 -84t312 -25.5t319.5 25.5t243 84t164 151.5t80.5 228z" />
<glyph unicode="V" horiz-adv-x="2013" d="M2202 1434l-1127 -1434h-137l-725 1434h141l310 -615l358 -713l559 713l481 615h140z" />
<glyph unicode="W" horiz-adv-x="2557" d="M1747 0l-143 612l-150 648l-328 -646l-315 -614h-127l-471 1434h133l201 -615l217 -663l340 665l315 613h121l143 -617l150 -661l408 665l372 613h131l-872 -1434h-125z" />
<glyph unicode="X" horiz-adv-x="1923" d="M1896 1434h168l-919 -697l766 -737h-168l-688 657l-875 -657h-168l975 737l-725 697h166l649 -619z" />
<glyph unicode="Y" horiz-adv-x="2037" d="M2224 1434l-1083 -990l-62 -444h-121l62 444l-807 990h156l290 -359l435 -530l583 530l394 359h153z" />
<glyph unicode="Z" horiz-adv-x="1845" d="M115 0l16 113l1071 829l492 379h-1368l14 113h1538l-14 -113l-1069 -827l-494 -379h1444l-16 -115h-1614z" />
<glyph unicode="[" horiz-adv-x="794" d="M457 1700h442l-12 -84h-328l-266 -1895h328l-13 -83h-442z" />
<glyph unicode="\" horiz-adv-x="804" d="M389 1464l334 -1495h-111l-333 1495h110z" />
<glyph unicode="]" horiz-adv-x="794" d="M526 -362h-442l12 83h328l266 1895h-328l13 84h442z" />
<glyph unicode="^" horiz-adv-x="1234" d="M1130 614l-321 764l-535 -764h-94l596 850h90l359 -850h-95z" />
<glyph unicode="_" horiz-adv-x="1286" d="M127 -205h973l-15 -96h-972z" />
<glyph unicode="`" horiz-adv-x="1730" d="M1356 1260l-31 -62l-655 234l47 92z" />
<glyph unicode="a" horiz-adv-x="1751" d="M1704 0q-92 -31 -160 -31q-59 0 -94 16.5t-50.5 48.5t-16.5 81t10 114q-49 -55 -122 -102t-163 -82t-192.5 -55.5t-208.5 -20.5q-117 0 -214.5 21.5t-167 63.5t-107.5 104.5t-38 144.5q0 115 57.5 188.5t146.5 115.5t199.5 58.5t217.5 16.5q68 0 153.5 -2t174 -7 t171 -11.5t146.5 -12.5q-2 72 -23.5 135.5t-80 109.5t-160 72.5t-262.5 26.5q-94 0 -179.5 -8t-154 -19.5t-117.5 -23.5t-72 -20l-22 106q25 8 78 21.5t127.5 25.5t166 21.5t189.5 9.5q193 0 320.5 -38t201.5 -103.5t96.5 -156.5t8.5 -198l-50 -348q-14 -94 3.5 -137 t89.5 -43q23 0 52.5 6t61.5 18zM305 324q0 -61 32 -108.5t90 -79.5t137 -47t175 -15q104 0 208 21.5t193 58t158.5 87t106.5 107.5l35 244h-658q-80 0 -165 -11.5t-154.5 -40t-113.5 -81.5t-44 -135z" />
<glyph unicode="b" horiz-adv-x="1732" d="M338 1448l123 16l-47 -338l-25 -163l2 -2q72 33 158 59.5t178 45.5t185.5 29.5t179.5 10.5q176 0 301 -43t201.5 -118t105.5 -178t12 -224q-18 -125 -77.5 -230.5t-156 -181.5t-227.5 -119t-293 -43q-117 0 -217 21.5t-185 57.5t-153.5 83t-117.5 100l-2 -2l-41 -229 h-107zM1065 993q-84 0 -175 -10t-182.5 -28.5t-176.5 -43t-154 -51.5l-72 -514q43 -53 109.5 -100t151.5 -84t186.5 -58.5t212.5 -21.5q150 0 267.5 40t198 108.5t122.5 162.5t42 205q0 86 -31.5 157.5t-97 125t-166 83t-235.5 29.5z" />
<glyph unicode="c" horiz-adv-x="1662" d="M1534 55q-29 -10 -82 -24.5t-129 -28.5t-172 -23.5t-209 -9.5q-205 0 -352.5 37t-241.5 103.5t-139 158.5t-45 203q0 135 54 251t168 202t292 134t424 48q113 0 206 -9.5t164.5 -23.5t122 -28.5t74.5 -24.5l-37 -107q-25 8 -73 22.5t-117.5 27t-158.5 21.5t-196 9 q-217 0 -368.5 -39t-246.5 -107.5t-139 -161.5t-44 -200q0 -88 36.5 -161.5t117.5 -128t208 -84t310 -29.5q106 0 197 9t165 21.5t125 26t78 23.5z" />
<glyph unicode="d" horiz-adv-x="1732" d="M1632 1126l45 322l123 16l-205 -1464h-106l27 229l-3 2q-66 -53 -147.5 -100t-176.5 -83t-201.5 -57.5t-221.5 -21.5q-147 0 -260 37t-188.5 103.5t-114.5 157.5t-39 202q0 135 50 251t149.5 202t247 135t341.5 49q86 0 176.5 -10.5t176.5 -29.5t164.5 -46t140.5 -59l2 2 zM944 993q-164 0 -286.5 -39t-204.5 -108.5t-123 -162.5t-41 -200q0 -88 31.5 -161.5t94 -127t157 -83t219.5 -29.5q111 0 218 21.5t202.5 58.5t175 84t137.5 100l71 514q-61 27 -139 51.5t-164 43t-176 28.5t-172 10z" />
<glyph unicode="e" horiz-adv-x="1675" d="M289 461q-2 -186 150.5 -282.5t473.5 -96.5q106 0 206 9t181.5 21.5t140 26t85.5 23.5l8 -107q-29 -10 -89.5 -24.5t-144 -28.5t-186 -23.5t-213.5 -9.5q-373 0 -556 126t-183 360q0 131 51 249.5t152.5 207.5t252 141.5t351.5 52.5q174 0 318.5 -41t231.5 -122 t107.5 -201.5t-53.5 -280.5h-1284zM299 559h1176q45 117 19 199t-101.5 135t-189 77.5t-245.5 24.5q-154 0 -268.5 -32.5t-194 -91t-128 -138.5t-68.5 -174z" />
<glyph unicode="f" horiz-adv-x="724" d="M471 1085l-2 -10h319l-14 -102h-319l-138 -973h-120l137 973h-144l15 102h143l2 10q14 109 45 181.5t73 116.5t95 62.5t117 18.5q45 0 92 -8t100 -20l-14 -99q-96 25 -160 25q-104 0 -153 -69t-74 -208z" />
<glyph unicode="g" horiz-adv-x="1607" d="M233 655q0 111 57.5 196t156 141.5t230.5 85t281 28.5q61 0 116.5 -5t109.5 -16q41 12 100 24.5t128 24t145.5 17.5t152.5 6l-4 -80q-43 0 -101.5 -2t-116.5 -7t-109.5 -11t-80.5 -13q123 -41 196 -118.5t73 -192.5q0 -111 -54.5 -189.5t-151.5 -128.5t-228.5 -74 t-284.5 -24q-102 0 -191.5 10.5t-160.5 32.5q-35 -25 -66 -60.5t-54.5 -74.5t-37.5 -75.5t-16 -63.5q55 20 141 42t187.5 38t212 26.5t216.5 10.5q94 0 179 -12.5t150 -41t101.5 -73.5t36.5 -113q0 -82 -44 -141.5t-114.5 -99t-159.5 -65.5t-178 -39t-170 -17t-137 -4 q-154 0 -275.5 10t-211.5 23.5t-148.5 27.5t-84.5 25l38 106q25 -6 83.5 -19.5t148.5 -26.5t213 -23.5t276 -10.5q51 0 118 3t137.5 13.5t139 27t123 43t87 63.5t32.5 88q0 45 -33.5 73.5t-91 46t-135.5 24.5t-164 7q-92 0 -192.5 -7t-196.5 -20.5t-181 -30.5t-146 -38 q-27 2 -48.5 20.5t-19.5 55.5q16 74 74.5 160t144.5 145q-92 39 -144.5 106.5t-52.5 165.5zM356 670q0 -66 38 -113t105.5 -77.5t160 -45t202.5 -14.5q125 0 231.5 17.5t184.5 54t122 94t44 137.5q0 66 -38 117t-105.5 84.5t-159.5 51t-199 17.5q-121 0 -227.5 -20.5 t-186 -61.5t-126 -101t-46.5 -140z" />
<glyph unicode="h" d="M1454 0l76 545q14 96 -4.5 178t-75.5 142.5t-155.5 94t-245.5 33.5q-88 0 -179.5 -12t-178.5 -30.5t-167 -42t-147 -46.5l-121 -862h-121l203 1448l123 16l-47 -338l-25 -161l2 -2q68 27 147.5 52t168 45.5t181.5 33t187 12.5q172 0 290 -42t186.5 -118t92 -178t7.5 -223 l-76 -545h-121z" />
<glyph unicode="i" horiz-adv-x="475" d="M176 0l152 1075l123 17l-154 -1092h-121zM346 1204l35 246h121l-35 -246h-121z" />
<glyph unicode="j" horiz-adv-x="487" d="M190 8l150 1067l123 17l-152 -1084q-16 -121 -52 -197.5t-85 -121.5t-111.5 -61.5t-132.5 -16.5l15 96q113 0 167.5 77t77.5 224zM358 1204l35 246h121l-35 -246h-121z" />
<glyph unicode="k" horiz-adv-x="1710" d="M1642 0h-190l-770 489h-356l-70 -489h-121l203 1448l123 16l-123 -876h358l926 487h184l-1005 -536z" />
<glyph unicode="l" horiz-adv-x="419" d="M352 1448l123 16l-205 -1464h-120z" />
<glyph unicode="m" horiz-adv-x="2545" d="M135 0l152 1075l119 17l-17 -127l2 -2q55 27 113.5 52t120 45.5t129 33t145.5 12.5q172 0 280.5 -47t168.5 -131q63 35 140 66.5t159 56t165.5 40t163.5 15.5q160 0 265.5 -42t165 -118t77 -178t0.5 -223l-76 -545h-120l75 545q14 96 1 178t-60 142.5t-134 94t-222 33.5 q-82 0 -159 -13t-148.5 -34.5t-137 -48.5t-123.5 -53q29 -63 35 -138t-6 -161l-76 -545h-121l76 545q14 96 2 178t-59 142.5t-133 94t-219 33.5q-82 0 -154 -13t-134.5 -32.5t-115.5 -42t-98 -43.5l-121 -862h-121z" />
<glyph unicode="n" d="M1454 0l76 545q14 96 -4.5 178t-75.5 142.5t-155.5 94t-245.5 33.5q-88 0 -179.5 -12t-178.5 -30.5t-167 -42t-147 -46.5l-121 -862h-121l152 1075l119 17l-17 -127l2 -2q68 27 147.5 52t168 45.5t181.5 33t187 12.5q172 0 290 -42t186.5 -118t92 -178t7.5 -223l-76 -545 h-121z" />
<glyph unicode="o" horiz-adv-x="1665" d="M170 539q18 123 80.5 227t167 180t248 118t321.5 42t310.5 -42t215 -118t116.5 -180t16 -227t-81 -227.5t-167.5 -180.5t-247.5 -119t-322 -43q-178 0 -310 43t-215 119t-116.5 180.5t-15.5 227.5zM289 485q0 -88 34.5 -161.5t104.5 -128t174.5 -84t241.5 -29.5 q150 0 269.5 34t205.5 95t137 145t66 183q14 98 -14.5 182t-97.5 144.5t-179.5 94t-259.5 33.5q-164 0 -290 -39t-214 -106.5t-133 -160.5t-45 -202z" />
<glyph unicode="p" horiz-adv-x="1732" d="M285 229l-35 -262l-49 -356h-121l205 1460l116 14l-12 -122l2 -2q72 33 158 59.5t178 45.5t185.5 29.5t179.5 10.5q176 0 301 -43t201.5 -118t105.5 -178t12 -224q-18 -125 -77.5 -230.5t-156 -181.5t-227.5 -119t-293 -43q-117 0 -217 21.5t-184 57.5t-151.5 83 t-116.5 100zM1065 993q-84 0 -175 -10t-182.5 -28.5t-176.5 -43t-154 -51.5l-74 -514q43 -53 109.5 -100t152.5 -84t186.5 -58.5t211.5 -21.5q150 0 267.5 40t198 108.5t122.5 162.5t42 205q0 86 -31.5 157.5t-96 125t-165 83t-235.5 29.5z" />
<glyph unicode="q" horiz-adv-x="1732" d="M1507 229v2q-66 -53 -146.5 -100t-173.5 -83t-199.5 -57.5t-221.5 -21.5q-162 0 -281.5 43t-195.5 119t-106.5 181.5t-12.5 230.5q16 121 74.5 224t157 178t236.5 118t314 43q86 0 176.5 -10.5t176.5 -29.5t163.5 -46t141.5 -59l2 2l18 108l117 14l-207 -1474h-121 l49 356zM944 993q-164 0 -288 -39t-205.5 -108.5t-122.5 -162.5t-41 -200q0 -88 31.5 -161.5t95 -127t158 -83t216.5 -29.5q111 0 218.5 21.5t203 58.5t176 84t136.5 100l73 514q-61 27 -139 51.5t-164 43t-176 28.5t-172 10z" />
<glyph unicode="r" horiz-adv-x="1030" d="M287 1075l119 17l-31 -234l2 -2q76 63 155.5 113.5t167.5 83t189.5 46t220.5 5.5l-23 -119q-188 20 -372.5 -31t-352.5 -200l-106 -754h-121z" />
<glyph unicode="s" horiz-adv-x="1650" d="M143 170q100 -25 184.5 -41t162 -27.5t153.5 -15.5t160 -4q45 0 112.5 3t142.5 11t149.5 24.5t135 44.5t97.5 68.5t37 96.5q0 63 -49.5 99t-131.5 52.5t-186 19.5t-215 5q-123 2 -243 8t-215 31.5t-154.5 76t-59.5 140.5q0 82 37 139t97.5 95t138 60.5t159.5 33t162 13.5 t144 3q297 0 647 -62l-35 -112q-180 33 -334 47t-313 14q-88 0 -189.5 -5t-188.5 -27.5t-144.5 -66.5t-57.5 -120q0 -59 47 -92t125 -48.5t178.5 -19.5t208.5 -4q125 -2 249 -7t223.5 -30.5t162 -79t62.5 -149.5q0 -86 -46.5 -147.5t-119 -103.5t-163.5 -66.5t-183.5 -37 t-176.5 -16.5t-139 -4q-88 0 -168 4t-159.5 15.5t-163.5 29t-181 41.5z" />
<glyph unicode="t" horiz-adv-x="737" d="M469 1075h352l-14 -102h-352l-88 -623q-20 -141 12.5 -209.5t136.5 -68.5q35 0 76 7t92 17l-14 -96q-55 -12 -105.5 -21.5t-95.5 -9.5q-63 0 -111.5 18.5t-78 62.5t-40 118t6.5 182l88 623h-144l15 102h143l39 281l123 16z" />
<glyph unicode="u" d="M209 530l76 545h121l-76 -545q-14 -96 5 -179t76.5 -142t155 -93t240.5 -34q100 0 195.5 19.5t183.5 52t167 77.5t146 97l107 747h120l-151 -1075h-107l25 215l-2 2q-66 -47 -144.5 -91t-171 -79t-195.5 -56.5t-218 -21.5q-164 0 -276.5 42t-180 118t-90 178t-6.5 223z " />
<glyph unicode="v" horiz-adv-x="1660" d="M1757 1075l-862 -1075h-131l-559 1075h143l285 -563l213 -406l325 406l445 563h141z" />
<glyph unicode="w" horiz-adv-x="2361" d="M1645 0l-138 389l-196 545l-346 -545l-248 -389h-131l-381 1075h135l192 -563l138 -387l243 387l353 563h133l190 -563l140 -387l243 387l352 563h136l-684 -1075h-131z" />
<glyph unicode="x" horiz-adv-x="1607" d="M1534 1075h168l-750 -536l600 -539h-166l-518 463l-647 -463h-168l752 539l-596 536h168l512 -463z" />
<glyph unicode="y" horiz-adv-x="1660" d="M205 1075h143l285 -563l215 -418l768 981h139l-903 -1155q-72 -92 -139.5 -152.5t-133 -96.5t-131 -50t-133.5 -14q-61 0 -124.5 8t-135.5 25l15 96q59 -12 121.5 -22.5t121.5 -10.5q119 0 222.5 56.5t205.5 183.5l35 43z" />
<glyph unicode="z" horiz-adv-x="1640" d="M1538 102l-14 -102h-1409l14 100l1290 873h-1116l14 102h1311l-14 -100l-1290 -873h1214z" />
<glyph unicode="{" horiz-adv-x="851" d="M360 668q78 -29 115 -101.5t37 -177.5q0 -66 -13.5 -130t-29.5 -125.5t-29.5 -120t-13.5 -109.5q0 -43 11.5 -78t40 -59.5t76.5 -37t122 -10.5l-10 -84q-94 0 -162 11.5t-111 39t-63.5 72.5t-20.5 115q0 57 15.5 122.5t34 134.5t34 138.5t15.5 137.5q0 84 -31 147 t-113 80l10 69q55 10 94.5 38t65 70t39.5 93t23 107q14 102 14 205.5t10 177.5q12 90 42 149.5t80 94t127 49t185 14.5l-12 -84q-88 2 -145.5 -14.5t-91 -47t-50 -75.5t-24.5 -99q-10 -78 -10 -170t-15 -190q-18 -135 -80 -226t-166 -126z" />
<glyph unicode="|" horiz-adv-x="602" d="M301 -307h-86l289 2048h86z" />
<glyph unicode="}" horiz-adv-x="851" d="M680 668q-78 29 -115 101.5t-37 176.5q0 63 13.5 128t30 126.5t29.5 119.5t13 112q0 43 -11 77.5t-39.5 59t-78 37t-123.5 10.5l13 84q94 0 161.5 -11.5t110.5 -39t62.5 -72.5t19.5 -115q0 -59 -15.5 -122.5t-32.5 -131t-32.5 -138.5t-15.5 -140q0 -84 29.5 -147.5 t111.5 -80.5l-10 -69q-55 -10 -93 -38t-64.5 -70t-41 -93t-22.5 -106q-14 -102 -14.5 -206t-10.5 -177q-12 -90 -40.5 -149.5t-80 -94.5t-128 -49.5t-185.5 -14.5l12 84q86 -2 143.5 14.5t92.5 47.5t52 76t26 98q10 78 11 171t15 189q18 135 79 226.5t165 126.5z" />
<glyph unicode="~" horiz-adv-x="1433" d="M1329 819q-115 -102 -200 -139t-150 -37q-53 0 -97 19.5t-84 42t-78 42t-79 19.5q-47 0 -111.5 -32t-158.5 -113l-58 69q111 98 194 134t148 36q51 0 93.5 -19.5t81 -42t77.5 -42t84 -19.5q47 0 115 33t166 119z" />
<glyph unicode="&#xa1;" horiz-adv-x="557" d="M332 778l41 297h110l-41 -297h-110zM289 -358h-123l147 962h101z" />
<glyph unicode="&#xa2;" horiz-adv-x="1662" d="M1174 1464l-27 -180q217 -2 357.5 -33.5t189.5 -52.5l-37 -106q-23 8 -69 21t-113.5 25.5t-153.5 22.5t-188 10l-129 -911q102 0 191 9.5t159.5 21.5t122 25.5t75.5 23.5l7 -107q-29 -10 -80.5 -24t-125 -27.5t-165.5 -24t-201 -10.5l-24 -178h-70l25 178 q-188 4 -319.5 43t-213.5 103.5t-119 153t-37 192.5q0 131 43 245.5t143.5 202t262.5 138.5t399 57l27 182h70zM354 653q0 -84 30 -153.5t98.5 -121.5t179 -83t272.5 -33l127 907q-207 -4 -342 -46t-217 -111.5t-115 -162t-33 -196.5z" />
<glyph unicode="&#xa3;" horiz-adv-x="1607" d="M160 752h129l53 245q31 137 102.5 227.5t172 142.5t219 73.5t241.5 21.5q166 0 320.5 -26.5t267.5 -55.5l-41 -110q-43 10 -106.5 24.5t-138 26.5t-157.5 21.5t-165 9.5q-100 0 -196.5 -16.5t-176.5 -56.5t-138.5 -107.5t-80.5 -170.5l-55 -249h772l-11 -70h-778 l-129 -567h1223l-17 -115h-1349l151 682h-122z" />
<glyph unicode="&#xa4;" horiz-adv-x="1761" d="M707 225h-287l41 287l-176 205l233 205l41 286h287l233 205l176 -205h287l-41 -286l176 -205l-233 -205l-41 -287h-287l-233 -205zM756 309l145 -168l191 168h239l33 240l192 168l-143 168l33 239h-240l-145 168l-191 -168h-239l-33 -239l-192 -168l143 -168l-33 -240 h240z" />
<glyph unicode="&#xa5;" horiz-adv-x="1765" d="M1589 164h-624l-23 -164h-121l23 164h-631l10 72h631l31 213h-631l8 71h584l-613 914h154l363 -551l208 -336l304 336l516 551h153l-870 -914h577l-8 -71h-624l-31 -213h624z" />
<glyph unicode="&#xa6;" horiz-adv-x="602" d="M463 840h-86l127 901h86zM301 -307h-86l127 901h86z" />
<glyph unicode="&#xa7;" horiz-adv-x="1703" d="M1219 426q72 -14 130 -35.5t99 -53.5t63.5 -76t22.5 -105q0 -123 -67.5 -201t-177 -123t-247 -62.5t-276.5 -17.5q-106 0 -206.5 7.5t-184.5 17.5t-145.5 20t-88.5 17l37 112q25 -6 87.5 -17t147.5 -20.5t185 -16.5t203 -7q113 0 222.5 12t195.5 43t138 84t52 137 q0 88 -74.5 133t-198.5 70t-284 39t-330 43l109 332q-74 14 -132.5 36.5t-99.5 54.5t-63.5 76t-22.5 105q0 123 68 201t177.5 123t246.5 62.5t276 17.5q106 0 207 -7.5t184.5 -17.5t145 -20.5t88.5 -16.5l-35 -112q-27 6 -90 17t-147 20.5t-184.5 16.5t-200.5 7 q-115 0 -224.5 -12.5t-195.5 -43t-138.5 -85t-52.5 -136.5q0 -88 75 -133t200 -68.5t284.5 -39t329.5 -43.5zM1237 678q-154 23 -293 37t-254 35l-78 -242q154 -23 292 -37t255 -35z" />
<glyph unicode="&#xa8;" horiz-adv-x="1730" d="M705 1444l-31 -219h-92l30 219h93zM1208 1444l-30 -219h-93l31 219h92z" />
<glyph unicode="&#xa9;" horiz-adv-x="1964" d="M207 618q0 176 64.5 331t189.5 269.5t307 180t418 65.5q193 0 337 -49t240.5 -136t144.5 -206t48 -258q0 -176 -64.5 -330.5t-189.5 -269.5t-307.5 -180.5t-417.5 -65.5q-193 0 -337 49.5t-240.5 136.5t-144.5 205.5t-48 257.5zM279 629q0 -127 44 -234.5t133 -185.5 t221 -123t310 -45q215 0 383 59.5t282.5 163t174 241.5t59.5 298q0 127 -44 235.5t-133 187.5t-221 124t-310 45q-217 0 -384 -60.5t-282 -164t-174 -242.5t-59 -299zM1462 369q-41 -12 -146.5 -38t-262.5 -26q-139 0 -239.5 27.5t-165 76t-94.5 114t-30 143.5q0 96 37 180 t116 147.5t199.5 99t290.5 35.5q158 0 257.5 -25.5t136.5 -37.5l-25 -66q-53 16 -147.5 39t-229.5 23q-150 0 -256 -31t-173.5 -83t-99.5 -121.5t-32 -149.5q0 -66 26.5 -121t83 -96t144.5 -63.5t211 -22.5q135 0 234.5 22.5t158.5 38.5z" />
<glyph unicode="&#xaa;" horiz-adv-x="1394" d="M1438 584q-84 -25 -142 -25q-80 0 -111.5 42t-23.5 153q-37 -41 -95 -77t-128 -62.5t-148.5 -41t-158.5 -14.5q-184 0 -297 67.5t-113 196.5q0 90 44 148.5t115 92.5t158 47t173 13q55 0 120.5 -6t132 -15t128 -21.5t106.5 -26.5q8 66 -6 121t-60.5 95t-127 61.5 t-205.5 21.5q-66 0 -128.5 -5.5t-116.5 -13.5t-95 -18t-66 -19l-20 99q18 6 61 16t103.5 20.5t133 17.5t150.5 7q156 0 258.5 -29.5t160.5 -83t76.5 -126t6.5 -156.5l-35 -242q-10 -78 2.5 -112.5t65.5 -36.5q16 0 41.5 4t54.5 14zM346 844q0 -55 33 -91t83 -56.5t108.5 -29 t107.5 -8.5q78 0 154.5 14.5t142 42t117 66.5t79.5 86l19 133q-39 12 -104.5 21.5t-135 17t-134 11.5t-99.5 4q-63 0 -129 -9.5t-120 -33t-88 -64.5t-34 -104z" />
<glyph unicode="&#xab;" horiz-adv-x="1513" d="M924 1106l47 -66l-604 -450l477 -449l-64 -65l-542 514zM1456 1106l47 -66l-604 -450l477 -449l-63 -65l-543 514z" />
<glyph unicode="&#xac;" horiz-adv-x="1449" d="M1386 819l-104 -745h-84l92 661h-1011l12 84h1095z" />
<glyph unicode="&#xad;" horiz-adv-x="1449" d="M340 729h973l-15 -98h-972z" />
<glyph unicode="&#xae;" horiz-adv-x="1964" d="M207 618q0 176 64.5 331t189.5 269.5t307 180t418 65.5q193 0 337 -49t240.5 -136t144.5 -206t48 -258q0 -176 -64.5 -330.5t-189.5 -269.5t-307.5 -180.5t-417.5 -65.5q-193 0 -337 49.5t-240.5 136.5t-144.5 205.5t-48 257.5zM279 629q0 -127 44 -234.5t133 -185.5 t221 -123t310 -45q215 0 383 59.5t282.5 163t174 241.5t59.5 298q0 127 -44 235.5t-133 187.5t-221 124t-310 45q-217 0 -384 -60.5t-282 -164t-174 -242.5t-59 -299zM594 322l111 788h626q57 0 107.5 -11.5t87.5 -36t57.5 -65.5t20.5 -100q0 -82 -28 -136t-77 -88 t-116.5 -48.5t-147.5 -14.5l291 -288h-105l-286 286h-426l-41 -286h-74zM1249 676q61 0 112.5 11t88.5 36t57.5 64.5t20.5 99.5q0 86 -57.5 120.5t-145.5 34.5h-555l-53 -366h532z" />
<glyph unicode="&#xaf;" horiz-adv-x="1730" d="M1331 1380l-12 -82h-727l12 82h727z" />
<glyph unicode="&#xb0;" horiz-adv-x="1132" d="M289 1092q10 78 47 146.5t97.5 118.5t144.5 78.5t192 28.5q106 0 183 -28.5t124 -78.5t64.5 -119t7.5 -146q-12 -80 -49 -147.5t-97.5 -119t-145.5 -80t-191 -28.5q-109 0 -184.5 28.5t-123 80t-64.5 119t-5 147.5zM373 1092q-10 -63 4 -117.5t51 -94.5t98.5 -63.5 t149.5 -23.5q86 0 154.5 23.5t117.5 63.5t78 94t39 118q8 61 -6.5 115.5t-51 94t-99 62t-148.5 22.5q-88 0 -155.5 -22.5t-117 -62t-78 -94t-36.5 -115.5z" />
<glyph unicode="&#xb1;" horiz-adv-x="1449" d="M766 580l65 464h84l-65 -464h463l-13 -86h-462l-58 -408h463l-12 -86h-1014l12 86h467l58 408h-467l12 86h467z" />
<glyph unicode="&#xb2;" horiz-adv-x="1355" d="M199 608l16 115q205 70 399.5 154t345 175t242.5 189t92 199q0 72 -49 113.5t-117.5 63t-144.5 28t-131 6.5q-135 0 -252 -17.5t-246 -48.5q-4 27 -6 57.5t-4 55.5q137 35 260 51t246 16q76 0 176 -9t188.5 -41t149.5 -90t61 -157q0 -117 -85 -223t-226 -201.5 t-325.5 -176.5t-385.5 -144h951l-17 -115h-1138z" />
<glyph unicode="&#xb3;" horiz-adv-x="1335" d="M236 801q49 -20 112.5 -39t137 -33t153.5 -22.5t162 -8.5q88 0 170 12.5t144.5 42t100 77t37.5 118.5q0 59 -38.5 96t-116.5 56.5t-195 27t-272 7.5h-170l12 79h172q174 0 297 14.5t202 44.5t115.5 76t36.5 111q0 68 -47 107t-116.5 58.5t-146.5 23.5t-134 4 q-137 0 -254 -18.5t-246 -49.5l-10 113q137 35 261 51t255 16q74 0 171 -7t186.5 -33.5t150.5 -82t61 -149.5q0 -141 -118.5 -216t-390.5 -99q229 -12 343.5 -63.5t114.5 -174.5q0 -102 -51 -170t-134 -110t-191.5 -59t-221.5 -17q-90 0 -178 9t-167 24.5t-143.5 35 t-105.5 37.5z" />
<glyph unicode="&#xb4;" horiz-adv-x="1730" d="M1372 1524l21 -92l-721 -234l-15 62z" />
<glyph unicode="&#xb5;" d="M80 -389l205 1464h123l-76 -545q-14 -96 4 -179t75.5 -142t154 -93t239.5 -34q100 0 196.5 19.5t183.5 52t167 77.5t147 97l105 747h120l-149 -1075h-107l23 215v2q-66 -47 -144.5 -91t-171 -79t-195.5 -56.5t-218 -21.5q-205 0 -321.5 76t-151.5 199l-88 -633h-121z" />
<glyph unicode="&#xb6;" horiz-adv-x="1396" d="M1044 0h-100l88 623h-317q-90 0 -170 18t-140.5 59t-95.5 106.5t-35 162.5q0 129 46.5 218t123 144t176 79t207.5 24h418zM1239 0h-98l200 1434h99z" />
<glyph unicode="&#xb7;" horiz-adv-x="544" d="M424 686l-41 -297h-111l41 297h111z" />
<glyph unicode="&#xb8;" horiz-adv-x="1703" d="M610 -469l49 70q47 -6 114 -7.5t129.5 8t109.5 35t57 72.5q6 27 -12.5 49.5t-53 37t-82 21.5t-98.5 5q-8 2 -15 10t-3 21l106 155h60l-99 -139q55 4 109.5 -5t95.5 -29.5t62.5 -53.5t13.5 -76q-10 -51 -46 -85t-86 -53.5t-108.5 -28.5t-116 -12t-106.5 0t-80 5z" />
<glyph unicode="&#xb9;" horiz-adv-x="1142" d="M612 723l125 897l-415 -115l-23 99l461 137h119l-144 -1018h439l-17 -115h-999l16 115h438z" />
<glyph unicode="&#xba;" horiz-adv-x="1323" d="M209 956q0 106 44 198.5t129 160t207 105.5t277 38q131 0 230.5 -29.5t167 -82t101.5 -125t34 -158.5q0 -109 -45 -201t-129 -159.5t-207 -105.5t-279 -38q-131 0 -230 29.5t-166 83t-100.5 126t-33.5 158.5zM1274 1047q0 129 -106.5 212.5t-317.5 83.5 q-123 0 -219 -28.5t-162 -77.5t-100.5 -116.5t-34.5 -147.5q0 -131 105.5 -215t316.5 -84q123 0 220 28.5t162.5 77.5t100.5 118t35 149z" />
<glyph unicode="&#xbb;" horiz-adv-x="1513" d="M1442 590l-686 -514l-47 65l604 449l-477 450l63 66zM909 590l-686 -514l-47 65l604 449l-477 450l64 66z" />
<glyph unicode="&#xbc;" horiz-adv-x="3323" d="M569 416l125 897l-415 -115l-23 98l461 138h119l-144 -1018h438l-16 -115h-999l16 115h438zM1040 -2q369 367 725.5 736.5t706.5 750.5l49 -49q-367 -367 -723 -736.5t-708 -750.5zM3105 240l-35 -240h-123l35 240h-895l16 114l1004 779h123l-109 -777h150 q-6 -29 -11.5 -58.5t-9.5 -57.5h-145zM3043 674l49 330l-612 -474l-235 -174h753z" />
<glyph unicode="&#xbd;" horiz-adv-x="3575" d="M569 416l125 897l-415 -115l-23 98l461 138h119l-144 -1018h438l-16 -115h-999l16 115h438zM2333 0l16 115q205 70 399.5 153.5t346 175t243.5 189.5t92 198q0 72 -49 114t-117.5 63.5t-145.5 27.5t-132 6q-135 0 -252 -17t-246 -48q-2 27 -5 57.5t-5 55.5q137 35 261 51 t247 16q76 0 176 -9t188.5 -41t149.5 -90.5t61 -156.5q0 -117 -85 -223.5t-226 -201.5t-326.5 -176t-386.5 -144h951l-17 -115h-1138zM1040 -2q369 367 725.5 736.5t706.5 750.5l49 -49q-367 -367 -723 -736.5t-708 -750.5z" />
<glyph unicode="&#xbe;" horiz-adv-x="3362" d="M3142 240l-33 -240h-123l33 240h-895l16 114l1004 779h123l-109 -777h150q-4 -29 -10.5 -58.5t-10.5 -57.5h-145zM193 494q49 -20 112.5 -39t137 -33t153.5 -22.5t162 -8.5q88 0 170 12.5t144.5 42t100 76.5t37.5 119q0 59 -38.5 96t-116.5 56.5t-195 26.5t-272 7h-170 l12 80h172q174 0 297 14.5t202 44t115.5 75.5t36.5 112q0 68 -47 106.5t-116.5 58t-146.5 24t-134 4.5q-137 0 -254 -18.5t-246 -49.5l-10 113q137 35 261 51t255 16q74 0 171 -7t186.5 -33.5t150.5 -82t61 -149.5q0 -141 -118.5 -216t-391.5 -100q229 -12 344 -63t115 -174 q0 -102 -51 -170t-134 -110t-191.5 -59.5t-221.5 -17.5q-90 0 -178 9.5t-167 25t-143.5 35t-105.5 37.5zM3080 674l51 330l-614 -474l-236 -174h754zM1079 -2q367 367 723.5 736.5t708.5 750.5l47 -49q-367 -367 -723 -736.5t-709 -750.5z" />
<glyph unicode="&#xbf;" horiz-adv-x="1646" d="M1010 604q-25 -94 -89.5 -152.5t-147.5 -98.5t-174 -69.5t-166 -66.5t-124 -89t-49 -136q0 -59 29.5 -102.5t79 -73t113 -48t130 -28.5t132 -13t116.5 -3q156 0 304.5 21.5t312.5 59.5l10 -110q-172 -43 -325.5 -63.5t-311.5 -20.5q-66 0 -143.5 4t-157.5 18.5t-155 38 t-133 64.5t-93 98t-35 137q0 109 48 175.5t124 109.5t168 71.5t178 62.5t156 83t102 131h101zM928 778l43 297h110l-43 -297h-110z" />
<glyph unicode="&#xc0;" horiz-adv-x="2021" d="M2009 0h-141l-193 373h-1224l-297 -373h-142l1131 1434h137zM637 614l-105 -127h1090l-66 127l-360 713zM1341 1618l-30 -62l-656 234l47 92z" />
<glyph unicode="&#xc1;" horiz-adv-x="2021" d="M2009 0h-141l-193 373h-1224l-297 -373h-142l1131 1434h137zM637 614l-105 -127h1090l-66 127l-360 713zM1860 1882l20 -92l-721 -234l-14 62z" />
<glyph unicode="&#xc2;" horiz-adv-x="2021" d="M2009 0h-141l-193 373h-1224l-297 -373h-142l1131 1434h137zM637 614l-105 -127h1090l-66 127l-360 713zM1260 1772l-453 -236l-21 61l486 273l411 -273l-38 -61z" />
<glyph unicode="&#xc3;" horiz-adv-x="2021" d="M2009 0h-141l-193 373h-1224l-297 -373h-142l1131 1434h137zM637 614l-105 -127h1090l-66 127l-360 713zM1655 1743q-92 -82 -161 -115t-124 -33q-43 0 -79 15.5t-67.5 34t-62.5 34t-63 15.5q-35 0 -89.5 -22.5t-129.5 -88.5l-43 51q88 80 154.5 113t119.5 33 q41 0 75 -15.5t65.5 -34t63.5 -34t68 -15.5q39 0 95.5 22.5t134.5 90.5z" />
<glyph unicode="&#xc4;" horiz-adv-x="2021" d="M2009 0h-141l-193 373h-1224l-297 -373h-142l1131 1434h137zM637 614l-105 -127h1090l-66 127l-360 713zM1057 1802l-31 -219h-92l31 219h92zM1561 1802l-31 -219h-92l30 219h93z" />
<glyph unicode="&#xc5;" horiz-adv-x="2021" d="M997 1548q0 92 63.5 158t199.5 66q111 0 157.5 -48.5t46.5 -119.5q0 -74 -39 -131.5t-125 -81.5l709 -1391h-141l-193 373h-1224l-297 -373h-142l1096 1391q-59 16 -85 59t-26 98zM637 614l-105 -127h1090l-66 127l-360 713zM1055 1556q0 -53 36.5 -87.5t118.5 -34.5 q104 0 150.5 48t46.5 113q0 51 -36 85t-120 34q-104 0 -150 -46t-46 -112z" />
<glyph unicode="&#xc6;" horiz-adv-x="3346" d="M3193 680h-1311l-80 -565h1475l-17 -115h-1595l53 373h-1048l-480 -373h-178l1854 1434h1554l-14 -113h-1434l-74 -526h1311zM977 614l-166 -127h922l114 816z" />
<glyph unicode="&#xc7;" horiz-adv-x="1996" d="M719 -469l47 70q47 -6 113.5 -7.5t130 8t110.5 35t56 72.5q6 27 -11.5 49.5t-52.5 37t-82 21.5t-98 5q-8 2 -15.5 10t-3.5 21l82 122q-209 14 -357.5 69.5t-244.5 141.5t-141 198t-45 241q0 174 67.5 327.5t210 267t363.5 179t528 65.5q143 0 260 -13t207 -31.5 t151.5 -38t94.5 -31.5l-43 -109q-47 14 -112.5 33.5t-151.5 37t-190.5 29t-229.5 11.5q-274 0 -470 -55.5t-319.5 -151.5t-182 -225t-58.5 -279q0 -121 48 -223.5t150.5 -176t264 -115.5t389.5 -42q125 0 232.5 11t197.5 27.5t161.5 35t122.5 35.5l15 -109 q-37 -12 -104.5 -31.5t-163 -38t-215 -32t-263.5 -13.5h-58.5t-55.5 2l-72 -102q55 4 109.5 -5t95.5 -29.5t62.5 -53.5t13.5 -76q-10 -51 -46 -85t-86.5 -53.5t-108.5 -28.5t-115.5 -12t-106.5 0t-80 5z" />
<glyph unicode="&#xc8;" horiz-adv-x="1867" d="M1513 1618l-30 -62l-656 234l47 92zM156 0l200 1434h1555l-15 -113h-1433l-74 -526h1311l-17 -115h-1310l-80 -565h1474l-16 -115h-1595z" />
<glyph unicode="&#xc9;" horiz-adv-x="1867" d="M1518 1882l20 -92l-721 -234l-14 62zM156 0l200 1434h1555l-15 -113h-1433l-74 -526h1311l-17 -115h-1310l-80 -565h1474l-16 -115h-1595z" />
<glyph unicode="&#xca;" horiz-adv-x="1867" d="M156 0l200 1434h1555l-15 -113h-1433l-74 -526h1311l-17 -115h-1310l-80 -565h1474l-16 -115h-1595zM1182 1772l-453 -236l-20 61l485 273l412 -273l-39 -61z" />
<glyph unicode="&#xcb;" horiz-adv-x="1867" d="M979 1802l-31 -219h-92l31 219h92zM1483 1802l-31 -219h-92l31 219h92zM156 0l200 1434h1555l-15 -113h-1433l-74 -526h1311l-17 -115h-1310l-80 -565h1474l-16 -115h-1595z" />
<glyph unicode="&#xcc;" horiz-adv-x="434" d="M358 1434h121l-203 -1434h-120zM741 1618l-30 -62l-656 234l47 92z" />
<glyph unicode="&#xcd;" horiz-adv-x="434" d="M356 1434h121l-201 -1434h-120zM864 1882l21 -92l-721 -234l-14 62z" />
<glyph unicode="&#xce;" horiz-adv-x="434" d="M358 1434h121l-203 -1434h-120zM467 1772l-451 -236l-22 61l487 273l410 -273l-37 -61z" />
<glyph unicode="&#xcf;" horiz-adv-x="434" d="M358 1434h121l-203 -1434h-120zM266 1802l-30 -219h-93l31 219h92zM770 1802l-31 -219h-92l31 219h92z" />
<glyph unicode="&#xd0;" horiz-adv-x="2031" d="M156 0l96 682h-156l10 72h156l96 680h703q254 0 436 -45.5t299 -128t172 -198.5t55 -255q0 -176 -66.5 -323.5t-207.5 -255t-361.5 -168t-529.5 -60.5h-702zM463 1321l-80 -567h582l-11 -72h-581l-80 -567h581q276 0 471 50t318 139t180.5 214t57.5 275q0 119 -48.5 217 t-153 166.5t-266 106.5t-389.5 38h-581z" />
<glyph unicode="&#xd1;" horiz-adv-x="2023" d="M1655 1743q-92 -82 -161 -115t-124 -33q-43 0 -79 15.5t-67.5 34t-62.5 34t-63 15.5q-35 0 -89.5 -22.5t-129.5 -88.5l-43 51q88 80 154.5 113t119.5 33q41 0 75 -15.5t65.5 -34t63.5 -34t68 -15.5q39 0 95.5 22.5t134.5 90.5zM1946 1434h120l-200 -1434h-119l-1292 1280 l-23 -176l-156 -1104h-120l200 1434h121l1292 -1280l25 192z" />
<glyph unicode="&#xd2;" horiz-adv-x="2156" d="M1659 1618l-31 -62l-655 234l47 92zM215 717q23 160 102.5 297t215 236.5t323.5 156.5t426 57t410 -57t279.5 -156.5t149.5 -236.5t19 -297t-103.5 -297t-215.5 -236.5t-322.5 -157t-425.5 -57.5t-409.5 57.5t-279.5 157t-150 236.5t-19 297zM338 717q-18 -135 17.5 -252 t130 -201t245 -132t359.5 -48t372.5 48t280.5 132t186.5 201t87.5 252q18 137 -17.5 252.5t-128.5 200.5t-243.5 133.5t-359.5 48.5t-373 -48.5t-281.5 -133.5t-187.5 -200.5t-88 -252.5z" />
<glyph unicode="&#xd3;" horiz-adv-x="2156" d="M1663 1882l20 -92l-720 -234l-15 62zM215 717q23 160 102.5 297t215 236.5t323.5 156.5t426 57t410 -57t279.5 -156.5t149.5 -236.5t19 -297t-103.5 -297t-215.5 -236.5t-322.5 -157t-425.5 -57.5t-409.5 57.5t-279.5 157t-150 236.5t-19 297zM338 717 q-18 -135 17.5 -252t130 -201t245 -132t359.5 -48t372.5 48t280.5 132t186.5 201t87.5 252q18 137 -17.5 252.5t-128.5 200.5t-243.5 133.5t-359.5 48.5t-373 -48.5t-281.5 -133.5t-187.5 -200.5t-88 -252.5z" />
<glyph unicode="&#xd4;" horiz-adv-x="2156" d="M215 717q23 160 102.5 297t215 236.5t323.5 156.5t426 57t410 -57t279.5 -156.5t149.5 -236.5t19 -297t-103.5 -297t-215.5 -236.5t-322.5 -157t-425.5 -57.5t-409.5 57.5t-279.5 157t-150 236.5t-19 297zM338 717q-18 -135 17.5 -252t130 -201t245 -132t359.5 -48 t372.5 48t280.5 132t186.5 201t87.5 252q18 137 -17.5 252.5t-128.5 200.5t-243.5 133.5t-359.5 48.5t-373 -48.5t-281.5 -133.5t-187.5 -200.5t-88 -252.5zM1325 1772l-453 -236l-20 61l485 273l412 -273l-39 -61z" />
<glyph unicode="&#xd5;" horiz-adv-x="2156" d="M1722 1743q-92 -82 -160.5 -115t-123.5 -33q-43 0 -79 15.5t-67.5 34t-62.5 34t-64 15.5q-35 0 -89 -22.5t-130 -88.5l-43 51q88 80 154.5 113t120.5 33q41 0 74.5 -15.5t65.5 -34t63.5 -34t68.5 -15.5q39 0 95.5 22.5t133.5 90.5zM215 717q23 160 102.5 297t215 236.5 t323.5 156.5t426 57t410 -57t279.5 -156.5t149.5 -236.5t19 -297t-103.5 -297t-215.5 -236.5t-322.5 -157t-425.5 -57.5t-409.5 57.5t-279.5 157t-150 236.5t-19 297zM338 717q-18 -135 17.5 -252t130 -201t245 -132t359.5 -48t372.5 48t280.5 132t186.5 201t87.5 252 q18 137 -17.5 252.5t-128.5 200.5t-243.5 133.5t-359.5 48.5t-373 -48.5t-281.5 -133.5t-187.5 -200.5t-88 -252.5z" />
<glyph unicode="&#xd6;" horiz-adv-x="2156" d="M1124 1802l-30 -219h-93l31 219h92zM1628 1802l-31 -219h-92l31 219h92zM215 717q23 160 102.5 297t215 236.5t323.5 156.5t426 57t410 -57t279.5 -156.5t149.5 -236.5t19 -297t-103.5 -297t-215.5 -236.5t-322.5 -157t-425.5 -57.5t-409.5 57.5t-279.5 157t-150 236.5 t-19 297zM338 717q-18 -135 17.5 -252t130 -201t245 -132t359.5 -48t372.5 48t280.5 132t186.5 201t87.5 252q18 137 -17.5 252.5t-128.5 200.5t-243.5 133.5t-359.5 48.5t-373 -48.5t-281.5 -133.5t-187.5 -200.5t-88 -252.5z" />
<glyph unicode="&#xd7;" horiz-adv-x="1363" d="M694 537l-280 329l69 60l283 -330l375 330l51 -60l-377 -329l285 -328l-68 -59l-284 327l-373 -327l-53 59z" />
<glyph unicode="&#xd8;" horiz-adv-x="2156" d="M207 627q0 174 70.5 327.5t207 266t337 178t460.5 65.5q178 0 317.5 -31.5t243.5 -91.5l144 125l43 -51l-127 -110q123 -86 184 -216.5t61 -283.5q0 -174 -70.5 -326.5t-207.5 -265.5t-337 -178.5t-460 -65.5q-174 0 -313 31t-246 88l-135 -121l-45 51l123 107 q-127 86 -188.5 217t-61.5 285zM332 641q0 -133 55 -245.5t166 -184.5l1188 1040q-90 47 -207 74t-266 27q-229 0 -404.5 -55.5t-293 -150.5t-178 -225t-60.5 -280zM2023 791q0 131 -53 243.5t-164 184.5l-1190 -1041q182 -94 474 -94q229 0 404 55.5t293 150.5t177 224.5 t59 276.5z" />
<glyph unicode="&#xd9;" horiz-adv-x="2033" d="M1597 1618l-30 -62l-656 234l47 92zM1956 1434h121l-121 -861q-45 -317 -279.5 -460.5t-664.5 -143.5t-626 143.5t-150 460.5l120 861h121l-121 -861q-18 -135 18 -228t122 -151.5t220 -84t312 -25.5t319.5 25.5t243 84t164 151.5t80.5 228z" />
<glyph unicode="&#xda;" horiz-adv-x="2033" d="M1602 1882l20 -92l-721 -234l-14 62zM1956 1434h121l-121 -861q-45 -317 -279.5 -460.5t-664.5 -143.5t-626 143.5t-150 460.5l120 861h121l-121 -861q-18 -135 18 -228t122 -151.5t220 -84t312 -25.5t319.5 25.5t243 84t164 151.5t80.5 228z" />
<glyph unicode="&#xdb;" horiz-adv-x="2033" d="M1956 1434h121l-121 -861q-45 -317 -279.5 -460.5t-664.5 -143.5t-626 143.5t-150 460.5l120 861h121l-121 -861q-18 -135 18 -228t122 -151.5t220 -84t312 -25.5t319.5 25.5t243 84t164 151.5t80.5 228zM1262 1772l-451 -236l-23 61l488 273l410 -273l-37 -61z" />
<glyph unicode="&#xdc;" horiz-adv-x="2033" d="M1061 1802l-31 -219h-92l31 219h92zM1565 1802l-31 -219h-92l31 219h92zM1956 1434h121l-121 -861q-45 -317 -279.5 -460.5t-664.5 -143.5t-626 143.5t-150 460.5l120 861h121l-121 -861q-18 -135 18 -228t122 -151.5t220 -84t312 -25.5t319.5 25.5t243 84t164 151.5 t80.5 228z" />
<glyph unicode="&#xdd;" horiz-adv-x="2037" d="M2224 1434l-1083 -990l-62 -444h-121l62 444l-807 990h156l290 -359l435 -530l583 530l394 359h153zM1604 1882l18 -92l-721 -234l-12 62z" />
<glyph unicode="&#xde;" horiz-adv-x="1941" d="M156 0l200 1434h121l-28 -211h952q113 0 213 -22.5t175 -73t119 -133.5t44 -201q0 -164 -57.5 -274.5t-153.5 -180.5t-222 -99.5t-262 -29.5h-952l-29 -209h-120zM432 1110l-110 -786h960q111 0 210 23.5t174 76.5t119 139t44 213q0 92 -34 156.5t-93.5 103.5t-138 56.5 t-170.5 17.5h-961z" />
<glyph unicode="&#xdf;" horiz-adv-x="2168" d="M135 0l162 1149q10 74 51 127t101.5 88t134 55.5t150.5 29.5t152 12t136 3q119 0 247 -9t263 -32l-141 -428q-92 2 -198 -4t-195 -28.5t-147 -67.5t-58 -121q0 -61 48 -93t127 -47.5t181 -18.5t211 -5q123 -2 243.5 -8t217 -31.5t157 -79t60.5 -147.5q0 -86 -46 -147.5 t-119 -103.5t-164 -66.5t-183 -37t-176 -16.5t-140 -4q-88 0 -166.5 4t-157.5 15.5t-162 29t-179 41.5l41 111q100 -25 183 -41t160 -27.5t151.5 -15.5t158.5 -4q45 0 112.5 3t142.5 11t149.5 24.5t134 44.5t97.5 68.5t38 96.5q0 63 -49 98t-130 52.5t-185.5 20.5t-215.5 5 q-123 2 -241.5 8t-214 31.5t-153.5 76t-58 140.5q0 113 68.5 179.5t171 101t219 45t212.5 12.5l80 233q-104 12 -208.5 20.5t-202.5 8.5q-84 0 -182.5 -6t-185.5 -27.5t-148.5 -63.5t-71.5 -116l-162 -1149h-121z" />
<glyph unicode="&#xe0;" horiz-adv-x="1751" d="M1704 0q-92 -31 -160 -31q-59 0 -94 16.5t-50.5 48.5t-16.5 81t10 114q-49 -55 -122 -102t-163 -82t-192.5 -55.5t-208.5 -20.5q-117 0 -214.5 21.5t-167 63.5t-107.5 104.5t-38 144.5q0 115 57.5 188.5t146.5 115.5t199.5 58.5t217.5 16.5q68 0 153.5 -2t174 -7 t171 -11.5t146.5 -12.5q-2 72 -23.5 135.5t-80 109.5t-160 72.5t-262.5 26.5q-94 0 -179.5 -8t-154 -19.5t-117.5 -23.5t-72 -20l-22 106q25 8 78 21.5t127.5 25.5t166 21.5t189.5 9.5q193 0 320.5 -38t201.5 -103.5t96.5 -156.5t8.5 -198l-50 -348q-14 -94 3.5 -137 t89.5 -43q23 0 52.5 6t61.5 18zM305 324q0 -61 32 -108.5t90 -79.5t137 -47t175 -15q104 0 208 21.5t193 58t158.5 87t106.5 107.5l35 244h-658q-80 0 -165 -11.5t-154.5 -40t-113.5 -81.5t-44 -135zM1407 1260l-33 -62l-655 234l49 92z" />
<glyph unicode="&#xe1;" horiz-adv-x="1751" d="M1704 0q-92 -31 -160 -31q-59 0 -94 16.5t-50.5 48.5t-16.5 81t10 114q-49 -55 -122 -102t-163 -82t-192.5 -55.5t-208.5 -20.5q-117 0 -214.5 21.5t-167 63.5t-107.5 104.5t-38 144.5q0 115 57.5 188.5t146.5 115.5t199.5 58.5t217.5 16.5q68 0 153.5 -2t174 -7 t171 -11.5t146.5 -12.5q-2 72 -23.5 135.5t-80 109.5t-160 72.5t-262.5 26.5q-94 0 -179.5 -8t-154 -19.5t-117.5 -23.5t-72 -20l-22 106q25 8 78 21.5t127.5 25.5t166 21.5t189.5 9.5q193 0 320.5 -38t201.5 -103.5t96.5 -156.5t8.5 -198l-50 -348q-14 -94 3.5 -137 t89.5 -43q23 0 52.5 6t61.5 18zM305 324q0 -61 32 -108.5t90 -79.5t137 -47t175 -15q104 0 208 21.5t193 58t158.5 87t106.5 107.5l35 244h-658q-80 0 -165 -11.5t-154.5 -40t-113.5 -81.5t-44 -135zM1411 1524l19 -92l-721 -234l-13 62z" />
<glyph unicode="&#xe2;" horiz-adv-x="1751" d="M1704 0q-92 -31 -160 -31q-59 0 -94 16.5t-50.5 48.5t-16.5 81t10 114q-49 -55 -122 -102t-163 -82t-192.5 -55.5t-208.5 -20.5q-117 0 -214.5 21.5t-167 63.5t-107.5 104.5t-38 144.5q0 115 57.5 188.5t146.5 115.5t199.5 58.5t217.5 16.5q68 0 153.5 -2t174 -7 t171 -11.5t146.5 -12.5q-2 72 -23.5 135.5t-80 109.5t-160 72.5t-262.5 26.5q-94 0 -179.5 -8t-154 -19.5t-117.5 -23.5t-72 -20l-22 106q25 8 78 21.5t127.5 25.5t166 21.5t189.5 9.5q193 0 320.5 -38t201.5 -103.5t96.5 -156.5t8.5 -198l-50 -348q-14 -94 3.5 -137 t89.5 -43q23 0 52.5 6t61.5 18zM305 324q0 -61 32 -108.5t90 -79.5t137 -47t175 -15q104 0 208 21.5t193 58t158.5 87t106.5 107.5l35 244h-658q-80 0 -165 -11.5t-154.5 -40t-113.5 -81.5t-44 -135zM1044 1413l-450 -235l-23 61l488 272l409 -272l-36 -61z" />
<glyph unicode="&#xe3;" horiz-adv-x="1751" d="M1704 0q-92 -31 -160 -31q-59 0 -94 16.5t-50.5 48.5t-16.5 81t10 114q-49 -55 -122 -102t-163 -82t-192.5 -55.5t-208.5 -20.5q-117 0 -214.5 21.5t-167 63.5t-107.5 104.5t-38 144.5q0 115 57.5 188.5t146.5 115.5t199.5 58.5t217.5 16.5q68 0 153.5 -2t174 -7 t171 -11.5t146.5 -12.5q-2 72 -23.5 135.5t-80 109.5t-160 72.5t-262.5 26.5q-94 0 -179.5 -8t-154 -19.5t-117.5 -23.5t-72 -20l-22 106q25 8 78 21.5t127.5 25.5t166 21.5t189.5 9.5q193 0 320.5 -38t201.5 -103.5t96.5 -156.5t8.5 -198l-50 -348q-14 -94 3.5 -137 t89.5 -43q23 0 52.5 6t61.5 18zM305 324q0 -61 32 -108.5t90 -79.5t137 -47t175 -15q104 0 208 21.5t193 58t158.5 87t106.5 107.5l35 244h-658q-80 0 -165 -11.5t-154.5 -40t-113.5 -81.5t-44 -135zM1442 1384q-92 -82 -160 -114.5t-123 -32.5q-43 0 -79 15.5t-67.5 34 t-62 33.5t-63.5 15q-35 0 -90.5 -22.5t-130.5 -87.5l-41 51q88 80 154.5 112.5t119.5 32.5q41 0 75 -15t65.5 -33.5t63.5 -34t68 -15.5q39 0 95.5 22.5t134.5 90.5z" />
<glyph unicode="&#xe4;" horiz-adv-x="1751" d="M1704 0q-92 -31 -160 -31q-59 0 -94 16.5t-50.5 48.5t-16.5 81t10 114q-49 -55 -122 -102t-163 -82t-192.5 -55.5t-208.5 -20.5q-117 0 -214.5 21.5t-167 63.5t-107.5 104.5t-38 144.5q0 115 57.5 188.5t146.5 115.5t199.5 58.5t217.5 16.5q68 0 153.5 -2t174 -7 t171 -11.5t146.5 -12.5q-2 72 -23.5 135.5t-80 109.5t-160 72.5t-262.5 26.5q-94 0 -179.5 -8t-154 -19.5t-117.5 -23.5t-72 -20l-22 106q25 8 78 21.5t127.5 25.5t166 21.5t189.5 9.5q193 0 320.5 -38t201.5 -103.5t96.5 -156.5t8.5 -198l-50 -348q-14 -94 3.5 -137 t89.5 -43q23 0 52.5 6t61.5 18zM305 324q0 -61 32 -108.5t90 -79.5t137 -47t175 -15q104 0 208 21.5t193 58t158.5 87t106.5 107.5l35 244h-658q-80 0 -165 -11.5t-154.5 -40t-113.5 -81.5t-44 -135zM870 1444l-30 -219h-92l30 219h92zM1374 1444l-31 -219h-92l31 219h92z " />
<glyph unicode="&#xe5;" horiz-adv-x="1751" d="M1704 0q-92 -31 -160 -31q-59 0 -94 16.5t-50.5 48.5t-16.5 81t10 114q-49 -55 -122 -102t-163 -82t-192.5 -55.5t-208.5 -20.5q-117 0 -214.5 21.5t-167 63.5t-107.5 104.5t-38 144.5q0 115 57.5 188.5t146.5 115.5t199.5 58.5t217.5 16.5q68 0 153.5 -2t174 -7 t171 -11.5t146.5 -12.5q-2 72 -23.5 135.5t-80 109.5t-160 72.5t-262.5 26.5q-94 0 -179.5 -8t-154 -19.5t-117.5 -23.5t-72 -20l-22 106q25 8 78 21.5t127.5 25.5t166 21.5t189.5 9.5q193 0 320.5 -38t201.5 -103.5t96.5 -156.5t8.5 -198l-50 -348q-14 -94 3.5 -137 t89.5 -43q23 0 52.5 6t61.5 18zM305 324q0 -61 32 -108.5t90 -79.5t137 -47t175 -15q104 0 208 21.5t193 58t158.5 87t106.5 107.5l35 244h-658q-80 0 -165 -11.5t-154.5 -40t-113.5 -81.5t-44 -135zM799 1315q0 92 63.5 157.5t198.5 65.5q111 0 159 -48t48 -120 q0 -92 -63.5 -158.5t-198.5 -66.5q-111 0 -159 49t-48 121zM858 1343q-8 -59 28 -101t128 -42q102 0 148 48t46 114q0 51 -35.5 85t-119.5 34q-92 0 -138.5 -39.5t-56.5 -98.5z" />
<glyph unicode="&#xe6;" horiz-adv-x="2867" d="M680 -31q-111 0 -203 21.5t-157.5 63.5t-102.5 104.5t-37 144.5q0 113 56.5 186.5t142.5 116.5t191.5 59.5t203.5 16.5q76 0 159 -9t165 -26.5t160.5 -42t146.5 -57.5q20 113 5 196.5t-74.5 139t-165 83t-265.5 27.5q-92 0 -175 -8t-149.5 -19.5t-113.5 -23.5t-70 -20 l-22 106q25 8 76 21.5t122.5 25.5t161.5 21.5t189 9.5q152 0 258 -24.5t175.5 -68.5t104.5 -106.5t45 -136.5q39 74 100.5 135.5t145.5 106.5t192.5 69.5t241.5 24.5q174 0 313.5 -41t222.5 -123t99.5 -201.5t-55.5 -279.5h-1245q-4 -184 140 -281.5t468 -97.5 q104 0 200.5 9t173 21.5t132 26t80.5 23.5l10 -107q-29 -10 -86 -24.5t-137 -28.5t-179.5 -23.5t-209.5 -9.5q-336 0 -507 98.5t-198 284.5q-98 -178 -286.5 -280.5t-442.5 -102.5zM305 322q0 -61 31 -107.5t85 -78.5t129 -47t163 -15q131 0 246.5 30.5t206.5 85t151.5 129 t79.5 162.5q-55 29 -142.5 50.5t-180.5 36t-179 21.5t-139 7q-72 0 -151 -11.5t-145.5 -42t-110.5 -83.5t-44 -137zM2662 547q47 117 25.5 202t-93 140t-182 80.5t-239.5 25.5q-152 0 -265.5 -32.5t-192.5 -93t-124 -142.5t-59 -180h1130z" />
<glyph unicode="&#xe7;" horiz-adv-x="1662" d="M614 -479l50 69q47 -6 113.5 -7t130 8.5t109.5 35t54 72.5q6 27 -11.5 49.5t-52 36.5t-81.5 21.5t-99 5.5q-8 2 -15 10t-3 20l86 127q-193 4 -331 43t-227 105.5t-131 157t-42 196.5q0 135 54 251t168 202t292 134t424 48q113 0 206 -9.5t164.5 -23.5t122 -28.5 t74.5 -24.5l-37 -107q-25 8 -73 22.5t-117.5 27t-158.5 21.5t-196 9q-217 0 -368.5 -39t-246.5 -107.5t-139 -161.5t-44 -200q0 -88 36.5 -161.5t117.5 -128t208 -84t310 -29.5q106 0 197 9t165 21.5t125 26t78 23.5l8 -107q-29 -10 -82 -24.5t-127 -27.5t-167 -23.5 t-204 -10.5l-77 -110q55 4 109 -5.5t95 -30t62.5 -53t13.5 -75.5q-10 -51 -46 -85t-86 -53.5t-108.5 -28.5t-116 -12t-106.5 0t-80 5z" />
<glyph unicode="&#xe8;" horiz-adv-x="1675" d="M289 461q-2 -186 150.5 -282.5t473.5 -96.5q106 0 206 9t181.5 21.5t140 26t85.5 23.5l8 -107q-29 -10 -89.5 -24.5t-144 -28.5t-186 -23.5t-213.5 -9.5q-373 0 -556 126t-183 360q0 131 51 249.5t152.5 207.5t252 141.5t351.5 52.5q174 0 318.5 -41t231.5 -122 t107.5 -201.5t-53.5 -280.5h-1284zM299 559h1176q45 117 19 199t-101.5 135t-189 77.5t-245.5 24.5q-154 0 -268.5 -32.5t-194 -91t-128 -138.5t-68.5 -174zM1366 1260l-31 -62l-655 234l47 92z" />
<glyph unicode="&#xe9;" horiz-adv-x="1675" d="M1372 1524l21 -92l-721 -234l-15 62zM289 461q-2 -186 150.5 -282.5t473.5 -96.5q106 0 206 9t181.5 21.5t140 26t85.5 23.5l8 -107q-29 -10 -89.5 -24.5t-144 -28.5t-186 -23.5t-213.5 -9.5q-373 0 -556 126t-183 360q0 131 51 249.5t152.5 207.5t252 141.5t351.5 52.5 q174 0 318.5 -41t231.5 -122t107.5 -201.5t-53.5 -280.5h-1284zM299 559h1176q45 117 19 199t-101.5 135t-189 77.5t-245.5 24.5q-154 0 -268.5 -32.5t-194 -91t-128 -138.5t-68.5 -174z" />
<glyph unicode="&#xea;" horiz-adv-x="1675" d="M1034 1413l-450 -235l-23 61l488 272l409 -272l-37 -61zM289 461q-2 -186 150.5 -282.5t473.5 -96.5q106 0 206 9t181.5 21.5t140 26t85.5 23.5l8 -107q-29 -10 -89.5 -24.5t-144 -28.5t-186 -23.5t-213.5 -9.5q-373 0 -556 126t-183 360q0 131 51 249.5t152.5 207.5 t252 141.5t351.5 52.5q174 0 318.5 -41t231.5 -122t107.5 -201.5t-53.5 -280.5h-1284zM299 559h1176q45 117 19 199t-101.5 135t-189 77.5t-245.5 24.5q-154 0 -268.5 -32.5t-194 -91t-128 -138.5t-68.5 -174z" />
<glyph unicode="&#xeb;" horiz-adv-x="1675" d="M834 1444l-31 -219h-92l30 219h93zM1337 1444l-30 -219h-93l31 219h92zM289 461q-2 -186 150.5 -282.5t473.5 -96.5q106 0 206 9t181.5 21.5t140 26t85.5 23.5l8 -107q-29 -10 -89.5 -24.5t-144 -28.5t-186 -23.5t-213.5 -9.5q-373 0 -556 126t-183 360q0 131 51 249.5 t152.5 207.5t252 141.5t351.5 52.5q174 0 318.5 -41t231.5 -122t107.5 -201.5t-53.5 -280.5h-1284zM299 559h1176q45 117 19 199t-101.5 135t-189 77.5t-245.5 24.5q-154 0 -268.5 -32.5t-194 -91t-128 -138.5t-68.5 -174z" />
<glyph unicode="&#xec;" horiz-adv-x="475" d="M176 0l152 1075l123 17l-154 -1092h-121zM563 1260l-31 -62l-655 234l47 92z" />
<glyph unicode="&#xed;" horiz-adv-x="475" d="M989 1524l19 -92l-721 -234l-15 62zM176 0l152 1075l123 17l-154 -1092h-121z" />
<glyph unicode="&#xee;" horiz-adv-x="475" d="M436 1413l-450 -235l-23 61l488 272l409 -272l-37 -61zM176 0l152 1075l123 17l-154 -1092h-121z" />
<glyph unicode="&#xef;" horiz-adv-x="475" d="M236 1444l-31 -219h-92l30 219h93zM739 1444l-30 -219h-93l31 219h92zM176 0l152 1075l123 17l-154 -1092h-121z" />
<glyph unicode="&#xf0;" horiz-adv-x="1759" d="M1352 1071l141 125q-80 78 -199.5 114t-261.5 38q-131 4 -266 -13l-10 111q66 8 130 11t124 3q184 0 330.5 -44t244.5 -140l203 178l29 -33l-201 -176q63 -74 98 -187.5t35 -256.5q0 -180 -47 -333t-149.5 -263.5t-265.5 -173t-394 -62.5q-166 0 -298 35t-223 100.5 t-139.5 156.5t-48.5 206q0 145 64.5 257t171 187.5t244 114.5t282.5 39q119 0 236.5 -29.5t212 -86t154 -137.5t61.5 -183q39 190 12 321t-98 217l-144 -127zM309 481q0 -90 40 -163.5t116 -126t184.5 -81t245.5 -28.5q182 0 311 44t212 113.5t122 154.5t39 165 q0 102 -58.5 177t-148.5 124t-199.5 73.5t-209.5 24.5q-127 0 -246 -31.5t-209 -92t-144.5 -149.5t-54.5 -204z" />
<glyph unicode="&#xf1;" d="M1454 0l76 545q14 96 -4.5 178t-75.5 142.5t-155.5 94t-245.5 33.5q-88 0 -179.5 -12t-178.5 -30.5t-167 -42t-147 -46.5l-121 -862h-121l152 1075l119 17l-17 -127l2 -2q68 27 147.5 52t168 45.5t181.5 33t187 12.5q172 0 290 -42t186.5 -118t92 -178t7.5 -223l-76 -545 h-121zM1448 1384q-92 -82 -159.5 -114.5t-123.5 -32.5q-43 0 -78.5 15.5t-67.5 34t-62.5 33.5t-63.5 15q-35 0 -90 -22.5t-131 -87.5l-41 51q88 80 154.5 112.5t119.5 32.5q41 0 75 -15t65.5 -33.5t63.5 -34t69 -15.5q39 0 95 22.5t134 90.5z" />
<glyph unicode="&#xf2;" horiz-adv-x="1665" d="M170 539q18 123 80.5 227t167 180t248 118t321.5 42t310.5 -42t215 -118t116.5 -180t16 -227t-81 -227.5t-167.5 -180.5t-247.5 -119t-322 -43q-178 0 -310 43t-215 119t-116.5 180.5t-15.5 227.5zM289 485q0 -88 34.5 -161.5t104.5 -128t174.5 -84t241.5 -29.5 q150 0 269.5 34t205.5 95t137 145t66 183q14 98 -14.5 182t-97.5 144.5t-179.5 94t-259.5 33.5q-164 0 -290 -39t-214 -106.5t-133 -160.5t-45 -202zM1362 1260l-31 -62l-655 234l49 92z" />
<glyph unicode="&#xf3;" horiz-adv-x="1665" d="M1370 1524l19 -92l-721 -234l-15 62zM170 539q18 123 80.5 227t167 180t248 118t321.5 42t310.5 -42t215 -118t116.5 -180t16 -227t-81 -227.5t-167.5 -180.5t-247.5 -119t-322 -43q-178 0 -310 43t-215 119t-116.5 180.5t-15.5 227.5zM289 485q0 -88 34.5 -161.5 t104.5 -128t174.5 -84t241.5 -29.5q150 0 269.5 34t205.5 95t137 145t66 183q14 98 -14.5 182t-97.5 144.5t-179.5 94t-259.5 33.5q-164 0 -290 -39t-214 -106.5t-133 -160.5t-45 -202z" />
<glyph unicode="&#xf4;" horiz-adv-x="1665" d="M1028 1413l-450 -235l-23 61l487 272l410 -272l-37 -61zM170 539q18 123 80.5 227t167 180t248 118t321.5 42t310.5 -42t215 -118t116.5 -180t16 -227t-81 -227.5t-167.5 -180.5t-247.5 -119t-322 -43q-178 0 -310 43t-215 119t-116.5 180.5t-15.5 227.5zM289 485 q0 -88 34.5 -161.5t104.5 -128t174.5 -84t241.5 -29.5q150 0 269.5 34t205.5 95t137 145t66 183q14 98 -14.5 182t-97.5 144.5t-179.5 94t-259.5 33.5q-164 0 -290 -39t-214 -106.5t-133 -160.5t-45 -202z" />
<glyph unicode="&#xf5;" horiz-adv-x="1665" d="M170 539q18 123 80.5 227t167 180t248 118t321.5 42t310.5 -42t215 -118t116.5 -180t16 -227t-81 -227.5t-167.5 -180.5t-247.5 -119t-322 -43q-178 0 -310 43t-215 119t-116.5 180.5t-15.5 227.5zM289 485q0 -88 34.5 -161.5t104.5 -128t174.5 -84t241.5 -29.5 q150 0 269.5 34t205.5 95t137 145t66 183q14 98 -14.5 182t-97.5 144.5t-179.5 94t-259.5 33.5q-164 0 -290 -39t-214 -106.5t-133 -160.5t-45 -202zM1425 1384q-92 -82 -159.5 -114.5t-122.5 -32.5q-43 0 -79 15.5t-67.5 34t-62.5 33.5t-64 15q-35 0 -90 -22.5t-131 -87.5 l-41 51q88 80 154.5 112.5t120.5 32.5q41 0 74.5 -15t65.5 -33.5t63.5 -34t68.5 -15.5q39 0 95.5 22.5t133.5 90.5z" />
<glyph unicode="&#xf6;" horiz-adv-x="1665" d="M827 1444l-30 -219h-92l30 219h92zM1331 1444l-31 -219h-92l31 219h92zM170 539q18 123 80.5 227t167 180t248 118t321.5 42t310.5 -42t215 -118t116.5 -180t16 -227t-81 -227.5t-167.5 -180.5t-247.5 -119t-322 -43q-178 0 -310 43t-215 119t-116.5 180.5t-15.5 227.5z M289 485q0 -88 34.5 -161.5t104.5 -128t174.5 -84t241.5 -29.5q150 0 269.5 34t205.5 95t137 145t66 183q14 98 -14.5 182t-97.5 144.5t-179.5 94t-259.5 33.5q-164 0 -290 -39t-214 -106.5t-133 -160.5t-45 -202z" />
<glyph unicode="&#xf7;" horiz-adv-x="1449" d="M885 834h-84l30 210h84zM1313 580l-13 -86h-1013l12 86h1014zM772 31h-84l31 211h84z" />
<glyph unicode="&#xf8;" horiz-adv-x="1665" d="M301 -43l-43 51l94 82q-92 66 -140 165t-48 216q0 135 55 252t160.5 202t259.5 133t348 48q133 0 238.5 -23.5t185.5 -66.5l121 106l45 -49l-111 -94q92 -66 138.5 -163t46.5 -212q0 -135 -55.5 -250.5t-162 -201.5t-259 -134.5t-347.5 -48.5q-129 0 -232 22.5t-181 63.5 zM289 485q0 -96 40 -176t122 -133l854 750q-63 33 -146.5 50t-187.5 17q-164 0 -291 -39t-214 -106.5t-132 -160.5t-45 -202zM1526 590q0 92 -39 172t-117 131l-852 -746q125 -66 326 -65q162 0 289 39t215 106.5t133 160.5t45 202z" />
<glyph unicode="&#xf9;" d="M209 530l76 545h121l-76 -545q-14 -96 5 -179t76.5 -142t155 -93t240.5 -34q100 0 195.5 19.5t183.5 52t167 77.5t146 97l107 747h120l-151 -1075h-107l25 215l-2 2q-66 -47 -144.5 -91t-171 -79t-195.5 -56.5t-218 -21.5q-164 0 -276.5 42t-180 118t-90 178t-6.5 223z M1384 1260l-30 -62l-656 234l50 92z" />
<glyph unicode="&#xfa;" d="M1393 1524l18 -92l-721 -234l-14 62zM209 530l76 545h121l-76 -545q-14 -96 5 -179t76.5 -142t155 -93t240.5 -34q100 0 195.5 19.5t183.5 52t167 77.5t146 97l107 747h120l-151 -1075h-107l25 215l-2 2q-66 -47 -144.5 -91t-171 -79t-195.5 -56.5t-218 -21.5 q-164 0 -276.5 42t-180 118t-90 178t-6.5 223z" />
<glyph unicode="&#xfb;" d="M1053 1413l-451 -235l-22 61l487 272l410 -272l-37 -61zM209 530l76 545h121l-76 -545q-14 -96 5 -179t76.5 -142t155 -93t240.5 -34q100 0 195.5 19.5t183.5 52t167 77.5t146 97l107 747h120l-151 -1075h-107l25 215l-2 2q-66 -47 -144.5 -91t-171 -79t-195.5 -56.5 t-218 -21.5q-164 0 -276.5 42t-180 118t-90 178t-6.5 223z" />
<glyph unicode="&#xfc;" d="M850 1444l-31 -219h-92l31 219h92zM1354 1444l-31 -219h-92l31 219h92zM209 530l76 545h121l-76 -545q-14 -96 5 -179t76.5 -142t155 -93t240.5 -34q100 0 195.5 19.5t183.5 52t167 77.5t146 97l107 747h120l-151 -1075h-107l25 215l-2 2q-66 -47 -144.5 -91t-171 -79 t-195.5 -56.5t-218 -21.5q-164 0 -276.5 42t-180 118t-90 178t-6.5 223z" />
<glyph unicode="&#xfd;" horiz-adv-x="1660" d="M205 1075h143l285 -563l215 -418l768 981h139l-903 -1155q-72 -92 -139.5 -152.5t-133 -96.5t-131 -50t-133.5 -14q-61 0 -124.5 8t-135.5 25l15 96q59 -12 121.5 -22.5t121.5 -10.5q119 0 222.5 56.5t205.5 183.5l35 43zM1366 1524l20 -92l-720 -234l-15 62z" />
<glyph unicode="&#xfe;" horiz-adv-x="1732" d="M285 229l-35 -262l-49 -356h-121l258 1837l123 16l-51 -370l-21 -131l2 -2q72 33 158 59.5t178 45.5t185.5 29.5t179.5 10.5q176 0 301 -43t201.5 -118t105.5 -178t12 -224q-18 -125 -77.5 -230.5t-156 -181.5t-227.5 -119t-293 -43q-117 0 -217 21.5t-184 57.5 t-151.5 83t-116.5 100zM1065 993q-84 0 -175 -10t-182.5 -28.5t-176.5 -43t-154 -51.5l-74 -514q43 -53 109.5 -100t152.5 -84t186.5 -58.5t211.5 -21.5q150 0 267.5 40t198 108.5t122.5 162.5t42 205q0 86 -31.5 157.5t-96 125t-165 83t-235.5 29.5z" />
<glyph unicode="&#xff;" horiz-adv-x="1660" d="M205 1075h143l285 -563l215 -418l768 981h139l-903 -1155q-72 -92 -139.5 -152.5t-133 -96.5t-131 -50t-133.5 -14q-61 0 -124.5 8t-135.5 25l15 96q59 -12 121.5 -22.5t121.5 -10.5q119 0 222.5 56.5t205.5 183.5l35 43zM825 1444l-30 -219h-93l31 219h92zM1329 1444 l-31 -219h-92l31 219h92z" />
<glyph unicode="&#x152;" horiz-adv-x="3393" d="M1808 0l29 215q-133 -113 -324.5 -179.5t-439.5 -66.5q-217 0 -380 50.5t-270.5 138.5t-161.5 208.5t-54 262.5q0 174 70.5 326.5t207 265t337 178t460.5 65.5q250 0 423 -66.5t273 -180.5l31 217h1555l-17 -113h-1433l-74 -526h1311l-17 -115h-1311l-79 -565h1474 l-14 -115h-1596zM1087 84q272 0 465 77t308 210l96 690q-76 133 -248 212t-442 79q-229 0 -403.5 -55.5t-292 -150.5t-178 -225t-60.5 -280q0 -121 46 -223.5t140 -176t236.5 -115.5t332.5 -42z" />
<glyph unicode="&#x153;" horiz-adv-x="2947" d="M164 467q0 135 52 252t153.5 203t251 135t346.5 49q276 0 425.5 -101.5t178.5 -267.5q37 80 96 147.5t144 117t197 77t251 27.5q174 0 315.5 -41t225.5 -122t100 -201.5t-55 -280.5h-1243q-4 -186 139 -282.5t463 -96.5q106 0 202.5 9t174 21.5t133 26t79.5 23.5l11 -107 q-29 -10 -86.5 -24.5t-137 -28.5t-179 -23.5t-210.5 -9.5q-319 0 -485 93.5t-195 269.5q-78 -164 -254 -263.5t-450 -99.5q-162 0 -283 37t-200.5 103.5t-119.5 157.5t-40 200zM1485 596q0 86 -33 159.5t-98.5 126t-167 82t-236.5 29.5q-166 0 -289.5 -39t-206.5 -107.5 t-124 -162.5t-41 -203q0 -86 31.5 -159.5t98 -127t167 -83t237.5 -29.5q164 0 288 39t207 108.5t125 163.5t42 203zM2740 547q47 117 25.5 202t-93 140t-182 80.5t-241.5 25.5q-147 0 -260 -32.5t-193 -93t-126 -142.5t-60 -180h1130z" />
<glyph unicode="&#x178;" horiz-adv-x="2037" d="M2224 1434l-1083 -990l-62 -444h-121l62 444l-807 990h156l290 -359l435 -530l583 530l394 359h153zM1063 1802l-31 -219h-92l31 219h92zM1567 1802l-31 -219h-92l31 219h92z" />
<glyph unicode="&#x2c6;" horiz-adv-x="1730" d="M971 1413l-451 -235l-22 61l487 272l410 -272l-37 -61z" />
<glyph unicode="&#x2dc;" horiz-adv-x="1730" d="M1393 1384q-92 -82 -160 -114.5t-123 -32.5q-43 0 -79 15.5t-67.5 34t-62.5 33.5t-63 15q-35 0 -89.5 -22.5t-132.5 -87.5l-41 51q88 80 155 112.5t120 32.5q41 0 74.5 -15t65.5 -33.5t63.5 -34t68.5 -15.5q39 0 95.5 22.5t134.5 90.5z" />
<glyph unicode="&#x2000;" horiz-adv-x="941" />
<glyph unicode="&#x2001;" horiz-adv-x="1882" />
<glyph unicode="&#x2002;" horiz-adv-x="941" />
<glyph unicode="&#x2003;" horiz-adv-x="1882" />
<glyph unicode="&#x2004;" horiz-adv-x="627" />
<glyph unicode="&#x2005;" horiz-adv-x="470" />
<glyph unicode="&#x2006;" horiz-adv-x="313" />
<glyph unicode="&#x2007;" horiz-adv-x="313" />
<glyph unicode="&#x2008;" horiz-adv-x="235" />
<glyph unicode="&#x2009;" horiz-adv-x="376" />
<glyph unicode="&#x200a;" horiz-adv-x="104" />
<glyph unicode="&#x2010;" horiz-adv-x="1449" d="M340 729h973l-15 -98h-972z" />
<glyph unicode="&#x2011;" horiz-adv-x="1449" d="M340 729h973l-15 -98h-972z" />
<glyph unicode="&#x2012;" horiz-adv-x="1449" d="M340 729h973l-15 -98h-972z" />
<glyph unicode="&#x2013;" horiz-adv-x="1613" d="M340 590l14 96h1096l-14 -96h-1096z" />
<glyph unicode="&#x2014;" horiz-adv-x="2351" d="M354 686h1833l-14 -96h-1833z" />
<glyph unicode="&#x2018;" horiz-adv-x="497" d="M354 922q-8 49 -6 109.5t14.5 128t35 138t53.5 136.5h73q-18 -61 -32.5 -130t-21.5 -136.5t-8 -131t9 -114.5h-117z" />
<glyph unicode="&#x2019;" horiz-adv-x="497" d="M473 1434q8 -49 6 -109.5t-14 -128.5t-34.5 -138.5t-53.5 -135.5h-74q18 61 32.5 128.5t23 135t8.5 131t-11 117.5h117z" />
<glyph unicode="&#x201a;" horiz-adv-x="497" d="M313 295q16 -98 -8 -237.5t-88 -274.5h-74q18 61 32.5 129t23 135.5t8.5 131t-10 116.5h116z" />
<glyph unicode="&#x201c;" horiz-adv-x="903" d="M760 922q-8 49 -6 109.5t14 128t34.5 138t53.5 136.5h74q-18 -61 -32.5 -130t-22 -136.5t-8.5 -131t10 -114.5h-117zM354 922q-8 49 -6 109.5t14.5 128t35 138t53.5 136.5h73q-18 -61 -32.5 -130t-21.5 -136.5t-8 -131t9 -114.5h-117z" />
<glyph unicode="&#x201d;" horiz-adv-x="903" d="M473 1434q8 -49 6 -109.5t-14 -128.5t-34.5 -138.5t-53.5 -135.5h-74q18 61 32.5 128.5t23 135t8.5 131t-11 117.5h117zM879 1434q8 -49 6 -109.5t-14.5 -128.5t-35 -138.5t-53.5 -135.5h-71q18 61 32.5 128.5t21.5 135t7 131t-10 117.5h117z" />
<glyph unicode="&#x201e;" horiz-adv-x="903" d="M313 295q16 -98 -8 -237.5t-88 -274.5h-74q18 61 32.5 129t23 135.5t8.5 131t-10 116.5h116zM719 295q16 -98 -8.5 -237.5t-87.5 -274.5h-72q18 61 32.5 129t21.5 135.5t7 131t-10 116.5h117z" />
<glyph unicode="&#x2022;" horiz-adv-x="659" d="M217 731q10 78 68.5 128t173.5 50q113 0 155.5 -50t32.5 -128q-10 -80 -68.5 -133t-170.5 -53q-115 0 -158 53t-33 133z" />
<glyph unicode="&#x2026;" horiz-adv-x="1421" d="M369 297l-41 -297h-111l41 297h111zM807 297l-41 -297h-111l41 297h111zM1245 297l-41 -297h-110l41 297h110z" />
<glyph unicode="&#x202f;" horiz-adv-x="376" />
<glyph unicode="&#x2039;" horiz-adv-x="980" d="M924 1106l47 -66l-604 -450l477 -449l-64 -65l-542 514z" />
<glyph unicode="&#x203a;" horiz-adv-x="980" d="M909 590l-686 -514l-47 65l604 449l-477 450l64 66z" />
<glyph unicode="&#x205f;" horiz-adv-x="470" />
<glyph unicode="&#x20ac;" horiz-adv-x="1812" d="M172 846l10 69h164q51 150 141.5 254.5t207 170t256 95t286.5 29.5q162 0 327 -30.5t322 -83.5l-45 -111q-143 49 -301 81t-313 32q-123 0 -239 -23.5t-214 -75t-175 -135.5t-122 -203h1082l-11 -69h-1102q-16 -70 -24 -132.5t-10 -125.5h1101l-10 -70h-1081 q12 -121 65.5 -203t136.5 -134t192.5 -74.5t232.5 -22.5q154 0 320.5 30.5t326.5 80.5l12 -111q-174 -53 -347 -84t-335 -31q-147 0 -277.5 30t-228.5 95.5t-159.5 170t-69.5 253.5h-164l10 70h152q0 66 10 139.5t25 118.5h-152z" />
<glyph unicode="&#x2122;" horiz-adv-x="2281" d="M1686 782l-377 547l-15 -119l-77 -565h-72l110 789h72l393 -580l557 580h72l-111 -789h-73l78 565l20 121l-528 -549h-49zM778 1366l-100 -721h-72l101 721h-400l10 68h871l-10 -68h-400z" />
<glyph unicode="&#x25fc;" horiz-adv-x="1075" d="M0 1075h1075v-1075h-1075v1075z" />
</font>
</defs>
</svg>
